<?xml version="1.0" encoding="utf-8" ?>
<svg baseProfile="full" height="300mm" version="1.1" viewBox="0,0,200,300" width="200mm" xmlns="http://www.w3.org/2000/svg" xmlns:ev="http://www.w3.org/2001/xml-events" xmlns:xlink="http://www.w3.org/1999/xlink"><defs /><rect fill="#222222" height="300" width="200" x="0" y="0" /><text fill="#FFFFFF" style="font-size:12px; font-family:Arial; font-weight:bold;" x="10" y="20">Over 10km Runs</text><text fill="#FFFFFF" style="font-size:4px; font-family:Arial" x="10" y="280">Runner</text><text fill="#FFFFFF" style="font-size:9px; font-family:Arial" x="10" y="290">Zakiyys</text><text fill="#FFFFFF" style="font-size:4px; font-family:Arial" x="65" y="280">SPECIAL TRACKS</text><rect fill="yellow" height="2.6" width="2.6" x="65" y="283" /><text fill="#FFFFFF" style="font-size:3px; font-family:Arial" x="70" y="285.5">Over 20.0 km</text><rect fill="red" height="2.6" width="2.6" x="65" y="287" /><text fill="#FFFFFF" style="font-size:3px; font-family:Arial" x="70" y="289.5">Over 40.0 km</text><text fill="#FFFFFF" style="font-size:4px; font-family:Arial" x="120" y="280">STATISTICS</text><text fill="#FFFFFF" style="font-size:3px; font-family:Arial" x="120" y="285">Number: 7</text><text fill="#FFFFFF" style="font-size:3px; font-family:Arial" x="120" y="290">Weekly: 1.0</text><text fill="#FFFFFF" style="font-size:3px; font-family:Arial" x="141" y="285">Total: 527.2 km</text><text fill="#FFFFFF" style="font-size:3px; font-family:Arial" x="141" y="290">Avg: 75.3 km</text><text fill="#FFFFFF" style="font-size:3px; font-family:Arial" x="167" y="285">Min: 10.0 km</text><text fill="#FFFFFF" style="font-size:3px; font-family:Arial" x="167" y="290">Max: 438.7 km</text><polyline fill="none" points="47.216594725934556,33.71592393424362 47.184960338054225,33.73183336883085 47.12960015932913,33.63637677038787 46.568089775159024,33.10341115981282 46.489003805589164,33.0 46.36246625424246,33.0 46.2833802846435,33.05568292904354 46.23592870286666,33.15909410250606 46.19638571809628,35.30687036518066 46.133116942393826,36.301214935447206 46.11729974849732,39.125166316880495 46.19638571809628,39.45926886012603 46.37828344816808,39.65813954749319 46.568089775159024,39.809281332738465 46.70253592348308,39.85701032882207 47.37476666510338,39.83314583009633 47.762287916091736,39.86496516202169 48.213077942840755,39.817236165035865 49.75525435002055,39.78541683671938 50.70428598520812,39.70586852643464 52.183193616656354,39.66609437693842 52.50744609202957,39.5945009173156 52.57071486770292,39.54677195099066 52.60234925558325,39.371765787451295 52.58653206162853,39.16494041525584 52.50744609202957,38.99788922730659 52.167376422759844,38.56832933408441 51.93011851396295,38.36945916157856 51.87475833523786,38.25013710316853 51.70076920214342,38.09104107787425 51.6137746355671,38.059221880015684 51.25788777240086,37.70125607000955 51.21043619062402,37.58988899117685 51.28161356324563,37.54216025212372 51.67704341126955,37.80466838386201 52.23855379541055,38.41718799440423 52.270188183232676,38.40127838285116 52.467903107230086,38.58423895193846 52.58653206162853,38.74333516359911 52.76052119478118,38.854702547512716 53.09268226707354,38.854702547512716 53.171768236672506,38.894476620364 53.448569130239775,39.73768784875574 53.393208951543784,39.80132650058658 52.800064179551555,39.76950717346335 51.558414456842,39.85701032882207 51.186710399750154,39.84905549575342 50.51447965815896,39.90473933031899 50.142775601067115,39.920648998682736 49.24910414457554,39.89678449634812 48.78249692393001,39.94451350237068 48.44242725466029,39.936558667657664 47.56457299212343,40.03997153061209 47.28777209852706,40.02406185773725 46.9714282201312,40.04792636728962 46.43364362686407,40.04792636728962 46.27547168766614,40.11951990405214 46.17265992719331,40.23884249237017 46.18847712111892,41.185469558637124 46.23592870286666,41.75026487301511 46.21220291199279,42.25937679207709 46.22802010594751,42.58552693903039 46.26756309074699,42.72871488828969 46.26756309074699,43.540114188188454 46.35455765729421,43.786716246351716 46.38619204511633,44.041273361304775 46.35455765729421,44.33560521755135 46.35455765729421,45.03563856823894 46.29919747856911,45.27428656780103 46.330831866391236,45.489069883245975 46.29919747856911,45.93454673918313 46.22802010594751,46.41184389439877 46.25174589679227,46.76186215269263 46.22011150897015,47.28689008667425 46.23592870286666,48.106253173042205 46.19638571809628,48.21762303629657 46.23592870286666,48.416497865502606 46.23592870286666,48.58355279474927 46.26756309074699,48.63128278676595 46.31501467246562,48.623327787718154 46.24383729984402,48.7267427869956 46.21220291199279,49.06880796603218 46.24383729984402,49.27563820939395 46.21220291199279,49.538153664936544 46.25965449374053,50.49275670446514 46.33874046333949,50.80300315946806 46.62344995391322,51.24848564955755 46.64717574478709,51.479182124792715 46.71044452046044,51.63828321605979 47.256137710704934,52.362193942506565 47.36685806812602,52.433789576694835 47.39849245597725,52.513340295656235 47.37476666510338,52.576980881683994 47.31149788943003,52.5610707342712 47.28777209852706,52.47356493429106 47.12960015932913,52.3065084576956 47.01097120495979,52.203092576921335 46.89234225053224,52.00421595474472 46.670901535690064,51.741698957717745 46.54436398431426,51.74965401580266 46.4099178359902,51.83715966492309 46.32292326941388,51.95648557944514 46.29128888162086,52.250822980262456 46.30710607551737,52.78381285289652 46.35455765729421,52.76790269766934 46.330831866391236,52.75994762025948 46.35455765729421,52.72017223552393 46.37828344816808,52.73608238896122 46.36246625424246,52.76790269766934 46.394100642064586,52.74403746590542 46.37828344816808,52.71221715901629 46.34664906031685,52.73608238896122 46.4099178359902,52.69630700649577 46.36246625424246,52.70426208268327 46.330831866391236,55.24989420820202 46.29128888162086,55.520368529105326 46.30710607551737,55.894259789187345 46.25965449374053,56.49885061697569 46.17265992719331,56.968204623583006 45.895859033596935,58.01033149911382 45.785138676146744,58.57514943747083 45.64278393090353,59.55363865265099 45.64278393090353,59.74456364384969 45.58742375217844,59.903667869613855 45.611149543052306,60.14232432145218 45.5399721704016,60.579861502803396 45.45297760385438,60.94580204159138 45.373891634255415,61.92429679093766 45.08127354673343,62.815285867400235 44.72538668353809,63.57899229829491 44.62257492309436,63.73809797997819 44.36949982037186,64.3824766089092 44.14805910550058,64.80410760639643 44.00570436019916,64.99503499017737 43.83171522710472,65.43257723969873 43.29393063383759,66.22810977384506 42.6216998922464,66.99182242885581 42.61379129526904,67.07933125954878 42.597974101343425,67.06342056168069 42.44771075909375,67.14297405698744 42.336990401672665,67.27821503370069 42.37653338644304,67.27025968091039 42.10764108982403,67.42141140962485 41.989012135454686,67.54869711822539 41.73593703273218,67.71575966950331 41.47495333303232,67.94646520710376 41.1348836637917,68.16921550199913 40.771088203619,68.52720729581779 40.56546468270244,68.61471644755511 40.40729274350451,68.76586866182333 40.177943431655876,68.91702093071945 39.94859411980724,69.1159055782191 39.81414797148318,69.3068349287496 39.65597603228525,69.44207660476968 39.307997766067274,69.68073849262146 38.93629370894632,69.99099915039551 38.778121769748395,70.07850860829058 38.53295526400325,70.31717085924174 37.71046118013328,70.92973792660632 37.63928380754078,71.03315842908341 36.895875693298876,71.5900384974666 36.397634084831225,72.03554308609455 36.049655818613246,72.24238466356474 35.89939247636357,72.35376093999366 35.369516480044695,72.79131088453869 34.55493099318119,73.41183704562718 33.91433463944122,73.7936997564102 33.5742649701715,74.05623057243065 32.64105052888044,74.62902565246623 31.842282235971652,75.24955454171868 31.692018893692875,75.42457567708334 31.193777285225224,75.71892957003729 30.87743340682937,76.01328367035603 30.323831619665725,76.39514875817986 30.284288634895347,76.45879297339707 28.987278733431594,77.42141291119333 28.85283258513664,77.54074611584656 28.599757482414134,77.77145707492309 28.5523059006955,77.85896816168679 28.599757482414134,77.82714594618301 28.473219931067433,77.86692371593381 27.88798375602346,78.35221281186386 27.706086025951663,78.72612446710991 27.36601635668194,79.0761697244161 27.112941253988538,79.48985995224211 26.8835919421399,80.12630725698546 26.757054390764097,80.86617846833542 26.757054390764097,81.01733511372004 26.780780181637965,81.11280249687843 26.828231763414806,81.12871372951486 26.749145793815842,81.29578170899185 26.77287158468971,81.71742976403038 26.725420002941974,82.96646518199123 26.749145793815842,83.2687800489366 26.725420002941974,83.42789322481258 26.757054390764097,83.55518380920694 26.73332859989023,83.73816409229767 26.764962987741455,85.01902832133055 26.741237196867587,85.40885734568292 26.741237196867587,85.65548405949085 26.851957554288674,86.14873792469734 26.68587701814249,86.77723966285703 26.71751140599372,86.79315111156029 26.725420002941974,87.0 26.68587701814249,86.78519538712862 26.58306525766966,86.58630232575524 26.55143086978933,86.33171934564598 26.614699645491783,86.02144654878066 26.741237196867587,85.72708539082669 26.701694212068105,85.6952625753911 26.71751140599372,84.70875650113157 26.670059824216878,84.51782011112664 26.71751140599372,84.22346001442929 26.677968421194237,84.03252384654479 26.693785615090746,83.85749910277082 26.670059824216878,83.38811492516834 26.64633403334301,83.29264702145883 26.638425436394755,83.16535651718732 26.638425436394755,80.88208969160041 26.764962987741455,80.08652927202638 26.867774748185184,79.7762611193175 26.844048957311315,79.73648316769686 26.867774748185184,79.73648316769686 27.120849850936793,79.15572550561046 27.247387402312597,78.94888050598092 27.42137653543614,78.5351908140874 27.524188295879867,78.44767958561715 27.832623577327468,78.31243499589618 28.141058858775068,77.97034593499848 28.560214497614652,77.61234605502978 28.78165521248593,77.46914618894516 29.05054750913405,77.21456877050514 29.40643437235849,76.98385811901244 29.422251566255,76.94408043338626 29.714869653747883,76.72132546373177 30.07866511392058,76.49061508466548 30.315923022688366,76.25990483298665 31.44685238794773,75.44048669301264 32.03999715996906,74.93928998192132 32.47496999273426,74.65289213118376 32.89412563163205,74.31876155333885 33.68498532762169,73.8414326197817 34.67355994757963,73.22090582102828 35.59095719491597,72.48900360122207 35.81239790984546,72.21851832249376 36.152467579056975,71.86847880973073 36.27900513043278,71.65368198107171 36.55580602402915,70.82631744969694 36.61116620275425,70.53992241629749 36.73770375410095,70.2773938079481 36.785155335848685,69.95917753389222 36.71397796322708,69.6727830941818 36.46090286053368,69.21932563227892 36.11292459425749,68.73404713849595 35.79658071586164,68.2169477235002 35.58304859796772,68.01806350325933 35.3141563013196,67.68393822600774 34.86336627465789,66.87249223465915 34.6972857384535,66.70543001995247 34.602382574928924,66.49859117982851 34.35721606918378,66.1724224472564 34.28603869653307,66.10082446680462 34.23858711478533,66.08491380614578 34.15159254823811,65.95762854263012 33.67707673064433,65.50417510587431 33.558447776245885,65.40075596976385 33.34491565832286,65.297336859192 32.56987315622973,64.01653306838125 31.99254557819222,63.33237861111411 31.913459608593257,63.18918363357079 31.7790134602983,63.053943977487506 31.605024327145657,62.75959899461304 30.782530243333895,61.83678903739201 30.371283201442566,61.30378766046488 30.031213532143738,60.93784680910176 29.86513299596845,60.794652649899945 29.37479998447816,60.19005562814709 28.84492398815928,59.31498253594327 28.02242990434752,57.66030386277998 27.634908653300954,56.777280896523735 27.642817250278313,56.72159482580901 27.72981181682553,56.67386391398031 27.840532174275722,56.70568452127918 27.990795516525395,56.936383996362565 28.180601843545446,57.373917832170264 28.473219931067433,57.898959037673194 28.639300467213616,58.31262832923676 29.058456106082303,59.06837135805108 29.169176463532494,59.33089293948433 29.517154729779577,59.80820532690268 29.580423505452927,59.92753350868588 30.165659680467797,60.492354030007846 30.284288634895347,60.691234676443855 30.395008992316434,60.802607879653806 31.43103519405122,62.170909649241366 32.01627136909519,62.80733059940394 32.12699172651628,62.974391259020194 32.34843244138756,63.2448705634597 32.664776319783414,63.59490286374057 32.99693739207578,64.08017540028959 33.06020616780734,64.24723656756396 33.1392921373772,64.34270012161869 33.28955547962687,64.62909091438632 33.45563601577305,64.8279735246033 33.72452831239207,65.09845402608335 34.11204956343863,65.36893470225914 34.21486132388236,65.39280065265484 34.29394729351043,65.37689001891704 34.34930747220642,65.25756028502656 34.278130099584814,65.1302752730262 34.19904412998585,65.09049871470779 34.11204956343863,65.0745880924369 33.98551201206283,65.09049871470779 33.3370070613455,65.28142622907762 33.147200734354556,65.36097938576131 32.86249124375172,65.40075596976385 32.324706650484586,65.55190702344407 31.56548134237528,65.68714748616912 29.675326668977505,66.15651178386179 28.75792942161206,66.40312713422463 28.038247098244028,66.58609990739205 27.342290565778967,66.72134070418542 26.68587701814249,66.89635827078018 26.709602808987256,66.92022430825455 26.851957554288674,66.92022430825455 27.002220896509243,66.87249223465915 27.192027223587502,66.85658154467819 27.413467938429676,66.7690727605368 27.895892352971714,66.6497426298447 28.061972889147,66.6338319483475 28.212236231425777,66.56223388896615 28.291322200966533,66.57018922829593 28.536488706740784,66.48268050403567 28.89237556993612,66.4429038172384 29.184993657458108,66.33948444927228 29.643692281126278,66.25993110667332 29.809772817301564,66.19628844344697 29.99167054737336,66.24402043994633 30.01539633824723,66.57018922829593 29.983761950396,67.65211678495689 30.01539633824723,67.86691155907465 29.99957914429251,68.66244871984236 30.02330493516638,68.87724401253217 29.778138429421233,68.94088708340132 29.580423505452927,69.02839632166433 29.28780541793094,69.2750133642694 29.232445239205845,69.38638885052933 29.26407962705707,69.41025503001583 29.517154729779577,69.25114719250996 29.540880520653445,69.25910258294607 29.49342893890571,69.32274571190646 29.604149296326796,69.3625226724107 29.643692281126278,69.45798739306338 29.770229832472978,69.53754134358314 29.699052459851373,69.83189109203522 29.730686847673496,70.66720907359559 29.801864220324205,70.77062951117114 29.92049317472265,70.83427287006634 30.110299501742702,70.84222829062492 30.221019859192893,70.78654034998908" stroke="#fff800" stroke-linecap="round" stroke-linejoin="round" stroke-width="0.5"><title>2026-06-14 21.1km</title><desc>18910854619</desc></polyline><polyline fill="none" points="133.37192851828877,48.0350548907154 133.30156366352458,48.55788996402407 133.31161578558385,49.10083418835711 133.38198064040625,49.17121585526911 133.63328369322699,49.12094323585916 134.15599404321983,48.879634676050046 134.28667163068894,48.77908944932278 134.4575577066862,48.52772639927571 135.1411020104424,48.16576364931825 135.39240506332135,47.91440065772622 135.86485480266856,47.74347383713757 136.16641846619314,47.46194733325683 136.3875651526614,47.33123860952037 136.83991064783186,47.12009376176866 137.1515264334157,47.05976666552306 137.54355919588124,46.68774960239534 137.69434102764353,46.57714994510752 138.28741623234237,46.24535100099456 138.87043931498192,46.074424288468435 139.21221146691823,45.68229834274098 139.31273268803488,45.63202578981873 139.3730454207398,45.65213481086539 139.63440059567802,46.134751362216775 139.70476545050042,46.345896131169866 140.21742367831757,47.29102054197574 140.45867460913723,47.83396450550936 140.62956068507629,47.8138554678153 140.74013402831042,47.94456421546056 141.22263588977512,48.93996181394323 141.303052866715,49.15110680737416 141.56440804176964,49.58345137057768 141.95644080423517,50.407922594749834 142.15748324646847,51.061467041276046 142.11727475799853,51.41337565664435 142.11727475799853,51.815556988993194 142.19769173493842,52.207683847271255 142.8410275502829,53.06231951028167 143.08227848104434,53.48461017580121 143.13253909163177,53.72591915799421 143.14259121369105,54.14820993025205 143.0521221147501,54.61071894923225 142.9817572599277,54.7313734893396 142.9817572599277,55.435191750511876 143.08227848104434,55.857482797888224 143.5245718540973,57.12435634834401 143.60498883097898,57.486320332449395 143.58488458680222,57.687411456368864 143.56478034256725,57.7376842397498 143.48436336562736,57.70752056960191 143.39389426657,57.74773879653367 143.3838421445107,58.099648308663745 143.30342516757082,58.65264906620723 143.2531645569834,58.74314011039678 143.0521221147501,58.893958524320624 142.9013402829878,58.94423133091186 142.79076693975367,59.10510431844159 142.38868205517065,59.416795759956585 142.147431124351,59.68826898126281 142.04690990329254,59.909469404650736 141.87602382729528,60.14072441274766 141.81571109459037,60.392088575215894 141.54430379747646,61.00541723315837 141.3231571110082,61.296999760423205 141.1020104244235,61.47798203511047 140.99143708118936,61.68912803810963 140.65971705142874,62.55382137153356 140.62956068507629,62.87556780135492 140.62956068507629,63.60955199300952 140.57930007448886,63.74026152829174 140.64966492931126,64.53457346060895 140.80044676101534,64.96692056361644 140.88086373789702,65.3188310492842 140.9713328369544,65.43948608390929 141.1623231571284,66.0125975747942 141.27289650042076,66.0125975747942 141.35331347736064,66.13325264160812 141.76545048400294,67.2895306491555 141.8659717051778,67.68165982942446 141.75539836194366,68.55640975265123 141.94638868205948,69.43115997072891 141.95644080423517,69.67247042765666 142.05696202535182,70.04449075937737 142.04690990329254,71.22087972736335 142.0067014147644,71.44208113143395 142.02680565899936,71.84426555089885 142.0167535369401,73.10109226456552 141.98659717052942,73.51333155966131 142.0067014147644,73.794860872149 142.09717051382177,73.86524320504395 143.15264333586674,73.8350793478603 143.47431124350987,73.74458777839027 144.33879374538083,73.55355003100703 144.4996276992024,73.55355003100703 144.640357408789,73.49322232425038 146.47989575582324,73.0910376484535 146.82166790770134,72.96032764228585 147.59568131051492,72.80950841261074 147.85703648551134,72.71901687902573 147.96760982874548,72.72907149371167 148.26917349221185,72.60841612005606 149.29448994790437,72.41737845662283 149.6161578556057,72.29672309749003 150.028294862248,72.18612235657929 150.0383469843655,72.15595851898252 150.2393894267152,72.17606774400338 151.16418466117466,71.98503011248249 152.42069992556935,71.66328255442204 152.68205510056578,71.56273645070905 152.943410275504,71.53257262035913 153.43596425914438,71.32142581779044 155.13477289647562,69.89367169955221 156.00930752046406,69.1295219311869 156.08972449740395,69.018921325478 156.29076693969546,68.84799312590621 156.471705137752,68.7373925321881 156.73306031274842,68.50613676059584 157.3060312732705,68.09389826227562 159.29635145200882,66.75663724262267 159.61801935965195,66.58570919198974 159.70848845865112,66.4851632850914 160.0804169769399,66.21368935592182 160.85443037975347,64.8261563826527 161.05547282204498,64.55468262660725 161.67870439315448,63.468787885445636 161.83953834703425,63.277750894470955 161.9400595680927,63.06660476284742 162.13104988832492,62.83534949546447 162.3521965748514,62.46333019529993 162.7743857036694,61.870110339994426 162.85480268060928,61.799728332218365 162.9754281459609,61.538309462805046 163.10610573343,61.397545467028976 163.48808637377806,60.79427128547104 163.55845122860046,60.864653266136884 163.528294862248,60.955144386927714 162.75428145943442,62.05109265442297 162.60349962767214,62.33262072407524 162.38235294120386,62.57393052223779 161.96016381238587,63.277750894470955 161.9400595680927,63.25764173835341 161.87974683544599,63.29786005074857 161.8093819806818,63.38835125595506 161.50781831715722,64.00168061851582 161.09568131051492,64.695446792859 160.99516008939827,64.80604721457348 160.86448250187095,65.08757558191428 160.40208488458302,65.83161498507252 160.39203276252374,65.97237922044587 160.50260610581608,66.04276134097017 160.86448250187095,66.04276134097017 162.26172747579403,66.70636428539001 162.40245718538063,66.81696479259699 162.74422933731694,66.96778367365187 163.61876396130538,67.44034955762618 163.81980640359689,67.73193280553096 163.86001489200862,68.0536798756948 163.8801191363018,68.59662814700278 164.12137006700505,69.39094156342617 164.44303797470639,69.79312566452427 165.07632166787516,70.39640193311789 165.62918838422047,70.89913226422505 165.9609084140393,71.26109816305689 166.25241995532997,71.76382866200584 166.41325390915154,71.97497550067783 166.70476545050042,72.19617696919886 166.87565152643947,72.25650464570208 167.10685033508344,72.29672309749003 168.25279225612758,72.29672309749003 168.97654504841194,72.20623158184753 169.56962025316898,72.09563084479305 170.9266567386221,71.91464783072297 171.640357408789,71.80404710612493 172.5953090097173,71.61300950207806 172.90692479524296,71.572791060913 173.06775874906452,71.58284567113151 173.55026061058743,71.47224496072158 173.9925539836404,71.44208113143395 174.6660461652791,71.31137120856147 175.24906924797688,71.2510435540753 175.76172747579403,71.16055207497266 175.86224869691068,71.180661292281 175.81198808638146,71.16055207497266 176.02308265079046,71.14044285782438 176.4854802680784,71.03989677442587 177.661578555475,70.90918687186786 178.19434102752712,70.79858619021252 178.5562174236984,70.66787629980536 178.85778108710656,70.50700259761652 179.35033507074695,70.05454536367324 179.48101265821606,69.77301645798434 179.50111690250924,69.49148758286901 179.37043931498192,68.5865735483676 179.3905435592169,68.44580917138956 179.26991809380706,68.01346148973971 179.2397617274546,67.61127766450227 179.37043931498192,66.95772908130311 179.4609084139811,66.8370739762322 179.62174236780265,66.53543623806036 179.732315711095,66.44494492342346 179.95346239762148,66.16341640918108 180.24497393897036,65.73106910733622 180.45606850332115,65.4595952568925 180.767684288905,65.18812143475225 181.23008190619294,64.88648388785077 181.7326880119508,64.72561054378457 182.7781087118201,64.63511929209926 183.30081906181294,64.6250647087727 183.35107967234217,64.60495554226509 183.35107967234217,64.57479179275106 183.5320178703987,64.59490095904039 184.084884586744,64.55468262660725 184.88905435591005,64.40386388546904 185.6128071481362,64.15249933634186 186.90953090094263,63.47884246430476 187.0,63.51906078011962 186.88942665670766,63.65982489041926 186.66827997018117,63.74026152829174 185.97468354430748,64.09217184816953 185.85405807889765,64.21282682591118 185.66306775872363,64.25304515309108 185.4720774385496,64.37370013829786 185.29113924049307,64.43402763298946 184.72822040208848,64.5848463758739 184.26582278480055,64.6552284588688 183.84363365598256,64.695446792859 183.36113179451786,64.73566512748948 183.07967237528646,64.72561054378457 181.8131049888325,64.83621096676507 181.24013402831042,65.02724807204504 180.86820551007986,65.2685581198457 180.40580789273372,65.76123287025257 179.82278481009416,66.52538164738507 179.49106478033355,67.19903930826695 179.44080416974612,67.39007658718037 179.42069992551114,67.79226037814806 179.57148175727343,68.90832072445482 179.62174236780265,68.9787029245781 179.67200297839008,69.51159678722615 179.6619508563308,69.75290725160448 179.58153387939092,69.99421773845097 179.44080416974612,70.21541903780599 179.2397617274546,70.43662035603484 179.099032017868,70.51705720370228 179.0387192851631,70.51705720370228 178.67684288905002,70.77847697587276 178.30491437081946,70.89913226422505 177.3097542814794,71.07006059904234 176.3447505584918,71.1907159009861 176.1236038719071,71.2510435540753 175.9125093074981,71.29126199024904 175.0882352940971,71.38175347390643 173.76135517499642,71.60295489169948 173.5804169769399,71.61300950207806 173.3693224125309,71.66328255442204 171.51973194343736,71.92470244228025 171.23827252420597,71.99508472431626 170.09233060316183,72.12579468172044 169.37862993299495,72.23639542002638 169.2781087118201,72.27661387150874 168.38346984359669,72.41737845662283 167.43857036484405,72.4475422972755 166.87565152643947,72.42743307013006 166.70476545050042,72.36710538962507 166.3629932986223,72.09563084479305 166.1518987341551,71.83421093966172 165.8201787043945,71.27115277206758 165.03611317946343,70.47683877954842 164.41288160835393,69.93389011464023 164.33246463147225,69.78307106123248 164.14147431124002,69.60208820873231 163.97058823535917,69.31050475069787 163.83991064783186,68.95859372433915 163.739389426657,68.40559077933722 163.71928518242203,67.80231497372733 163.5383469843655,67.52078631240875 162.89501116902102,67.24931227503112 162.1411020104424,66.80691020083032 161.60833953839028,66.57565460111073 160.99516008939827,66.2438531244261 160.613179448992,66.17347099844483 160.30156366346637,66.25390771399543 159.98994787794072,66.52538164738507 159.93968726729508,66.65609132913232 159.7989575577085,66.69630969405989 159.788905435591,66.60581837383506 159.5174981385353,66.89740152806917 159.26619508565636,66.96778367365187 158.79374534625094,67.30963983644324 158.43186895013787,67.50067712346208 157.8588979895576,67.95313391198579 157.5171258376795,68.15422584330372 157.32613551750546,68.32515399716794 157.12509307521395,68.42569997528335 157.1653015636839,68.45586376947176 156.79337304545334,68.66701033865684 155.92889054358238,69.38088696170598 155.7781087118783,69.55181519639154 155.23529411765048,70.01432694670802 154.99404318694724,70.18525522314303 153.6370067014359,71.38175347390643 153.32539091591025,71.55268184054876 153.0740878630313,71.63311872287886 151.16418466117466,72.08557623258093 150.28965003724443,72.34699616310536 150.12881608342286,72.36710538962507 150.06850335077615,72.4073238431447 149.7568875651923,72.4475422972755 148.61094564408995,72.73912610842672 148.28927773644682,72.77934456773801 147.8268801191589,72.88994533401274 147.6861504095723,72.96032764228585 147.44489947881084,72.99049148928316 146.27885331353173,73.25191151125182 144.66046165308217,73.66415083040192 144.43931496649748,73.68426006716618 144.2081161578535,73.7646970157657 143.0521221147501,74.00600787661097 142.32836932240753,74.07639021529758 141.8659717051778,74.08644483526587 140.7501861504279,74.06633559537295 140.15711094567087,74.08644483526587 140.15711094567087,74.10655407528975 140.10685033514164,74.08644483526587 138.71965748327784,74.10655407528975 137.75465376023203,74.13671793566027 137.0912137007108,74.16688179638004 136.41772151901387,74.14677255586139 136.24683544307481,74.18699103705876 136.0457930007833,74.15682717610616 135.31198808643967,74.16688179638004 134.47766195092117,74.18699103705876 134.28667163068894,74.2171548983606 133.78406552498927,74.18699103705876 133.0,74.25737338063482 133.0804169769981,74.29759186354931 133.17088607599726,74.29759186354931 133.51265822787536,74.27748262202658 133.73380491446005,74.22720951886731 134.4575577066862,74.19704565744905 134.62844378268346,74.2171548983606 135.67386448255274,74.18699103705876 136.06589724496007,74.20710027786845 136.7293373045395,74.16688179638004 137.59381980646867,74.17693641671212 138.34772896504728,74.13671793566027 139.55398361879634,74.13671793566027 140.05658972455421,74.09649945526326 140.8306031273678,74.12666331550281 141.19247952348087,74.08644483526587 141.514147431124,74.12666331550281 141.6649292628863,74.11660869540356 142.26805658976082,74.15682717610616 142.5495160089922,74.10655407528975 142.6198808637564,74.36797421016672 142.53946388687473,74.36797421016672" stroke="#fff900" stroke-linecap="round" stroke-linejoin="round" stroke-width="0.5"><title>2025-10-10 20.0km</title><desc>16095470377</desc></polyline><polyline fill="none" points="67.0,93.70821816358648 66.9366505863909,93.72953380442573 66.87330117278088,93.75699451070886 66.6824850602743,93.83784046993514 66.2353917745304,94.02507339458543 65.84953625527487,94.189647025765 65.59191530659791,94.30064337752447 65.3989875469706,94.38321871075254 65.23850236582712,94.4525437108291 65.14347824541346,94.49440761768415 64.98376093595016,94.56392484141543 64.88720107217614,94.60425256651047 64.69388937670828,94.6868285082503 64.62938815557936,94.7139057719055 64.49789013036025,94.77017276721153 64.36485636178168,94.82586372631681 64.13699044070836,94.92322706883328 64.07229725165871,94.95011245106184 64.04023860901543,94.96393922600191 63.9757373878856,94.99101667391801 63.812564655861934,95.05842231438396 63.680490726882454,95.11180919769686 63.61445376239408,95.13792654762892 63.581051344308435,95.14964095272649 63.51463044397951,95.17556628759166 63.44820954364968,95.20245183767543 63.381404707480215,95.22876128622374 63.3472344177153,95.2414359172169 63.3132560958702,95.25487871203336 63.24587535594037,95.28214839534348 63.17657493681054,95.30692157441604 63.14202071120508,95.31998031063085 63.10631467808071,95.33207884945045 63.039125906070694,95.35896450435712 62.971361230302136,95.38450589324748 62.80204552483792,95.45114402982563 62.732937073627,95.47668547765852 62.698574815942266,95.4899363104239 62.66632420537826,95.50203490070953 62.63349769105207,95.51509370069789 62.60009527296825,95.52911271133439 62.53252256511769,95.5563825817892 62.46648560062931,95.5857649279294 62.43327515046349,95.59997600510087 62.4002566682193,95.61476321242253 62.16893532458562,95.71328072144456 62.0345577805665,95.76897298904282 61.83299146453737,95.85347175199695 61.698613920518255,95.90801195888776 61.63142514850915,95.93566617720171 61.39549657479438,96.03130383243365 61.293561609259996,96.07182507806215 61.22483709389053,96.0983271476764 61.15534470683997,96.1244451469147 61.08566035186959,96.15017907502124 60.98084586753521,96.18954817700251 60.94609967401084,96.20337538323497 60.842245029274636,96.24524112094628 60.77179280262499,96.27251148809978 60.70210844765461,96.29997391943812 60.63280802852569,96.3299329576048 60.598253802920226,96.34587271170267 60.49631883738584,96.39676474157204 60.46176461178129,96.41443293362659 60.42721038617583,96.43286931655052 60.32316377352072,96.4899069319356 60.288801515835985,96.51026381170959 60.25635893735125,96.53177297937555 60.2246842305467,96.55328215904979 60.18917016534124,96.57191065472762 60.154615939736686,96.5911152988881 60.089346846926674,96.63221326962207 60.05613639676267,96.65218613108891 59.99048336811302,96.69405235520662 59.958040789628285,96.71709800267126 59.923294596103005,96.7374550027987 59.85648975993354,96.78008950985304 59.758394152800065,96.84673002831641 59.730558804395514,96.87150419885825 59.70080377679096,96.89608633748207 59.67047284542696,96.9195162031258 59.60462784885749,96.96752826796205 59.543390082369115,97.01419605311844 59.51478686228438,97.03685779664875 59.48407199507983,97.05932750487773 59.453549095796006,97.08256542227446 59.392887233067086,97.13038564428007 59.338944247539075,97.14478933745613 59.26925989256961,97.18800044993168 59.227986789763236,97.20605310712654 59.19189682079832,97.22602626983485 59.156574723512676,97.24638354271633 59.123940177108125,97.26866132564646 59.060206827659385,97.31475333219532 59.03198754341429,97.34048806043234 58.949441337803364,97.41922875639625 58.923333700679905,97.4463079120062 58.909895946277175,97.48433399337637 58.85614492866989,97.54137318794892 58.83483648954734,97.57171730676373 58.80930475618243,97.601677347031 58.78204531153915,97.63106125607851 58.7551698027346,97.65833261725334 58.72887019769132,97.68618015457946 58.67703885928404,97.74149118717105 58.597372172473115,97.82464994348766 58.489294233497276,97.93565661158391 57.19696619587194,99.83396169551565 57.13304087850247,99.90598558961437 57.02880229792663,100.02084000131731 57.0028866287239,100.04984176069888 56.87177253934442,100.19139374298766 56.76638215124967,100.3068253007009 56.63430822227019,100.44953074045043 56.36747281343287,100.73551961139538 56.01540364810171,101.10967121395151 55.88025823240241,101.25410867283608 55.662950546930915,101.48517148903557 55.445066957699964,101.71585176105395 55.28151028983666,101.88852688885481 55.17151267165991,102.0033880425558 55.062090957245346,102.11882582785597 54.9805045912326,102.2035316831084 54.89795838562077,102.28996645590178 54.64801615374472,102.54869591585225 54.619604901580715,102.57712362909729 54.536482792209426,102.66221483923232 54.037174232216785,103.18313930687805 53.925256934841855,103.2981971481106 53.869202302193116,103.35505393157973 53.67320305584508,103.5553980747195 53.47643593781686,103.75766435594846 53.250873631785,103.99085806207245 52.88267916117093,104.3736913894586 52.65769275889852,104.61092365602144 52.26550229828263,105.02853374945425 52.15262516130679,105.14801662541527 51.89865160311001,105.41656667951884 51.69996480588179,105.6255686683262 51.64295033363396,105.68492703613038 51.471139045209384,105.86377124719911 50.894275445525636,106.46197552398189 50.402645602334815,106.97355168299077 50.14060939149658,107.24500000425678 49.908904112024175,107.48705799446543 49.763200460723056,107.63824922333629 49.58985342893902,107.81941080049614 49.50154818572537,107.9106644190706 49.41381884627299,108.00191833201552 48.975556084848904,108.46107408845478 48.79913756634505,108.64435426370756 48.6530499792043,108.79670442696556 48.47739933237881,108.97844985359666 48.20922014810003,109.25337570840315 47.76539031699576,109.71082309599842 47.35573077565823,110.13811396723281 47.180656032592196,110.32140538398289 46.9161242387936,110.59941897504541 46.73797800900866,110.7844427589439 46.499937788174066,111.03325663398164 46.29338030622421,111.24979386268478 46.20449915925201,111.3433646283429 45.78408941439193,111.78028882027706 45.51399055091224,112.06235284465265 45.39420256881476,112.18686165049212 44.9115952178654,112.68663224393822 44.638808803507345,112.97005129447575 44.33588342570329,113.28383351350976 43.941773285886484,113.69139116354177 43.698549931211346,113.94119405096126 43.211527318101616,114.44042306622873 42.996715215591394,114.65833452018546 42.84371678332809,114.81456323941325 42.386065261983276,115.28363975601928 41.6264482024344,116.06577454230978 41.1350103271634,116.57081281824117 40.70615399382223,117.01321065162097 40.1851530588674,117.55209406927474 39.818302363693874,117.9347396726414 39.5737352335791,118.19131375434358 39.238751213129945,118.5447564870924 39.02816240486027,118.76885625500358 38.936785674926796,118.86649218374487 38.72600489873639,119.090787348312 38.574734177756,119.25300392841632 38.394860236689055,119.44770381819376 38.21498629562302,119.64048337099462 38.124761373210276,119.7377386953201 37.66922149898619,120.22363731429391 37.4851242636787,120.41873016515115 37.2090743946801,120.71012331718407 37.14841253195027,120.77509145040608 36.99790968264915,120.93501383609737 36.69210478604418,121.25736098108655 36.41663082080595,121.54684320166871 36.26344042062283,121.70754019561923 36.17167975484972,121.8044203059219 35.46293419410904,122.54622132243458 34.87839187762438,123.15425232927441 34.75534044088636,123.2815123985165 34.23357163425135,123.82324147733766 33.835238200194,124.23771803654654 33.59143894175941,124.49359805461631 33.07600507648567,125.03901194937794 32.802834726286164,125.32566293019568 32.2852892138917,125.86513924979636 32.19352854811859,125.96030853640491 31.70497019164759,126.47019296590793 31.030202952750187,127.1735167283191 30.815582818159783,127.39655524021214 30.262523240560768,127.9695452348692 29.527862010615536,128.7352249295243 29.283678816340398,128.99077880515097 28.33938861772458,129.98033755854317 27.85332584421485,130.4916749480269 27.000220407611778,131.38323194518807 26.513581730341684,131.89383902863187 25.693878711824254,132.7577689983143 24.995691386684484,133.49518117485763 23.965975463656832,134.58750782563266 23.6018123193644,134.97336798008314 23.267596170595425,135.3267280040186 22.96332701735173,135.64700885444336 22.44443772951763,136.19140383571198 21.866230354394247,136.80141618818607 21.227169148622124,137.4768607927324 20.92366786705861,137.79852896429747 20.619782649654553,138.12097290617476 20.407466130103785,138.34684130597975 19.831562370021857,138.96135750896224 19.49868999669343,139.31730257953927 18.98268022765933,139.8668200549298 18.739840808824738,140.12580778022038 18.285068806279924,140.61185391310823 17.55827826105451,141.38982778138143 16.381514911286104,142.6545256897807 15.323195768174628,143.78864565467984 14.900098472433456,144.24304831918766 14.417683089403909,144.76251964169774 13.781885338272332,145.44446095344142 13.329992854526608,145.93240568707142 13.11959601417766,146.16069612411593 13.029755027604551,146.25886593268183 13.0,146.29178183641352" stroke="red" stroke-linecap="round" stroke-linejoin="round" stroke-width="0.5"><title>2025-09-19 438.7km</title><desc>15864628212</desc></polyline><polyline fill="none" points="139.31168831326067,133.67871669540182 150.18181818164885,136.83534429734573 181.38961039111018,129.4698800649494 186.29870129935443,122.10441643372178 185.94805194810033,113.33600813243538 177.18181818164885,104.21686440287158 157.89610389620066,105.97054581809789 145.62337662279606,107.37349097477272 137.2077922075987,112.98527181753889 133.7012987025082,122.10441643372178 135.8051948044449,131.92503474187106 144.9220779221505,136.83534429734573 160.3506493512541,134.73092588409781 181.38961039111018,128.0669345650822 185.24675324745476,123.15662548691034 185.59740259684622,114.03748076502234 178.58441558480263,104.91833696514368 171.9220779221505,103.16465557040647 160.70129870064557,105.61980953253806 142.46753246709704,109.127172450535 135.45454545505345,116.14189869631082 134.05194805189967,126.31325272005051 136.50649350695312,131.5742983557284 147.02597402594984,137.18608070444316 176.12987012974918,130.87282558670267 183.49350649304688,125.26104363054037 185.94805194810033,118.597053010948 184.1948051955551,111.23159026680514 177.18181818164885,104.91833696514368 163.50649350695312,104.91833696514368 142.46753246709704,109.47790875006467 136.85714285634458,115.44042604696006 134.40259740315378,123.85809819586575 136.85714285634458,131.5742983557284 144.57142857275903,136.83534429734573 156.84415584430099,134.73092588409781 176.8311688322574,130.87282558670267 183.84415584430099,124.91030726954341 186.29870129935443,116.49263502238318 182.44155844300985,108.07496356079355 175.0779220778495,103.86612812429667 150.18181818164885,107.37349097477272 139.31168831326067,111.23159026680514 134.75324675254524,118.597053010948 134.40259740315378,126.66398908663541 138.25974025949836,133.67871669540182 145.62337662279606,137.18608070444316 160.0,134.3801894863136 180.3376623392105,129.4698800649494 186.6493506487459,121.05220739217475 183.14285714365542,108.07496356079355 173.67532467655838,104.21686440287158 144.22077922150493,109.127172450535 137.2077922075987,114.38821708317846 134.40259740315378,122.45515278261155 136.15584415569901,129.82061644317582 141.76623376645148,135.08166228281334 148.4285714291036,136.13387148780748 177.5324675347656,130.17135282279924 184.1948051955551,124.20883455267176 185.94805194810033,118.24631667602807 181.03896103985608,106.67201839340851 172.62337662279606,103.86612812429667 157.1948051955551,106.3212821050547 143.87012987025082,108.77643615286797 135.45454545505345,116.14189869631082 134.05194805189967,123.85809819586575 138.25974025949836,132.62650751974434 146.67532467469573,136.48460789211094 175.0779220778495,131.22356197005138 184.54545454494655,124.20883455267176 184.54545454494655,111.58232657471672 177.5324675347656,104.56760068330914 152.98701298609376,107.02275468315929 135.45454545505345,116.14189869631082 134.05194805189967,127.01472545461729 136.50649350695312,134.0294530899264 144.9220779221505,135.08166228281334 176.12987012974918,130.87282558670267 184.54545454494655,123.85809819586575 185.59740259684622,116.49263502238318 182.09090909175575,108.42569985566661 175.4285714291036,103.86612812429667 147.37662337720394,108.07496356079355 138.96103896014392,111.93306288309395 133.7012987025082,121.40294373780489 136.85714285634458,131.22356197005138 143.87012987025082,136.13387148780748 173.67532467655838,131.5742983557284 180.68831168860197,128.0669345650822 185.59740259684622,120.70147104840726 185.24675324745476,114.03748076502234 178.9350649341941,105.97054581809789 171.9220779221505,103.86612812429667 142.11688311770558,109.82864505052567 134.40259740315378,117.54484401037917 134.40259740315378,126.66398908663541 138.25974025949836,132.9772439096123 145.97402597405016,136.48460789211094 176.12987012974918,131.22356197005138 182.44155844300985,126.66398908663541 185.94805194810033,118.24631667602807 181.740259738639,107.72422726685181 173.32467532530427,103.86612812429667 158.24675324745476,106.67201839340851 143.16883116960526,109.47790875006467 136.50649350695312,114.73895340366289 133.7012987025082,124.20883455267176 138.25974025949836,133.32798030227423 146.67532467469573,136.83534429734573 170.16883116960526,132.27577112987638 180.3376623392105,129.4698800649494 185.24675324745476,122.10441643372178 185.59740259684622,114.03748076502234 177.5324675347656,104.91833696514368 153.68831168860197,105.97054581809789 135.10389610379934,115.79116237070411 134.40259740315378,128.41767093725502 141.41558441706002,135.08166228281334 147.02597402594984,136.83534429734573 179.6363636367023,129.4698800649494 185.94805194810033,121.05220739217475 185.24675324745476,112.63453550543636 176.12987012974918,102.8139192960225 146.67532467469573,107.72422726685181 135.10389610379934,115.44042604696006 133.0,123.15662548691034 135.45454545505345,129.82061644317582 144.57142857275903,136.48460789211094 157.89610389620066,135.43239868292585 181.38961039111018,128.76840731222183 186.29870129935443,116.14189869631082 181.740259738639,107.72422726685181 173.32467532530427,103.51539184711874 144.9220779221505,107.72422726685181 134.75324675254524,115.44042604696006 133.0,124.20883455267176 136.15584415569901,131.92503474187106 141.41558441706002,136.13387148780748 156.49350649490952,134.73092588409781 176.8311688322574,131.22356197005138 183.84415584430099,125.96251635579392 186.29870129935443,119.29852568358183 184.54545454494655,110.17938135238364 175.4285714291036,103.51539184711874 160.3506493512541,105.61980953253806 153.3376623392105,106.67201839340851 139.31168831326067,110.53011765610427 133.7012987025082,119.29852568358183 135.10389610379934,130.17135282279924 143.51948051899672,136.48460789211094 152.28571428731084,136.48460789211094 181.03896103985608,129.4698800649494 185.59740259684622,118.24631667602807 183.14285714365542,109.47790875006467 176.8311688322574,104.56760068330914 160.0,104.91833696514368 152.6363636367023,106.3212821050547 140.7142857145518,109.47790875006467 134.05194805189967,117.89558034250513 133.35064934939146,122.80588913429528 134.05194805189967,126.31325272005051 142.11688311770558,135.78313508443534 161.05194805189967,135.08166228281334 182.44155844300985,128.0669345650822 186.6493506487459,117.54484401037917 184.1948051955551,109.127172450535 176.8311688322574,104.21686440287158 155.7922077924013,105.97054581809789 140.7142857145518,109.82864505052567 134.05194805189967,120.70147104840726 135.8051948044449,130.17135282279924 143.16883116960526,134.73092588409781 176.12987012974918,130.87282558670267 183.84415584430099,125.96251635579392 186.29870129935443,118.597053010948 182.44155844300985,107.02275468315929 174.72727272845805,103.16465557040647 162.45454545505345,105.26907324837521 141.0649350658059,109.82864505052567 134.40259740315378,118.94778934679925 134.40259740315378,126.66398908663541 139.31168831326067,134.3801894863136 147.37662337720394,136.83534429734573 167.36363636516035,132.9772439096123 179.98701298609376,129.82061644317582 184.1948051955551,124.91030726954341 185.24675324745476,119.29852568358183 182.44155844300985,109.127172450535 177.5324675347656,105.26907324837521 154.740259738639,106.67201839340851 138.96103896014392,111.93306288309395 134.05194805189967,122.10441643372178 136.15584415569901,130.17135282279924 142.11688311770558,135.43239868292585 154.38961038924754,135.78313508443534 179.28571428731084,129.82061644317582 185.24675324745476,123.50736184092239 185.59740259684622,112.28379919333383 177.5324675347656,104.56760068330914 164.2077922075987,104.91833696514368 136.85714285634458,115.08968972461298 135.45454545505345,127.36546182306483 140.36363636516035,133.32798030227423 151.58441558293998,136.13387148780748 175.77922077849507,131.22356197005138 183.84415584430099,125.96251635579392 186.29870129935443,115.79116237070411 181.38961039111018,107.72422726685181 173.32467532530427,103.86612812429667 140.36363636516035,111.23159026680514 134.40259740315378,119.99999836366624 135.10389610379934,128.0669345650822 142.11688311770558,135.08166228281334 149.48051948100328,136.48460789211094 163.85714285634458,134.3801894863136 176.12987012974918,131.22356197005138 183.49350649304688,125.96251635579392 186.6493506487459,117.54484401037917 181.03896103985608,106.3212821050547 173.67532467655838,103.86612812429667 157.54545454494655,106.3212821050547 146.67532467469573,108.07496356079355 142.46753246709704,109.127172450535 135.8051948044449,114.73895340366289 133.0,123.15662548691034 134.75324675254524,129.1191436876543 143.16883116960526,136.48460789211094 172.62337662279606,132.27577112987638 184.1948051955551,125.61177999293432 187.0,117.54484401037917 184.1948051955551,109.47790875006467 177.18181818164885,104.56760068330914 145.97402597405016,108.07496356079355 135.45454545505345,115.44042604696006 133.7012987025082,122.10441643372178 136.85714285634458,130.87282558670267 147.37662337720394,136.48460789211094 168.76623376458883,131.92503474187106 180.68831168860197,129.1191436876543 186.29870129935443,121.40294373780489 184.54545454494655,110.88085396075621 177.5324675347656,104.56760068330914 172.2727272734046,103.86612812429667 156.84415584430099,105.26907324837521 138.61038961075246,112.28379919333383 135.10389610379934,118.597053010948 134.40259740315378,127.01472545461729 144.9220779221505,135.78313508443534 176.12987012974918,130.87282558670267 183.14285714365542,126.66398908663541" stroke="#4dd2ff" stroke-linecap="round" stroke-linejoin="round" stroke-width="0.5"><title>2025-08-21 10.2km</title><desc>15534281190</desc></polyline><polyline fill="none" points="42.51641648542136,153.0 42.013133188243955,153.27106345206266 40.92913839453831,153.65829698025482 40.483926247106865,153.90999878937146 39.88385770050809,154.08425389535842 38.95471930608619,154.49084916579886 38.819219956872985,154.4521258053137 38.52886420849245,154.49084916579886 38.315936659811996,154.4521258053137 38.14172321080696,154.51021084620152 37.73522516305093,154.54893420712324 35.93501952360384,154.5876575683942 34.8510247298982,154.56829588772962 34.11545683420263,154.51021084620152 33.20567548938561,154.64574261079542 32.624963992857374,154.8006360604777 32.16039479558822,154.97489119705278 31.38611280010082,155.42020990655874 30.882829502923414,155.7687202282541 30.592473754659295,156.02042214214453 30.18597570701968,156.25276238148217 29.46976486116182,156.87233640500926 29.314908462110907,156.9691448530648 28.017986119608395,158.0146762096556 27.61148807196878,158.266378235101 27.55341692233924,158.34382501468644 27.417917573126033,158.75042062698049 27.417917573126033,159.02148438667064 27.340489373658784,159.23446306510596 27.398560523288324,159.85403745350777 27.3792034733342,160.08637786866166 27.3792034733342,160.47361191775417 27.340489373658784,160.6285055456974 27.359846423496492,161.05446304686484 27.65020217176061,162.21616550529143 27.708273321390152,162.4872294506349 28.114771369146183,163.30042137397686 28.17284251865931,163.5327619475429 28.1534854688216,164.15233686260763 28.037343169446103,164.67510325627518 27.921200870187022,165.70127448273706 27.82441562076565,166.1272324116144 27.572773972293362,166.51446692357422 27.069490675232373,167.05659529022523 26.83720607648138,167.61808544571977 26.798491976805963,167.88914968105382 26.83720607648138,168.54744859898346 26.798491976805963,168.99276850398746 26.895277226227336,169.45745018590242 26.895277226227336,169.72851452013128 26.953348375856876,170.01894060871564 26.933991325902753,170.71596328960732 26.875920176273212,170.9483042046486 26.875920176273212,171.3549008318223 26.817849026527256,171.87766797206132 26.54685032821726,172.96192591750878 26.488779178471304,173.11681992874946 26.27585162979085,174.31724867777666 26.353279829374515,174.5495897590299 26.450065078795888,174.64639854605775 26.77913492685184,174.89810140104964 27.282418223912828,175.11108074974618 27.61148807196878,175.4015071488684 28.056700219400227,176.059807048965 28.09541431919206,176.33087173878448 28.36641301761847,177.5119394864305 28.42448416724801,177.68619540709187 28.501912366831675,178.1896014341619 28.618054666207172,178.46066623891238 28.86969631467946,178.7317310582439 29.218123212689534,178.88662524727988 29.489121911115944,179.0802429902833 30.205332756973803,179.33194606742472 30.360189156024717,179.4287549466244 30.51504555507563,179.6417344873771 30.553759654867463,179.73854337248486 30.57311670470517,179.9321611483756 30.51504555507563,180.2613113845291 30.282760956441052,180.7453558886482 29.992405208060518,181.0938679605606 29.56655011069961,181.46174184052506 29.218123212689534,181.69408325231052 28.192199568613432,182.2168514681107 27.66955922159832,182.54600185414893 27.127561824861914,183.0881319489563 27.03077657544054,183.28174985415535 26.817849026527256,183.572176725982 26.488779178471304,184.24983949231682 26.256494579836726,184.92750235032872 26.043567031039856,185.29537651166902 25.946781781618483,185.64388889994007 25.753211282892153,186.01176311387098 25.675783083308488,186.28282834144193 25.03700043691788,187.59943108420703 24.882144037866965,188.14156172604999 24.669216489070095,188.45135069065145 24.553074189811014,188.70305423846003 24.398217790643685,189.24518499991973 24.30143254122231,189.6130594786373 23.875577443744987,190.81349217655952 23.759435144485906,191.02647220148356 23.50779349578079,191.80094509586343 23.236794797470793,192.3817998454906 23.0045101987198,193.0207401481166 22.86901084962301,193.31116758540156 22.830296749831177,193.42733856505947 22.888367899577133,193.46606222551782 22.830296749831177,193.4079767349176 22.86901084962301,193.4079767349176 22.849653799668886,193.46606222551782 22.578655101242475,193.64031870145118 22.36572755256202,193.81457518343814 22.152800003648736,194.0469171688892 21.32044685864821,194.72458135487977 20.720378312049434,195.32479828220676 19.752525817602873,196.11863368417835 19.171814321074635,196.69948893639958 18.59110282442998,197.20289687640616 18.358818225795403,197.4158771740622 18.068462477531284,197.6288574807695 17.913606078363955,197.8805614913581 17.661964429775253,198.15162736314232 17.623250330099836,198.22907475777902 17.294180482043885,198.50014064850984 17.06189588329289,198.75184470313252 16.829611284658313,198.88737766086706 16.771540135028772,199.00354877047357 16.694111935561523,199.11971988275764 16.71346898539923,199.21652914508013 16.694111935561523,199.44887138233753 16.6747548856074,199.54568065103376 16.636040785815567,199.58440435901866 16.11340043891687,199.77802290357067 15.726259441114962,199.87483217869885 15.300404343637638,200.06845073460136 14.816478096414357,200.35887858251226 14.390622998820618,200.7073920223629 14.37126594898291,201.23016222799197 14.42933709861245,201.67548503901344 14.816478096414357,202.85655877442332 14.951977445627563,203.49550042036572 15.010048595257103,203.94082343424088 15.242333193891682,204.77338395858533 15.377832543104887,205.70275401099934 15.493974842480384,206.08999158418737 15.629474191693589,206.4191435451212 15.668188291369006,206.8838287035469 15.764973540906794,207.0 15.95854403974954,207.0 16.210185688338242,206.9419143513951 17.21675228246022,206.76765740988776 18.397532325587235,206.51595294952858 18.668531024013646,206.4385054258455 19.016957921907306,206.4191435451212 19.22988547082059,206.4385054258455 19.42345596954692,206.49659106851323 19.655740568297915,206.49659106851323 19.888025166932493,206.4191435451212 22.92708199925255,205.76083964508143 23.875577443744987,205.52849711294402 24.41757484059781,205.43168772774516 24.74664468865376,205.33487834446714 26.237137529999018,205.0444502059254 26.798491976805963,204.8701933309494 26.817849026527256,204.83146958178259 26.77913492685184,204.7927458329068 26.798491976805963,204.8121077073156 26.875920176273212,204.83146958178259 27.3792034733342,204.77338395858533 28.521269416669384,204.52167959930375 28.86969631467946,204.36678461532574 29.46976486116182,204.28933712514117 30.282760956441052,204.07635653336183 30.57311670470517,204.03763279036502 30.979614752461202,203.8827378214919 31.328041650354862,203.8440140799794 32.45075054385234,203.59230976781691 32.83789154153783,203.5535860286036 33.37988893839065,203.35996733707725 34.270313233253546,203.22443425751408 34.73488243063912,203.108263049362 35.00588112906553,203.08890118161798 35.528521475964226,202.93400624225615 35.760806074598804,202.91464437521063 36.012447723187506,202.83719690763974 36.34151757124346,202.81783504094346 36.515731020248495,202.72102570859715 36.96094316767994,202.66294011005084 37.270655965898186,202.52740704949247 38.43207895907108,202.29506466854946 39.20636095455848,202.12080788993626 39.61285900219809,202.06272229840397 40.0,201.92718925420195 40.50328329694457,201.84974180202698 41.41306464176159,201.61739945271984 43.329412580584176,201.28824780977448 44.21983687544707,201.21080036752392 45.82647201616783,201.13335292649572 47.045966159086674,201.11399106643512 47.994461603462696,201.03654362692032 48.80745769874193,201.03654362692032 49.252669846173376,201.05590548668988 49.77531019307207,201.01718176723807 50.00759479182307,201.03654362692032 50.72380563756451,200.99781990761403 51.072232535574585,201.01718176723807 51.7303722318029,200.95909618862788 51.904585680691525,200.9784580480773 52.31108372833114,200.92037246990367 52.93050932476763,200.90101061062887 53.58864902087953,200.95909618862788 54.8275002137525,200.90101061062887 56.08570845646318,200.92037246990367 56.492206504102796,200.8816487514996 57.11163210042287,200.90101061062887 58.2924121436663,200.84292503338656 58.98926593945362,200.8816487514996 59.74419088510331,200.84292503338656 60.073260733275674,200.76547759806272 60.24747418228071,200.80420131556457 60.42168763128575,200.7461157394282 60.82818567880895,200.78483945678454 61.97025162214413,200.7267538809101 62.08639392151963,200.7461157394282 62.24125032068696,200.7073920223629 62.279964420362376,200.7267538809101 62.41546376957558,200.7267538809101 62.45417786936741,200.66866830561776 62.434820819529705,200.55249715724494 62.47353491932154,200.3976022968709 62.47353491932154,200.01036516702152 62.53160606895108,199.75866104880697 62.570320168626495,199.27461470337585 62.62839131837245,199.06163432629546 62.60903426853474,198.6937591509486 62.66710541816428,198.0741799696989 62.60903426853474,197.18353503165417 62.647748368326575,197.00927843194222 62.60903426853474,196.7769363085099 62.647748368326575,196.6220415655116 62.62839131837245,196.40906130181975 62.66710541816428,196.2928902527492 62.62839131837245,195.40224563292577 62.705819517956115,194.56968667567708 62.66710541816428,194.3179828322027 62.705819517956115,194.02755533636082 62.66710541816428,193.79521335178288 62.705819517956115,193.65968053243705 62.62839131837245,192.96265466266777 62.31867852015421,191.6847741540696 62.183179170941,191.25881405721884 62.183179170941,191.1039194854966 62.12510802131146,190.8522158167907 62.10575097147375,189.94221035100054 62.279964420362376,189.2839086279564 62.279964420362376,188.87731054821052 62.183179170941,188.33517982665217 61.95089457242284,187.73496373920352 61.796038173139095,187.09602411228116 61.447611275245436,186.10857212205883 61.42825422540773,185.87623050564434 61.0023991279304,184.77260797473718 60.77011452917941,184.03685975586995 60.44104468112346,183.14621731970692 60.32490238174796,182.64281079536886 60.26683123211842,182.3330221901706 60.286188282072544,181.9457864605356 60.189403032534756,181.65535968288896 60.189403032534756,181.67472146757063 60.208760082372464,181.48110362442094 60.17004598269705,181.3262093552912 60.286188282072544,180.97769726728438 60.26683123211842,180.66790876488085 60.30554533191025,180.39684384095017 60.26683123211842,180.12577893171692 60.30554533191025,179.87407581481966 60.286188282072544,179.44811672266223 60.30554533191025,179.17705186465173 60.42168763128575,178.6349221925193 60.55718698038254,178.36385737839737 60.65397222980391,178.03470726663363 60.963685028022155,177.4151306441927 61.07982732739765,177.08598059459473 61.331468975986354,176.6987452697649 61.660538824042305,176.42768056012574 62.02832277189009,176.02108352308278 62.20253622089513,175.6725718031812 62.24125032068696,175.4983159522817 62.53160606895108,174.82065436744597 62.84131886716932,173.96873707597842 63.03488936601207,173.63958725196426 63.49945856328122,172.98128766860464 64.25438350893091,172.3810734176659 64.54473925719503,172.226179429068 64.66088155657053,172.0519236975524 64.97059435478877,171.89702971902443 65.22223600326106,171.72277399891755 65.2803071528906,171.6259652681183 65.37709240231197,171.37426257677726 65.3964494522661,171.1419216420618 65.55130585131701,170.48362238524714 65.59001995110884,169.8640466927318 65.57066290127113,169.55425887502497 65.62873405090068,169.2251093396044 65.55130585131701,168.48936339688953 65.31902125268243,167.7536175615678 64.83509500545915,166.6306372829422 64.71895270620007,166.18531758649624 64.60281040694099,165.91425344266463 64.58345335698687,165.60446586756734 64.5060251574032,165.33340175493504 64.42859695793595,164.86872045285418 64.44795400777366,164.52020950437873 64.52538220735732,164.15233686260763 64.52538220735732,163.91999626054894 64.77702385594603,162.8938253959641 64.7576668059919,162.66148485176382 64.79638090578374,162.40978260766133 64.79638090578374,162.08063353804755 64.7383097561542,161.7708461980219 64.66088155657053,161.42233546316857 64.5060251574032,161.0738247523259 64.37052580830641,160.91893111079116 64.13824120967183,160.5123353242525 63.94467071071267,160.24127148475964 63.18974576506298,159.3506332571851 62.938104116590694,158.90531420215848 62.82196181733161,158.51808027311927 62.74453361763153,158.05339959735284 62.80260476737749,157.80169758247212 62.80260476737749,157.43382542932522 62.91874706663657,157.0078682327876 62.938104116590694,156.87233640500926" stroke="#4dd2ff" stroke-linecap="round" stroke-linejoin="round" stroke-width="0.5"><title>2025-08-03 10.0km</title><desc>15324505910</desc></polyline><polyline fill="none" points="147.6787848842796,155.66831195002305 147.9474718181882,155.49554350765538 148.31211837159935,155.0348276901641 149.19494686892722,154.42053999908967 149.57878534600604,154.2093786225596 150.03939151857048,154.01741374249104 150.32727037649602,153.92143130514887 150.61514923418872,153.88303833073587 150.88383616821375,153.78705589601304 151.1525231023552,153.57589454596746 151.5363615793176,153.09598241976346 151.7090888939565,153.0 151.84343236102723,153.07678593567107 151.90100813261233,153.23035781050567 152.16969506663736,153.74866292261868 152.15050314273685,153.90223481794237 152.18888699053787,154.09419969361625 152.32323045737576,154.3245575541223 152.41919007664546,154.55491542513482 152.6494931631023,154.97723821597174 153.09090741164982,155.6299189623387 153.35959434567485,156.205813808745 153.49393781274557,156.39777877219603 153.9929278329946,157.60715820998303 154.12727129994892,157.8375162310258 154.31919053848833,158.24064279327285 154.53030170092825,158.52859035751317 154.87575633032247,159.29645060931216 155.81616059923545,160.8513679781463 155.81616059923545,160.92815403349232 155.96969599020667,161.1585122066026 156.62222140131053,162.46387538692215 156.66060524899513,162.6558405891119 156.81414063973352,163.0205744934501 156.91010025900323,163.44289799474063 156.87171641131863,163.99959720970946 156.77575679216534,164.24915205026628 156.71818102058023,164.6330825984187 156.81414063973352,165.20897847565357 157.31313066009898,166.11121548287338 157.88888837571722,166.76389767430373 158.31111070059706,167.35899033464375 158.57979763462208,167.8772969027632 158.6373734062072,167.9924761473667 158.6949491777923,168.31881735488423 158.7717168731615,168.43399660970317 158.73333302536048,169.1250721939432 158.7525249493774,169.33623419704963 158.6373734062072,169.9505237111589 158.59898955840617,170.00811335697654 158.44545416755136,170.92954778001877 158.42626224376727,171.67821337355417 158.50302993913647,172.02375137753552 158.7909087969456,172.88759649192798 158.8101007208461,173.07956209318945 159.40505036036484,174.69207343430026 159.57777767512016,175.47913273010636 159.61616152280476,175.80547442569514 159.59696959890425,176.41976473401883 159.38585843646433,177.76352504684473 159.30909074109513,177.97468741453486 159.15555535024032,178.16665321117034 158.9636361117009,178.2818326926499 158.73333302536048,178.33942243439378 158.59898955840617,178.45460191986058 158.56060571072157,178.56978140806314 158.40707031986676,178.76174722754513 157.77373683266342,179.18407205634867 157.37070643168408,179.60639692094992 157.19797911692876,179.79836278027506 156.91010025900323,180.29747404920636 156.5838375535095,181.21891036914894 156.19999907631427,182.15954345470527 156.10403945716098,182.3131162202335 155.93131214240566,182.5434753773152 155.70100905618165,182.73544134976692 155.1444432643475,183.31133931138902 154.51110977702774,184.80867432322702 154.41515015775803,185.19260645008762 154.39595823385753,185.55734199794824 154.33838246238884,185.9604707925464 154.37676631007344,186.11404367524665 154.33838246238884,187.09307091400842 154.29999861458782,187.20825060177594 154.29999861458782,187.28503706181073 154.24242284300271,187.66896937970887 154.24242284300271,188.11049158193055 154.29999861458782,188.2448679121153 154.41515015775803,189.20469894769485 154.53030170092825,189.47345167087042 154.54949362482876,189.64622128629708 154.64545324409846,189.93417065872927 154.70302901568357,190.01095716078999 154.79898863495328,190.37569306208752 154.9141401781235,190.64444584865123 155.1828271120321,191.64267061155988 155.47070596995763,192.39133931545075 155.52828174142633,192.71768211919698 155.79696867545135,193.4471543462132 155.96969599020667,193.83108714039554 156.14242330484558,194.11903675549547 156.14242330484558,194.618149461312 156.18080715253018,194.86770583302132 156.21919100021478,194.86770583302132 156.2575748480158,195.0404756361968 156.2959586957004,195.44360520038754 156.0848475333769,196.44183092887397 156.04646368557587,196.9793371736596 156.18080715253018,197.4784501675167 156.23838292411529,197.7855966502102 156.4111102388706,198.2655130675994 156.4686860103393,198.80301951034926 156.62222140131053,199.1677560582757 156.64141332509462,199.49409930812544 156.62222140131053,199.60927928378806 156.66060524899513,199.82044257951202 156.62222140131053,200.20437586752814 156.71818102058023,200.41553918865975 156.75656486826483,200.58830918531748 156.79494871594943,200.54991585222888 156.79494871594943,200.64589918556157 156.91010025900323,200.81866919028107 156.87171641131863,201.02983253760613 156.94848410680424,201.39456924970727 156.89090833521914,202.23922279145336 156.85252448753454,205.00354448283906 156.91010025900323,205.42587154416833 156.91010025900323,205.9057887031231 156.83333256375045,206.11695226782467 156.83333256375045,206.30891915268148 156.83333256375045,206.5968694939802 156.91010025900323,206.80803308828035 157.06363564997446,206.90401654320885 157.38989835535176,206.9808033085137 157.6585852894932,207.0 157.88888837571722,206.96160661702743 158.31111070059706,207.0 158.8292926446302,206.9808033085137 159.46262613194995,206.8848198520427 159.80808076134417,206.750443016208 160.76767695415765,206.52008273464162 161.90000046161003,206.28972246384365 162.93636434990913,206.04016551596578 164.31818286760245,205.79060858066077 165.04747597395908,205.5218549722049 166.4484864155529,205.21470800897805 166.77474912116304,205.09952790269745 168.17575956264045,204.75398759995005 168.38687072508037,204.75398759995005 169.57677000411786,204.4468406844826 170.2292954152217,204.37005395864253 171.2656593035208,204.06290706704021 171.80303317145444,203.94772698762245 172.26363934401888,203.81335023164866 172.321215115604,203.73656351564568 172.22525549633428,203.52540005272022 172.11010395316407,202.96869642092497 172.03333625779487,202.7383363158151 171.84141701913904,201.68251930456609 171.97576048620977,202.18163277267013 172.11010395316407,202.96869642092497 172.16767972463276,203.27584324451163 172.18687164853327,203.71736683681956 172.05252818169538,203.71736683681956 171.4767704658443,203.8709402694658 171.2080835319357,203.9093336283986 170.32525503449142,204.1013004274282 170.0181842527818,204.23567719123093 169.73030539497267,204.25487387203611 168.61717381130438,204.4468406844826 168.27171918202657,204.58121745765675 167.5040422277525,204.79238096572226 166.2565671770135,205.06113453453872 165.93030447151978,205.06113453453872 165.75757715676446,205.21470800897805 164.74040519248229,205.3682814882195 164.26060709601734,205.50265828645206 163.7808089996688,205.5602483439725 162.80202088295482,205.82900195452385 162.20707124331966,205.92498539044755 161.97676815709565,206.0017721404729 161.66969737538602,206.0593622038141 161.5545458322158,206.17454233247554 161.3626265936764,206.2129357093363 161.13232350745238,206.30891915268148 160.88282849732786,206.38570590870222 160.59494963951875,206.4049025979184 160.44141424866393,206.36650921960245 159.67373729438987,206.5968694939802 159.52020190353505,206.5968694939802 159.27070689341053,206.7120496351854 158.9444441878004,206.750443016208 158.54141378682107,206.750443016208 157.6202014418086,206.82722977912636 157.37070643168408,206.86562316099298 157.19797911692876,206.84642647003056 157.17878719302826,206.80803308828035 157.15959526924416,206.86562316099298 157.04444372607395,206.84642647003056 156.94848410680424,206.73124632565305 156.89090833521914,206.50088604501798 156.91010025900323,206.28972246384365 156.87171641131863,206.0785588917497 156.89090833521914,205.92498539044755 156.83333256375045,205.69462514741463 156.83333256375045,205.54105165804503 156.87171641131863,205.3682814882195 156.85252448753454,205.11872458690777 156.91010025900323,204.7347909171949 156.91010025900323,204.12049710773863 156.67979717277922,203.8709402694658 156.60302947741002,203.69817015808076 156.5838375535095,203.52540005272022 156.60302947741002,203.16066318342928 156.67979717277922,202.6807462911529 156.69898909667972,202.18163277267013 156.77575679216534,201.8360926739988 156.71818102058023,201.5481426102342 156.69898909667972,200.58830918531748 156.77575679216534,200.22357253267546 156.79494871594943,199.57088595826644 156.71818102058023,199.0909694143047 156.64141332509462,198.82221617005416 156.4686860103393,198.4766763060179 156.4686860103393,198.22711975249695 156.2959586957004,197.57443344130297 156.2575748480158,197.20969701075228 156.16161522862967,196.76817399912397 156.18080715253018,196.55701083355234 156.334342543385,195.8275381490821 156.3151506196009,195.23244209121913 156.10403945716098,194.25341324828332 155.87373637082055,193.3703677909507 155.70100905618165,192.96723839532933 155.60504943679553,192.621698939387 155.50908981764223,192.4105359503883 155.2404028835008,191.45070429542102 154.64545324409846,189.7614010332618 154.51110977702774,189.1087158357841 154.37676631007344,188.11049158193055 154.22323091921862,187.6881659963692 154.37676631007344,187.30423367698677 154.35757438617293,186.1908301184012 154.41515015775803,185.65332504131948 154.39595823385753,185.40376913241926 154.49191785324365,185.2501962716051 154.81818055885378,184.50152864307165 154.87575633032247,184.42474222602323 155.1444432643475,183.71446792417555 155.50908981764223,183.1385699159291 155.66262520838063,183.02339032228338 155.77777675155085,183.0041937235801 155.85454444703646,182.94660392799415 156.14242330484558,182.48588558708434 156.60302947741002,181.5452524399443 156.69898909667972,181.1997137774306 157.02525180217344,180.43185016859206 157.37070643168408,179.77916619405732 157.96565607120283,179.2416618085408 158.19595915742684,179.10728572119842 158.61818148230668,178.74255064525642 158.8484845685307,178.47379850107245 159.27070689341053,178.18584979121806 159.40505036036484,177.97468741453486 159.55858575121965,176.80369621506543 159.59696959890425,176.63092704498558 159.59696959890425,176.28538872260833 159.63535344670527,175.53672243954497 159.59696959890425,175.17198762431508 159.50100997963455,174.74966313465848 159.28989881731104,174.25055242015515 158.9444441878004,173.0987586537085 158.71414110145997,172.6572377801931 158.57979763462208,172.1197341606894 158.50302993913647,171.65901681844844 158.48383801523596,171.620623708528 158.48383801523596,171.63982026343 158.46464609145187,171.17910296542686 158.50302993913647,170.92954778001877 158.6757572538918,170.23847194682457 158.73333302536048,169.79695132555207 158.8676764924312,169.54739620903274 158.8868684162153,169.41302038216963 158.8484845685307,168.62596204018337 158.6949491777923,167.97327960643452 158.56060571072157,167.66613496112404 158.31111070059706,167.3781868731894 158.21515108132735,167.14782841480337 157.98484799498692,166.93666650389787 157.6585852894932,166.4567531030625 157.46666605083738,166.24559122120263 157.31313066009898,165.9768397480948 157.15959526924416,165.84246401692508 157.15959526924416,165.70808828939334 156.94848410680424,165.34335418985575 156.85252448753454,165.03620970554766 156.85252448753454,164.7866548258753 156.87171641131863,164.17236594416318 156.98686795448884,163.61566670998582 156.94848410680424,163.27012928540353 156.7373729442479,162.5790545073978 156.14242330484558,161.3504773589375 156.04646368557587,161.04333311869414 155.87373637082055,160.67859935786691 155.64343328459654,160.29466911184136 154.31919053848833,157.760730222828 153.74343282275368,156.4745647595846 152.7262608584715,154.4589329775772 152.53434161981568,154.19018213418894 152.45757392444648,153.88303833073587 152.34242238139268,153.72946643605246 152.20807891432196,153.38392969005508 152.13131121895276,153.3263402346638 152.01615967578255,153.07678593567107 151.95858390419744,153.0 151.86262428492773,153.0 151.5939373509027,153.13437538821017 151.22929079760797,153.55669806007063 150.76868462504353,153.90223481794237 150.1161592140561,154.05580671789357 149.75151266076136,154.19018213418894 149.29090648819692,154.42053999908967 148.65757300087716,154.82366628793534 148.33131029538345,155.15000664058607 147.9474718181882,155.5915259749163" stroke="#4dd2ff" stroke-linecap="round" stroke-linejoin="round" stroke-width="0.5"><title>2025-07-05 10.1km</title><desc>15014930419</desc></polyline><polyline fill="none" points="26.901977830915712,231.69727623091603 26.890241251909174,231.79706098694442 26.632036513794446,231.85575790527946 26.502934144751634,231.90858513367857 26.362095196702285,231.72662468790804 26.274070854182355,231.67379746572988 26.209519669646397,231.65618839208037 26.05107585308724,231.67379746572988 26.004129537090193,231.66205808328232 25.974788089544745,231.6796671569973 25.839817431027768,231.65618839208037 25.72245164096239,231.68553684828657 25.63442729844246,231.76184283701878 25.464246902847663,231.80880037043244 25.376222560327733,231.87923667323776 25.25298848078819,231.91445482584095 25.153227559261722,231.96728205627733 25.071071506215958,232.04945775165834 25.035861769196345,232.0611971370672 25.012388611212373,232.03771836633678 24.67789610955515,232.18446068932826 24.261247554881265,232.19620007577032 24.003042816824745,232.1785909961327 23.692023473180598,232.19620007577032 23.57465768311522,232.1785909961327 23.10519452294102,232.20206976900954 22.7707020213129,232.28424547695613 22.535970441211248,232.38403027106688 22.248424255580176,232.5777301840062 22.007824386033462,232.7596907305342 21.984351227991283,232.81251799000893 21.990219517523656,232.8183876856201 21.837643990467768,232.9181725144008 21.59117583135958,233.15296037244116 21.286024777247803,233.35253007998836 21.20386872420204,233.434705849475 21.186263855692232,233.48166343400953 21.26255161926383,233.72232107728632 21.127580960659543,233.54623011508374 21.05129319714615,233.50514222680067 20.423386220412795,234.05102426079975 20.217996087827487,234.40320632132352 20.14170832428499,234.61451559648413 20.112366876768647,234.84343401077786 20.100630297791213,235.37170740510192 20.12410345580429,235.89998098171782 20.083025429281406,236.15237842161878 20.02434253427782,236.29325142943708 19.977396218222566,236.53977922436025 19.912845033715712,236.69826139922952 19.889371875702636,236.92718012529076 19.713323190633673,237.54349994289078 19.7074549011013,237.7137216506453 19.63116713758791,237.93090109845798 19.601825690100668,238.15395029326464 19.54314279506798,238.2478657534666 19.33775266248267,239.11071431483288 19.226255161920562,239.42767921520135 19.173440556420246,239.65659835093538 19.11475766141666,239.75638362601603 19.09128450337448,239.8972569666803 18.809606607275782,240.61336331674102 18.527928711177083,241.14750843683578 18.504455553134903,241.22381489790132 18.38122147359536,241.41164620298514 18.169963051506784,241.79904834312765 18.117148446006468,241.95753106532356 17.606607259309385,242.82038173218461 17.459900021756766,243.1079987302728 17.354270810697926,243.28409079687844 17.236905020661652,243.4014855193018 17.096066072612302,243.50127104052808 16.83199304502341,243.54822893514938 16.64420778094791,243.50714077727753 16.4388176483626,243.3545276292425 16.292110410809983,243.14321714194375 16.262768963293638,243.01995270464977 16.139534883754095,242.7792935940597 15.981091067165835,242.36254254169035 15.793305803119438,242.1923203138067 15.570310802024323,242.1277532668537 15.441208432981512,242.1218835354448 15.265159747912548,242.16884138731984 14.584438165649772,242.53276478868065 14.525755270617083,242.57385292012623 14.519886981113814,242.5973318528704 14.425994349061511,242.65015945291088 14.267550532502355,242.697117321135 14.026950662926538,242.82038173218461 13.663116713782074,242.92603694964055 13.57509237123304,242.99060403058684 13.49293631821638,243.19604476101813 13.428385133709526,243.54822893514938 13.363833949144464,243.6656236780691 13.187785264075501,243.88280397646304 13.064551184565062,244.01780796142702 13.0,244.26433700855705 13.011736579035642,244.4052107678217 13.058682895061793,244.48151739288733 13.05281460552942,244.56956350352993 13.111497500591213,244.64000039573148 13.111497500591213,244.66347936052625 13.24646815910819,244.75739522336517 13.305151054140879,244.86892031805473 13.4694631601742,244.98044542098796 13.463594870700035,245.045012589595 13.580960660765413,245.1506679623635 14.285155401012162,245.4441551477139 14.54336013912689,245.6554659564863 14.713540534692584,245.8785162867207 14.719408824195853,245.9489532399457 14.778091719199438,246.06634816931182 15.165398826356977,246.57701621834713 15.40013040645863,247.0759449390025 15.963486198656028,248.13250042227446 16.004564225208014,248.1853282159209 16.139534883754095,248.2792442980499 16.327320147800492,248.34381160791236 16.39187133233645,248.34381160791236 16.76157357095508,248.26750478745817 16.996305151085835,248.24402576655848 17.313192784204148,248.1618491962945 17.536187785270158,248.13250042227446 17.835470549878664,248.05032385810773 18.38122147359536,247.968147298423 18.527928711177083,247.92705902025045 18.809606607275782,247.96227754432766 18.985655292344745,247.92118926632247 19.24386003043037,247.83314296009485 20.411649641377153,247.58661333002237 20.71680069551803,247.49856704338163 20.804825038067065,247.49856704338163 20.980873723106924,247.43986952178966 21.44446859380696,247.3518232436909 21.978482938517118,247.22855846302264 22.418604651204078,247.11703319394292 23.075853075424675,246.97615918166412 23.463160182582214,246.9115919304313 23.557052814605413,246.8763734309323 24.10280373832211,246.7472389397808 24.28472071289434,246.729629691843 24.407954792462988,246.68267169836327 24.56053031948977,246.68267169836327 24.63681808306137,246.62984395742387 24.848076505120844,246.60049521327164 24.941969137144042,246.56527672103402 25.957183221064042,246.3657052805429 26.227124538185308,246.3422262892709 26.373831775737926,246.35983553268306 26.837426646379754,246.31874729838455 26.990002173464745,246.2952683078547 27.224733753537294,246.28939856028592 27.35383612260921,246.3128775507139 27.49467507065856,246.28352881270985 27.58269941317849,246.3011380554526 28.26342099547037,246.24831032788643 28.42773310150369,246.2717893176814 29.026298630749807,246.23070108577667 29.09084981531487,246.24831032788643 29.654205607512267,246.2365708331272 29.900673766591353,246.24831032788643 30.968702455982566,246.21309184386337 31.209302325587487,246.22483133844798 31.461638774198946,246.20135234937334 31.579004564264324,246.21309184386337 31.655292327777715,246.18374310781655 31.76092153880745,246.20722209660744 31.784394696791423,246.20135234937334 31.790262986323796,246.16026411938947 31.895892197382636,246.1133061436267 31.983916539873462,246.1896128549779 32.08367746142903,246.21309184386337 32.20104325149441,246.17200361355935 32.353618778521195,246.1896128549779 32.61182351663592,246.15439437233 33.28080851989216,245.9900414641961 33.35709628343466,245.99591121060075 33.562486416019965,245.93134400133567 33.86763747013174,245.8785162867207 34.3253640512994,245.77286086303502 34.73614431647002,245.6554659564863 34.947402738558594,245.62024748630938 35.170397739624605,245.55568029310962 35.56357313628541,245.47937361379445 35.76896326887072,245.42067617080465 36.03303629645961,245.3678484740376 36.57878722020541,245.21523513825377 36.62573353620246,245.18588642160466 36.78417735276162,245.18588642160466 37.00130406435346,245.13892847613897 37.96370354271494,244.89826902854838 38.06933275377378,244.88652954428835 38.309932623349596,244.80435315696377 38.57400565093849,244.70456754979386 38.72071288852021,244.61065169024369 38.9671810475993,244.36412258668133 39.2488589437271,244.1410724799789 39.37796131276991,244.00606848399912 39.50706368184183,243.92389214451396 39.58335144535522,243.83584607145895 39.73005868290784,243.74193026583816 39.96479026300949,243.49540130380046 40.03520973701961,243.4484434108308 40.217126711591845,243.31343947663117 40.322755922650686,243.20191449656704 40.792219082824886,242.8379909345822 41.044555531436345,242.697117321135 41.073896978923585,242.65602918634977 41.484677244123304,242.36841227402329 41.76048685068963,242.21579924065736 41.936535535758594,242.07492568501766 42.2358183003671,241.91644295056904 42.46468159096548,241.72274185315473 42.52336448596907,241.60534726068727 42.587915670505026,241.60534726068727 42.62899369702791,241.57599861400377 42.76396435557399,241.66404455578595 42.86959356663283,241.6581748261815 43.033905672695255,241.68752347447298 43.14540317322826,241.7462207727367 43.18061291024787,241.7462207727367 43.50923712234362,241.92231268118485 43.56792001740541,241.98100998853624 43.76157357095508,242.0514467603498 43.937622256053146,242.1277532668537 44.547924364276696,242.4505885291146 44.66529015431297,242.61494105267775 44.66529015431297,242.66189891982503 44.600738969806116,242.7616843923388 44.64768528583227,242.931906684149 44.641816996329,243.07865005450003 44.659421864838805,243.160826348103 44.70636818083585,243.31930921264575 44.75918278636527,243.39561578296707 44.86481199739501,243.6362749914697 45.05846555097378,243.85345528565813 45.076070419483585,243.91215266781364 45.23451423604274,244.00606848399912 45.24625081507838,244.06476587206998 45.569006737699965,244.33477388654137 45.65116279068752,244.42868972896395 45.85068463376956,244.5930424672406 46.097152792906854,244.98044542098796 46.208650293410756,245.1154495039591 46.44338187351241,245.27980231690162 46.54901108457125,245.29741154791554 47.10063029779121,245.30328129164263 47.26494240385364,245.27980231690162 48.12171267118538,245.13892847613897 48.990219517523656,245.03327310417808 49.29537057163543,244.96870593608037 49.80591175833251,244.91000851291028 49.98782873287564,244.86892031805473 50.28124320800998,244.85131109202484 50.37513584003318,244.81609264059807 50.70376005215803,244.7691347066284 50.78591610517469,244.77500444830366 51.120408606831916,244.70456754979386 51.26711584441364,244.6986978084169 51.50184742451529,244.64000039573148 51.748315583594376,244.61652143130777 52.176700717245694,244.5402147994173 52.27059334926889,244.5813029853307 52.34101282333722,244.55782402182376 52.499456639867276,244.55782402182376 52.72245164096239,244.46390817138308 53.062812432064675,244.4052107678217 53.33275374918594,244.3112949268616 53.59095848730067,244.1058540450831 53.73179743535002,243.94737109819835 53.7904803303536,243.78301843008376 53.80808519889251,243.6480144660527 53.72592914587585,243.1901750254765 53.6789828298206,242.67363838684105 53.70245598783367,242.52689505570015 53.77874375137617,242.30384521957603 53.76700717234053,242.1923203138067 53.97239730495494,241.7814391527936 54.072158226481406,241.68752347447298 54.330362964596134,241.3294700041588 54.594435992185026,241.07707170695357 54.82916757228668,240.94793771064724 54.85264073027065,240.9538074375232 54.893718756822636,241.01250470743253 55.04629428384942,240.94206798381492 55.644859813095536,240.9009798965344 55.797435340151424,240.8540220838695 55.81504020866123,240.87163126344967 55.96761573571712,240.87750099002005 56.23755705283838,240.84228263093246 56.319713105855044,240.84228263093246 56.337317974393955,240.8657615369084 56.39600086939754,240.84228263093246 56.50749836990144,240.8540220838695 56.65420560748316,240.80119454636588 57.05911758315051,240.72488810653158 57.38774179527536,240.57227523835172 57.933492718992056,240.3316165158176 58.2445120626071,240.1437853442112 58.54379482724471,240.00291198072955 58.81960443381104,239.8326900172542 58.989784829405835,239.75638362601603 59.071940882422496,239.69181668258534 59.124755487951916,239.69181668258534 59.44164312107023,239.49224614744162 59.852423386240844,239.1341931940624 59.88176483375719,239.07549599663616 59.95805259727058,239.02266852086905 60.15757444035262,238.74092201441817 60.16931101938826,238.6998339865895 60.27494023038889,238.5707001920091 60.55661812648759,238.10699256532826 60.644642469036626,238.02481654491567 60.74440339056309,237.79002793959808 60.86176918062847,237.61980622333795 60.90284720712225,237.52589080179314 61.02021299718763,237.40262681978493 61.14344707672717,237.30871141161333 61.24320799825364,237.26175370968122 61.61291023690137,237.2030565843088 61.95327102806186,237.31458112446126 62.035427081078524,237.3732782541265 62.25842208217364,237.41436624622293 62.42860247771023,237.4730633797153 62.493153662246186,237.4730633797153 62.698543794831494,237.52589080179314 62.86285590089392,237.5317605154778 62.95088024341385,237.57284851184522 63.079982612485765,237.58458793958562 63.1680069550348,237.61980622333795 63.297109324106714,237.59632736740605 63.508367746166186,237.7137216506453 63.87220169528155,237.73133079391118 63.97783090634039,237.7078519362767 64.26537709194236,237.54936965664092 64.50597696151817,237.3850176803171 64.54705498807016,237.3850176803171 64.63507933059009,237.32632055020804 64.78765485764598,237.26762342235452 65.19843512281659,236.96239839388 65.40969354487606,236.83913445736107 65.48011301891529,236.75695850521151 65.59747880895156,236.6747825574712 66.0610736796225,236.43999415972212 66.10215170617448,236.4517335787532 66.19017604869441,236.55151864416257 66.38382960227318,236.4458638692231 66.57161486634868,236.41651532193646 67.0,236.46347299787158" stroke="#4dd2ff" stroke-linecap="round" stroke-linejoin="round" stroke-width="0.5"><title>2024-09-29 17.0km</title><desc>12527761096</desc></polyline></svg>