<?xml version="1.0" encoding="utf-8" ?>
<svg baseProfile="full" height="300mm" version="1.1" viewBox="0,0,200,300" width="200mm" xmlns="http://www.w3.org/2000/svg" xmlns:ev="http://www.w3.org/2001/xml-events" xmlns:xlink="http://www.w3.org/1999/xlink"><defs /><rect fill="#222222" height="300" width="200" x="0" y="0" /><text fill="#FFFFFF" style="font-size:12px; font-family:Arial; font-weight:bold;" x="10" y="20">Over 10km Runs</text><text fill="#FFFFFF" style="font-size:4px; font-family:Arial" x="10" y="280">Runner</text><text fill="#FFFFFF" style="font-size:9px; font-family:Arial" x="10" y="290">Zakiyys</text><text fill="#FFFFFF" style="font-size:4px; font-family:Arial" x="65" y="280">SPECIAL TRACKS</text><rect fill="yellow" height="2.6" width="2.6" x="65" y="283" /><text fill="#FFFFFF" style="font-size:3px; font-family:Arial" x="70" y="285.5">Over 20.0 km</text><rect fill="red" height="2.6" width="2.6" x="65" y="287" /><text fill="#FFFFFF" style="font-size:3px; font-family:Arial" x="70" y="289.5">Over 40.0 km</text><text fill="#FFFFFF" style="font-size:4px; font-family:Arial" x="120" y="280">STATISTICS</text><text fill="#FFFFFF" style="font-size:3px; font-family:Arial" x="120" y="285">Number: 5</text><text fill="#FFFFFF" style="font-size:3px; font-family:Arial" x="120" y="290">Weekly: 1.0</text><text fill="#FFFFFF" style="font-size:3px; font-family:Arial" x="141" y="285">Total: 486.1 km</text><text fill="#FFFFFF" style="font-size:3px; font-family:Arial" x="141" y="290">Avg: 97.2 km</text><text fill="#FFFFFF" style="font-size:3px; font-family:Arial" x="167" y="285">Min: 10.0 km</text><text fill="#FFFFFF" style="font-size:3px; font-family:Arial" x="167" y="290">Max: 438.7 km</text><polyline fill="none" points="86.0,34.94429088478182 85.91553411518726,34.972711739234 85.83106823037451,35.009326014278486 85.5766467470321,35.117120626580345 84.98052236603962,35.36676452611346 84.46604834036589,35.58619603435318 84.12255374212964,35.73419117003232 83.86531672929323,35.844291614336726 83.65133648776828,35.936724947771836 83.52463766055007,35.99254349024568 83.31168124793294,36.085233121887086 83.18293476290091,36.13900342201396 82.92518583561014,36.24910467766722 82.83918420743794,36.28520769587385 82.66385350714609,36.360230356282045 82.48647514904133,36.43448496842257 82.18265392094418,36.56430275844423 82.09639633554434,36.60014993474897 82.05365147868633,36.618585634669216 81.96764985051414,36.6546888985572 81.75008620781591,36.74456308584513 81.57398763584297,36.81574559692899 81.48593834985786,36.850568730171744 81.44140179241094,36.866187936968345 81.35284059197147,36.900755050121916 81.264279391532,36.93660245023375 81.17520627663998,36.97168171496469 81.12964589028707,36.98858122295587 81.08434146115997,37.00650494937781 80.99450047458686,37.04286452712449 80.90209991574648,37.07589543255472 80.8560276149392,37.09330708084099 80.80841957077337,37.109438465933636 80.71883454142608,37.14528600580934 80.62848164040133,37.17934119099664 80.40272736644965,37.2681920397672 80.31058276483509,37.302247303544846 80.26476642125635,37.3199150805649 80.2217656071698,37.336046534279376 80.17799692140215,37.353458267597034 80.13346036395706,37.372150281778886 80.04336342015631,37.40851010905226 79.9553141341712,37.44768657057239 79.91103353395101,37.46663467346798 79.86700889095846,37.486350949896405 79.55858043278022,37.6177076285926 79.37941037408746,37.691963985389975 79.11065528604922,37.80462900266275 78.93148522735646,37.877349278516704 78.84190019801099,37.91422156960198 78.5273287663922,38.04173844324441 78.39141547901181,38.09576677074938 78.29978279185343,38.13110286356823 78.20712627578632,38.165926862552624 78.11421380249249,38.20023876669484 77.974461156713,38.25273090267001 77.9281328986799,38.271167177646475 77.78966003903224,38.3269881612614 77.69572373683332,38.36334865079925 77.60281126353857,38.399965225917185 77.5104107047,38.43991061013958 77.46433840389273,38.461163615603255 77.32842511651415,38.52901965542924 77.28235281570778,38.55257724483499 77.23628051489959,38.57715908873388 77.09755169802702,38.65320924258049 77.05173535444828,38.68035174894567 77.00847858313409,38.709030639167395 76.96624564072863,38.737709545399866 76.91889355378771,38.76254753963667 76.87282125298134,38.7881537318508 76.78579579590223,38.84295102616261 76.74151519568295,38.869581508118245 76.65397782415039,38.92540314027519 76.6107210528371,38.95613067022805 76.5643927948031,38.98327333706493 76.47531967991017,39.04011934647042 76.34452553706524,39.12897337108825 76.30741173919341,39.16200559847766 76.26773836905431,39.19478178330928 76.22729712723503,39.22602160416727 76.13950379847574,39.29003769061592 76.05785344315791,39.35226140415807 76.01971581637827,39.38247706219818 75.97876266010553,39.41243667316985 75.93806546106043,39.443420563032305 75.85718297742187,39.507180859039636 75.78525899671877,39.52638578327469 75.69234652342584,39.584000599908904 75.6373157196831,39.608070809501896 75.58919576106291,39.634701693112675 75.54209963134963,39.661844723621925 75.49858690280962,39.69154843419528 75.41360910354524,39.753004442926795 75.37598339121905,39.78731741390948 75.2659217837363,39.89230500852818 75.23111160090502,39.92841054934115 75.21319459503593,39.97911199116834 75.14152657155955,40.05516425059841 75.11311531939555,40.095623075685126 75.07907300824263,40.13556979604118 75.04272708205099,40.17474834143786 75.0068930703128,40.21111015633778 74.97182693025388,40.24824020610595 74.90271847904478,40.3219882495614 74.79649622996385,40.432866591316724 74.65239231132819,40.58087548211188 72.92928826116167,43.11194892735375 72.84405450466966,43.20798078615235 72.70506973056854,43.36112000175626 72.67051550496399,43.399789014265025 72.49569671912559,43.58852499065006 72.35517620166593,43.742433734267706 72.17907762969298,43.9327076539339 71.82329708457655,44.31402614852732 71.35387153080137,44.81289495193505 71.1736776432017,45.00547823044781 70.88393406257364,45.3135619853806 70.5934226102654,45.62113568140512 70.37534705311464,45.85136918513945 70.22868356221261,46.00451739007394 70.08278794299258,46.158434437141295 69.97400612164256,46.27137557747801 69.86394451415981,46.386621941202065 69.53068820499266,46.731594554469666 69.49280653544065,46.76949817212926 69.38197705627863,46.882953118976275 68.71623230962177,47.577519075837245 68.56700924645429,47.73092953081368 68.49226973625628,47.80673857543934 68.23093740779314,48.07386409962601 67.96858125042127,48.3435524745978 67.66783150904575,48.65447741609614 67.1769055482273,49.164921852611315 66.87692367853106,49.48123154136147 66.35400306437623,50.03804499927219 66.20350021507511,50.197355500553385 65.86486880414577,50.555422239357995 65.59995307450754,50.83409155776826 65.5239337781777,50.91323604817353 65.29485206027766,51.15169499626563 64.52570059403388,51.94930069864222 63.870194136446116,52.631402243987395 63.52081252199514,52.99333333900904 63.21187214936526,53.316077325953756 63.0176006142965,53.51766563111505 62.786471238584454,53.75921440066122 62.668730914299886,53.88088589209383 62.55175846169641,54.002557776020694 61.96740811313157,54.61476545127289 61.7321834217928,54.85913901827689 61.53739997227149,55.062272569287416 61.303199109837806,55.304599804795544 60.945626864132464,55.671167611204055 60.35385375599435,56.28109746133077 59.807641034210064,56.85081862297693 59.574208043455656,57.095207178643705 59.22149898505813,57.46589196672721 58.983970678677,57.71259034525838 58.66658371756512,58.04434217864218 58.391173741631974,58.33305848357941 58.27266554566813,58.45781950445689 57.712119219188025,59.0403850937023 57.35198740121541,59.41647045953687 57.19227009175211,59.582482200655704 56.54879362381962,60.24884299191763 56.18507840467555,60.6267350593007 55.78117790093711,61.045111351345895 55.25569771451501,61.58852155138902 54.93139990828149,61.92159206794804 54.282036424134276,62.58723075497119 53.995620287454585,62.87777936024713 53.79162237777018,63.08608431921721 53.18142034931043,63.71151967469223 52.16859760324496,64.75436605641289 51.51334710288393,65.4277504243214 50.941538658428726,66.01761420216144 50.24687074515532,66.73612542569981 49.75773648492395,67.24631956352187 49.431646978104254,67.58841833912447 48.985001617505986,68.05967531612305 48.70421653981248,68.35847500667114 48.58238089990209,68.48865624499331 48.301339864980946,68.78771646441601 48.09964557033982,69.00400523788812 47.859813648917225,69.26360509092501 47.61998172749736,69.52064449465934 47.49968183094643,69.6503182604265 46.89229533198068,70.29818308572476 46.64683235157099,70.55830688686774 46.27876585957256,70.94683108957861 46.19788337593309,71.03345526720796 45.99721291019796,71.24668511479649 45.58947304805861,71.67648130811494 45.222174427740356,72.06245760222464 45.017920560830134,72.27672026082519 44.89557300646538,72.40589374122919 43.95057892547811,73.39496176324565 43.171189170165235,74.20566977236604 43.00712058784757,74.37534986468836 42.31142884566725,75.09765530311688 41.78031760025806,75.65029071539539 41.45525192234527,75.9914640728216 40.768006768646956,76.71868259917028 40.40377963504761,77.10088390692727 39.7137189518553,77.82018566639499 39.59137139749055,77.94707804853942 38.93996025552951,78.62692395454405 38.04027060366661,79.56468897109198 37.75411042421274,79.86207365361588 37.01669765407951,80.62606031315863 36.037149347486775,81.6469665726986 35.71157175511962,81.98770507353447 34.4525181569652,83.30711674472423 33.80443445895162,83.98889993070225 32.666960543481764,85.1776425935841 32.018108973788,85.85845203817598 30.925171615765066,87.01035866441862 29.99425518224507,87.99357489981003 28.621300618207897,89.45001043417687 28.135749759151622,89.96449064011085 27.690128227460264,90.43563733869132 27.28443602313473,90.86267847259069 26.592583639356235,91.58853844761552 25.82164047252536,92.40188825091491 24.969558864828286,93.30248105697638 24.564890489411482,93.73137195239678 24.159710199538495,94.16129720823255 23.87662150680444,94.46245507463937 23.108749826695203,95.28181001194935 22.664919995590935,95.75640343938585 21.97690697021244,96.48909340657292 21.653121078432378,96.83441037362718 21.046758408371716,97.48247188414416 20.077704348072075,98.51977037517509 18.508686548379956,100.2060342530408 17.097594357564958,101.71819420623979 16.533464629910668,102.3240644255834 15.890244119203999,103.01669285559683 15.0425137843622,103.92594793792205 14.439990472702448,104.57654091609493 14.159461352235667,104.8809281654876 14.039673370138189,105.01182124357547 14.0,105.05570911521818" stroke="red" stroke-linecap="round" stroke-linejoin="round" stroke-width="0.5"><title>2025-09-19 438.7km</title><desc>15864628212</desc></polyline><polyline fill="none" points="122.41558441706002,88.23828892689198 136.9090909101069,92.44712573010474 178.51948052085936,82.62650675326586 185.06493506766856,72.80588857829571 184.59740259870887,61.11467751022428 172.9090909101069,48.955819204449654 147.1948051955551,51.294061090797186 130.8311688322574,53.164654633030295 119.61038961261511,60.64702909067273 114.93506493605673,72.80588857829571 117.74025974050164,85.90004632249475 129.89610389620066,92.44712573010474 150.4675324689597,89.64123451150954 178.51948052085936,80.75591275375336 183.66233766451478,74.20883398223668 184.12987013161182,62.049974353984 174.77922078035772,49.89111595321447 165.89610389620066,47.55287409387529 150.9350649341941,50.82641271036118 126.6233766246587,55.50289660040289 117.27272727526724,64.8558649290353 115.40259740315378,78.41767029371113 118.67532467655838,85.43239780701697 132.7012987025082,92.91477427259088 171.50649350695312,84.49710078258067 181.32467532530427,77.01472484041005 184.59740259870887,68.12940401490778 182.259740261361,58.3087870227173 172.9090909101069,49.89111595321447 154.67532467842102,49.89111595321447 126.6233766246587,55.970544999465346 119.14285714365542,63.92056806292385 115.87012987211347,75.14413092751056 119.14285714365542,85.43239780701697 129.42857143096626,92.44712573010474 145.7922077924013,89.64123451150954 172.44155844300985,84.49710078258067 181.79220779426396,76.54707635939121 185.06493506766856,65.32351336348802 179.92207792401314,54.0999514143914 170.103896105662,48.488170832395554 136.9090909101069,53.164654633030295 122.41558441706002,58.3087870227173 116.33766233734787,68.12940401490778 115.87012987211347,78.88531878218055 121.01298701390624,88.23828892689198 130.8311688322574,92.91477427259088 150.0,89.17358598206192 177.11688311956823,82.62650675326586 185.53246753290296,71.4029431892559 180.85714285820723,54.0999514143914 168.23376623541117,48.955819204449654 128.96103896200657,55.50289660040289 119.61038961261511,62.51762277819216 115.87012987211347,73.27353704348207 118.20779220946133,83.09415525756776 125.68831169046462,90.10888304375112 134.57142857275903,91.51182865072042 173.3766233790666,83.56180376373231 182.259740261361,75.61177940387279 184.59740259870887,67.66175556834787 178.05194805189967,52.22935785725713 166.83116883039474,48.488170832395554 146.259740261361,51.76170947402716 128.49350649490952,55.035248204134405 117.27272727526724,64.8558649290353 115.40259740315378,75.14413092751056 121.01298701390624,86.83534335903823 132.23376623354852,91.97947718948126 170.103896105662,84.96474929340184 182.72727272845805,75.61177940387279 182.72727272845805,58.77643543295562 173.3766233790666,49.423467577435076 140.64935065060854,52.69700624421239 117.27272727526724,64.8558649290353 115.40259740315378,79.35296727251261 118.67532467655838,88.70593745354563 129.89610389620066,90.10888304375112 171.50649350695312,84.49710078258067 182.72727272845805,75.14413092751056 184.12987013161182,65.32351336348802 179.45454545505345,54.56759980786592 170.57142857462168,48.488170832395554 133.1688311714679,54.0999514143914 121.94805194810033,59.24408384412527 114.93506493605673,71.87059165071696 119.14285714365542,84.96474929340184 128.49350649490952,91.51182865072042 168.23376623541117,85.43239780701697 177.58441558666527,80.75591275375336 184.12987013161182,70.9352947305888 183.66233766451478,62.049974353984 175.24675324745476,51.294061090797186 165.89610389620066,48.488170832395554 126.15584415756166,56.438193400390446 115.87012987211347,66.726458680816 115.87012987211347,78.88531878218055 121.01298701390624,87.30299188010395 131.29870129935443,91.97947718948126 171.50649350695312,84.96474929340184 179.92207792401314,78.88531878218055 184.59740259870887,67.66175556834787 178.98701298609376,53.632303022779524 167.76623376831412,48.488170832395554 147.66233766451478,52.22935785725713 127.55844155885279,55.970544999465346 118.67532467655838,62.985271205194294 114.93506493605673,75.61177940387279 121.01298701390624,87.7706404030323 132.23376623354852,92.44712573010474 163.5584415588528,86.36769483983517 177.11688311956823,82.62650675326586 183.66233766451478,72.80588857829571 184.12987013161182,62.049974353984 173.3766233790666,49.89111595321447 141.58441558666527,51.294061090797186 116.80519480630755,64.3882164945826 115.87012987211347,81.22356124967337 125.22077922336757,90.10888304375112 132.7012987025082,92.44712573010474 176.1818181835115,82.62650675326586 184.59740259870887,71.4029431892559 183.66233766451478,60.17938067391515 171.50649350695312,47.085225727409124 132.23376623354852,53.632303022779524 116.80519480630755,63.92056806292385 114.0,74.20883398223668 117.27272727526724,83.09415525756776 129.42857143096626,91.97947718948126 147.1948051955551,90.57653157692403 178.51948052085936,81.69120974931866 185.06493506766856,64.8558649290353 178.98701298609376,53.632303022779524 167.76623376831412,48.02052246313542 129.89610389620066,53.632303022779524 116.33766233734787,63.92056806292385 114.0,75.61177940387279 118.20779220946133,85.90004632249475 125.22077922336757,91.51182865072042 145.32467532716691,89.64123451150954 172.44155844300985,84.96474929340184 181.79220779426396,77.95002180803567 185.06493506766856,69.06470091175288 182.72727272845805,56.90584180317819 170.57142857462168,48.02052246313542 150.4675324689597,50.82641271036118 141.11688311956823,52.22935785725713 122.41558441706002,57.37349020782858 114.93506493605673,69.06470091175288 116.80519480630755,83.56180376373231 128.02597402594984,91.97947718948126 139.71428571641445,91.97947718948126 178.05194805189967,82.62650675326586 184.12987013161182,67.66175556834787 180.85714285820723,55.970544999465346 172.44155844300985,49.423467577435076 150.0,49.89111595321447 140.1818181835115,51.76170947402716 124.28571428731084,55.970544999465346 115.40259740315378,67.19410712365061 114.46753246709704,73.74118551239371 115.40259740315378,78.41767029371113 126.15584415756166,91.04418011195958 151.40259740315378,90.10888304375112 179.92207792401314,80.75591275375336 185.53246753290296,66.726458680816 182.259740261361,55.50289660040289 172.44155844300985,48.955819204449654 144.38961039111018,51.294061090797186 124.28571428731084,56.438193400390446 115.40259740315378,70.9352947305888 117.74025974050164,83.56180376373231 127.55844155885279,89.64123451150954 171.50649350695312,84.49710078258067 181.79220779426396,77.95002180803567 185.06493506766856,68.12940401490778 179.92207792401314,52.69700624421239 169.63636363856494,47.55287409387529 153.2727272734046,50.3587643308565 124.75324675440788,56.438193400390446 115.87012987211347,68.597052462399 115.87012987211347,78.88531878218055 122.41558441706002,89.17358598206192 133.1688311714679,92.44712573010474 159.8181818202138,87.30299188010395 176.64935065060854,83.09415525756776 182.259740261361,76.54707635939121 183.66233766451478,69.06470091175288 179.92207792401314,55.50289660040289 173.3766233790666,50.3587643308565 142.98701298609376,52.22935785725713 121.94805194810033,59.24408384412527 115.40259740315378,72.80588857829571 118.20779220946133,83.56180376373231 126.15584415756166,90.57653157692403 142.51948051899672,91.04418011195958 175.71428571641445,83.09415525756776 183.66233766451478,74.6764824539423 184.12987013161182,59.71173225808889 173.3766233790666,49.423467577435076 155.6103896126151,49.89111595321447 119.14285714365542,63.45291963312775 117.27272727526724,79.820615763776 123.8181818202138,87.7706404030323 138.77922077849507,91.51182865072042 171.03896103799343,84.96474929340184 181.79220779426396,77.95002180803567 185.06493506766856,64.3882164945826 178.51948052085936,53.632303022779524 167.76623376831412,48.488170832395554 123.8181818202138,58.3087870227173 115.87012987211347,69.99999781791121 116.80519480630755,80.75591275375336 126.15584415756166,90.10888304375112 135.9740259759128,91.97947718948126 155.14285714365542,89.17358598206192 171.50649350695312,84.96474929340184 181.32467532530427,77.95002180803567 185.53246753290296,66.726458680816 178.05194805189967,51.76170947402716 168.23376623541117,48.488170832395554 146.72727272845805,51.76170947402716 132.23376623354852,54.0999514143914 126.6233766246587,55.50289660040289 117.74025974050164,62.985271205194294 114.0,74.20883398223668 116.33766233734787,82.1588582508266 127.55844155885279,91.97947718948126 166.83116883039474,86.36769483983517 182.259740261361,77.48237332329154 186.0,66.726458680816 182.259740261361,55.970544999465346 172.9090909101069,49.423467577435076 131.29870129935443,54.0999514143914 117.27272727526724,63.92056806292385 114.93506493605673,72.80588857829571 119.14285714365542,84.49710078258067 133.1688311714679,91.97947718948126 161.68831168860197,85.90004632249475 177.58441558666527,82.1588582508266 185.06493506766856,71.87059165071696 182.72727272845805,57.84113861434162 173.3766233790666,49.423467577435076 166.36363636516035,48.488170832395554 145.7922077924013,50.3587643308565 121.48051948100328,59.71173225808889 116.80519480630755,68.12940401490778 115.87012987211347,79.35296727251261 129.89610389620066,91.04418011195958 171.50649350695312,84.49710078258067 180.85714285820723,78.88531878218055" stroke="#4dd2ff" stroke-linecap="round" stroke-linejoin="round" stroke-width="0.5"><title>2025-08-21 10.2km</title><desc>15534281190</desc></polyline><polyline fill="none" points="53.3552219804842,114.0 52.68417758436408,114.36141793610295 51.238851192756556,114.87772930698702 50.6452349962201,115.21333171916194 49.845143600716256,115.44567186047789 48.606292408076115,115.98779888774152 48.425626609125175,115.93616774043767 48.03848561132327,115.98779888774152 47.75458221300505,115.93616774043767 47.52229761437047,116.01361446161172 46.980300217401236,116.06524560952676 44.58002603147179,116.11687675784924 43.134699639864266,116.09106118362979 42.153942445642315,116.01361446161172 40.940900652552955,116.19432348108967 40.16661865718197,116.40084808066604 39.547193060745485,116.63318826275645 38.514817066839896,117.22694654209772 37.84377267048694,117.69162697100546 37.456631672917865,118.02722952284967 36.914634276065044,118.33701650862349 35.95968648151029,119.16311520669842 35.75321128277574,119.29219313742942 34.02398149273358,120.68623494621716 33.48198409599718,121.02183764681104 33.40455589652993,121.12510001959163 33.22389009757899,121.66722750265035 33.22389009757899,122.02864584891358 33.12065249821171,122.31261742016068 33.19808069767896,123.13871660470613 33.172271297778934,123.44850382491131 33.172271297778934,123.9648158903583 33.12065249821171,124.17134072759654 33.14646189799532,124.73928406252526 33.533602895680815,126.2882206737122 33.61103109526448,126.64963926753262 34.1530284921173,127.73389516532188 34.23045669158455,128.04368259673356 34.20464729180094,128.86978248349624 34.04979089263361,129.56680434170994 33.89493449369911,130.93503264366882 33.76588749431539,131.50297654882888 33.430365296429954,132.0192892314517 32.75932090030983,132.74212705367245 32.44960810209159,133.49078059429303 32.39798930240795,133.85219957472873 32.44960810209159,134.729931465321 32.39798930240795,135.32369133864995 32.52703630155884,135.94326691451715 32.52703630155884,136.3046860268514 32.6044645011425,136.69192081163055 32.578655101242475,137.6212843861431 32.501226901775226,137.9310722728842 32.501226901775226,138.4732011090964 32.423798702075146,139.17022396274842 32.06246710428968,140.61590122335474 31.985038904706016,140.82242657168536 31.7011355063878,142.42299823701615 31.80437310587149,142.73278634538292 31.93342010502238,142.8618647280673 32.37217990250792,143.19746853475226 33.04322429862805,143.48144099969068 33.48198409599718,143.8686761985009 34.07560029265005,144.74640939864912 34.127219092217274,145.10782898505568 34.488550690119155,146.68258598190732 34.56597888970282,146.91492720946553 34.66921648918651,147.58613524556858 34.824072888237424,147.9475549852359 35.15959508623928,148.3089747443446 35.62416428362485,148.5155003297259 35.98549588152673,148.77365732038743 36.94044367596507,149.10926142323297 37.14691887469962,149.23833992882282 37.353394073434174,149.52231264984584 37.40501287323423,149.65139116332284 37.43082227301784,149.90954819784383 37.353394073434174,150.34841517938185 37.04368127533235,150.99380785154062 36.65654027753044,151.4584906140808 36.08873348101042,151.9489891207195 35.62416428362485,152.25877766974736 34.25626609148458,152.95580195746152 33.559412295464426,153.39466913888464 32.836749099893495,154.11750926528475 32.70770210050978,154.37566647221684 32.423798702075146,154.76290230129962 31.985038904706016,155.66645265644183 31.675326106487773,156.57000313379103 31.391422708053142,157.0605020155781 31.262375708902255,157.5251851999201 31.004281710484065,158.01568415184738 30.901044111000374,158.3771044552559 30.04933391592931,160.1325747789815 29.84285871719476,160.85541563475272 29.558955318760127,161.26846758753527 29.40409891982563,161.6040723179467 29.197623720858246,162.326913333236 29.06857672170736,162.81741263822187 28.50076992495451,164.41798956875573 28.345913525903597,164.7019629353017 28.010391327785328,165.73459346118034 27.649059729999863,166.50906646065414 27.339346931665204,167.36098686416517 27.15868113283068,167.74822344721179 27.107062333030626,167.90311808674596 27.184490532730706,167.95474963402376 27.107062333030626,167.87730231325259 27.15868113283068,167.87730231325259 27.132871732930653,167.95474963402376 26.771540135028772,168.1870916019543 26.487636736710556,168.41943357791752 26.203733338275924,168.72922289185226 25.09392914478667,169.6327751398494 24.29383774951566,170.43306437629508 23.003367756842636,171.49151157890446 22.22908576147165,172.26598524852307 21.454803765867837,172.9371958352276 21.14509096776601,173.22116956539685 20.757949970080517,173.50514330770238 20.55147477122955,173.84074865517323 20.21595257311128,174.2021698175522 20.164333773427643,174.30543301036232 19.725573976058513,174.66685419803252 19.41586117784027,175.0024596041767 19.106148379505612,175.18317021452822 19.028720180038363,175.3380650272884 18.925482580671087,175.49295984368655 18.951291980571114,175.62203886010684 18.925482580671087,175.93182850978337 18.89967318077106,176.06090753470198 18.848054381203838,176.11253914536792 18.151200585183688,176.3706972047803 17.635012588114478,176.49977623828454 17.067205791478045,176.7579343128018 16.42197079525795,177.14517144334968 15.8541639985051,177.60985602982691 15.82835459872149,178.30688297067536 15.905782798188739,178.9006467187137 16.42197079525795,180.4754116992408 16.60263659420889,181.32733389383066 16.680064793676138,181.92109791233088 16.98977759189438,183.0311786114471 17.17044339084532,184.27033868132276 17.32529979001265,184.78665544558316 17.50596558896359,185.22552472684765 17.557584388530813,185.84510493808193 17.686631387798116,186.0 17.94472538633272,186.0 18.280247584567405,185.9225524685462 19.622336376691237,185.69020987986005 21.196709767449647,185.35460393270478 21.558041365351528,185.2513405678037 22.022610562620685,185.22552472684765 22.306513961055316,185.2513405678037 22.564607959473506,185.32878809137037 22.87432075769175,185.32878809137037 23.18403355590999,185.22552472684765 27.236109332414344,184.3477861934225 28.50076992495451,184.03799615061143 29.223433120874688,183.90891697030747 29.662192918243818,183.77983779262286 31.649516706704162,183.39260027455748 32.39798930240795,183.1602577746089 32.423798702075146,183.10862610905315 32.37217990250792,183.05699444387574 32.39798930240795,183.0828102764499 32.501226901775226,183.10862610905315 33.172271297778934,183.0311786114471 34.69502588897012,182.69557279907167 35.15959508623928,182.48904615378706 35.95968648151029,182.38578283350216 37.04368127533235,182.1018087111297 37.43082227301784,182.05017705383943 37.972819669987075,181.84365042866557 38.437388867139816,181.79201877332525 39.93433405843098,181.45641302375589 40.45052205550019,181.40478137147147 41.17318525118753,181.1466231161321 42.36041764437687,180.9659123433812 42.97984324081335,180.81101739915903 43.34117483871523,180.78520157551975 44.03802863461897,180.57867498969426 44.34774143283721,180.5528591669863 44.68326363095548,180.44959587688209 45.12202342832461,180.4237800546107 45.35430802695919,180.2947009447962 45.94792422349565,180.2172534800775 46.36087462119758,180.03654273264692 47.90943861217238,179.72675289137987 48.941814606194384,179.4944105199247 49.483812003047206,179.41696306457743 50.0,179.23625233894563 50.67104439600371,179.1329890693887 51.88408618897665,178.82319927029312 54.439216774189845,178.38433041304233 55.62644916726276,178.28106715669855 57.768629354890436,178.1778039019846 59.3946215454489,178.15198808861896 60.65928213798907,178.04872483591316 61.74327693169471,178.04872483591316 62.33689312834758,178.07454064892954 63.0337469241349,178.0229090229841 63.343459722353145,178.04872483591316 64.29840751679149,177.99709321017144 64.76297671417706,178.0229090229841 65.64049630903173,177.94546158483718 65.87278090766631,177.9712773974461 66.41477830451913,177.89382995988126 67.24067909969017,177.86801414753427 68.11819869454484,177.94546158483718 69.77000028500333,177.86801414753427 71.44761127524544,177.89382995988126 71.98960867209826,177.8421983353328 72.8155094672693,177.86801414753427 74.38988285814412,177.7905667111918 75.31902125268243,177.8421983353328 76.32558784692083,177.7905667111918 76.76434764440637,177.68730346410302 76.99663224304095,177.73893508742913 77.22891684167553,177.66148765257094 77.77091423852835,177.71311927575152 79.29366882960312,177.63567184121348 79.44852522865403,177.66148765257094 79.65500042762142,177.60985602982691 79.70661922718864,177.63567184121348 79.88728502613958,177.63567184121348 79.93890382582322,177.55822440751945 79.9130944260396,177.40332954298356 79.96471322572324,177.19680306248483 79.96471322572324,176.68048688935232 80.04214142530691,176.3448813984287 80.09376022487413,175.6994862711872 80.1711884244578,175.4155124350509 80.1453790247906,174.9250122012745 80.22280722425785,174.09890662625548 80.1453790247906,172.91138004220556 80.19699782435782,172.6790379092563 80.1453790247906,172.36924841132713 80.19699782435782,172.16272208737792 80.1711884244578,171.87874840243603 80.22280722425785,171.72385367035167 80.1711884244578,170.5363275105774 80.27442602394149,169.42624890094157 80.22280722425785,169.09064377628965 80.27442602394149,168.70340711515746 80.22280722425785,168.39361780238687 80.27442602394149,168.21290737661184 80.1711884244578,167.2835395502334 79.75823802698869,165.5796988720831 79.57757222792134,165.0117520763015 79.57757222792134,164.80522598067182 79.50014402845409,164.46962108905427 79.47433462867048,163.25628046802012 79.70661922718864,162.3785448372946 79.70661922718864,161.8364140643098 79.57757222792134,161.1135731022223 79.26785942981951,160.3132849856047 79.06138423085213,159.46136548306094 78.59681503369939,158.14476282941177 78.57100563379936,157.8349740075064 78.00319883716293,156.36347729965928 77.69348603894468,155.38247967450297 77.25472624145914,154.1949564262759 77.09986984240822,153.52374772715848 77.02244164282456,153.1106962535414 77.04825104272459,152.5943819473905 76.91920404345728,152.20714624389075 76.91920404345728,152.23296195678995 76.9450134432409,151.97480483257095 76.89339464367367,151.76827914037858 77.04825104272459,151.30359635638888 77.02244164282456,150.89054501985083 77.0740604425082,150.5291251212766 77.02244164282456,150.16770524228923 77.0740604425082,149.83210108644562 77.04825104272459,149.264155630226 77.0740604425082,148.90273581954534 77.22891684167553,148.1798962567118 77.40958264051005,147.81847650455893 77.53862963977735,147.37960968885454 77.95158003747929,146.55350752561935 78.1064364365302,146.11464079280267 78.44195863464847,145.59832702635322 78.8807184320176,145.23690741352038 79.37109702918679,144.69477803079644 79.60338162782136,144.23009573758463 79.65500042762142,143.99775460307137 80.04214142530691,143.0942058232613 80.45509182289243,141.95831610131427 80.71318582142703,141.51944966931478 81.3326114177471,140.64171689149225 82.33917801186908,139.84143122358364 82.72631900955457,139.6349059054337 82.8811754087219,139.40256493006018 83.29412580642384,139.1960396253853 83.62964800430927,138.9636986652331 83.70707620389294,138.83462035749108 83.83612320316024,138.49901676902664 83.86193260306027,138.1892288560921 84.06840780179482,137.31149651366286 84.12002660159487,136.48539559033816 84.09421720169485,136.07234516672906 84.17164540127851,135.63347911951132 84.06840780179482,134.65248452918604 83.75869500369299,133.6714900820807 83.11346000735648,132.17418304394232 82.95860360818915,131.58042344867135 82.80374720925465,131.2190045902389 82.77793780935463,130.8059544900898 82.67470020987093,130.44453567324672 82.57146261062007,129.82496060381527 82.59727201040369,129.36027933916193 82.70050960988738,128.86978248349624 82.70050960988738,128.55999501407496 83.03603180788923,127.19176719462848 83.01022240810562,126.88197980239056 83.06184120767284,126.5463768102054 83.06184120767284,126.1075113840925 82.98441300820559,125.69446159736253 82.8811754087219,125.22978061757749 82.67470020987093,124.76509966980666 82.49403441103641,124.55857481440762 82.18432161281817,124.01644709901302 81.92622761428356,123.65502864637529 80.91966102016158,122.46751100957044 80.58413882215973,121.87375226954464 80.42928242310882,121.35744036416872 80.32604482362512,120.73786612981348 80.40347302309237,120.40226344330586 80.40347302309237,119.9117672391003 80.5583294222597,119.34382431040285 80.58413882215973,119.16311520669842" stroke="#4dd2ff" stroke-linecap="round" stroke-linejoin="round" stroke-width="0.5"><title>2025-08-03 10.0km</title><desc>15324505910</desc></polyline><polyline fill="none" points="133.57171317911707,117.55774926673621 133.92996242444497,117.32739134356962 134.41615782887675,116.71310358692426 135.59326249198057,115.89405333215836 136.10504712804686,115.61250483008916 136.71918869158253,115.35655165667413 137.10302716877777,115.22857507353183 137.48686564574018,115.17738444099086 137.84511489106808,115.04940786139923 138.2033641365124,114.76785939466208 138.7151487725787,114.12797655971372 138.9454518588027,114.0 139.12457648152485,114.10238124759053 139.20134417701047,114.30714374736999 139.55959342222195,114.99821723016794 139.53400419047102,115.2029797572759 139.5851826542057,115.45893292484106 139.76430727669504,115.76607673885883 139.8922534356825,116.07322056684643 140.19932421750855,116.63631762130535 140.78787654906046,117.50655861647101 141.14612579438835,118.27441841168911 141.3252504171105,118.53037169628078 141.99057044414803,120.1428776133398 142.16969506663736,120.45002164138714 142.42558738484513,120.98752372438321 142.7070689346874,121.37145381004666 143.16767510725185,122.39526747909258 144.42154746572487,124.4684906375478 144.42154746572487,124.57087204465643 144.62626132043079,124.87801627549925 145.49629520182498,126.61850051593501 145.54747366544325,126.87445411883527 145.75218751979992,127.36076599126682 145.8801336787874,127.92386399299721 145.82895521528553,128.66612961297506 145.70100905629806,128.99886940035503 145.62424136081245,129.5107767979207 145.75218751979992,130.2786379675381 146.41750754683744,131.48162064384087 147.1851845009951,132.35186356576742 147.7481476009125,133.14532044620137 148.1063968462404,133.83639587037032 148.183164541726,133.98996819651802 148.2599322370952,134.425089806522 148.36228916433174,134.5786621462903 148.31111070071347,135.50009625862003 148.3366999325808,135.78164559608558 148.183164541726,136.6006982815452 148.13198607799131,136.67748447600752 147.92727222351823,137.9060637067014 147.9016829917673,138.90428449810133 148.00403991888743,139.36500183673343 148.38787839608267,140.51679532261915 148.41346762795,140.77274945762474 149.2067338138586,142.922764579067 149.43703690019902,143.97217697350425 149.4882153639337,144.40729923426989 149.46262613194995,145.22635297873057 149.18114458210766,147.01803339581238 149.07878765487112,147.2995832193992 148.87407380051445,147.5555376149132 148.6181814824231,147.70911025689566 148.31111070071347,147.78589657924022 148.13198607799131,147.93946922651958 148.08080761437304,148.09304187743692 147.87609375989996,148.3489963034226 147.0316491103731,148.91209607516066 146.49427524232306,149.475195894629 146.26397215598263,149.73115037372918 145.8801336787874,150.39663206561818 145.4451167380903,151.62521382555133 144.93333210190758,152.87939127295977 144.8053859429201,153.08415496032103 144.57508285657968,153.39130050310632 144.26801207498647,153.64725513302255 143.52592435257975,154.41511908188113 142.68147970282007,156.4115657643124 142.5535335438326,156.9234752668126 142.52794431196526,157.40978933061706 142.45117661659606,157.94729439009097 142.50235508021433,158.1520582336816 142.45117661659606,159.45742788535426 142.3999981529778,159.61100080239703 142.3999981529778,159.71338274911977 142.32323045749217,160.2252925063076 142.32323045749217,160.8139887759171 142.3999981529778,160.99315721620223 142.5535335438326,162.2729319302598 142.7070689346874,162.6312688945327 142.73265816643834,162.86162838176824 142.86060432554223,163.2455608783057 142.93737202102784,163.34794288108242 143.0653181800153,163.8342574161361 143.21885357087012,164.1925944648683 143.57710281619802,165.52356081543257 143.96094129339326,166.52178575395374 144.03770898864605,166.95690949226264 144.39595823409036,167.92953912832309 144.62626132043079,168.44144952052739 144.85656440653838,168.82538234067033 144.85656440653838,169.49086594843538 144.90774287015665,169.82360777739086 144.95892133377492,169.82360777739086 145.0100997975096,170.05396751494845 145.06127826101147,170.59147360053612 144.7797967112856,171.92244123853743 144.7286182475509,172.63911623158492 144.90774287015665,173.30460022337502 144.98451056564227,173.71412886696635 145.21481365186628,174.35401742349495 145.29158134723548,175.07069268045598 145.49629520182498,175.55700807771063 145.5218844335759,175.99213241084362 145.49629520182498,176.1457057117077 145.54747366544325,176.4272567727021 145.49629520182498,176.93916782338056 145.62424136081245,177.2207189182227 145.67541982443072,177.45107891378575 145.726598288049,177.39988780298154 145.726598288049,177.52786558077787 145.8801336787874,177.75822558708023 145.82895521528553,178.03977671684697 145.9313121426385,178.52609233296243 145.85454444703646,179.65229705529055 145.8033659835346,183.33805931048119 145.8801336787874,183.9011620589008 145.8801336787874,184.54105160417384 145.77777675166726,184.82260302378563 145.77777675166726,185.07855887027108 145.77777675166726,185.46249265864026 145.8801336787874,185.74404411774594 146.0848475333769,185.8720220576506 146.51986447395757,185.97440441136132 146.8781137195183,186.0 147.1851845009951,185.94880882275174 147.7481476009125,186.0 148.43905685970094,185.97440441136132 149.28350150946062,185.84642646941938 149.74410768190864,185.667257354944 151.02356927236542,185.360110312904 152.5333339490462,185.05296328515396 153.9151524666231,184.72022068794467 155.75757715688087,184.3874781075865 156.7299679653952,184.02913996297866 158.5979818875203,183.6196106786665 159.0329988283338,183.466037203616 160.9010127503425,183.0053167999722 161.18249430018477,183.0053167999722 162.76902667235117,182.59578757933923 163.63906055386178,182.49340527821914 165.02087907143869,182.08387608939665 165.73737756209448,181.93030265020207 166.35151912539732,181.7511336422467 166.42828682099935,181.64875135422335 166.30034066189546,181.36720007032272 166.14680527104065,180.624928561243 166.0444483438041,180.31778175442014 165.78855602559634,178.91002573943115 165.9676806483185,179.57551036358927 166.14680527104065,180.624928561243 166.22357296629343,181.03445765937795 166.24916219816078,181.6231557824649 166.07003757567145,181.6231557824649 165.30236062128097,181.82792035929742 164.94411137595307,181.87911150456057 163.76700671284925,182.13506723660976 163.35757900390308,182.31423625498428 162.97374052682426,182.3398318293912 161.4895650818944,182.59578757933923 161.02895890944637,182.7749566102575 160.00538963708095,183.05650795434485 158.34208956954535,183.41484604607103 157.90707262873184,183.41484604607103 157.67676954250783,183.6196106786665 156.32054025668185,183.8243753176357 155.68080946139526,184.00354438193608 155.0410786663415,184.08033112529665 153.73602784401737,184.43866927272757 152.94276165787596,184.5666471872828 152.63569087628275,184.66902952064993 152.22626316733658,184.74581627178122 152.07272777636535,184.89938977666316 151.81683545839041,184.95058094579144 151.5097646766808,185.07855887027108 151.17710466322023,185.18094121161266 150.793266186025,185.20653679722454 150.58855233166832,185.1553456261463 149.5649830593029,185.46249265864026 149.36026920494623,185.46249265864026 149.02760919125285,185.616066180286 148.59259225055575,185.667257354944 148.0552183825057,185.667257354944 146.8269352557836,185.7696397055115 146.49427524232306,185.82083088133368 146.26397215598263,185.79523529336439 146.2383829242317,185.74404411774594 146.21279369248077,185.82083088133368 146.05925830162596,185.79523529336439 145.9313121426385,185.6416617675277 145.85454444703646,185.33451472671004 145.8801336787874,185.05296328515396 145.82895521528553,184.77141185567598 145.85454444703646,184.5666471872828 145.77777675166726,184.25950019655284 145.77777675166726,184.05473554407945 145.82895521528553,183.8243753176357 145.8033659835346,183.4916327825922 145.8801336787874,182.97972122294595 145.8801336787874,182.16066281034728 145.57306289719418,181.82792035929742 145.47070596995763,181.59756021079374 145.4451167380903,181.36720007032272 145.47070596995763,180.88088424460148 145.57306289719418,180.24099505488994 145.5986521289451,179.57551036358927 145.70100905629806,179.1147902320081 145.62424136081245,178.730856813665 145.5986521289451,177.45107891378575 145.70100905629806,176.96476337692002 145.726598288049,176.09451461106073 145.62424136081245,175.45462588578812 145.5218844335759,175.09628822674858 145.29158134723548,174.63556840803358 145.29158134723548,174.3028263366723 145.06127826101147,173.4325779217761 145.0100997975096,172.94626268101274 144.88215363840573,172.357565332175 144.90774287015665,172.07601444475586 145.11245672462974,171.10338419879554 145.0868674928788,170.30992278832127 144.8053859429201,169.0045509977208 144.49831516121048,167.82715705462033 144.26801207498647,167.28965119377244 144.1400659158826,166.82893191921175 144.01211975689512,166.5473812672135 143.65387051156722,165.26760572721832 142.86060432554223,163.0152013777115 142.68147970282007,162.14495444772183 142.50235508021433,160.8139887759171 142.29764122574124,160.25088799517835 142.50235508021433,159.73897823598236 142.4767658484634,158.25444015790708 142.5535335438326,157.537766721769 142.52794431196526,157.20502550990204 142.65589047106914,157.00026169550256 143.09090741188265,156.0020381907816 143.16767510725185,155.8996563013643 143.52592435257975,154.95262389889103 144.01211975689512,154.18475988792488 144.2168336113682,154.03118709640694 144.37036900222301,154.00559163148864 144.47272592957597,153.92880523734493 144.85656440653838,153.31451411615126 145.47070596995763,152.0603365866118 145.5986521289451,151.59961836991715 146.0336690696422,150.57580022478942 146.49427524232306,149.70555492542917 147.28754142834805,148.98888241141685 147.59461221005768,148.80971429494093 148.15757530985866,148.3234008603613 148.46464609156828,147.9650646681257 149.02760919125285,147.58113305500592 149.2067338138586,147.2995832193992 149.4114476684481,145.73826162007754 149.46262613194995,145.50790272664744 149.46262613194995,145.04718496350688 149.51380459568463,144.04896325271693 149.46262613194995,143.56265016578254 149.33467997296248,142.9995508462307 149.0531984231202,142.3340698935499 148.59259225055575,140.79834487161133 148.28552146884613,140.2096503736102 148.1063968462404,139.4929788809386 148.00403991888743,138.8786890913034 147.9784506871365,138.82749827808584 147.9784506871365,138.85309368459275 147.95286145538557,138.238803953951 148.00403991888743,137.9060637067014 148.23434300522786,136.98462926244247 148.31111070071347,136.3959351007652 148.4902353233192,136.0631949453964 148.51582455507014,135.88402717624558 148.46464609156828,134.83461605361663 148.2599322370952,133.96437280860846 148.08080761437304,133.55484661483206 147.7481476009125,133.1709158309386 147.6202014418086,132.86377121976693 147.31313066009898,132.58222200520686 146.8781137195183,131.9423374707403 146.62222140131053,131.66078829494654 146.41750754683744,131.30245299747912 146.21279369248077,131.1232853559195 146.21279369248077,130.94411771922023 145.9313121426385,130.45780558648403 145.8033659835346,130.04827960740658 145.8033659835346,129.71553976787254 145.82895521528553,128.89648792558 145.98249060614035,128.1542222799908 145.9313121426385,127.69350571389077 145.64983059256338,126.77207267654012 144.85656440653838,125.13396981192636 144.7286182475509,124.72444415828795 144.49831516121048,124.23813247715589 144.19124437950086,123.72622548247455 142.42558738484513,120.34764029711368 141.65791043045465,118.63275301278918 140.3016811447451,115.94524397014175 140.04578882653732,115.58690951226163 139.9434318994172,115.17738444099086 139.78989650856238,114.97262191475602 139.61077188584022,114.51190625340678 139.5084149587201,114.43512031290447 139.35487956786528,114.10238124759053 139.27811187237967,114.0 139.15016571327578,114.0 138.7919164680643,114.17916718428023 138.30572106363252,114.74226408012328 137.69157950009685,115.2029797572759 136.8215456189355,115.40774229055387 136.3353502143873,115.58690951226163 135.72120865108445,115.89405333215836 134.87676400132477,116.43155505059985 134.44174706062768,116.86667552078143 133.92996242444497,117.45536796658416" stroke="#4dd2ff" stroke-linecap="round" stroke-linejoin="round" stroke-width="0.5"><title>2025-07-05 10.1km</title><desc>15014930419</desc></polyline><polyline fill="none" points="32.53597044121125,218.92970164123108 32.520321669231635,219.06274798259255 32.17604868506896,219.14101054037747 32.00391219303128,219.21144684491446 31.816126928955782,218.96883291720587 31.698761138919508,218.89839662097802 31.612692892871564,218.874917856112 31.401434470782988,218.89839662097802 31.338839382777223,218.88274411104794 31.29971745275543,218.90622287600127 31.119756574713392,218.874917856112 30.96326885462622,218.91404913105362 30.845903064589947,219.01579044936807 30.618995870492654,219.07840049391962 30.50163008045638,219.17231556431216 30.337317974393955,219.21927310113097 30.204303412348963,219.28970940837462 30.094762008317048,219.39927700221597 30.047815692290897,219.41492951610417 30.016518148273462,219.38362448845874 29.570528146083234,219.57928091910435 29.01499673986109,219.59493343436043 28.670723755756626,219.5714546615054 28.256031297554728,219.59493343436043 28.09954357749666,219.5714546615054 27.473592697264394,219.60275969201757 27.027602695074165,219.71232730260817 26.71462725495803,219.84537369475584 26.33123234080267,220.10364024534647 26.010432514711283,220.3462543073838 25.979134970664745,220.4166906533501 25.986959356698208,220.424516914165 25.78352532061399,220.5575633525441 25.454901108460035,220.8706138299167 25.048033036320703,221.13670677332266 24.938491632288788,221.2462744659715 24.915018474275712,221.30888457868423 25.016735492361477,221.62976143638662 24.836774614203023,221.39497348677833 24.73505759620457,221.34018963573908 23.89784829391283,222.06803234772815 23.623994783789385,222.53760842843622 23.52227776570362,222.8193541286455 23.48315583571093,223.12457868104684 23.46750706373132,223.8289432067977 23.49880460771965,224.5333079756383 23.444033905718243,224.86983789548685 23.36579004570376,225.05766857258277 23.30319495763979,225.38637229915184 23.21712671162095,225.5976818656345 23.185829167603515,225.90290683372586 22.951097587501863,226.72466659052589 22.943273201497504,226.95162886753678 22.841556183469947,227.24120146461064 22.80243425347726,227.53860039102437 22.72419039340457,227.6638210046367 22.45033688331023,228.81428575310565 22.30167354925652,229.23690562027332 22.231254075246397,229.54213113458536 22.153010215202812,229.67517816803593 22.121712671185378,229.86300928890705 21.746142143034376,230.8178177556547 21.37057161491248,231.53001124912407 21.33927407086594,231.63175319720176 21.174961964803515,231.88219493732322 20.893284068704816,232.39873112416535 20.822864594694693,232.61004142044112 20.142143012431916,233.760508976251 19.946533362352056,234.14399830703042 19.805694414273603,234.3787877291761 19.649206694215536,234.53531402575027 19.46142143016914,234.66836138737563 19.109324060031213,234.73097191353736 18.858943707920844,234.6761877030367 18.585090197826503,234.47270350565668 18.389480547746643,234.19095618926804 18.35035861772485,234.0266036062094 18.18604651169153,233.70572479207476 17.97478808957385,233.15005672226835 17.724407737492584,232.92309375174227 17.427081069385167,232.83700435580977 17.25494457728928,232.82917804726458 17.02021299721673,232.891788516441 16.112584220885765,233.37701971824572 16.034340360813076,233.43180389350164 16.026515974808717,233.46310913717025 15.901325798768084,233.5335459372145 15.690067376679508,233.59615642818972 15.369267550559016,233.760508976251 14.884155618405202,233.90138259952073 14.766789828339824,233.98747204078245 14.657248424307909,234.26139301469084 14.571180178259965,234.73097191353736 14.485111932212021,234.88749823742546 14.25038035211037,235.17707196861738 14.086068246106151,235.35707728190755 14.0,235.68578267807607 14.015648772066925,235.87361435710045 14.07824386007269,235.97535652384977 14.070419474039227,236.09275133804476 14.148663334111916,236.1866671943135 14.148663334111916,236.21797248070652 14.328624212153954,236.34319363115355 14.40686807219754,236.49189375741116 14.625950880261371,236.64059389465547 14.618126494257012,236.72668345279817 14.774614214344183,236.8675572831562 15.713540534692584,237.2588735302852 16.05781351882615,237.54062127531506 16.284720712923445,237.8380217156373 16.292545098927803,237.93193765326578 16.370788958942285,238.0884642257588 16.88719843517174,238.76935495779617 17.200173875287874,239.4345932520082 17.951314931560773,240.84333389636595 18.006085633620387,240.9137709545612 18.18604651169153,241.0389923974144 18.43642686374369,241.125082143888 18.522495109791635,241.125082143888 19.015431427949807,241.02333971661574 19.328406868095044,240.99203435542586 19.750923712272197,240.88246559505933 20.048250380379613,240.84333389636595 20.447294066514587,240.7337651441485 21.174961964803515,240.62419639789732 21.37057161491248,240.56941202700546 21.746142143034376,240.61637005911325 21.98087372313603,240.5615856884251 22.325146707269596,240.4441906134598 23.882199521845905,240.11548444004438 24.289067594043445,239.9980893911852 24.40643338407972,239.9980893911852 24.641164964152267,239.91982602905773 25.25929145840928,239.8024309915927 25.971310584718594,239.6380779507017 26.55813953492907,239.4893775919336 27.4344707672426,239.3015455755667 27.950880243472056,239.2154559072369 28.076070419483585,239.16849790791457 28.803738317772513,238.99631858638895 29.046294283878524,238.97283958912885 29.21060638994095,238.91022893115587 29.414040425996063,238.91022893115587 29.515757444081828,238.83979194323183 29.797435340180527,238.80066028436704 29.922625516192056,238.75370229470718 31.27624429477146,238.487607040719 31.636166050913744,238.45630171903758 31.8317757009645,238.47978071025864 32.44990219519241,238.42499639785092 32.653336231276626,238.39369107714447 32.96631167139276,238.3858647470479 33.13844816348865,238.41717006762337 33.32623342756415,238.3780384169513 33.44359921757132,238.40151740727015 34.35122799396049,238.33108043718676 34.57031080202432,238.36238575691823 35.36839817435248,238.30760144769738 35.45446642040042,238.33108043718676 36.20560747667332,238.31542777750292 36.53423168879817,238.33108043718676 37.95826994132949,238.2841224584845 38.27906976744998,238.2997751179355 38.61551836557919,238.26846979916445 38.772006085695466,238.2841224584845 38.87372310369392,238.24499081043177 39.01456205174327,238.27629612880992 39.0458595957316,238.26846979916445 39.05368398176506,238.2136854925193 39.194522929843515,238.15107485816407 39.311888719850685,238.25281713997538 39.44490328192478,238.2841224584845 39.60139100198285,238.22933815141732 39.80482503803796,238.25281713997538 40.14909802220063,238.2058591631212 41.041078026551986,237.98672195227118 41.14279504457954,237.9945482808107 41.416648554673884,237.90845866844757 41.82351662684232,237.8380217156373 42.433818735094974,237.69714781738003 42.98152575531276,237.54062127531506 43.26320365141146,237.49366331507917 43.560530319518875,237.407573724151 44.084764181723585,237.30583148506412 44.358617691817926,237.22756822773954 44.71071506195585,237.15713129872165 45.438382960273884,236.95364685100503 45.50097804827965,236.91451522881107 45.712236470368225,236.91451522881107 46.00173875247128,236.85190463486651 47.284938056982355,236.5310253714124 47.425777005031705,236.5153727257275 47.74657683112309,236.40580420929473 48.09867420126102,236.2727567330585 48.29428385136998,236.14753558699158 48.62290806349483,235.8188301155751 48.99847859161673,235.5214299733052 49.17061508371262,235.3414246453467 49.3427515757794,235.23185619269498 49.44446859380696,235.11446142861678 49.64007824388682,234.98924035445089 49.95305368400295,234.66053507174365 50.04694631602615,234.59792454777926 50.28950228213216,234.4179193021846 50.43034123018151,234.26921932876576 51.05629211044288,233.78398791278596 51.39274070857209,233.59615642818972 51.43186263856478,233.54137224846636 51.979569658840774,233.1578830320359 52.34731580092921,232.9543989875383 52.58204738103086,232.7665675800381 52.98109106713673,232.55525726743508 53.286242121306714,232.2969891375542 53.364485981321195,232.14046301426424 53.450554227340035,232.14046301426424 53.505324929370545,232.10133148534806 53.68528580747079,232.21872607438127 53.82612475552014,232.21089976823714 54.045207563613076,232.250031299307 54.19387089763768,232.3282943636441 54.24081721366383,232.3282943636441 54.6789828298206,232.56308357491798 54.75722668986418,232.64134665139136 55.01543142794981,232.7352623471379 55.25016300808056,232.83700435580977 56.06389915235923,233.26745137215767 56.22038687241729,233.48658807024185 56.22038687241729,233.5491985597764 56.13431862639845,233.68224585645657 56.19691371443332,233.90920891219866 56.18908932845807,234.10486673934793 56.21256248647114,234.21443513080885 56.27515757447691,234.42574561685615 56.345577048516134,234.5274877106276 56.486415996507276,234.84836665530747 56.74462073465111,235.13794038088236 56.76809389266418,235.21620355709456 56.979352314723656,235.3414246453467 56.99500108676148,235.4196878294315 57.425342316913884,235.7796985153982 57.534883720916696,235.9049196386186 57.80091284503578,236.1240566229826 58.12953705718974,236.64059389465547 58.278200391243445,236.82059933860728 58.59117583135958,237.0397364225355 58.73201477943803,237.06321539722558 59.46750706373132,237.07104172219988 59.68658987179515,237.0397364225355 60.82895022825687,236.85190463486651 61.98695935669821,236.71103080558532 62.39382742883754,236.624941248112 63.074549011100316,236.5466780172137 63.31710497720633,236.49189375741116 63.70832427733694,236.4684147893713 63.83351445340668,236.4214568541356 64.27168006956344,236.35884627551422 64.38122147359536,236.36667259773822 64.82721147578559,236.2727567330585 65.02282112589455,236.2649304112274 65.33579656601069,236.1866671943135 65.66442077810643,236.15536190841522 66.23560095630819,236.0536197325564 66.36079113237793,236.10840398044093 66.45468376445933,236.07709869576502 66.6659421864897,236.07709869576502 66.96326885462622,235.95187756184896 67.4170832427626,235.87361435710045 67.77700499893399,235.74839323581546 68.12127798309666,235.47447206011566 68.30906324711395,235.2631614642596 68.38730710715754,235.04402457344986 68.41078026519972,234.86401928807027 68.3012388611678,234.25356670064502 68.23864377307473,233.56485118245473 68.26994131712127,233.36919340760505 68.37165833517793,233.07179362610623 68.3560095631401,232.92309375174227 68.62986307326355,232.3752522037248 68.76287763530854,232.250031299307 69.10715061944211,231.77262667221657 69.45924798960914,231.43609560928599 69.77222342972527,231.2639169475442 69.8035209737136,231.2717432500358 69.85829167574411,231.35000627658155 70.06172571179923,231.2560906450817 70.85981308412738,231.2013065287174 71.0632471202116,231.13869611184055 71.08672027819557,231.16217501794745 71.29015431427979,231.1700013200316 71.65007607045118,231.12304350791965 71.7596174744831,231.12304350791965 71.78309063252527,231.15434871587786 71.86133449251065,231.12304350791965 72.00999782656436,231.13869611184055 72.20560747664422,231.06825939514965 72.74549011085765,230.96651747537544 73.18365572704352,230.76303365113563 73.91132362530334,230.442155354438 74.32601608347613,230.19171379228646 74.72505976966931,230.00388264097273 75.09280591175775,229.77692002301046 75.31971310585504,229.67517816803593 75.42925450991606,229.5890889101138 75.49967398395529,229.5890889101138 75.92219082810334,229.3229948632652 76.46989784832112,228.84559092542622 76.50901977834292,228.76732799551974 76.61073679637047,228.69689136116358 76.87676592046046,228.32122935255757 76.89241469249828,228.26644531545753 77.03325364051852,228.09426692269335 77.40882416866953,227.47599008711404 77.5261899587349,227.3664220599021 77.6592045207799,227.05337058614532 77.81569224083796,226.82640829778393 77.87046294283937,226.70118773572904 78.02695066292654,226.5368357597181 78.19126276895986,226.4116152154893 78.32427733100485,226.34900494624162 78.81721364922123,226.27074211242143 79.27102803741582,226.41944149929623 79.38056944144773,226.49770433883532 79.67789610955515,226.55248832830694 79.90480330362334,226.6307511729683 79.99087154967128,226.6307511729683 80.26472505976562,226.70118773572904 80.48380786788766,226.70901402064192 80.60117365789483,226.76379801580333 80.77331014999072,226.7794505861093 80.8906759400561,226.82640829778393 81.06281243212288,226.79510315654625 81.34449032822158,226.95162886753678 81.8296022604045,226.9751077252149 81.97044120845385,226.94380258170713 82.3538361225801,226.73249287552608 82.6746359487006,226.51335690708947 82.72940665076021,226.51335690708947 82.84677244079649,226.43509406695375 83.0502064768807,226.35683122981573 83.59791349709849,225.94986452517333 83.87959139316808,225.78551260981476 83.97348402522039,225.67594467362505 84.12997174530756,225.56637674329977 84.74809823950636,225.25332554630586 84.80286894156598,225.2689781049994 84.92023473160225,225.40202485887858 85.17843946968787,225.2611518256308 85.42881982179824,225.22202042925346 86.0,225.28463066382392" stroke="#4dd2ff" stroke-linecap="round" stroke-linejoin="round" stroke-width="0.5"><title>2024-09-29 17.0km</title><desc>12527761096</desc></polyline></svg>