<?xml version="1.0" encoding="utf-8" ?>
<svg baseProfile="full" height="300mm" version="1.1" viewBox="0,0,200,300" width="200mm" xmlns="http://www.w3.org/2000/svg" xmlns:ev="http://www.w3.org/2001/xml-events" xmlns:xlink="http://www.w3.org/1999/xlink"><defs /><rect fill="#222222" height="300" width="200" x="0" y="0" /><text fill="#FFFFFF" style="font-size:12px; font-family:Arial; font-weight:bold;" x="10" y="20">Over 10km Runs</text><text fill="#FFFFFF" style="font-size:4px; font-family:Arial" x="10" y="280">Runner</text><text fill="#FFFFFF" style="font-size:9px; font-family:Arial" x="10" y="290">Zakiyys</text><text fill="#FFFFFF" style="font-size:4px; font-family:Arial" x="65" y="280">SPECIAL TRACKS</text><rect fill="yellow" height="2.6" width="2.6" x="65" y="283" /><text fill="#FFFFFF" style="font-size:3px; font-family:Arial" x="70" y="285.5">Over 20.0 km</text><rect fill="red" height="2.6" width="2.6" x="65" y="287" /><text fill="#FFFFFF" style="font-size:3px; font-family:Arial" x="70" y="289.5">Over 40.0 km</text><text fill="#FFFFFF" style="font-size:4px; font-family:Arial" x="120" y="280">STATISTICS</text><text fill="#FFFFFF" style="font-size:3px; font-family:Arial" x="120" y="285">Number: 8</text><text fill="#FFFFFF" style="font-size:3px; font-family:Arial" x="120" y="290">Weekly: 1.0</text><text fill="#FFFFFF" style="font-size:3px; font-family:Arial" x="141" y="285">Total: 539.2 km</text><text fill="#FFFFFF" style="font-size:3px; font-family:Arial" x="141" y="290">Avg: 67.4 km</text><text fill="#FFFFFF" style="font-size:3px; font-family:Arial" x="167" y="285">Min: 10.0 km</text><text fill="#FFFFFF" style="font-size:3px; font-family:Arial" x="167" y="290">Max: 438.7 km</text><polyline fill="none" points="30.913585499569308,43.84979217092041 30.780694611021318,44.348251877119765 30.813917333143763,44.597481751581654 30.764083249960095,44.8965576197952 30.780694611021318,45.627632050716784 30.797305972140748,45.86024666807498 30.863751416269224,45.89347732873284 31.112921832245775,45.84363133786246 32.176048940222245,45.36178678891156 32.45844207826303,45.145787525660126 32.70761249412317,44.81348098767921 32.84050338267116,44.69717370538274 33.25578740920173,44.46455915013212 33.77073960204143,44.215329283237224 34.186023628572,43.8331768483622 34.55147357197711,43.63379298264044 34.86708943214035,43.56733169607469 35.04981440375559,43.48425508927903 35.23253937542904,43.334717201069 35.58137795777293,42.98579548188718 36.07971878955141,42.68671974478639 36.59467098239111,42.48733593148063 37.12623453640845,42.387644028203795 37.475073118752334,42.105183648032835 37.75746625679312,41.77287734186393 38.521588865551166,41.24118730460759 39.01992969738785,40.991957621939946 39.30232283542864,40.92549637562479 39.36876827973174,40.875650441565085 39.933554555813316,40.74272795347497 40.23255905485712,40.52672891903785 40.54817491507856,40.144576807302656 40.780733969877474,40.02826964951237 40.81395669199992,39.92857780243503 40.780733969877474,39.8621165723016 40.56478627608158,39.496579824743094 40.24917041591834,38.748891118128086 39.99999999994179,38.333508558629546 39.31893419654807,36.871362263249466 39.23587739118375,36.78828578389948 39.10298650263576,36.38951870484743 39.06976378057152,35.77475286254776 39.10298650263576,34.87752719366108 39.18604330805829,34.41229914146243 39.16943194693886,33.84737943019718 39.219266030180734,33.0 39.40199100179598,33.09969168913085 39.43521372397663,33.3156903568015 39.38537964067655,33.581534885423025 39.35215691861231,34.32922270873678 39.30232283542864,34.678143736644415 39.30232283542864,35.259678844944574 39.25248875224497,35.65844582102727 39.2691001133644,36.239981059596175 39.36876827973174,36.62213282988523 40.11627952742856,38.167355545883765 40.31561586022144,38.49966157771996 40.747511247813236,39.38027268418227 40.91362485836726,39.679348194709746 41.212629357527476,40.34396051359363 41.76080427248962,41.35749449473224 42.35881327075185,42.58702783699846 42.57476096448954,42.91933420521673 43.03987907426199,43.916253461822635 44.003338015812915,45.77717001759447 44.05317209899658,45.9433233201853 44.31895387591794,46.375321936560795 44.684403819264844,47.20608862696099 45.16613329004031,48.11993216958945 45.41530370595865,49.00054521957645 45.398692344955634,49.34946742080501 45.31563553959131,49.63192827088642 45.38208098389441,49.997465868800646 45.38208098389441,50.44608023556066 45.43191506701987,50.57900301981135 45.46513778914232,50.89469464862486 45.58141731651267,51.06084814670612 46.279094481200445,51.908231085777516 46.66115578560857,52.423307070712326 46.91032620158512,52.921767759515205 46.99338300683303,53.254074917174876 47.0432170900167,53.85222786513623 46.99338300683303,54.15130437002517 46.99338300683303,54.35068871808471 46.794046674098354,55.131610836222535 46.794046674098354,55.39745669576223 46.71098986879224,55.61345646867994 46.71098986879224,56.04545604673331 46.74421259085648,56.294686592096696 46.794046674098354,56.510686409746995 46.94354892364936,56.85960921479273 46.9767716457136,57.10883980701328 47.05982845101971,57.32483966520522 47.142885256325826,57.4411472856591 47.20933070057072,57.80668554158183 47.4086670333636,58.25530071606045 47.70767153246561,59.15253120448324 47.740894254588056,59.534684987535 47.724282893468626,60.19930034279241 47.64122608816251,60.697761926276144 47.657837449223734,60.930377351585776 47.57478064397583,61.27930051297881 47.59139200497884,61.49530057940865 47.42527839442482,62.19314702154952 47.45850111654727,62.57530107337516 47.541557921795174,62.741455019509885 47.84056242095539,63.140224516246235 48.023287392628845,63.2731476900226 48.654519112897106,63.42268626540317 48.80402136244811,63.38945547043113 49.23591675009811,63.455917060608044 49.18608266685624,63.5223786518618 49.11963722266955,63.5223786518618 48.9369122509961,63.47253245834145 48.023287392628845,63.33960927845328 47.80733969877474,63.2731476900226 47.60800336609827,63.05714753470966 47.52494656073395,62.85776278557023 47.292387505818624,62.59191646773252 47.192719339509495,62.392531740042614 47.09305117314216,62.34268555956078 46.89371484046569,62.34268555956078 46.3953740085708,62.70822422977653 46.17942631483311,62.77468580947607 46.029924065223895,62.85776278557023 45.498360511264764,63.455917060608044 45.21596737328218,64.05407141856267 45.09968784585362,64.38637943097274 44.96679695730563,64.58576425074716 44.800683346693404,65.10084174430813 44.61795837507816,65.49961145906127 44.31895387591794,65.9149966177356 43.82061304413946,66.38022804298089 43.521608544979244,67.02822904029745 43.471774461795576,67.24422939441865 43.22260404587723,67.825768863142 43.15615860163234,68.15807716615382 43.122935879509896,69.28792558831628 43.15615860163234,69.8528499105305 43.122935879509896,70.03561956007616 43.122935879509896,70.4343897314684 43.18938132375479,71.1986993298633 43.43855173973134,71.9796244946192 43.588053989224136,72.64424176776083 43.82061304413946,73.15932022512425 44.25250843173126,74.45532435865607 44.3521765981568,74.50517067927285 44.31895387591794,74.50517067927285 44.25250843173126,74.60486332231085 44.25250843173126,74.72117140874616 44.43523340340471,75.13655745744472 44.48506748658838,75.3857891059306 44.767460624629166,76.16671503160615 44.817294707812835,76.81471750329365 44.684403819264844,77.71195185644319 44.684403819264844,78.16056910337647 44.750849263509735,78.59257094113855 44.90035151311895,79.00795736460714 44.96679695730563,79.53965204543783 45.09968784585362,79.9716540221707 45.18274465110153,80.43688696890604 45.21596737328218,80.96858182703727 45.16613329004031,81.2344292808557 45.19935601222096,81.99874080257723 45.16613329004031,82.19812643935438 45.18274465110153,82.48058944073273 45.149521928979084,82.81289887797902 45.149521928979084,83.06213097285945 45.18274465110153,83.1950547627057 45.13291056791786,83.46090235482552 45.18274465110153,83.9427511576796 45.149521928979084,84.09229045236134 44.91696287418017,84.15875236282591 44.85051742987707,84.85660248462227 44.88374015199952,85.17229662480531 44.817294707812835,85.40491337460116 44.817294707812835,85.63753013702808 44.750849263509735,85.82030045925057 44.70101518032607,86.45168890530476 44.58473565289751,86.51815085241105 44.3521765981568,86.51815085241105 44.13622890424449,86.65107474976685 43.986726654693484,86.68430572474608 42.82393138046609,86.70092121235211 42.425258714938536,86.75076767549035 42.29236782644875,86.78399865125539 41.72758155036718,86.78399865125539 40.897013497306034,86.83384511538316 40.382061304408126,86.80061413923977 40.149502249551006,86.83384511538316 39.933554555813316,86.80061413923977 39.568104612408206,86.80061413923977 39.2026546690613,86.83384511538316 38.53820022661239,86.80061413923977 36.96012092579622,86.86707609178848 36.39533464971464,86.78399865125539 35.76410292944638,86.88369158003479 35.647823401901405,86.86707609178848 35.16609393118415,86.86707609178848 34.152800906449556,86.90030706845573 34.036521379079204,86.85046060354216 33.787350963102654,86.85046060354216 33.53818054718431,86.90030706845573 33.156119242776185,86.90030706845573 33.10628515959252,86.90030706845573 33.10628515959252,86.95015353392228 33.12289652071195,86.98338451122981 33.3056214923854,87.0 35.34881890291581,86.96676902254694 36.59467098239111,86.90030706845573 38.455143421306275,86.91692255687667 39.00331833632663,86.88369158003479 41.26246344065294,86.86707609178848 42.541538242425304,86.80061413923977 42.94021090789465,86.76738316332921 44.767460624629166,86.75076767549035 44.83390606881585,86.70092121235211 44.85051742987707,86.56799731345382 44.85051742987707,86.35199598656618 44.78407198563218,86.10276369989151 44.867128790938295,85.67076110409107 44.85051742987707,85.50460627122084 44.90035151311895,85.27198951601167 44.90035151311895,84.90644892625278 44.95018559630262,84.32490714339656 44.95018559630262,83.66028805979295 44.88374015199952,83.44428687982145 44.95018559630262,83.21167023672024 44.93357423518319,82.6467441561108 44.983408318366855,82.48058944073273 44.96679695730563,82.01535627190606 45.01663104043109,81.71627783298027 44.96679695730563,81.18458288203692 45.000019679486286,80.93535089644138 44.983408318366855,80.22088595162495 44.867128790938295,79.78888394977548 44.88374015199952,79.68919118630583 44.60134701401694,78.72549459227594 44.48506748658838,77.92795274726814 44.5016788476496,77.57902823673794 44.634569736081176,76.96425654910854 44.66779245826183,76.51563942726352 44.60134701401694,76.1833304783504 44.46845612546895,75.86763700071606 44.46845612546895,75.70148254811647 44.10300618218025,74.70455596761894 44.10300618218025,74.57163244107505 44.03656073787715,74.30578540021088 43.88705848832615,74.02332293736981 43.80400168302003,73.77409136792994 43.604665350343566,73.09285848520813 43.488385822915006,72.8270115358755 43.42194037861191,72.52793373752502 43.305660851241555,72.26208682311699 43.07310179632623,71.54762332214159 42.92359954683343,70.60054398042848 42.85715410253033,70.40115888245055 42.85715410253033,70.21838921739254 42.790708658401854,69.96915786844329 42.85715410253033,69.7863882217207 42.82393138046609,69.27131016817293 42.87376546364976,68.70638592226896 42.85715410253033,68.4405392439512 42.906988185714,68.32423132727854 42.97343362995889,67.92546135134762 43.604665350343566,66.44668967925827 43.754167599836364,66.21407395676943 44.169451626366936,65.83191958276439 44.518290208652616,65.25038038304774 44.73423790250672,64.6522258593468 44.983408318366855,64.2036100209807 45.13291056791786,63.754994229238946 45.265801456407644,63.48914785613306 45.448526428081095,63.28976308705751 45.43191506701987,63.140224516246235 45.54819459450664,63.223301499383524 45.53158323338721,63.190070705953985 45.56480595556786,63.123609119822504 45.88042181567289,62.80791659976239 46.328928564325906,62.47560870880261 46.74421259085648,62.11007005829015 47.12627389532281,61.86083917788346 47.27577614487382,61.6946852656547 47.35883295012172,61.39560823971988 47.44188975542784,60.71437731338665 47.47511247755028,60.13283880267409 47.52494656073395,59.96668495683116 47.541557921795174,59.518069604964694 47.42527839442482,58.98637739630067 46.66115578560857,56.90945533209015 46.561487619241234,56.36114807333797 46.511653536057565,55.6965333072294 46.64454442448914,54.965457182290265 46.74421259085648,54.50022698513931 46.76082395197591,54.25099654291989 46.794046674098354,54.167919732048176 46.77743531303713,53.93530466998345 46.82726939616259,53.42022850559442 46.794046674098354,53.27069027573452 46.511653536057565,52.62269133940572 46.279094481200445,52.24053816587548 46.14620359271066,52.12423068494536 45.76414228830254,51.592539383273106 45.69769684399944,51.575924031145405 45.54819459450664,51.376539810560644 45.18274465110153,50.74515650581452 45.06646512373118,50.296542108175345 45.06646512373118,49.997465868800646 45.18274465110153,49.00054521957645 45.149521928979084,48.75131509304629 44.983408318366855,48.26947022214881 44.71762654138729,47.58824135779287 44.58473565289751,47.405472656246275 44.36878795910161,46.97347393765813 44.25250843173126,46.80732059577713 43.953503932629246,46.17593795445282 43.82061304413946,45.95993865077617 43.50499718397623,45.24547949194675 43.37210629542824,45.07932621601503 43.25582676805789,44.78025033528684 42.99004499102011,44.29840590394451 42.3920359928743,43.002410801214864 42.308979187568184,42.90271888618008 42.29236782644875,42.786411654844414 42.126254215836525,42.57041251924238 42.09303149371408,42.40425934526138 41.99336332734674,42.32118276064284 41.97675196634373,42.20487554484862 41.69435882824473,41.65657014067983 41.51163385657128,41.27441793002072 41.411965690145735,41.174726054479834 41.013293024734594,40.44365237018792 40.76412260881625,39.87873187975492 40.49834083189489,39.363657378649805 40.41528402658878,39.114427803171566 39.800663667265326,37.98458723918884 39.551493251288775,37.38643647063873 39.41860236291541,37.187052899302216 39.38537964067655,37.037515226751566 39.2026546690613,36.77167048820411 39.06976378057152,36.37290341069456 39.451825084979646,37.30335998148075 39.800663667265326,37.96797193895327 39.83388638938777,38.10089434258407 40.049834083241876,38.449815671338 40.56478627608158,39.546425743057625 40.747511247813236,39.82888595762779 40.83056805311935,40.04488495757687 40.963458941550925,40.244268659327645 41.212629357527476,40.92549637562479 41.34552024595905,41.14149542985251 41.47841113450704,41.30764855572488 41.794026994670276,42.00549175354536 42.126254215836525,42.58702783699846 42.192699660081416,42.8030269734445 42.35881327075185,42.98579548188718 42.55814960337011,43.500870410498464 42.85715410253033,44.03256072325166 42.840542741527315,44.09902201688965 42.774097297282424,44.1488679877948 41.89369516103761,44.54763577558333 40.94684758054791,45.09594154331717 40.780733969877474,45.22886416412075 40.48172947083367,45.627632050716784 40.46511810971424,45.5777860628732 40.84717941406416,45.145787525660126 41.72758155036718,44.63071240260615 42.62459504767321,44.215329283237224 42.80732001934666,44.09902201688965 42.85715410253033,44.01594539996586 42.45848143706098,43.168563997984165 42.3920359928743,43.06887207913678 41.92691788316006,42.18826022854773 41.77741563360905,41.78949265656411 41.411965690145735,41.19134136696812 41.17940663540503,40.626420779764885 41.04651574691525,40.49349829929997" stroke="#4dd2ff" stroke-linecap="round" stroke-linejoin="round" stroke-width="0.5"><title>2026-06-21 12.1km</title><desc>19003985402</desc></polyline><polyline fill="none" points="167.21659472593456,33.71592393424362 167.18496033805422,33.73183336883085 167.12960015932913,33.63637677038787 166.56808977515902,33.10341115981282 166.48900380558916,33.0 166.36246625424246,33.0 166.2833802846435,33.05568292904354 166.23592870286666,33.15909410250606 166.19638571809628,35.30687036518066 166.13311694239383,36.301214935447206 166.11729974849732,39.125166316880495 166.19638571809628,39.45926886012603 166.37828344816808,39.65813954749319 166.56808977515902,39.809281332738465 166.70253592348308,39.85701032882207 167.37476666510338,39.83314583009633 167.76228791609174,39.86496516202169 168.21307794284075,39.817236165035865 169.75525435002055,39.78541683671938 170.70428598520812,39.70586852643464 172.18319361665635,39.66609437693842 172.50744609202957,39.5945009173156 172.57071486770292,39.54677195099066 172.60234925558325,39.371765787451295 172.58653206162853,39.16494041525584 172.50744609202957,38.99788922730659 172.16737642275984,38.56832933408441 171.93011851396295,38.36945916157856 171.87475833523786,38.25013710316853 171.70076920214342,38.09104107787425 171.6137746355671,38.059221880015684 171.25788777240086,37.70125607000955 171.21043619062402,37.58988899117685 171.28161356324563,37.54216025212372 171.67704341126955,37.80466838386201 172.23855379541055,38.41718799440423 172.27018818323268,38.40127838285116 172.4679031072301,38.58423895193846 172.58653206162853,38.74333516359911 172.76052119478118,38.854702547512716 173.09268226707354,38.854702547512716 173.1717682366725,38.894476620364 173.44856913023978,39.73768784875574 173.39320895154378,39.80132650058658 172.80006417955155,39.76950717346335 171.558414456842,39.85701032882207 171.18671039975015,39.84905549575342 170.51447965815896,39.90473933031899 170.14277560106711,39.920648998682736 169.24910414457554,39.89678449634812 168.78249692393,39.94451350237068 168.4424272546603,39.936558667657664 167.56457299212343,40.03997153061209 167.28777209852706,40.02406185773725 166.9714282201312,40.04792636728962 166.43364362686407,40.04792636728962 166.27547168766614,40.11951990405214 166.1726599271933,40.23884249237017 166.18847712111892,41.185469558637124 166.23592870286666,41.75026487301511 166.2122029119928,42.25937679207709 166.2280201059475,42.58552693903039 166.267563090747,42.72871488828969 166.267563090747,43.540114188188454 166.3545576572942,43.786716246351716 166.38619204511633,44.041273361304775 166.3545576572942,44.33560521755135 166.3545576572942,45.03563856823894 166.2991974785691,45.27428656780103 166.33083186639124,45.489069883245975 166.2991974785691,45.93454673918313 166.2280201059475,46.41184389439877 166.25174589679227,46.76186215269263 166.22011150897015,47.28689008667425 166.23592870286666,48.106253173042205 166.19638571809628,48.21762303629657 166.23592870286666,48.416497865502606 166.23592870286666,48.58355279474927 166.267563090747,48.63128278676595 166.31501467246562,48.623327787718154 166.24383729984402,48.7267427869956 166.2122029119928,49.06880796603218 166.24383729984402,49.27563820939395 166.2122029119928,49.538153664936544 166.25965449374053,50.49275670446514 166.3387404633395,50.80300315946806 166.62344995391322,51.24848564955755 166.6471757447871,51.479182124792715 166.71044452046044,51.63828321605979 167.25613771070493,52.362193942506565 167.36685806812602,52.433789576694835 167.39849245597725,52.513340295656235 167.37476666510338,52.576980881683994 167.31149788943003,52.5610707342712 167.28777209852706,52.47356493429106 167.12960015932913,52.3065084576956 167.0109712049598,52.203092576921335 166.89234225053224,52.00421595474472 166.67090153569006,51.741698957717745 166.54436398431426,51.74965401580266 166.4099178359902,51.83715966492309 166.32292326941388,51.95648557944514 166.29128888162086,52.250822980262456 166.30710607551737,52.78381285289652 166.3545576572942,52.76790269766934 166.33083186639124,52.75994762025948 166.3545576572942,52.72017223552393 166.37828344816808,52.73608238896122 166.36246625424246,52.76790269766934 166.3941006420646,52.74403746590542 166.37828344816808,52.71221715901629 166.34664906031685,52.73608238896122 166.4099178359902,52.69630700649577 166.36246625424246,52.70426208268327 166.33083186639124,55.24989420820202 166.29128888162086,55.520368529105326 166.30710607551737,55.894259789187345 166.25965449374053,56.49885061697569 166.1726599271933,56.968204623583006 165.89585903359693,58.01033149911382 165.78513867614674,58.57514943747083 165.64278393090353,59.55363865265099 165.64278393090353,59.74456364384969 165.58742375217844,59.903667869613855 165.6111495430523,60.14232432145218 165.5399721704016,60.579861502803396 165.45297760385438,60.94580204159138 165.37389163425541,61.92429679093766 165.08127354673343,62.815285867400235 164.7253866835381,63.57899229829491 164.62257492309436,63.73809797997819 164.36949982037186,64.3824766089092 164.14805910550058,64.80410760639643 164.00570436019916,64.99503499017737 163.83171522710472,65.43257723969873 163.2939306338376,66.22810977384506 162.6216998922464,66.99182242885581 162.61379129526904,67.07933125954878 162.59797410134342,67.06342056168069 162.44771075909375,67.14297405698744 162.33699040167267,67.27821503370069 162.37653338644304,67.27025968091039 162.10764108982403,67.42141140962485 161.9890121354547,67.54869711822539 161.73593703273218,67.71575966950331 161.47495333303232,67.94646520710376 161.1348836637917,68.16921550199913 160.771088203619,68.52720729581779 160.56546468270244,68.61471644755511 160.4072927435045,68.76586866182333 160.17794343165588,68.91702093071945 159.94859411980724,69.1159055782191 159.81414797148318,69.3068349287496 159.65597603228525,69.44207660476968 159.30799776606727,69.68073849262146 158.93629370894632,69.99099915039551 158.7781217697484,70.07850860829058 158.53295526400325,70.31717085924174 157.71046118013328,70.92973792660632 157.63928380754078,71.03315842908341 156.89587569329888,71.5900384974666 156.39763408483122,72.03554308609455 156.04965581861325,72.24238466356474 155.89939247636357,72.35376093999366 155.3695164800447,72.79131088453869 154.5549309931812,73.41183704562718 153.91433463944122,73.7936997564102 153.5742649701715,74.05623057243065 152.64105052888044,74.62902565246623 151.84228223597165,75.24955454171868 151.69201889369288,75.42457567708334 151.19377728522522,75.71892957003729 150.87743340682937,76.01328367035603 150.32383161966573,76.39514875817986 150.28428863489535,76.45879297339707 148.9872787334316,77.42141291119333 148.85283258513664,77.54074611584656 148.59975748241413,77.77145707492309 148.5523059006955,77.85896816168679 148.59975748241413,77.82714594618301 148.47321993106743,77.86692371593381 147.88798375602346,78.35221281186386 147.70608602595166,78.72612446710991 147.36601635668194,79.0761697244161 147.11294125398854,79.48985995224211 146.8835919421399,80.12630725698546 146.7570543907641,80.86617846833542 146.7570543907641,81.01733511372004 146.78078018163797,81.11280249687843 146.8282317634148,81.12871372951486 146.74914579381584,81.29578170899185 146.7728715846897,81.71742976403038 146.72542000294197,82.96646518199123 146.74914579381584,83.2687800489366 146.72542000294197,83.42789322481258 146.7570543907641,83.55518380920694 146.73332859989023,83.73816409229767 146.76496298774146,85.01902832133055 146.7412371968676,85.40885734568292 146.7412371968676,85.65548405949085 146.85195755428867,86.14873792469734 146.6858770181425,86.77723966285703 146.71751140599372,86.79315111156029 146.72542000294197,87.0 146.6858770181425,86.78519538712862 146.58306525766966,86.58630232575524 146.55143086978933,86.33171934564598 146.61469964549178,86.02144654878066 146.7412371968676,85.72708539082669 146.7016942120681,85.6952625753911 146.71751140599372,84.70875650113157 146.67005982421688,84.51782011112664 146.71751140599372,84.22346001442929 146.67796842119424,84.03252384654479 146.69378561509075,83.85749910277082 146.67005982421688,83.38811492516834 146.646334033343,83.29264702145883 146.63842543639475,83.16535651718732 146.63842543639475,80.88208969160041 146.76496298774146,80.08652927202638 146.86777474818518,79.7762611193175 146.84404895731132,79.73648316769686 146.86777474818518,79.73648316769686 147.1208498509368,79.15572550561046 147.2473874023126,78.94888050598092 147.42137653543614,78.5351908140874 147.52418829587987,78.44767958561715 147.83262357732747,78.31243499589618 148.14105885877507,77.97034593499848 148.56021449761465,77.61234605502978 148.78165521248593,77.46914618894516 149.05054750913405,77.21456877050514 149.4064343723585,76.98385811901244 149.422251566255,76.94408043338626 149.71486965374788,76.72132546373177 150.07866511392058,76.49061508466548 150.31592302268837,76.25990483298665 151.44685238794773,75.44048669301264 152.03999715996906,74.93928998192132 152.47496999273426,74.65289213118376 152.89412563163205,74.31876155333885 153.6849853276217,73.8414326197817 154.67355994757963,73.22090582102828 155.59095719491597,72.48900360122207 155.81239790984546,72.21851832249376 156.15246757905697,71.86847880973073 156.27900513043278,71.65368198107171 156.55580602402915,70.82631744969694 156.61116620275425,70.53992241629749 156.73770375410095,70.2773938079481 156.78515533584869,69.95917753389222 156.71397796322708,69.6727830941818 156.46090286053368,69.21932563227892 156.1129245942575,68.73404713849595 155.79658071586164,68.2169477235002 155.58304859796772,68.01806350325933 155.3141563013196,67.68393822600774 154.8633662746579,66.87249223465915 154.6972857384535,66.70543001995247 154.60238257492892,66.49859117982851 154.35721606918378,66.1724224472564 154.28603869653307,66.10082446680462 154.23858711478533,66.08491380614578 154.1515925482381,65.95762854263012 153.67707673064433,65.50417510587431 153.55844777624588,65.40075596976385 153.34491565832286,65.297336859192 152.56987315622973,64.01653306838125 151.99254557819222,63.33237861111411 151.91345960859326,63.18918363357079 151.7790134602983,63.053943977487506 151.60502432714566,62.75959899461304 150.7825302433339,61.83678903739201 150.37128320144257,61.30378766046488 150.03121353214374,60.93784680910176 149.86513299596845,60.794652649899945 149.37479998447816,60.19005562814709 148.84492398815928,59.31498253594327 148.02242990434752,57.66030386277998 147.63490865330095,56.777280896523735 147.6428172502783,56.72159482580901 147.72981181682553,56.67386391398031 147.84053217427572,56.70568452127918 147.9907955165254,56.936383996362565 148.18060184354545,57.373917832170264 148.47321993106743,57.898959037673194 148.63930046721362,58.31262832923676 149.0584561060823,59.06837135805108 149.1691764635325,59.33089293948433 149.51715472977958,59.80820532690268 149.58042350545293,59.92753350868588 150.1656596804678,60.492354030007846 150.28428863489535,60.691234676443855 150.39500899231643,60.802607879653806 151.43103519405122,62.170909649241366 152.0162713690952,62.80733059940394 152.12699172651628,62.974391259020194 152.34843244138756,63.2448705634597 152.6647763197834,63.59490286374057 152.99693739207578,64.08017540028959 153.06020616780734,64.24723656756396 153.1392921373772,64.34270012161869 153.28955547962687,64.62909091438632 153.45563601577305,64.8279735246033 153.72452831239207,65.09845402608335 154.11204956343863,65.36893470225914 154.21486132388236,65.39280065265484 154.29394729351043,65.37689001891704 154.34930747220642,65.25756028502656 154.2781300995848,65.1302752730262 154.19904412998585,65.09049871470779 154.11204956343863,65.0745880924369 153.98551201206283,65.09049871470779 153.3370070613455,65.28142622907762 153.14720073435456,65.36097938576131 152.86249124375172,65.40075596976385 152.3247066504846,65.55190702344407 151.56548134237528,65.68714748616912 149.6753266689775,66.15651178386179 148.75792942161206,66.40312713422463 148.03824709824403,66.58609990739205 147.34229056577897,66.72134070418542 146.6858770181425,66.89635827078018 146.70960280898726,66.92022430825455 146.85195755428867,66.92022430825455 147.00222089650924,66.87249223465915 147.1920272235875,66.85658154467819 147.41346793842968,66.7690727605368 147.8958923529717,66.6497426298447 148.061972889147,66.6338319483475 148.21223623142578,66.56223388896615 148.29132220096653,66.57018922829593 148.53648870674078,66.48268050403567 148.89237556993612,66.4429038172384 149.1849936574581,66.33948444927228 149.64369228112628,66.25993110667332 149.80977281730156,66.19628844344697 149.99167054737336,66.24402043994633 150.01539633824723,66.57018922829593 149.983761950396,67.65211678495689 150.01539633824723,67.86691155907465 149.9995791442925,68.66244871984236 150.02330493516638,68.87724401253217 149.77813842942123,68.94088708340132 149.58042350545293,69.02839632166433 149.28780541793094,69.2750133642694 149.23244523920584,69.38638885052933 149.26407962705707,69.41025503001583 149.51715472977958,69.25114719250996 149.54088052065345,69.25910258294607 149.4934289389057,69.32274571190646 149.6041492963268,69.3625226724107 149.64369228112628,69.45798739306338 149.77022983247298,69.53754134358314 149.69905245985137,69.83189109203522 149.7306868476735,70.66720907359559 149.8018642203242,70.77062951117114 149.92049317472265,70.83427287006634 150.1102995017427,70.84222829062492 150.2210198591929,70.78654034998908" stroke="#fff800" stroke-linecap="round" stroke-linejoin="round" stroke-width="0.5"><title>2026-06-14 21.1km</title><desc>18910854619</desc></polyline><polyline fill="none" points="13.371928518288769,108.0350548907154 13.301563663524576,108.55788996402407 13.311615785583854,109.10083418835711 13.381980640406255,109.17121585526911 13.633283693226986,109.12094323585916 14.155994043219835,108.87963467605005 14.286671630688943,108.77908944932278 14.457557706686202,108.5277263992757 15.14110201044241,108.16576364931825 15.392405063321348,107.91440065772622 15.86485480266856,107.74347383713757 16.166418466193136,107.46194733325683 16.38756515266141,107.33123860952037 16.839910647831857,107.12009376176866 17.15152643341571,107.05976666552306 17.543559195881244,106.68774960239534 17.69434102764353,106.57714994510752 18.287416232342366,106.24535100099456 18.870439314981923,106.07442428846844 19.212211466918234,105.68229834274098 19.312732688034885,105.63202578981873 19.3730454207398,105.65213481086539 19.634400595678017,106.13475136221678 19.704765450500418,106.34589613116987 20.217423678317573,107.29102054197574 20.458674609137233,107.83396450550936 20.629560685076285,107.8138554678153 20.740134028310422,107.94456421546056 21.22263588977512,108.93996181394323 21.303052866715007,109.15110680737416 21.56440804176964,109.58345137057768 21.95644080423517,110.40792259474983 22.157483246468473,111.06146704127605 22.11727475799853,111.41337565664435 22.11727475799853,111.8155569889932 22.197691734938417,112.20768384727126 22.841027550282888,113.06231951028167 23.08227848104434,113.48461017580121 23.13253909163177,113.72591915799421 23.14259121369105,114.14820993025205 23.05212211475009,114.61071894923225 22.98175725992769,114.7313734893396 22.98175725992769,115.43519175051188 23.08227848104434,115.85748279788822 23.524571854097303,117.12435634834401 23.604988830978982,117.4863203324494 23.584884586802218,117.68741145636886 23.564780342567246,117.7376842397498 23.48436336562736,117.70752056960191 23.393894266569987,117.74773879653367 23.38384214451071,118.09964830866375 23.303425167570822,118.65264906620723 23.253164556983393,118.74314011039678 23.05212211475009,118.89395852432062 22.901340282987803,118.94423133091186 22.790766939753667,119.10510431844159 22.388682055170648,119.41679575995659 22.147431124350987,119.68826898126281 22.046909903292544,119.90946940465074 21.876023827295285,120.14072441274766 21.81571109459037,120.3920885752159 21.54430379747646,121.00541723315837 21.323157111008186,121.2969997604232 21.102010424423497,121.47798203511047 20.99143708118936,121.68912803810963 20.659717051428743,122.55382137153356 20.629560685076285,122.87556780135492 20.629560685076285,123.60955199300952 20.579300074488856,123.74026152829174 20.649664929311257,124.53457346060895 20.800446761015337,124.96692056361644 20.880863737897016,125.3188310492842 20.97133283695439,125.43948608390929 21.162323157128412,126.0125975747942 21.272896500420757,126.0125975747942 21.353313477360643,126.13325264160812 21.76545048400294,127.2895306491555 21.8659717051778,127.68165982942446 21.755398361943662,128.55640975265123 21.946388682059478,129.4311599707289 21.95644080423517,129.67247042765666 22.056962025351822,130.04449075937737 22.046909903292544,131.22087972736335 22.006701414764393,131.44208113143395 22.026805658999365,131.84426555089885 22.016753536940087,133.10109226456552 21.98659717052942,133.5133315596613 22.006701414764393,133.794860872149 22.097170513821766,133.86524320504395 23.152643335866742,133.8350793478603 23.474311243509874,133.74458777839027 24.338793745380826,133.55355003100703 24.499627699202392,133.55355003100703 24.640357408788987,133.49322232425038 26.479895755823236,133.0910376484535 26.82166790770134,132.96032764228585 27.59568131051492,132.80950841261074 27.857036485511344,132.71901687902573 27.96760982874548,132.72907149371167 28.26917349221185,132.60841612005606 29.294489947904367,132.41737845662283 29.616157855605707,132.29672309749003 30.028294862248003,132.1861223565793 30.03834698436549,132.15595851898252 30.239389426715206,132.17606774400338 31.16418466117466,131.9850301124825 32.42069992556935,131.66328255442204 32.682055100565776,131.56273645070905 32.94341027550399,131.53257262035913 33.435964259144384,131.32142581779044 35.134772896475624,129.89367169955221 36.00930752046406,129.1295219311869 36.08972449740395,129.018921325478 36.29076693969546,128.8479931259062 36.471705137752,128.7373925321881 36.73306031274842,128.50613676059584 37.30603127327049,128.09389826227562 39.29635145200882,126.75663724262267 39.61801935965195,126.58570919198974 39.70848845865112,126.4851632850914 40.08041697693989,126.21368935592182 40.85443037975347,124.8261563826527 41.055472822044976,124.55468262660725 41.678704393154476,123.46878788544564 41.83953834703425,123.27775089447096 41.94005956809269,123.06660476284742 42.131049888324924,122.83534949546447 42.352196574851405,122.46333019529993 42.774385703669395,121.87011033999443 42.85480268060928,121.79972833221836 42.975428145960905,121.53830946280505 43.10610573343001,121.39754546702898 43.48808637377806,120.79427128547104 43.55845122860046,120.86465326613688 43.528294862248,120.95514438692771 42.754281459434424,122.05109265442297 42.603499627672136,122.33262072407524 42.38235294120386,122.57393052223779 41.96016381238587,123.27775089447096 41.94005956809269,123.25764173835341 41.879746835445985,123.29786005074857 41.80938198068179,123.38835125595506 41.507818317157216,124.00168061851582 41.09568131051492,124.695446792859 40.99516008939827,124.80604721457348 40.86448250187095,125.08757558191428 40.40208488458302,125.83161498507252 40.39203276252374,125.97237922044587 40.502606105816085,126.04276134097017 40.86448250187095,126.04276134097017 42.26172747579403,126.70636428539001 42.40245718538063,126.81696479259699 42.74422933731694,126.96778367365187 43.618763961305376,127.44034955762618 43.819806403596886,127.73193280553096 43.86001489200862,128.0536798756948 43.8801191363018,128.59662814700278 44.121370067005046,129.39094156342617 44.443037974706385,129.79312566452427 45.07632166787516,130.3964019331179 45.62918838422047,130.89913226422505 45.960908414039295,131.2610981630569 46.25241995532997,131.76382866200584 46.413253909151535,131.97497550067783 46.70476545050042,132.19617696919886 46.87565152643947,132.25650464570208 47.106850335083436,132.29672309749003 48.25279225612758,132.29672309749003 48.976545048411936,132.20623158184753 49.56962025316898,132.09563084479305 50.926656738622114,131.91464783072297 51.64035740878899,131.80404710612493 52.59530900971731,131.61300950207806 52.90692479524296,131.572791060913 53.067758749064524,131.5828456711315 53.55026061058743,131.47224496072158 53.99255398364039,131.44208113143395 54.66604616527911,131.31137120856147 55.24906924797688,131.2510435540753 55.76172747579403,131.16055207497266 55.86224869691068,131.180661292281 55.81198808638146,131.16055207497266 56.02308265079046,131.14044285782438 56.48548026807839,131.03989677442587 57.66157855547499,130.90918687186786 58.194341027527116,130.79858619021252 58.5562174236984,130.66787629980536 58.85778108710656,130.50700259761652 59.35033507074695,130.05454536367324 59.48101265821606,129.77301645798434 59.50111690250924,129.491487582869 59.37043931498192,128.5865735483676 59.390543559216894,128.44580917138956 59.269918093807064,128.0134614897397 59.239761727454606,127.61127766450227 59.37043931498192,126.95772908130311 59.46090841398109,126.8370739762322 59.62174236780265,126.53543623806036 59.732315711095,126.44494492342346 59.95346239762148,126.16341640918108 60.24497393897036,125.73106910733622 60.45606850332115,125.4595952568925 60.767684288905,125.18812143475225 61.230081906192936,124.88648388785077 61.73268801195081,124.72561054378457 62.778108711820096,124.63511929209926 63.300819061812945,124.6250647087727 63.351079672342166,124.60495554226509 63.351079672342166,124.57479179275106 63.532017870398704,124.59490095904039 64.08488458674401,124.55468262660725 64.88905435591005,124.40386388546904 65.6128071481362,124.15249933634186 66.90953090094263,123.47884246430476 67.0,123.51906078011962 66.88942665670766,123.65982489041926 66.66827997018117,123.74026152829174 65.97468354430748,124.09217184816953 65.85405807889765,124.21282682591118 65.66306775872363,124.25304515309108 65.4720774385496,124.37370013829786 65.29113924049307,124.43402763298946 64.72822040208848,124.5848463758739 64.26582278480055,124.6552284588688 63.84363365598256,124.695446792859 63.36113179451786,124.73566512748948 63.079672375286464,124.72561054378457 61.81310498883249,124.83621096676507 61.24013402831042,125.02724807204504 60.86820551007986,125.2685581198457 60.40580789273372,125.76123287025257 59.82278481009416,126.52538164738507 59.491064780333545,127.19903930826695 59.440804169746116,127.39007658718037 59.420699925511144,127.79226037814806 59.57148175727343,128.90832072445482 59.62174236780265,128.9787029245781 59.67200297839008,129.51159678722615 59.661950856330805,129.75290725160448 59.58153387939092,129.99421773845097 59.440804169746116,130.215419037806 59.239761727454606,130.43662035603484 59.09903201786801,130.51705720370228 59.0387192851631,130.51705720370228 58.67684288905002,130.77847697587276 58.30491437081946,130.89913226422505 57.3097542814794,131.07006059904234 56.344750558491796,131.1907159009861 56.12360387190711,131.2510435540753 55.91250930749811,131.29126199024904 55.0882352940971,131.38175347390643 53.761355174996424,131.60295489169948 53.58041697693989,131.61300950207806 53.36932241253089,131.66328255442204 51.519731943437364,131.92470244228025 51.23827252420597,131.99508472431626 50.09233060316183,132.12579468172044 49.378629932994954,132.23639542002638 49.278108711820096,132.27661387150874 48.383469843596686,132.41737845662283 47.438570364844054,132.4475422972755 46.87565152643947,132.42743307013006 46.70476545050042,132.36710538962507 46.362993298622314,132.09563084479305 46.15189873415511,131.83421093966172 45.82017870439449,131.27115277206758 45.03611317946343,130.47683877954842 44.41288160835393,129.93389011464023 44.33246463147225,129.78307106123248 44.14147431124002,129.6020882087323 43.97058823535917,129.31050475069787 43.83991064783186,128.95859372433915 43.739389426657,128.40559077933722 43.71928518242203,127.80231497372733 43.53834698436549,127.52078631240875 42.89501116902102,127.24931227503112 42.14110201044241,126.80691020083032 41.60833953839028,126.57565460111073 40.99516008939827,126.2438531244261 40.613179448992014,126.17347099844483 40.30156366346637,126.25390771399543 39.98994787794072,126.52538164738507 39.939687267295085,126.65609132913232 39.79895755770849,126.69630969405989 39.788905435591005,126.60581837383506 39.5174981385353,126.89740152806917 39.26619508565636,126.96778367365187 38.793745346250944,127.30963983644324 38.43186895013787,127.50067712346208 37.85889798955759,127.95313391198579 37.51712583767949,128.15422584330372 37.32613551750546,128.32515399716794 37.125093075213954,128.42569997528335 37.1653015636839,128.45586376947176 36.793373045453336,128.66701033865684 35.92889054358238,129.38088696170598 35.7781087118783,129.55181519639154 35.23529411765048,130.01432694670802 34.99404318694724,130.18525522314303 33.637006701435894,131.38175347390643 33.32539091591025,131.55268184054876 33.07408786303131,131.63311872287886 31.16418466117466,132.08557623258093 30.289650037244428,132.34699616310536 30.128816083422862,132.36710538962507 30.068503350776155,132.4073238431447 29.7568875651923,132.4475422972755 28.610945644089952,132.73912610842672 28.28927773644682,132.779344567738 27.826880119158886,132.88994533401274 27.686150409572292,132.96032764228585 27.44489947881084,132.99049148928316 26.278853313531727,133.25191151125182 24.660461653082166,133.66415083040192 24.439314966497477,133.68426006716618 24.20811615785351,133.7646970157657 23.05212211475009,134.00600787661097 22.328369322407525,134.07639021529758 21.8659717051778,134.08644483526587 20.750186150427908,134.06633559537295 20.157110945670865,134.08644483526587 20.157110945670865,134.10655407528975 20.106850335141644,134.08644483526587 18.719657483277842,134.10655407528975 17.75465376023203,134.13671793566027 17.091213700710796,134.16688179638004 16.417721519013867,134.1467725558614 16.246835443074815,134.18699103705876 16.045793000783306,134.15682717610616 15.31198808643967,134.16688179638004 14.477661950921174,134.18699103705876 14.286671630688943,134.2171548983606 13.784065524989273,134.18699103705876 13.0,134.25737338063482 13.080416976998094,134.29759186354931 13.17088607599726,134.29759186354931 13.512658227875363,134.27748262202658 13.733804914460052,134.2272095188673 14.457557706686202,134.19704565744905 14.628443782683462,134.2171548983606 15.673864482552744,134.18699103705876 16.06589724496007,134.20710027786845 16.729337304539513,134.16688179638004 17.593819806468673,134.17693641671212 18.34772896504728,134.13671793566027 19.553983618796337,134.13671793566027 20.056589724554215,134.09649945526326 20.830603127367795,134.1266633155028 21.19247952348087,134.08644483526587 21.514147431124,134.1266633155028 21.66492926288629,134.11660869540356 22.268056589760818,134.15682717610616 22.549516008992214,134.10655407528975 22.619880863756407,134.36797421016672 22.539463886874728,134.36797421016672" stroke="#fff900" stroke-linecap="round" stroke-linejoin="round" stroke-width="0.5"><title>2025-10-10 20.0km</title><desc>16095470377</desc></polyline><polyline fill="none" points="187.0,93.70821816358648 186.9366505863909,93.72953380442573 186.87330117278088,93.75699451070886 186.6824850602743,93.83784046993514 186.2353917745304,94.02507339458543 185.84953625527487,94.189647025765 185.5919153065979,94.30064337752447 185.3989875469706,94.38321871075254 185.23850236582712,94.4525437108291 185.14347824541346,94.49440761768415 184.98376093595016,94.56392484141543 184.88720107217614,94.60425256651047 184.69388937670828,94.6868285082503 184.62938815557936,94.7139057719055 184.49789013036025,94.77017276721153 184.36485636178168,94.82586372631681 184.13699044070836,94.92322706883328 184.0722972516587,94.95011245106184 184.04023860901543,94.96393922600191 183.9757373878856,94.99101667391801 183.81256465586193,95.05842231438396 183.68049072688245,95.11180919769686 183.61445376239408,95.13792654762892 183.58105134430843,95.14964095272649 183.5146304439795,95.17556628759166 183.44820954364968,95.20245183767543 183.38140470748021,95.22876128622374 183.3472344177153,95.2414359172169 183.3132560958702,95.25487871203336 183.24587535594037,95.28214839534348 183.17657493681054,95.30692157441604 183.14202071120508,95.31998031063085 183.1063146780807,95.33207884945045 183.0391259060707,95.35896450435712 182.97136123030214,95.38450589324748 182.80204552483792,95.45114402982563 182.732937073627,95.47668547765852 182.69857481594227,95.4899363104239 182.66632420537826,95.50203490070953 182.63349769105207,95.51509370069789 182.60009527296825,95.52911271133439 182.5325225651177,95.5563825817892 182.4664856006293,95.5857649279294 182.4332751504635,95.59997600510087 182.4002566682193,95.61476321242253 182.16893532458562,95.71328072144456 182.0345577805665,95.76897298904282 181.83299146453737,95.85347175199695 181.69861392051826,95.90801195888776 181.63142514850915,95.93566617720171 181.39549657479438,96.03130383243365 181.29356160926,96.07182507806215 181.22483709389053,96.0983271476764 181.15534470683997,96.1244451469147 181.0856603518696,96.15017907502124 180.9808458675352,96.18954817700251 180.94609967401084,96.20337538323497 180.84224502927464,96.24524112094628 180.771792802625,96.27251148809978 180.7021084476546,96.29997391943812 180.6328080285257,96.3299329576048 180.59825380292023,96.34587271170267 180.49631883738584,96.39676474157204 180.4617646117813,96.41443293362659 180.42721038617583,96.43286931655052 180.32316377352072,96.4899069319356 180.28880151583598,96.51026381170959 180.25635893735125,96.53177297937555 180.2246842305467,96.55328215904979 180.18917016534124,96.57191065472762 180.1546159397367,96.5911152988881 180.08934684692667,96.63221326962207 180.05613639676267,96.65218613108891 179.99048336811302,96.69405235520662 179.95804078962828,96.71709800267126 179.923294596103,96.7374550027987 179.85648975993354,96.78008950985304 179.75839415280007,96.84673002831641 179.7305588043955,96.87150419885825 179.70080377679096,96.89608633748207 179.67047284542696,96.9195162031258 179.6046278488575,96.96752826796205 179.54339008236911,97.01419605311844 179.51478686228438,97.03685779664875 179.48407199507983,97.05932750487773 179.453549095796,97.08256542227446 179.39288723306709,97.13038564428007 179.33894424753908,97.14478933745613 179.2692598925696,97.18800044993168 179.22798678976324,97.20605310712654 179.19189682079832,97.22602626983485 179.15657472351268,97.24638354271633 179.12394017710812,97.26866132564646 179.06020682765939,97.31475333219532 179.0319875434143,97.34048806043234 178.94944133780336,97.41922875639625 178.9233337006799,97.4463079120062 178.90989594627717,97.48433399337637 178.8561449286699,97.54137318794892 178.83483648954734,97.57171730676373 178.80930475618243,97.601677347031 178.78204531153915,97.63106125607851 178.7551698027346,97.65833261725334 178.72887019769132,97.68618015457946 178.67703885928404,97.74149118717105 178.59737217247311,97.82464994348766 178.48929423349728,97.93565661158391 177.19696619587194,99.83396169551565 177.13304087850247,99.90598558961437 177.02880229792663,100.02084000131731 177.0028866287239,100.04984176069888 176.87177253934442,100.19139374298766 176.76638215124967,100.3068253007009 176.6343082222702,100.44953074045043 176.36747281343287,100.73551961139538 176.0154036481017,101.10967121395151 175.8802582324024,101.25410867283608 175.66295054693092,101.48517148903557 175.44506695769996,101.71585176105395 175.28151028983666,101.88852688885481 175.1715126716599,102.0033880425558 175.06209095724535,102.11882582785597 174.9805045912326,102.2035316831084 174.89795838562077,102.28996645590178 174.64801615374472,102.54869591585225 174.61960490158071,102.57712362909729 174.53648279220943,102.66221483923232 174.03717423221678,103.18313930687805 173.92525693484185,103.2981971481106 173.86920230219312,103.35505393157973 173.67320305584508,103.5553980747195 173.47643593781686,103.75766435594846 173.250873631785,103.99085806207245 172.88267916117093,104.3736913894586 172.65769275889852,104.61092365602144 172.26550229828263,105.02853374945425 172.1526251613068,105.14801662541527 171.89865160311,105.41656667951884 171.6999648058818,105.6255686683262 171.64295033363396,105.68492703613038 171.47113904520938,105.86377124719911 170.89427544552564,106.46197552398189 170.40264560233481,106.97355168299077 170.14060939149658,107.24500000425678 169.90890411202417,107.48705799446543 169.76320046072306,107.63824922333629 169.58985342893902,107.81941080049614 169.50154818572537,107.9106644190706 169.413818846273,108.00191833201552 168.9755560848489,108.46107408845478 168.79913756634505,108.64435426370756 168.6530499792043,108.79670442696556 168.4773993323788,108.97844985359666 168.20922014810003,109.25337570840315 167.76539031699576,109.71082309599842 167.35573077565823,110.13811396723281 167.1806560325922,110.32140538398289 166.9161242387936,110.59941897504541 166.73797800900866,110.7844427589439 166.49993778817407,111.03325663398164 166.2933803062242,111.24979386268478 166.204499159252,111.3433646283429 165.78408941439193,111.78028882027706 165.51399055091224,112.06235284465265 165.39420256881476,112.18686165049212 164.9115952178654,112.68663224393822 164.63880880350735,112.97005129447575 164.3358834257033,113.28383351350976 163.94177328588648,113.69139116354177 163.69854993121135,113.94119405096126 163.21152731810162,114.44042306622873 162.9967152155914,114.65833452018546 162.8437167833281,114.81456323941325 162.38606526198328,115.28363975601928 161.6264482024344,116.06577454230978 161.1350103271634,116.57081281824117 160.70615399382223,117.01321065162097 160.1851530588674,117.55209406927474 159.81830236369387,117.9347396726414 159.5737352335791,118.19131375434358 159.23875121312994,118.5447564870924 159.02816240486027,118.76885625500358 158.9367856749268,118.86649218374487 158.7260048987364,119.090787348312 158.574734177756,119.25300392841632 158.39486023668906,119.44770381819376 158.21498629562302,119.64048337099462 158.12476137321028,119.7377386953201 157.6692214989862,120.22363731429391 157.4851242636787,120.41873016515115 157.2090743946801,120.71012331718407 157.14841253195027,120.77509145040608 156.99790968264915,120.93501383609737 156.69210478604418,121.25736098108655 156.41663082080595,121.54684320166871 156.26344042062283,121.70754019561923 156.17167975484972,121.8044203059219 155.46293419410904,122.54622132243458 154.87839187762438,123.15425232927441 154.75534044088636,123.2815123985165 154.23357163425135,123.82324147733766 153.835238200194,124.23771803654654 153.5914389417594,124.49359805461631 153.07600507648567,125.03901194937794 152.80283472628616,125.32566293019568 152.2852892138917,125.86513924979636 152.1935285481186,125.96030853640491 151.7049701916476,126.47019296590793 151.0302029527502,127.1735167283191 150.81558281815978,127.39655524021214 150.26252324056077,127.9695452348692 149.52786201061554,128.7352249295243 149.2836788163404,128.99077880515097 148.33938861772458,129.98033755854317 147.85332584421485,130.4916749480269 147.00022040761178,131.38323194518807 146.51358173034168,131.89383902863187 145.69387871182425,132.7577689983143 144.99569138668448,133.49518117485763 143.96597546365683,134.58750782563266 143.6018123193644,134.97336798008314 143.26759617059543,135.3267280040186 142.96332701735173,135.64700885444336 142.44443772951763,136.19140383571198 141.86623035439425,136.80141618818607 141.22716914862212,137.4768607927324 140.9236678670586,137.79852896429747 140.61978264965455,138.12097290617476 140.40746613010378,138.34684130597975 139.83156237002186,138.96135750896224 139.49868999669343,139.31730257953927 138.98268022765933,139.8668200549298 138.73984080882474,140.12580778022038 138.28506880627992,140.61185391310823 137.5582782610545,141.38982778138143 136.3815149112861,142.6545256897807 135.32319576817463,143.78864565467984 134.90009847243346,144.24304831918766 134.4176830894039,144.76251964169774 133.78188533827233,145.44446095344142 133.3299928545266,145.93240568707142 133.11959601417766,146.16069612411593 133.02975502760455,146.25886593268183 133.0,146.29178183641352" stroke="red" stroke-linecap="round" stroke-linejoin="round" stroke-width="0.5"><title>2025-09-19 438.7km</title><desc>15864628212</desc></polyline><polyline fill="none" points="19.311688313260674,193.67871669540182 30.18181818164885,196.83534429734573 61.38961039111018,189.4698800649494 66.29870129935443,182.10441643372178 65.94805194810033,173.33600813243538 57.18181818164885,164.21686440287158 37.89610389620066,165.9705458180979 25.62337662279606,167.37349097477272 17.207792207598686,172.9852718175389 13.701298702508211,182.10441643372178 15.805194804444909,191.92503474187106 24.922077922150493,196.83534429734573 40.350649351254106,194.73092588409781 61.38961039111018,188.0669345650822 65.24675324745476,183.15662548691034 65.59740259684622,174.03748076502234 58.58441558480263,164.91833696514368 51.92207792215049,163.16465557040647 40.701298700645566,165.61980953253806 22.467532467097044,169.127172450535 15.454545455053449,176.14189869631082 14.051948051899672,186.3132527200505 16.50649350695312,191.5742983557284 27.025974025949836,197.18608070444316 56.12987012974918,190.87282558670267 63.49350649304688,185.26104363054037 65.94805194810033,178.597053010948 64.19480519555509,171.23159026680514 57.18181818164885,164.91833696514368 43.50649350695312,164.91833696514368 22.467532467097044,169.47790875006467 16.85714285634458,175.44042604696006 14.402597403153777,183.85809819586575 16.85714285634458,191.5742983557284 24.571428572759032,196.83534429734573 36.844155844300985,194.73092588409781 56.83116883225739,190.87282558670267 63.844155844300985,184.9103072695434 66.29870129935443,176.49263502238318 62.44155844300985,168.07496356079355 55.07792207784951,163.86612812429667 30.18181818164885,167.37349097477272 19.311688313260674,171.23159026680514 14.753246752545238,178.597053010948 14.402597403153777,186.6639890866354 18.259740259498358,193.67871669540182 25.62337662279606,197.18608070444316 40.0,194.3801894863136 60.33766233921051,189.4698800649494 66.6493506487459,181.05220739217475 63.14285714365542,168.07496356079355 53.675324676558375,164.21686440287158 24.220779221504927,169.127172450535 17.207792207598686,174.38821708317846 14.402597403153777,182.45515278261155 16.155844155699015,189.82061644317582 21.766233766451478,195.08166228281334 28.428571429103613,196.13387148780748 57.5324675347656,190.17135282279924 64.19480519555509,184.20883455267176 65.94805194810033,178.24631667602807 61.038961039856076,166.6720183934085 52.62337662279606,163.86612812429667 37.19480519555509,166.3212821050547 23.87012987025082,168.77643615286797 15.454545455053449,176.14189869631082 14.051948051899672,183.85809819586575 18.259740259498358,192.62650751974434 26.67532467469573,196.48460789211094 55.07792207784951,191.22356197005138 64.54545454494655,184.20883455267176 64.54545454494655,171.58232657471672 57.5324675347656,164.56760068330914 32.98701298609376,167.0227546831593 15.454545455053449,176.14189869631082 14.051948051899672,187.0147254546173 16.50649350695312,194.0294530899264 24.922077922150493,195.08166228281334 56.12987012974918,190.87282558670267 64.54545454494655,183.85809819586575 65.59740259684622,176.49263502238318 62.09090909175575,168.4256998556666 55.42857142910361,163.86612812429667 27.37662337720394,168.07496356079355 18.961038960143924,171.93306288309395 13.701298702508211,181.4029437378049 16.85714285634458,191.22356197005138 23.87012987025082,196.13387148780748 53.675324676558375,191.5742983557284 60.68831168860197,188.0669345650822 65.59740259684622,180.70147104840726 65.24675324745476,174.03748076502234 58.93506493419409,165.9705458180979 51.92207792215049,163.86612812429667 22.116883117705584,169.82864505052567 14.402597403153777,177.54484401037917 14.402597403153777,186.6639890866354 18.259740259498358,192.9772439096123 25.974025974050164,196.48460789211094 56.12987012974918,191.22356197005138 62.44155844300985,186.6639890866354 65.94805194810033,178.24631667602807 61.740259738639,167.7242272668518 53.32467532530427,163.86612812429667 38.24675324745476,166.6720183934085 23.168831169605255,169.47790875006467 16.50649350695312,174.7389534036629 13.701298702508211,184.20883455267176 18.259740259498358,193.32798030227423 26.67532467469573,196.83534429734573 50.168831169605255,192.27577112987638 60.33766233921051,189.4698800649494 65.24675324745476,182.10441643372178 65.59740259684622,174.03748076502234 57.5324675347656,164.91833696514368 33.68831168860197,165.9705458180979 15.103896103799343,175.79116237070411 14.402597403153777,188.41767093725502 21.415584417060018,195.08166228281334 27.025974025949836,196.83534429734573 59.6363636367023,189.4698800649494 65.94805194810033,181.05220739217475 65.24675324745476,172.63453550543636 56.12987012974918,162.8139192960225 26.67532467469573,167.7242272668518 15.103896103799343,175.44042604696006 13.0,183.15662548691034 15.454545455053449,189.82061644317582 24.571428572759032,196.48460789211094 37.89610389620066,195.43239868292585 61.38961039111018,188.76840731222183 66.29870129935443,176.14189869631082 61.740259738639,167.7242272668518 53.32467532530427,163.51539184711874 24.922077922150493,167.7242272668518 14.753246752545238,175.44042604696006 13.0,184.20883455267176 16.155844155699015,191.92503474187106 21.415584417060018,196.13387148780748 36.493506494909525,194.73092588409781 56.83116883225739,191.22356197005138 63.844155844300985,185.96251635579392 66.29870129935443,179.29852568358183 64.54545454494655,170.17938135238364 55.42857142910361,163.51539184711874 40.350649351254106,165.61980953253806 33.33766233921051,166.6720183934085 19.311688313260674,170.53011765610427 13.701298702508211,179.29852568358183 15.103896103799343,190.17135282279924 23.519480518996716,196.48460789211094 32.28571428731084,196.48460789211094 61.038961039856076,189.4698800649494 65.59740259684622,178.24631667602807 63.14285714365542,169.47790875006467 56.83116883225739,164.56760068330914 40.0,164.91833696514368 32.6363636367023,166.3212821050547 20.714285714551806,169.47790875006467 14.051948051899672,177.89558034250513 13.35064934939146,182.80588913429528 14.051948051899672,186.3132527200505 22.116883117705584,195.78313508443534 41.05194805189967,195.08166228281334 62.44155844300985,188.0669345650822 66.6493506487459,177.54484401037917 64.19480519555509,169.127172450535 56.83116883225739,164.21686440287158 35.792207792401314,165.9705458180979 20.714285714551806,169.82864505052567 14.051948051899672,180.70147104840726 15.805194804444909,190.17135282279924 23.168831169605255,194.73092588409781 56.12987012974918,190.87282558670267 63.844155844300985,185.96251635579392 66.29870129935443,178.597053010948 62.44155844300985,167.0227546831593 54.72727272845805,163.16465557040647 42.45454545505345,165.2690732483752 21.064935065805912,169.82864505052567 14.402597403153777,178.94778934679925 14.402597403153777,186.6639890866354 19.311688313260674,194.3801894863136 27.37662337720394,196.83534429734573 47.363636365160346,192.9772439096123 59.98701298609376,189.82061644317582 64.19480519555509,184.9103072695434 65.24675324745476,179.29852568358183 62.44155844300985,169.127172450535 57.5324675347656,165.2690732483752 34.740259738639,166.6720183934085 18.961038960143924,171.93306288309395 14.051948051899672,182.10441643372178 16.155844155699015,190.17135282279924 22.116883117705584,195.43239868292585 34.38961038924754,195.78313508443534 59.28571428731084,189.82061644317582 65.24675324745476,183.50736184092239 65.59740259684622,172.28379919333383 57.5324675347656,164.56760068330914 44.207792207598686,164.91833696514368 16.85714285634458,175.08968972461298 15.454545455053449,187.36546182306483 20.363636365160346,193.32798030227423 31.584415582939982,196.13387148780748 55.77922077849507,191.22356197005138 63.844155844300985,185.96251635579392 66.29870129935443,175.79116237070411 61.38961039111018,167.7242272668518 53.32467532530427,163.86612812429667 20.363636365160346,171.23159026680514 14.402597403153777,179.99999836366624 15.103896103799343,188.0669345650822 22.116883117705584,195.08166228281334 29.480519481003284,196.48460789211094 43.85714285634458,194.3801894863136 56.12987012974918,191.22356197005138 63.49350649304688,185.96251635579392 66.6493506487459,177.54484401037917 61.038961039856076,166.3212821050547 53.675324676558375,163.86612812429667 37.54545454494655,166.3212821050547 26.67532467469573,168.07496356079355 22.467532467097044,169.127172450535 15.805194804444909,174.7389534036629 13.0,183.15662548691034 14.753246752545238,189.1191436876543 23.168831169605255,196.48460789211094 52.62337662279606,192.27577112987638 64.19480519555509,185.61177999293432 67.0,177.54484401037917 64.19480519555509,169.47790875006467 57.18181818164885,164.56760068330914 25.974025974050164,168.07496356079355 15.454545455053449,175.44042604696006 13.701298702508211,182.10441643372178 16.85714285634458,190.87282558670267 27.37662337720394,196.48460789211094 48.76623376458883,191.92503474187106 60.68831168860197,189.1191436876543 66.29870129935443,181.4029437378049 64.54545454494655,170.8808539607562 57.5324675347656,164.56760068330914 52.2727272734046,163.86612812429667 36.844155844300985,165.2690732483752 18.610389610752463,172.28379919333383 15.103896103799343,178.597053010948 14.402597403153777,187.0147254546173 24.922077922150493,195.78313508443534 56.12987012974918,190.87282558670267 63.14285714365542,186.6639890866354" stroke="#4dd2ff" stroke-linecap="round" stroke-linejoin="round" stroke-width="0.5"><title>2025-08-21 10.2km</title><desc>15534281190</desc></polyline><polyline fill="none" points="162.51641648542136,153.0 162.01313318824396,153.27106345206266 160.9291383945383,153.65829698025482 160.48392624710687,153.90999878937146 159.8838577005081,154.08425389535842 158.9547193060862,154.49084916579886 158.81921995687298,154.4521258053137 158.52886420849245,154.49084916579886 158.315936659812,154.4521258053137 158.14172321080696,154.51021084620152 157.73522516305093,154.54893420712324 155.93501952360384,154.5876575683942 154.8510247298982,154.56829588772962 154.11545683420263,154.51021084620152 153.2056754893856,154.64574261079542 152.62496399285737,154.8006360604777 152.16039479558822,154.97489119705278 151.38611280010082,155.42020990655874 150.8828295029234,155.7687202282541 150.5924737546593,156.02042214214453 150.18597570701968,156.25276238148217 149.46976486116182,156.87233640500926 149.3149084621109,156.9691448530648 148.0179861196084,158.0146762096556 147.61148807196878,158.266378235101 147.55341692233924,158.34382501468644 147.41791757312603,158.75042062698049 147.41791757312603,159.02148438667064 147.34048937365878,159.23446306510596 147.39856052328832,159.85403745350777 147.3792034733342,160.08637786866166 147.3792034733342,160.47361191775417 147.34048937365878,160.6285055456974 147.3598464234965,161.05446304686484 147.6502021717606,162.21616550529143 147.70827332139015,162.4872294506349 148.11477136914618,163.30042137397686 148.1728425186593,163.5327619475429 148.1534854688216,164.15233686260763 148.0373431694461,164.67510325627518 147.92120087018702,165.70127448273706 147.82441562076565,166.1272324116144 147.57277397229336,166.51446692357422 147.06949067523237,167.05659529022523 146.83720607648138,167.61808544571977 146.79849197680596,167.88914968105382 146.83720607648138,168.54744859898346 146.79849197680596,168.99276850398746 146.89527722622734,169.45745018590242 146.89527722622734,169.72851452013128 146.95334837585688,170.01894060871564 146.93399132590275,170.71596328960732 146.8759201762732,170.9483042046486 146.8759201762732,171.3549008318223 146.81784902652726,171.87766797206132 146.54685032821726,172.96192591750878 146.4887791784713,173.11681992874946 146.27585162979085,174.31724867777666 146.35327982937451,174.5495897590299 146.4500650787959,174.64639854605775 146.77913492685184,174.89810140104964 147.28241822391283,175.11108074974618 147.61148807196878,175.4015071488684 148.05670021940023,176.059807048965 148.09541431919206,176.33087173878448 148.36641301761847,177.5119394864305 148.424484167248,177.68619540709187 148.50191236683168,178.1896014341619 148.61805466620717,178.46066623891238 148.86969631467946,178.7317310582439 149.21812321268953,178.88662524727988 149.48912191111594,179.0802429902833 150.2053327569738,179.33194606742472 150.36018915602472,179.4287549466244 150.51504555507563,179.6417344873771 150.55375965486746,179.73854337248486 150.57311670470517,179.9321611483756 150.51504555507563,180.2613113845291 150.28276095644105,180.7453558886482 149.99240520806052,181.0938679605606 149.5665501106996,181.46174184052506 149.21812321268953,181.69408325231052 148.19219956861343,182.2168514681107 147.66955922159832,182.54600185414893 147.1275618248619,183.0881319489563 147.03077657544054,183.28174985415535 146.81784902652726,183.572176725982 146.4887791784713,184.24983949231682 146.25649457983673,184.92750235032872 146.04356703103986,185.29537651166902 145.94678178161848,185.64388889994007 145.75321128289215,186.01176311387098 145.6757830833085,186.28282834144193 145.03700043691788,187.59943108420703 144.88214403786696,188.14156172604999 144.6692164890701,188.45135069065145 144.553074189811,188.70305423846003 144.39821779064368,189.24518499991973 144.3014325412223,189.6130594786373 143.875577443745,190.81349217655952 143.7594351444859,191.02647220148356 143.5077934957808,191.80094509586343 143.2367947974708,192.3817998454906 143.0045101987198,193.0207401481166 142.869010849623,193.31116758540156 142.83029674983118,193.42733856505947 142.88836789957713,193.46606222551782 142.83029674983118,193.4079767349176 142.869010849623,193.4079767349176 142.84965379966889,193.46606222551782 142.57865510124248,193.64031870145118 142.36572755256202,193.81457518343814 142.15280000364874,194.0469171688892 141.3204468586482,194.72458135487977 140.72037831204943,195.32479828220676 139.75252581760287,196.11863368417835 139.17181432107463,196.69948893639958 138.59110282442998,197.20289687640616 138.3588182257954,197.4158771740622 138.06846247753128,197.6288574807695 137.91360607836396,197.8805614913581 137.66196442977525,198.15162736314232 137.62325033009984,198.22907475777902 137.29418048204388,198.50014064850984 137.0618958832929,198.75184470313252 136.8296112846583,198.88737766086706 136.77154013502877,199.00354877047357 136.69411193556152,199.11971988275764 136.71346898539923,199.21652914508013 136.69411193556152,199.44887138233753 136.6747548856074,199.54568065103376 136.63604078581557,199.58440435901866 136.11340043891687,199.77802290357067 135.72625944111496,199.87483217869885 135.30040434363764,200.06845073460136 134.81647809641436,200.35887858251226 134.39062299882062,200.7073920223629 134.3712659489829,201.23016222799197 134.42933709861245,201.67548503901344 134.81647809641436,202.85655877442332 134.95197744562756,203.49550042036572 135.0100485952571,203.94082343424088 135.24233319389168,204.77338395858533 135.3778325431049,205.70275401099934 135.49397484248038,206.08999158418737 135.6294741916936,206.4191435451212 135.668188291369,206.8838287035469 135.7649735409068,207.0 135.95854403974954,207.0 136.21018568833824,206.9419143513951 137.21675228246022,206.76765740988776 138.39753232558724,206.51595294952858 138.66853102401365,206.4385054258455 139.0169579219073,206.4191435451212 139.2298854708206,206.4385054258455 139.42345596954692,206.49659106851323 139.65574056829792,206.49659106851323 139.8880251669325,206.4191435451212 142.92708199925255,205.76083964508143 143.875577443745,205.52849711294402 144.4175748405978,205.43168772774516 144.74664468865376,205.33487834446714 146.23713752999902,205.0444502059254 146.79849197680596,204.8701933309494 146.81784902652726,204.83146958178259 146.77913492685184,204.7927458329068 146.79849197680596,204.8121077073156 146.8759201762732,204.83146958178259 147.3792034733342,204.77338395858533 148.52126941666938,204.52167959930375 148.86969631467946,204.36678461532574 149.46976486116182,204.28933712514117 150.28276095644105,204.07635653336183 150.57311670470517,204.03763279036502 150.9796147524612,203.8827378214919 151.32804165035486,203.8440140799794 152.45075054385234,203.59230976781691 152.83789154153783,203.5535860286036 153.37988893839065,203.35996733707725 154.27031323325355,203.22443425751408 154.73488243063912,203.108263049362 155.00588112906553,203.08890118161798 155.52852147596423,202.93400624225615 155.7608060745988,202.91464437521063 156.0124477231875,202.83719690763974 156.34151757124346,202.81783504094346 156.5157310202485,202.72102570859715 156.96094316767994,202.66294011005084 157.2706559658982,202.52740704949247 158.43207895907108,202.29506466854946 159.20636095455848,202.12080788993626 159.6128590021981,202.06272229840397 160.0,201.92718925420195 160.50328329694457,201.84974180202698 161.4130646417616,201.61739945271984 163.32941258058418,201.28824780977448 164.21983687544707,201.21080036752392 165.82647201616783,201.13335292649572 167.04596615908667,201.11399106643512 167.9944616034627,201.03654362692032 168.80745769874193,201.03654362692032 169.25266984617338,201.05590548668988 169.77531019307207,201.01718176723807 170.00759479182307,201.03654362692032 170.7238056375645,200.99781990761403 171.07223253557459,201.01718176723807 171.7303722318029,200.95909618862788 171.90458568069153,200.9784580480773 172.31108372833114,200.92037246990367 172.93050932476763,200.90101061062887 173.58864902087953,200.95909618862788 174.8275002137525,200.90101061062887 176.08570845646318,200.92037246990367 176.4922065041028,200.8816487514996 177.11163210042287,200.90101061062887 178.2924121436663,200.84292503338656 178.98926593945362,200.8816487514996 179.7441908851033,200.84292503338656 180.07326073327567,200.76547759806272 180.2474741822807,200.80420131556457 180.42168763128575,200.7461157394282 180.82818567880895,200.78483945678454 181.97025162214413,200.7267538809101 182.08639392151963,200.7461157394282 182.24125032068696,200.7073920223629 182.27996442036238,200.7267538809101 182.41546376957558,200.7267538809101 182.4541778693674,200.66866830561776 182.4348208195297,200.55249715724494 182.47353491932154,200.3976022968709 182.47353491932154,200.01036516702152 182.53160606895108,199.75866104880697 182.5703201686265,199.27461470337585 182.62839131837245,199.06163432629546 182.60903426853474,198.6937591509486 182.66710541816428,198.0741799696989 182.60903426853474,197.18353503165417 182.64774836832657,197.00927843194222 182.60903426853474,196.7769363085099 182.64774836832657,196.6220415655116 182.62839131837245,196.40906130181975 182.66710541816428,196.2928902527492 182.62839131837245,195.40224563292577 182.70581951795612,194.56968667567708 182.66710541816428,194.3179828322027 182.70581951795612,194.02755533636082 182.66710541816428,193.79521335178288 182.70581951795612,193.65968053243705 182.62839131837245,192.96265466266777 182.3186785201542,191.6847741540696 182.183179170941,191.25881405721884 182.183179170941,191.1039194854966 182.12510802131146,190.8522158167907 182.10575097147375,189.94221035100054 182.27996442036238,189.2839086279564 182.27996442036238,188.87731054821052 182.183179170941,188.33517982665217 181.95089457242284,187.73496373920352 181.7960381731391,187.09602411228116 181.44761127524544,186.10857212205883 181.42825422540773,185.87623050564434 181.0023991279304,184.77260797473718 180.7701145291794,184.03685975586995 180.44104468112346,183.14621731970692 180.32490238174796,182.64281079536886 180.26683123211842,182.3330221901706 180.28618828207254,181.9457864605356 180.18940303253476,181.65535968288896 180.18940303253476,181.67472146757063 180.20876008237246,181.48110362442094 180.17004598269705,181.3262093552912 180.28618828207254,180.97769726728438 180.26683123211842,180.66790876488085 180.30554533191025,180.39684384095017 180.26683123211842,180.12577893171692 180.30554533191025,179.87407581481966 180.28618828207254,179.44811672266223 180.30554533191025,179.17705186465173 180.42168763128575,178.6349221925193 180.55718698038254,178.36385737839737 180.6539722298039,178.03470726663363 180.96368502802216,177.4151306441927 181.07982732739765,177.08598059459473 181.33146897598635,176.6987452697649 181.6605388240423,176.42768056012574 182.0283227718901,176.02108352308278 182.20253622089513,175.6725718031812 182.24125032068696,175.4983159522817 182.53160606895108,174.82065436744597 182.84131886716932,173.96873707597842 183.03488936601207,173.63958725196426 183.49945856328122,172.98128766860464 184.2543835089309,172.3810734176659 184.54473925719503,172.226179429068 184.66088155657053,172.0519236975524 184.97059435478877,171.89702971902443 185.22223600326106,171.72277399891755 185.2803071528906,171.6259652681183 185.37709240231197,171.37426257677726 185.3964494522661,171.1419216420618 185.551305851317,170.48362238524714 185.59001995110884,169.8640466927318 185.57066290127113,169.55425887502497 185.62873405090068,169.2251093396044 185.551305851317,168.48936339688953 185.31902125268243,167.7536175615678 184.83509500545915,166.6306372829422 184.71895270620007,166.18531758649624 184.602810406941,165.91425344266463 184.58345335698687,165.60446586756734 184.5060251574032,165.33340175493504 184.42859695793595,164.86872045285418 184.44795400777366,164.52020950437873 184.52538220735732,164.15233686260763 184.52538220735732,163.91999626054894 184.77702385594603,162.8938253959641 184.7576668059919,162.66148485176382 184.79638090578374,162.40978260766133 184.79638090578374,162.08063353804755 184.7383097561542,161.7708461980219 184.66088155657053,161.42233546316857 184.5060251574032,161.0738247523259 184.3705258083064,160.91893111079116 184.13824120967183,160.5123353242525 183.94467071071267,160.24127148475964 183.18974576506298,159.3506332571851 182.9381041165907,158.90531420215848 182.8219618173316,158.51808027311927 182.74453361763153,158.05339959735284 182.8026047673775,157.80169758247212 182.8026047673775,157.43382542932522 182.91874706663657,157.0078682327876 182.9381041165907,156.87233640500926" stroke="#4dd2ff" stroke-linecap="round" stroke-linejoin="round" stroke-width="0.5"><title>2025-08-03 10.0km</title><desc>15324505910</desc></polyline><polyline fill="none" points="27.678784884279594,215.66831195002305 27.947471818188205,215.49554350765538 28.312118371599354,215.0348276901641 29.194946868927218,214.42053999908967 29.578785346006043,214.2093786225596 30.039391518570483,214.01741374249104 30.327270376496017,213.92143130514887 30.61514923418872,213.88303833073587 30.883836168213747,213.78705589601304 31.15252310235519,213.57589454596746 31.5363615793176,213.09598241976346 31.709088893956505,213.0 31.843432361027226,213.07678593567107 31.901008132612333,213.23035781050567 32.16969506663736,213.74866292261868 32.15050314273685,213.90223481794237 32.18888699053787,214.09419969361625 32.32323045737576,214.3245575541223 32.419190076645464,214.55491542513482 32.649493163102306,214.97723821597174 33.09090741164982,215.6299189623387 33.35959434567485,216.205813808745 33.49393781274557,216.39777877219603 33.99292783299461,217.60715820998303 34.127271299948916,217.8375162310258 34.31919053848833,218.24064279327285 34.53030170092825,218.52859035751317 34.875756330322474,219.29645060931216 35.816160599235445,220.8513679781463 35.816160599235445,220.92815403349232 35.969695990206674,221.1585122066026 36.622221401310526,222.46387538692215 36.660605248995125,222.6558405891119 36.81414063973352,223.0205744934501 36.91010025900323,223.44289799474063 36.87171641131863,223.99959720970946 36.77575679216534,224.24915205026628 36.71818102058023,224.6330825984187 36.81414063973352,225.20897847565357 37.31313066009898,226.11121548287338 37.888888375717215,226.76389767430373 38.311110700597055,227.35899033464375 38.57979763462208,227.8772969027632 38.63737340620719,227.9924761473667 38.694949177792296,228.31881735488423 38.771716873161495,228.43399660970317 38.73333302536048,229.1250721939432 38.7525249493774,229.33623419704963 38.63737340620719,229.9505237111589 38.598989558406174,230.00811335697654 38.44545416755136,230.92954778001877 38.42626224376727,231.67821337355417 38.50302993913647,232.02375137753552 38.79090879694559,232.88759649192798 38.810100720846094,233.07956209318945 39.40505036036484,234.69207343430026 39.57777767512016,235.47913273010636 39.61616152280476,235.80547442569514 39.59696959890425,236.41976473401883 39.38585843646433,237.76352504684473 39.30909074109513,237.97468741453486 39.15555535024032,238.16665321117034 38.96363611170091,238.2818326926499 38.73333302536048,238.33942243439378 38.598989558406174,238.45460191986058 38.560605710721575,238.56978140806314 38.40707031986676,238.76174722754513 37.77373683266342,239.18407205634867 37.370706431684084,239.60639692094992 37.197979116928764,239.79836278027506 36.91010025900323,240.29747404920636 36.58383755350951,241.21891036914894 36.19999907631427,242.15954345470527 36.10403945716098,242.3131162202335 35.93131214240566,242.5434753773152 35.70100905618165,242.73544134976692 35.1444432643475,243.31133931138902 34.51110977702774,244.80867432322702 34.415150157758035,245.19260645008762 34.39595823385753,245.55734199794824 34.338382462388836,245.9604707925464 34.376766310073435,246.11404367524665 34.338382462388836,247.09307091400842 34.29999861458782,247.20825060177594 34.29999861458782,247.28503706181073 34.242422843002714,247.66896937970887 34.242422843002714,248.11049158193055 34.29999861458782,248.2448679121153 34.415150157758035,249.20469894769485 34.53030170092825,249.47345167087042 34.549493624828756,249.64622128629708 34.64545324409846,249.93417065872927 34.70302901568357,250.01095716078999 34.798988634953275,250.37569306208752 34.91414017812349,250.64444584865123 35.1828271120321,251.64267061155988 35.470705969957635,252.39133931545075 35.528281741426326,252.71768211919698 35.79696867545135,253.4471543462132 35.969695990206674,253.83108714039554 36.14242330484558,254.11903675549547 36.14242330484558,254.618149461312 36.18080715253018,254.86770583302132 36.21919100021478,254.86770583302132 36.25757484801579,255.0404756361968 36.29595869570039,255.44360520038754 36.08484753337689,256.44183092887397 36.04646368557587,256.9793371736596 36.18080715253018,257.4784501675167 36.238382924115285,257.7855966502102 36.411110238870606,258.2655130675994 36.4686860103393,258.80301951034926 36.622221401310526,259.1677560582757 36.64141332509462,259.49409930812544 36.622221401310526,259.60927928378806 36.660605248995125,259.820442579512 36.622221401310526,260.20437586752814 36.71818102058023,260.41553918865975 36.75656486826483,260.5883091853175 36.79494871594943,260.5499158522289 36.79494871594943,260.6458991855616 36.91010025900323,260.81866919028107 36.87171641131863,261.0298325376061 36.948484106804244,261.3945692497073 36.89090833521914,262.23922279145336 36.85252448753454,265.00354448283906 36.91010025900323,265.42587154416833 36.91010025900323,265.9057887031231 36.833332563750446,266.1169522678247 36.833332563750446,266.3089191526815 36.833332563750446,266.5968694939802 36.91010025900323,266.80803308828035 37.06363564997446,266.90401654320885 37.38989835535176,266.9808033085137 37.6585852894932,267.0 37.888888375717215,266.9616066170274 38.311110700597055,267.0 38.829292644630186,266.9808033085137 39.462626131949946,266.8848198520427 39.80808076134417,266.750443016208 40.76767695415765,266.5200827346416 41.900000461610034,266.28972246384365 42.93636434990913,266.0401655159658 44.318182867602445,265.7906085806608 45.04747597395908,265.5218549722049 46.44848641555291,265.21470800897805 46.77474912116304,265.09952790269745 48.17575956264045,264.75398759995005 48.38687072508037,264.75398759995005 49.57677000411786,264.4468406844826 50.22929541522171,264.37005395864253 51.265659303520806,264.0629070670402 51.803033171454445,263.94772698762245 52.263639344018884,263.81335023164866 52.32121511560399,263.7365635156457 52.225255496334285,263.5254000527202 52.11010395316407,262.96869642092497 52.03333625779487,262.7383363158151 51.841417019139044,261.6825193045661 51.975760486209765,262.1816327726701 52.11010395316407,262.96869642092497 52.16767972463276,263.27584324451163 52.18687164853327,263.71736683681956 52.05252818169538,263.71736683681956 51.47677046584431,263.8709402694658 51.2080835319357,263.9093336283986 50.32525503449142,264.1013004274282 50.01818425278179,264.23567719123093 49.730305394972675,264.2548738720361 48.61717381130438,264.4468406844826 48.27171918202657,264.58121745765675 47.50404222775251,264.79238096572226 46.256567177013494,265.0611345345387 45.930304471519776,265.0611345345387 45.757577156764455,265.21470800897805 44.740405192482285,265.3682814882195 44.26060709601734,265.50265828645206 43.78080899966881,265.5602483439725 42.80202088295482,265.82900195452385 42.20707124331966,265.92498539044755 41.97676815709565,266.0017721404729 41.66969737538602,266.0593622038141 41.55454583221581,266.17454233247554 41.362626593676396,266.2129357093363 41.132323507452384,266.3089191526815 40.882828497327864,266.3857059087022 40.594949639518745,266.4049025979184 40.44141424866393,266.36650921960245 39.673737294389866,266.5968694939802 39.52020190353505,266.5968694939802 39.270706893410534,266.7120496351854 38.9444441878004,266.750443016208 38.54141378682107,266.750443016208 37.620201441808604,266.82722977912636 37.370706431684084,266.865623160993 37.197979116928764,266.84642647003056 37.178787193028256,266.80803308828035 37.159595269244164,266.865623160993 37.04444372607395,266.84642647003056 36.948484106804244,266.73124632565305 36.89090833521914,266.500886045018 36.91010025900323,266.28972246384365 36.87171641131863,266.0785588917497 36.89090833521914,265.92498539044755 36.833332563750446,265.6946251474146 36.833332563750446,265.54105165804503 36.87171641131863,265.3682814882195 36.85252448753454,265.1187245869078 36.91010025900323,264.7347909171949 36.91010025900323,264.12049710773863 36.67979717277922,263.8709402694658 36.60302947741002,263.69817015808076 36.58383755350951,263.5254000527202 36.60302947741002,263.1606631834293 36.67979717277922,262.6807462911529 36.698989096679725,262.1816327726701 36.77575679216534,261.8360926739988 36.71818102058023,261.5481426102342 36.698989096679725,260.5883091853175 36.77575679216534,260.22357253267546 36.79494871594943,259.57088595826644 36.71818102058023,259.0909694143047 36.64141332509462,258.82221617005416 36.4686860103393,258.4766763060179 36.4686860103393,258.22711975249695 36.29595869570039,257.574433441303 36.25757484801579,257.2096970107523 36.16161522862967,256.768173999124 36.18080715253018,256.55701083355234 36.33434254338499,255.8275381490821 36.3151506196009,255.23244209121913 36.10403945716098,254.25341324828332 35.87373637082055,253.3703677909507 35.70100905618165,252.96723839532933 35.605049436795525,252.621698939387 35.509089817642234,252.4105359503883 35.24040288350079,251.45070429542102 34.64545324409846,249.7614010332618 34.51110977702774,249.1087158357841 34.376766310073435,248.11049158193055 34.22323091921862,247.6881659963692 34.376766310073435,247.30423367698677 34.35757438617293,246.1908301184012 34.415150157758035,245.65332504131948 34.39595823385753,245.40376913241926 34.49191785324365,245.2501962716051 34.81818055885378,244.50152864307165 34.875756330322474,244.42474222602323 35.1444432643475,243.71446792417555 35.509089817642234,243.1385699159291 35.66262520838063,243.02339032228338 35.777776751550846,243.0041937235801 35.85454444703646,242.94660392799415 36.14242330484558,242.48588558708434 36.60302947741002,241.5452524399443 36.698989096679725,241.1997137774306 37.02525180217344,240.43185016859206 37.370706431684084,239.77916619405732 37.96565607120283,239.2416618085408 38.19595915742684,239.10728572119842 38.61818148230668,238.74255064525642 38.848484568530694,238.47379850107245 39.270706893410534,238.18584979121806 39.40505036036484,237.97468741453486 39.55858575121965,236.80369621506543 39.59696959890425,236.63092704498558 39.59696959890425,236.28538872260833 39.63535344670527,235.53672243954497 39.59696959890425,235.17198762431508 39.501009979634546,234.74966313465848 39.28989881731104,234.25055242015515 38.9444441878004,233.0987586537085 38.71414110145997,232.6572377801931 38.57979763462208,232.1197341606894 38.50302993913647,231.65901681844844 38.48383801523596,231.620623708528 38.48383801523596,231.63982026343 38.46464609145187,231.17910296542686 38.50302993913647,230.92954778001877 38.67575725389179,230.23847194682457 38.73333302536048,229.79695132555207 38.8676764924312,229.54739620903274 38.88686841621529,229.41302038216963 38.848484568530694,228.62596204018337 38.694949177792296,227.97327960643452 38.560605710721575,227.66613496112404 38.311110700597055,227.3781868731894 38.21515108132735,227.14782841480337 37.98484799498692,226.93666650389787 37.6585852894932,226.4567531030625 37.466666050837375,226.24559122120263 37.31313066009898,225.9768397480948 37.159595269244164,225.84246401692508 37.159595269244164,225.70808828939334 36.948484106804244,225.34335418985575 36.85252448753454,225.03620970554766 36.85252448753454,224.7866548258753 36.87171641131863,224.17236594416318 36.986867954488844,223.61566670998582 36.948484106804244,223.27012928540353 36.73737294424791,222.5790545073978 36.14242330484558,221.3504773589375 36.04646368557587,221.04333311869414 35.87373637082055,220.67859935786691 35.64343328459654,220.29466911184136 34.31919053848833,217.760730222828 33.743432822753675,216.4745647595846 32.726260858471505,214.4589329775772 32.53434161981568,214.19018213418894 32.45757392444648,213.88303833073587 32.34242238139268,213.72946643605246 32.20807891432196,213.38392969005508 32.13131121895276,213.3263402346638 32.016159675782546,213.07678593567107 31.95858390419744,213.0 31.862624284927733,213.0 31.593937350902706,213.13437538821017 31.229290797607973,213.55669806007063 30.768684625043534,213.90223481794237 30.116159214056097,214.05580671789357 29.751512660761364,214.19018213418894 29.290906488196924,214.42053999908967 28.657573000877164,214.82366628793534 28.331310295383446,215.15000664058607 27.947471818188205,215.5915259749163" stroke="#4dd2ff" stroke-linecap="round" stroke-linejoin="round" stroke-width="0.5"><title>2025-07-05 10.1km</title><desc>15014930419</desc></polyline><polyline fill="none" points="146.9019778309157,231.69727623091603 146.89024125190917,231.79706098694442 146.63203651379445,231.85575790527946 146.50293414475163,231.90858513367857 146.36209519670228,231.72662468790804 146.27407085418236,231.67379746572988 146.2095196696464,231.65618839208037 146.05107585308724,231.67379746572988 146.0041295370902,231.66205808328232 145.97478808954475,231.6796671569973 145.83981743102777,231.65618839208037 145.7224516409624,231.68553684828657 145.63442729844246,231.76184283701878 145.46424690284766,231.80880037043244 145.37622256032773,231.87923667323776 145.2529884807882,231.91445482584095 145.15322755926172,231.96728205627733 145.07107150621596,232.04945775165834 145.03586176919634,232.0611971370672 145.01238861121237,232.03771836633678 144.67789610955515,232.18446068932826 144.26124755488127,232.19620007577032 144.00304281682475,232.1785909961327 143.6920234731806,232.19620007577032 143.57465768311522,232.1785909961327 143.10519452294102,232.20206976900954 142.7707020213129,232.28424547695613 142.53597044121125,232.38403027106688 142.24842425558018,232.5777301840062 142.00782438603346,232.7596907305342 141.98435122799128,232.81251799000893 141.99021951752366,232.8183876856201 141.83764399046777,232.9181725144008 141.59117583135958,233.15296037244116 141.2860247772478,233.35253007998836 141.20386872420204,233.434705849475 141.18626385569223,233.48166343400953 141.26255161926383,233.72232107728632 141.12758096065954,233.54623011508374 141.05129319714615,233.50514222680067 140.4233862204128,234.05102426079975 140.2179960878275,234.40320632132352 140.141708324285,234.61451559648413 140.11236687676865,234.84343401077786 140.1006302977912,235.37170740510192 140.1241034558043,235.89998098171782 140.0830254292814,236.15237842161878 140.02434253427782,236.29325142943708 139.97739621822257,236.53977922436025 139.9128450337157,236.69826139922952 139.88937187570264,236.92718012529076 139.71332319063367,237.54349994289078 139.7074549011013,237.7137216506453 139.6311671375879,237.93090109845798 139.60182569010067,238.15395029326464 139.54314279506798,238.2478657534666 139.33775266248267,239.11071431483288 139.22625516192056,239.42767921520135 139.17344055642025,239.65659835093538 139.11475766141666,239.75638362601603 139.09128450337448,239.8972569666803 138.80960660727578,240.61336331674102 138.52792871117708,241.14750843683578 138.5044555531349,241.22381489790132 138.38122147359536,241.41164620298514 138.16996305150678,241.79904834312765 138.11714844600647,241.95753106532356 137.60660725930938,242.82038173218461 137.45990002175677,243.1079987302728 137.35427081069793,243.28409079687844 137.23690502066165,243.4014855193018 137.0960660726123,243.50127104052808 136.8319930450234,243.54822893514938 136.6442077809479,243.50714077727753 136.4388176483626,243.3545276292425 136.29211041080998,243.14321714194375 136.26276896329364,243.01995270464977 136.1395348837541,242.7792935940597 135.98109106716583,242.36254254169035 135.79330580311944,242.1923203138067 135.57031080202432,242.1277532668537 135.4412084329815,242.1218835354448 135.26515974791255,242.16884138731984 134.58443816564977,242.53276478868065 134.52575527061708,242.57385292012623 134.5198869811138,242.5973318528704 134.4259943490615,242.65015945291088 134.26755053250236,242.697117321135 134.02695066292654,242.82038173218461 133.66311671378207,242.92603694964055 133.57509237123304,242.99060403058684 133.49293631821638,243.19604476101813 133.42838513370953,243.54822893514938 133.36383394914446,243.6656236780691 133.1877852640755,243.88280397646304 133.06455118456506,244.01780796142702 133.0,244.26433700855705 133.01173657903564,244.4052107678217 133.0586828950618,244.48151739288733 133.05281460552942,244.56956350352993 133.1114975005912,244.64000039573148 133.1114975005912,244.66347936052625 133.2464681591082,244.75739522336517 133.30515105414088,244.86892031805473 133.4694631601742,244.98044542098796 133.46359487070004,245.045012589595 133.5809606607654,245.1506679623635 134.28515540101216,245.4441551477139 134.5433601391269,245.6554659564863 134.71354053469258,245.8785162867207 134.71940882419585,245.9489532399457 134.77809171919944,246.06634816931182 135.16539882635698,246.57701621834713 135.40013040645863,247.0759449390025 135.96348619865603,248.13250042227446 136.00456422520801,248.1853282159209 136.1395348837541,248.2792442980499 136.3273201478005,248.34381160791236 136.39187133233645,248.34381160791236 136.76157357095508,248.26750478745817 136.99630515108583,248.24402576655848 137.31319278420415,248.1618491962945 137.53618778527016,248.13250042227446 137.83547054987866,248.05032385810773 138.38122147359536,247.968147298423 138.52792871117708,247.92705902025045 138.80960660727578,247.96227754432766 138.98565529234475,247.92118926632247 139.24386003043037,247.83314296009485 140.41164964137715,247.58661333002237 140.71680069551803,247.49856704338163 140.80482503806707,247.49856704338163 140.98087372310692,247.43986952178966 141.44446859380696,247.3518232436909 141.97848293851712,247.22855846302264 142.41860465120408,247.11703319394292 143.07585307542467,246.97615918166412 143.46316018258221,246.9115919304313 143.5570528146054,246.8763734309323 144.1028037383221,246.7472389397808 144.28472071289434,246.729629691843 144.407954792463,246.68267169836327 144.56053031948977,246.68267169836327 144.63681808306137,246.62984395742387 144.84807650512084,246.60049521327164 144.94196913714404,246.56527672103402 145.95718322106404,246.3657052805429 146.2271245381853,246.3422262892709 146.37383177573793,246.35983553268306 146.83742664637975,246.31874729838455 146.99000217346475,246.2952683078547 147.2247337535373,246.28939856028592 147.3538361226092,246.3128775507139 147.49467507065856,246.28352881270985 147.5826994131785,246.3011380554526 148.26342099547037,246.24831032788643 148.4277331015037,246.2717893176814 149.0262986307498,246.23070108577667 149.09084981531487,246.24831032788643 149.65420560751227,246.2365708331272 149.90067376659135,246.24831032788643 150.96870245598257,246.21309184386337 151.2093023255875,246.22483133844798 151.46163877419895,246.20135234937334 151.57900456426432,246.21309184386337 151.65529232777772,246.18374310781655 151.76092153880745,246.20722209660744 151.78439469679142,246.20135234937334 151.7902629863238,246.16026411938947 151.89589219738264,246.1133061436267 151.98391653987346,246.1896128549779 152.08367746142903,246.21309184386337 152.2010432514944,246.17200361355935 152.3536187785212,246.1896128549779 152.61182351663592,246.15439437233 153.28080851989216,245.9900414641961 153.35709628343466,245.99591121060075 153.56248641601996,245.93134400133567 153.86763747013174,245.8785162867207 154.3253640512994,245.77286086303502 154.73614431647002,245.6554659564863 154.9474027385586,245.62024748630938 155.1703977396246,245.55568029310962 155.5635731362854,245.47937361379445 155.76896326887072,245.42067617080465 156.0330362964596,245.3678484740376 156.5787872202054,245.21523513825377 156.62573353620246,245.18588642160466 156.78417735276162,245.18588642160466 157.00130406435346,245.13892847613897 157.96370354271494,244.89826902854838 158.06933275377378,244.88652954428835 158.3099326233496,244.80435315696377 158.5740056509385,244.70456754979386 158.7207128885202,244.61065169024369 158.9671810475993,244.36412258668133 159.2488589437271,244.1410724799789 159.3779613127699,244.00606848399912 159.50706368184183,243.92389214451396 159.58335144535522,243.83584607145895 159.73005868290784,243.74193026583816 159.9647902630095,243.49540130380046 160.0352097370196,243.4484434108308 160.21712671159185,243.31343947663117 160.32275592265069,243.20191449656704 160.7922190828249,242.8379909345822 161.04455553143634,242.697117321135 161.07389697892359,242.65602918634977 161.4846772441233,242.36841227402329 161.76048685068963,242.21579924065736 161.9365355357586,242.07492568501766 162.2358183003671,241.91644295056904 162.46468159096548,241.72274185315473 162.52336448596907,241.60534726068727 162.58791567050503,241.60534726068727 162.6289936970279,241.57599861400377 162.763964355574,241.66404455578595 162.86959356663283,241.6581748261815 163.03390567269525,241.68752347447298 163.14540317322826,241.7462207727367 163.18061291024787,241.7462207727367 163.50923712234362,241.92231268118485 163.5679200174054,241.98100998853624 163.76157357095508,242.0514467603498 163.93762225605315,242.1277532668537 164.5479243642767,242.4505885291146 164.66529015431297,242.61494105267775 164.66529015431297,242.66189891982503 164.60073896980612,242.7616843923388 164.64768528583227,242.931906684149 164.641816996329,243.07865005450003 164.6594218648388,243.160826348103 164.70636818083585,243.31930921264575 164.75918278636527,243.39561578296707 164.864811997395,243.6362749914697 165.05846555097378,243.85345528565813 165.07607041948359,243.91215266781364 165.23451423604274,244.00606848399912 165.24625081507838,244.06476587206998 165.56900673769997,244.33477388654137 165.65116279068752,244.42868972896395 165.85068463376956,244.5930424672406 166.09715279290685,244.98044542098796 166.20865029341076,245.1154495039591 166.4433818735124,245.27980231690162 166.54901108457125,245.29741154791554 167.1006302977912,245.30328129164263 167.26494240385364,245.27980231690162 168.12171267118538,245.13892847613897 168.99021951752366,245.03327310417808 169.29537057163543,244.96870593608037 169.8059117583325,244.91000851291028 169.98782873287564,244.86892031805473 170.28124320800998,244.85131109202484 170.37513584003318,244.81609264059807 170.70376005215803,244.7691347066284 170.7859161051747,244.77500444830366 171.12040860683192,244.70456754979386 171.26711584441364,244.6986978084169 171.5018474245153,244.64000039573148 171.74831558359438,244.61652143130777 172.1767007172457,244.5402147994173 172.2705933492689,244.5813029853307 172.34101282333722,244.55782402182376 172.49945663986728,244.55782402182376 172.7224516409624,244.46390817138308 173.06281243206467,244.4052107678217 173.33275374918594,244.3112949268616 173.59095848730067,244.1058540450831 173.73179743535002,243.94737109819835 173.7904803303536,243.78301843008376 173.8080851988925,243.6480144660527 173.72592914587585,243.1901750254765 173.6789828298206,242.67363838684105 173.70245598783367,242.52689505570015 173.77874375137617,242.30384521957603 173.76700717234053,242.1923203138067 173.97239730495494,241.7814391527936 174.0721582264814,241.68752347447298 174.33036296459613,241.3294700041588 174.59443599218503,241.07707170695357 174.82916757228668,240.94793771064724 174.85264073027065,240.9538074375232 174.89371875682264,241.01250470743253 175.04629428384942,240.94206798381492 175.64485981309554,240.9009798965344 175.79743534015142,240.8540220838695 175.81504020866123,240.87163126344967 175.96761573571712,240.87750099002005 176.23755705283838,240.84228263093246 176.31971310585504,240.84228263093246 176.33731797439395,240.8657615369084 176.39600086939754,240.84228263093246 176.50749836990144,240.8540220838695 176.65420560748316,240.80119454636588 177.0591175831505,240.72488810653158 177.38774179527536,240.57227523835172 177.93349271899206,240.3316165158176 178.2445120626071,240.1437853442112 178.5437948272447,240.00291198072955 178.81960443381104,239.8326900172542 178.98978482940583,239.75638362601603 179.0719408824225,239.69181668258534 179.12475548795192,239.69181668258534 179.44164312107023,239.49224614744162 179.85242338624084,239.1341931940624 179.8817648337572,239.07549599663616 179.95805259727058,239.02266852086905 180.15757444035262,238.74092201441817 180.16931101938826,238.6998339865895 180.2749402303889,238.5707001920091 180.5566181264876,238.10699256532826 180.64464246903663,238.02481654491567 180.7444033905631,237.79002793959808 180.86176918062847,237.61980622333795 180.90284720712225,237.52589080179314 181.02021299718763,237.40262681978493 181.14344707672717,237.30871141161333 181.24320799825364,237.26175370968122 181.61291023690137,237.2030565843088 181.95327102806186,237.31458112446126 182.03542708107852,237.3732782541265 182.25842208217364,237.41436624622293 182.42860247771023,237.4730633797153 182.4931536622462,237.4730633797153 182.6985437948315,237.52589080179314 182.86285590089392,237.5317605154778 182.95088024341385,237.57284851184522 183.07998261248576,237.58458793958562 183.1680069550348,237.61980622333795 183.2971093241067,237.59632736740605 183.5083677461662,237.7137216506453 183.87220169528155,237.73133079391118 183.9778309063404,237.7078519362767 184.26537709194236,237.54936965664092 184.50597696151817,237.3850176803171 184.54705498807016,237.3850176803171 184.6350793305901,237.32632055020804 184.78765485764598,237.26762342235452 185.1984351228166,236.96239839388 185.40969354487606,236.83913445736107 185.4801130189153,236.75695850521151 185.59747880895156,236.6747825574712 186.0610736796225,236.43999415972212 186.10215170617448,236.4517335787532 186.1901760486944,236.55151864416257 186.38382960227318,236.4458638692231 186.57161486634868,236.41651532193646 187.0,236.46347299787158" stroke="#4dd2ff" stroke-linecap="round" stroke-linejoin="round" stroke-width="0.5"><title>2024-09-29 17.0km</title><desc>12527761096</desc></polyline></svg>