<?xml version="1.0" encoding="utf-8" ?>
<svg baseProfile="full" height="300mm" version="1.1" viewBox="0,0,200,300" width="200mm" xmlns="http://www.w3.org/2000/svg" xmlns:ev="http://www.w3.org/2001/xml-events" xmlns:xlink="http://www.w3.org/1999/xlink"><defs /><rect fill="#222222" height="300" width="200" x="0" y="0" /><text fill="#FFFFFF" style="font-size:12px; font-family:Arial; font-weight:bold;" x="10" y="20">Over 10km Runs</text><text fill="#FFFFFF" style="font-size:4px; font-family:Arial" x="10" y="280">Runner</text><text fill="#FFFFFF" style="font-size:9px; font-family:Arial" x="10" y="290">Zakiyys</text><text fill="#FFFFFF" style="font-size:4px; font-family:Arial" x="65" y="280">SPECIAL TRACKS</text><rect fill="yellow" height="2.6" width="2.6" x="65" y="283" /><text fill="#FFFFFF" style="font-size:3px; font-family:Arial" x="70" y="285.5">Over 20.0 km</text><rect fill="red" height="2.6" width="2.6" x="65" y="287" /><text fill="#FFFFFF" style="font-size:3px; font-family:Arial" x="70" y="289.5">Over 40.0 km</text><text fill="#FFFFFF" style="font-size:4px; font-family:Arial" x="120" y="280">STATISTICS</text><text fill="#FFFFFF" style="font-size:3px; font-family:Arial" x="120" y="285">Number: 4</text><text fill="#FFFFFF" style="font-size:3px; font-family:Arial" x="120" y="290">Weekly: 1.0</text><text fill="#FFFFFF" style="font-size:3px; font-family:Arial" x="141" y="285">Total: 47.3 km</text><text fill="#FFFFFF" style="font-size:3px; font-family:Arial" x="141" y="290">Avg: 11.8 km</text><text fill="#FFFFFF" style="font-size:3px; font-family:Arial" x="167" y="285">Min: 10.0 km</text><text fill="#FFFFFF" style="font-size:3px; font-family:Arial" x="167" y="290">Max: 17.0 km</text><polyline fill="none" points="23.96753246895969,95.51807504240423 40.2727272734046,100.25301644485444 87.08441558666527,89.20482009649277 94.44805194996297,78.15662464965135 93.92207792215049,65.00401219818741 80.7727272734046,51.32529660407454 51.844155844300985,53.95581872574985 33.43506493605673,56.06023646146059 20.811688313260674,64.47790772560984 15.551948051899672,78.15662464965135 18.707792207598686,92.8875521114096 32.383116882294416,100.25301644485444 55.52597402781248,97.0963888252154 87.08441558666527,87.10040184669197 92.87012987025082,79.73493822943419 93.39610389620066,66.05622114706784 82.87662337720394,52.3775054467842 72.88311688229442,49.74698335491121 56.051948050037026,53.42971429787576 28.701298700645566,58.69075867533684 18.181818183511496,69.21284804400057 16.077922077849507,84.46987907961011 19.759740259498358,92.36144753266126 35.53896103799343,100.77912105619907 79.19480519555509,91.30923837982118 90.24025974050164,82.89156544487923 93.92207792215049,72.89557951595634 91.29220779240131,61.84738539997488 80.7727272734046,52.3775054467842 60.259740261361,52.3775054467842 28.701298700645566,59.21686312370002 20.285714285448194,68.16063906997442 16.60389610566199,80.7871472928673 20.285714285448194,92.36144753266126 31.85714286006987,100.25301644485444 50.26623376458883,97.0963888252154 80.24675324745476,91.30923837982118 90.76623376831412,82.36546090338379 94.44805194996297,69.73895253241062 88.66233766451478,57.11244534049183 77.61688311770558,50.799192185513675 40.2727272734046,56.06023646146059 23.96753246895969,61.84738539997488 17.129870127886534,72.89557951595634 16.60389610566199,84.99598362948745 22.389610391110182,95.51807504240423 33.43506493605673,100.77912105619907 55.0,96.57028422877192 85.50649350695312,89.20482009649277 94.97402597405016,76.57831108756363 89.7142857145518,57.11244534049183 75.51298701390624,51.32529660407454 31.33116883225739,58.69075867533684 20.811688313260674,66.58232562430203 16.60389610566199,78.68272917345166 19.233766233548522,89.73092466406524 27.64935065060854,97.62249342352152 37.642857141792774,99.2008072314784 81.29870130121708,90.25702923350036 91.29220779240131,81.31325182784349 93.92207792215049,72.36947501357645 86.55844155885279,55.00802758894861 73.93506493419409,50.799192185513675 50.792207792401314,54.48192315734923 30.805194806307554,58.1646542288363 18.181818183511496,69.21284804400057 16.077922077849507,80.7871472928673 22.389610391110182,93.93976127821952 35.012987012043595,99.7269118372351 77.61688311770558,91.83534295484424 91.81818181835115,81.31325182784349 91.81818181835115,62.373489861376584 81.29870130121708,51.851401024498045 44.480519481003284,55.534132024273276 18.181818183511496,69.21284804400057 16.077922077849507,85.52208818122745 19.759740259498358,96.0441796341911 32.383116882294416,97.62249342352152 79.19480519555509,91.30923837982118 91.81818181835115,80.7871472928673 93.39610389620066,69.73895253241062 88.1363636367023,57.63854978326708 78.14285714365542,50.799192185513675 36.06493506580591,57.11244534049183 23.441558441147208,62.89959432370961 15.551948051899672,77.10441560577601 20.285714285448194,91.83534295484424 30.805194806307554,99.2008072314784 75.51298701390624,92.36144753266126 86.03246753290296,87.10040184669197 93.39610389620066,76.0522065712139 92.87012987025082,66.05622114706784 83.40259740129113,53.95581872574985 72.88311688229442,50.799192185513675 28.175324676558375,59.742967574857175 16.60389610566199,71.31726601533592 16.60389610566199,84.99598362948745 22.389610391110182,94.46586586441845 33.961038960143924,99.7269118372351 79.19480519555509,91.83534295484424 88.66233766451478,84.99598362948745 93.92207792215049,72.36947501357645 87.61038960888982,56.58634089957923 74.9870129879564,50.799192185513675 52.37012987025082,55.00802758894861 29.753246754407883,59.21686312370002 19.759740259498358,67.10843010433018 15.551948051899672,81.31325182784349 22.389610391110182,94.99197045248002 35.012987012043595,100.25301644485444 70.25324675440788,93.41365669388324 85.50649350695312,89.20482009649277 92.87012987025082,78.15662464965135 93.39610389620066,66.05622114706784 81.29870130121708,52.3775054467842 45.532467532902956,53.95581872574985 17.655844155699015,68.68674355559051 16.60389610566199,87.62650640495121 27.123376624658704,97.62249342352152 35.53896103799343,100.25301644485444 84.45454545505345,89.20482009649277 93.92207792215049,76.57831108756363 92.87012987025082,63.95180325675756 79.19480519555509,49.220878942869604 35.012987012043595,56.58634089957923 17.655844155699015,68.16063906997442 14.5,79.73493822943419 18.181818183511496,89.73092466406524 31.85714286006987,99.7269118372351 51.844155844300985,98.14859802369028 87.08441558666527,88.15261096786708 94.44805194996297,69.21284804400057 87.61038960888982,56.58634089957923 74.9870129879564,50.2730877706781 32.383116882294416,56.58634089957923 17.129870127886534,68.16063906997442 14.5,81.31325182784349 19.233766233548522,92.8875521114096 27.123376624658704,99.2008072314784 49.74025974236429,97.0963888252154 80.24675324745476,91.83534295484424 90.76623376831412,83.94377453252673 94.44805194996297,73.94778852537274 91.81818181835115,60.26907202787697 78.14285714365542,50.2730877706781 55.52597402781248,53.42971429787576 45.00649350695312,55.00802758894861 23.96753246895969,60.795176482759416 15.551948051899672,73.94778852537274 17.655844155699015,90.25702923350036 30.279220778495073,99.7269118372351 43.42857142910361,99.7269118372351 86.55844155885279,89.20482009649277 93.39610389620066,72.36947501357645 89.7142857145518,59.21686312370002 80.24675324745476,51.851401024498045 55.0,52.3775054467842 43.95454545505345,54.48192315734923 26.071428572759032,59.21686312370002 16.077922077849507,71.8433705130592 15.025974025949836,79.20883370097727 16.077922077849507,84.46987907961011 28.175324676558375,98.6747026257217 56.57792207784951,97.62249342352152 88.66233766451478,87.10040184669197 94.97402597405016,71.31726601533592 91.29220779240131,58.69075867533684 80.24675324745476,51.32529660407454 48.68831168860197,53.95581872574985 26.071428572759032,59.742967574857175 16.077922077849507,76.0522065712139 18.707792207598686,90.25702923350036 29.753246754407883,97.0963888252154 79.19480519555509,91.30923837982118 90.76623376831412,83.94377453252673 94.44805194996297,72.89557951595634 88.66233766451478,55.534132024273276 77.09090909175575,49.74698335491121 58.68181818164885,52.90360987186432 26.597402596846223,59.742967574857175 16.60389610566199,73.42168401926756 16.60389610566199,84.99598362948745 23.96753246895969,96.57028422877192 36.06493506580591,100.25301644485444 66.0454545468092,94.46586586441845 84.98051948100328,89.73092466406524 91.29220779240131,82.36546090338379 92.87012987025082,73.94778852537274 88.66233766451478,58.69075867533684 81.29870130121708,52.90360987186432 47.11038960888982,55.00802758894861 23.441558441147208,62.89959432370961 16.077922077849507,78.15662464965135 19.233766233548522,90.25702923350036 28.175324676558375,98.14859802369028 46.58441558293998,98.6747026257217 83.92857142910361,89.73092466406524 92.87012987025082,80.26104276068509 93.39610389620066,63.42569878976792 81.29870130121708,51.851401024498045 61.311688313260674,52.3775054467842 20.285714285448194,67.63453458622098 18.181818183511496,86.04819273389876 25.545454546809196,94.99197045248002 42.376623375341296,99.2008072314784 78.66883116774261,91.83534295484424 90.76623376831412,83.94377453252673 94.44805194996297,68.68674355559051 87.08441558666527,56.58634089957923 74.9870129879564,50.799192185513675 25.545454546809196,61.84738539997488 16.60389610566199,74.9999975450337 17.655844155699015,87.10040184669197 28.175324676558375,97.62249342352152 39.22077922336757,99.7269118372351 60.78571428544819,96.57028422877192 79.19480519555509,91.83534295484424 90.24025974050164,83.94377453252673 94.97402597405016,71.31726601533592 86.55844155885279,54.48192315734923 75.51298701390624,50.799192185513675 51.31818181835115,54.48192315734923 35.012987012043595,57.11244534049183 28.701298700645566,58.69075867533684 18.707792207598686,67.10843010433018 14.5,79.73493822943419 17.129870127886534,88.67871553078294 29.753246754407883,99.7269118372351 73.93506493419409,93.41365669388324 91.29220779240131,83.41766998823732 95.5,71.31726601533592 91.29220779240131,59.21686312370002 80.7727272734046,51.851401024498045 33.961038960143924,57.11244534049183 18.181818183511496,68.16063906997442 15.551948051899672,78.15662464965135 20.285714285448194,91.30923837982118 36.06493506580591,99.7269118372351 68.1493506487459,92.8875521114096 86.03246753290296,88.67871553078294 94.44805194996297,77.10441560577601 91.81818181835115,61.32128094043583 81.29870130121708,51.851401024498045 73.4090909101069,50.799192185513675 50.26623376458883,52.90360987186432 22.915584415197372,63.42569878976792 17.655844155699015,72.89557951595634 16.60389610566199,85.52208818122745 32.383116882294416,98.6747026257217 79.19480519555509,91.30923837982118 89.7142857145518,84.99598362948745" stroke="#4DD2FF" stroke-linecap="round" stroke-linejoin="round" stroke-width="0.5"><title>2025-08-21 10.2km</title><desc>15534281190</desc></polyline><polyline fill="none" points="148.77462472813204,34.5 148.01969978248235,34.9065951781231 146.39370759192389,35.48744547041133 145.7258893707767,35.86499818408629 144.82578655087855,36.126380843052175 143.4320789591875,36.73627374874195 143.22882993530948,36.678188708028756 142.79329631279688,36.73627374874195 142.4739049896598,36.678188708028756 142.21258481615223,36.765316269302275 141.6028377446346,36.82340131071396 138.90252928540576,36.88148635259131 137.2765370948473,36.85244383162353 136.17318525130395,36.765316269302275 134.80851323413663,36.96861391625134 133.93744598934427,37.200954090745654 133.24059219332412,37.462336795637384 132.07916920026764,38.13031485985266 131.32424425438512,38.6530803423957 130.88871063210536,39.03063321323134 130.27896356058773,39.37914357223781 129.20464729180094,40.308504607586656 128.97236269316636,40.453717279597186 127.02697917935438,42.022014314483386 126.41723210806958,42.399567352666054 126.33012538356707,42.51573752204422 126.12687635980546,43.12563094054349 126.12687635980546,43.532226580020506 126.01073406042997,43.85169459768804 126.09784078493249,44.78105618030531 126.06880521005951,45.12956680305069 126.06880521005951,45.71041787666036 126.01073406042997,45.942758318560664 126.03976963530295,46.58169457037002 126.47530325769912,48.32424825796625 126.56240998220164,48.73084417602513 127.17215705371927,49.950632060994394 127.25926377810538,50.299142921343446 127.23022820334882,51.228505293955095 127.05601475434378,52.01265488442732 126.88180130545516,53.55191172414925 126.73662343120668,54.190848617465235 126.35916095844004,54.77170038537588 125.60423601279035,55.58489293541061 125.25580911478028,56.42712816857966 125.19773796526715,56.83372452162439 125.25580911478028,57.82117289851885 125.19773796526715,58.48915275599575 125.3429158392828,59.186175278853625 125.3429158392828,59.59277178021148 125.43002256378531,60.02841091307346 125.40098698891234,61.07394493446918 125.31388026452623,61.42245630704565 125.31388026452623,62.03235124773346 125.2267735399073,62.81650195812108 124.82027549226768,64.44288887630682 124.73316876776516,64.6752298931824 124.41377744462807,66.4758730166941 124.52991974411998,66.82438463857397 124.67509761813562,66.96959781908663 125.16870239027776,67.34715210163267 125.92362733592745,67.66662112466292 126.41723210806958,68.10226072336081 127.08505032921676,69.08971057349117 127.1431214788463,69.49630760820583 127.5496195263695,71.26790922967484 127.63672625087202,71.52929311065236 127.75286855036393,72.28440215130104 127.92708199936897,72.69099935842678 128.3045444720192,73.0975965873804 128.8271848190343,73.32993787096348 129.23368286667392,73.62036448548315 130.3079991354607,73.99791910115164 130.54028373409528,74.1431324199657 130.77256833261345,74.46260173106566 130.8306394823594,74.60781505878549 130.85967505711596,74.89824172260705 130.77256833261345,75.39196707680821 130.4241414347198,76.11803383298684 129.9886078122072,76.64080194087 129.34982516616583,77.1926127608167 128.8271848190343,77.54112487850944 127.28829935286194,78.32527720218059 126.50433883245569,78.81900278129615 125.69134273729287,79.63219792343443 125.54616486316081,79.92262478126213 125.2267735399073,80.35826508898754 124.73316876776516,81.37475923850434 124.3847418698715,82.39125352550764 124.06535054661799,82.94306476751808 123.92017267260235,83.4658333499101 123.62981692433823,84.01764467085013 123.51367462496273,84.42424251220655 122.55550065543503,86.3991466263542 122.32321605691686,87.21234258910408 122.00382473366335,87.67702603596263 121.82961128477473,88.05458135774825 121.59732668602373,88.86777749989415 121.45214881189167,89.41958921798505 120.81336616561748,91.22023826488294 120.63915271672886,91.53970830223989 120.26169024372939,92.7014176438679 119.8551921963226,93.5726997682359 119.50676529819611,94.53111022221856 119.30351627443451,94.966751378146 119.24544512468856,95.14100784761831 119.33255184930749,95.19909333833493 119.24544512468856,95.11196510243462 119.30351627443451,95.11196510243462 119.27448069956154,95.19909333833493 118.86798265192192,95.46047805220587 118.54859132878482,95.7218627751572 118.22920000553131,96.07037575333379 116.98067028797232,97.08687203231966 116.08056746819057,97.98719742335379 114.62878872652072,99.17795052629663 113.75772148172837,100.04923340462847 112.88665423658676,100.80434531462379 112.5382273386931,101.12381576112239 112.10269371629693,101.44328622118337 111.87040911754593,101.82084223709535 111.4929466447793,102.22744104475714 111.43487549514975,102.34361213666853 110.94127072312403,102.75021097279387 110.59284382499754,103.12776705471333 110.24441692698747,103.33106649137335 110.15731020248495,103.50532315572491 110.04116790334228,103.679579824151 110.07020347809885,103.8247937176493 110.04116790334228,104.1733070735354 110.0121323284693,104.31852097657975 109.95406117883977,104.37660653860075 109.17010065843351,104.66703435539966 108.58938916167244,104.81224826810649 107.95060651539825,105.10267610190203 107.22471714473795,105.53831787378294 106.58593449834734,106.06108803360257 106.55689892359078,106.84524334198795 106.64400564797688,107.51322755857836 107.22471714473795,109.28483816166408 107.42796616849955,110.24325063056313 107.51507289288566,110.91123515140498 107.86349979089573,112.16007593792165 108.06674881477375,113.55413101654267 108.24096226377878,114.13498737628106 108.44421128754038,114.62871531769633 108.50228243716992,115.32574305537855 108.64746031130198,115.5 108.93781605968252,115.5 109.31527853256557,115.4128715271363 110.82512842374854,115.15148611483164 112.59629848843906,114.77392942429287 113.00279653607868,114.65775813878281 113.52543688297737,114.62871531769633 113.84482820623089,114.65775813878281 114.13518395437859,114.74488660279894 114.48361085238867,114.74488660279894 114.83203775039874,114.62871531769633 119.39062299893703,113.6412594676367 120.81336616561748,113.29274566943059 121.62636226101313,113.14753159164684 122.11996703303885,113.00231751671527 124.35570629511494,112.56667530891718 125.19773796526715,112.30528999643866 125.2267735399073,112.24720437271753 125.16870239027776,112.18911874940386 125.19773796526715,112.21816156100249 125.31388026452623,112.24720437271753 126.06880521005951,112.16007593792165 127.78190412512049,111.78251939901384 128.3045444720192,111.55017692304682 129.20464729180094,111.43400568771176 130.4241414347198,111.1145348000573 130.85967505711596,111.05644918559119 131.46942212875,110.82410673226696 131.9920624756487,110.76602112001274 133.6761258158367,110.38846465176903 134.25683731236495,110.33037904294906 135.06983340764418,110.03995100565953 136.40546984993853,109.83665138628567 137.10232364595868,109.66239457408665 137.5088216935983,109.63335177249974 138.29278221400455,109.40100936341332 138.6412091118982,109.37196656287415 139.01867158489767,109.25579536147416 139.51227635680698,109.22675256145885 139.77359653043095,109.08153856289573 140.4414147514617,108.99441016511992 140.90598394884728,108.7911105742678 142.64811843866482,108.44259700283874 143.80954143195413,108.18121183494804 144.41928850335535,108.09408344764961 145.0,107.89078388136113 145.75492494553328,107.77461270306958 147.11959696258418,107.42609917913796 149.99411887093447,106.93237171467626 151.32975531322882,106.81620055134408 153.73970802419353,106.70002938975813 155.56894923863,106.67098659969633 156.99169240531046,106.55481544038048 158.2111865482293,106.55481544038048 158.87900476937648,106.58385823003482 159.66296528966632,106.52577265090076 160.0113921876764,106.55481544038048 161.08570845646318,106.49672986147925 161.6083488034783,106.52577265090076 162.59555834776256,106.43864428298548 162.8568785211537,106.46768707217416 163.46662559255492,106.38055870489916 164.39576398720965,106.35151591600152 165.38297353149392,106.43864428298548 167.24125032057054,106.35151591600152 169.12856268475298,106.38055870489916 169.7383097561542,106.3224731272785 170.6674481506925,106.35151591600152 172.43861821549945,106.2643875501235 173.48389890929684,106.3224731272785 174.61628632771317,106.2643875501235 175.10989109997172,106.14821639715228 175.37121127336286,106.20630197337596 175.63253144687042,106.11917360918596 176.24227851838805,106.17725918523502 177.95537743333261,106.09013082139427 178.12959088233765,106.11917360918596 178.36187548108865,106.06108803360257 178.41994663060177,106.09013082139427 178.6231956544798,106.09013082139427 178.6812668039929,106.00300245848484 178.65223122935276,105.82874573586741 178.7103023789823,105.5964034452918 178.7103023789823,105.01554775057593 178.79740910348482,104.63799157325411 178.85548025299795,103.91192205512198 178.94258697750047,103.5924514894723 178.91355140286032,103.04063872643746 179.00065812724642,102.11126995459199 178.91355140286032,100.77530254749581 178.97162255248986,100.51391764794243 178.91355140286032,100.1654044627794 178.97162255248986,99.93306234834017 178.94258697750047,99.61359195277328 179.00065812724642,99.43933537916746 178.94258697750047,98.10336844943231 179.05872927699238,96.85453001357382 179.00065812724642,96.47697424836224 179.05872927699238,96.04133300454123 179.00065812724642,95.69282002770342 179.05872927699238,95.48952079867013 178.94258697750047,94.44398199400166 178.47801778034773,92.52716123108985 178.2747687564697,91.88822108588647 178.2747687564697,91.65587922825944 178.1876620320836,91.27832372521516 178.15862645721063,89.91331552655902 178.41994663060177,88.92586294194916 178.41994663060177,88.31596582237398 178.2747687564697,87.50276974000735 177.92634185857605,86.60244560881983 177.69405725982506,85.64403616846539 177.17141691304278,84.16285818308825 177.14238133805338,83.81434575846652 176.5035986918956,82.15891196212033 176.15517179388553,81.05528963386314 175.6615670217434,79.71932597958948 175.48735357273836,78.96421619306784 175.40024684823584,78.49953328527045 175.42928242310882,77.9186796908034 175.28410454886034,77.4830395244062 175.28410454886034,77.51208220142871 175.31314012373332,77.22165543667506 175.25506897410378,76.98931403295137 175.42928242310882,76.46654590097023 175.40024684823584,76.00186314736493 175.45831799786538,75.59526576148346 175.40024684823584,75.18866839760449 175.45831799786538,74.81111372227315 175.42928242310882,74.1721750840079 175.45831799786538,73.76557779702125 175.63253144687042,72.9523832888226 175.83578047063202,72.5457860676106 175.9809583448805,72.052060899965 176.44552754214965,71.12269596633269 176.61974099115469,70.62897089193575 176.99720346403774,70.04811790463282 177.49080823606346,69.64152084023226 178.04248415783513,69.03162528463872 178.3038043313427,68.50885770481545 178.36187548108865,68.24747392849531 178.79740910348482,67.23098155116895 179.26197830075398,65.95310561399674 179.55233404913452,65.45938087796094 180.24918784503825,64.4719315029215 181.38157526333816,63.57161012652796 181.81710888573434,63.33926914364565 181.9913223348558,63.07788554637227 182.45589153224137,62.84554457856575 182.8333540048916,62.58416099840542 182.9204607293941,62.43894790217746 183.06563860352617,62.06139386520954 183.09467417839915,61.71288246312179 183.32695877703372,60.72543357789982 183.38502992677968,59.79607003915589 183.35599435202312,59.33138831256656 183.44310107652564,58.83766400947934 183.32695877703372,57.734045095334295 182.97853187914006,56.63042634236626 182.25264250824694,54.94595592445694 182.0784290592419,54.277976379788015 181.90421561035328,53.871380164055154 181.8751800355967,53.40669880138012 181.75903773622122,53.00010263238801 181.64289543696214,52.30308067932492 181.6719310117187,51.780314256611746 181.7880733110942,51.228505293955095 181.7880733110942,50.87999439088162 182.16553578386083,49.34073809400434 182.13650020910427,48.992227277718484 182.1945713587338,48.61467391147744 182.1945713587338,48.12095030711498 182.1074646342313,47.656269297061954 181.9913223348558,47.13350319478195 181.75903773622122,46.61073712853249 181.55578871245962,46.3783966662013 181.20736181444954,45.76850298640784 180.91700606618542,45.36190722719766 179.78461864765268,44.02594988577766 179.40715617500246,43.357971303281374 179.23294272599742,42.777120409708004 179.11680042662192,42.08009939605836 179.20390715112444,41.702546373708174 179.20390715112444,41.15073814400239 179.37812060012948,40.51180234923959 179.40715617500246,40.308504607586656" stroke="#4DD2FF" stroke-linecap="round" stroke-linejoin="round" stroke-width="0.5"><title>2025-08-03 10.0km</title><desc>15324505910</desc></polyline><polyline fill="none" points="36.51817732641939,188.50246792502003 36.92120772739872,188.24331526149763 37.46817755745724,187.55224153527524 38.792420303449035,186.6308099986636 39.36817801906727,186.31406793382484 40.05908727797214,186.02612061373657 40.490905564744025,185.88214695773786 40.922723851399496,185.82455749611836 41.325754252495244,185.68058384401957 41.72878465347458,185.36384181899484 42.304542369092815,184.64397362963064 42.56363334110938,184.5 42.765148541657254,184.6151789035066 42.851512199034914,184.8455367157585 43.25454260001425,185.62299438391346 43.225754714221694,185.853352226899 43.2833304858068,186.14129954040982 43.48484568623826,186.486836331198 43.62878511508461,186.83237313770223 43.97423974471167,187.4658573239576 44.63636111759115,188.4448784434935 45.03939151857048,189.30872071313206 45.24090671911836,189.5966681583086 45.98939174960833,191.41073731496 46.190906949923374,191.75627434655325 46.47878580784891,192.36096418992383 46.79545255145058,192.79288553626975 47.31363449560013,193.9446759139537 48.72424089885317,196.27705196721945 48.72424089885317,196.39223105023848 48.954543985426426,196.73776830988936 49.933332102023996,198.69581308041234 49.99090787349269,198.9837608836824 50.2212109597167,199.53086174017517 50.36515038856305,200.1643469920964 50.30757461709436,200.99939581454964 50.16363518824801,201.37372807535576 50.07727153087035,201.9496238976135 50.2212109597167,202.81346771348035 50.969695990206674,204.16682322428096 51.83333256363403,205.14584651147015 52.46666605095379,206.03848550195107 52.86969645193312,206.8159453541739 52.95606010931078,206.98871422105003 53.042423766688444,207.4782260323409 53.15757530985866,207.65099491452565 53.099999538157135,208.68760829092935 53.128787424066104,209.0043512955308 52.95606010931078,209.92578556673834 52.89848433772568,210.01217003550846 52.66818125138525,211.39432167005725 52.63939336570911,212.5173200603458 52.75454490876291,213.03562706633238 53.186363195534796,214.33139473793563 53.215151081443764,214.61934313981328 54.10757554054726,217.03811015142128 54.36666651268024,218.21869909518864 54.42424228426535,218.70821163855726 54.39545439847279,219.6296471010428 54.07878765487112,221.64528757025255 53.96363611170091,221.9620311218314 53.733333025476895,222.2499798167264 53.445454167667776,222.42274903896032 53.099999538157135,222.50913365161978 52.89848433772568,222.68190287979087 52.84090856614057,222.8546721120947 52.61060547991656,223.14262084133225 51.66060524911154,223.77610808453755 51.056059647584334,224.40959538141033 50.79696867545135,224.69754417042714 50.36515038856305,225.44621107378043 49.875756330322474,226.8283655536943 49.29999861458782,228.2393151820288 49.15605918574147,228.46967433032114 48.89696821360849,228.8152130660019 48.55151358433068,229.10316202463582 47.71666489657946,229.96700896712719 46.76666466565803,232.21301148482598 46.62272523669526,232.788909675146 46.593937350902706,233.3360129969078 46.50757369364146,233.9407061888487 46.56514946511015,234.17106551286997 46.50757369364146,235.63960637099808 46.449997922056355,235.81237590266392 46.449997922056355,235.92755559273064 46.363634264678694,236.50345406954875 46.363634264678694,237.16573737288127 46.449997922056355,237.3673018682166 46.62272523669526,238.80704842152772 46.79545255145058,239.21017750632018 46.824240437243134,239.46933192946017 46.9681798662059,239.90125598805025 47.05454352358356,240.01643574121408 47.19848295242991,240.56353959313128 47.37121026718523,240.96666877297685 47.774240668164566,242.46400591736892 48.20605895493645,243.58700897317613 48.2924226121977,244.07652317878092 48.695453013293445,245.17073151934892 48.954543985426426,245.74663071060786 49.213634957326576,246.17855513322866 49.213634957326576,246.92722419195343 49.27121072879527,247.30155874951743 49.32878650049679,247.30155874951743 49.3863622720819,247.5607134543243 49.44393804355059,248.1654078005813 49.12727130006533,249.6627463933546 49.06969552836381,250.46900576050393 49.27121072879527,251.21767525130417 49.35757438617293,251.6783949753153 49.61666535830591,252.39826960139908 49.703029015567154,253.2045292655239 49.933332102023996,253.75163408741355 49.962119987700135,254.2411489621736 49.933332102023996,254.41391892568208 49.99090787349269,254.73066386929713 49.933332102023996,255.30656380124856 50.07727153087035,255.62330878298962 50.13484730233904,255.88246377796168 50.19242307404056,255.82487377832877 50.19242307404056,255.96884877834236 50.36515038856305,256.2280037854216 50.30757461709436,256.54474880645284 50.42272616038099,257.0918538745609 50.336362502886914,258.35883418720914 50.27878673141822,262.50531672430225 50.36515038856305,263.1388073162525 50.36515038856305,263.85868305468466 50.24999884562567,264.175428401737 50.24999884562567,264.4633787290077 50.24999884562567,264.89530424092663 50.36515038856305,265.21204963244963 50.59545347490348,265.35602481482783 51.08484753314406,265.471204962756 51.48787793435622,265.5 51.83333256363403,265.44240992557025 52.46666605095379,265.5 53.24393896700349,265.471204962756 54.193939198041335,265.3272297780495 54.71212114219088,265.12566452426836 56.15151543135289,264.78012410196243 57.85000069253147,264.43458369578 59.40454652486369,264.0602482739487 61.477274301461875,263.6859128710348 62.571213961113244,263.2827824582928 64.67272962350398,262.8220620134962 65.16212368174456,262.6492918540607 67.26363934401888,262.13098139996873 67.58030608762056,262.13098139996873 69.36515500629321,261.67026102670934 70.3439431230072,261.55508093797835 71.89848895533942,261.0943606005749 72.70454975718167,260.9215904814191 73.39545901597012,260.72002534748754 73.4818226734642,260.6048452734831 73.33788324450143,260.2881000791094 73.1651559297461,259.453044631402 73.05000438669231,259.1075044737081 72.76212552876677,257.5237789568491 72.96364072931465,258.2724491590052 73.1651559297461,259.453044631402 73.25151958700735,259.91376486676745 73.28030747291632,260.576050255273 73.07879227260128,260.576050255273 72.21515569894109,260.80641040421324 71.81212529796176,260.86400044261245 70.48788255185355,261.15195064112777 70.0272763792891,261.3535157868173 69.59545809251722,261.38231080805417 67.9257607171312,261.67026102670934 67.40757877298165,261.8718261864851 66.25606334162876,262.1885714486125 64.38485076557845,262.5917018018081 63.89545670733787,262.5917018018081 63.63636573520489,262.8220620134962 62.11060778866522,263.0524222323438 61.390910644084215,263.25398742966354 60.67121349950321,263.34037251595873 59.20303132443223,263.74350293178577 58.31060686497949,263.8874780856422 57.965152235818096,264.0026582106948 57.504546063253656,264.08904330572113 57.33181874838192,264.2618134987424 57.04393989068922,264.31940356397536 56.698485261178575,264.4633787290077 56.32424274610821,264.5785588630242 55.89242445921991,264.60735389689216 55.6621213729959,264.5497638293891 54.51060594164301,264.89530424092663 54.280302855418995,264.89530424092663 53.9060603401158,265.0680744528072 53.41666628175881,265.12566452426836 52.8121206802316,265.12566452426836 51.43030216277111,265.2408446686459 51.056059647584334,265.298434741504 50.79696867545135,265.26963970501674 50.7681807896588,265.21204963244963 50.73939290398266,265.298434741504 50.56666558922734,265.26963970501674 50.42272616038099,265.09686948847957 50.336362502886914,264.7513290675124 50.36515038856305,264.43458369578 50.30757461709436,264.11783833761 50.336362502886914,263.8874780856422 50.24999884562567,263.5419377211365 50.24999884562567,263.31157748709666 50.30757461709436,263.0524222323438 50.27878673141822,262.67808688036166 50.36515038856305,262.10218637576327 50.36515038856305,261.18074566160794 50.01969575928524,260.80641040421324 49.90454421611503,260.54725523712113 49.875756330322474,260.2881000791094 49.90454421611503,259.7409947751439 50.01969575928524,259.0211194367148 50.04848364496138,258.2724491590052 50.16363518824801,257.7541390109691 50.07727153087035,257.3222139153513 50.04848364496138,255.88246377796168 50.16363518824801,255.33535879902774 50.19242307404056,254.35632893739967 50.07727153087035,253.63645412150072 49.962119987700135,253.2333242550958 49.703029015567154,252.7150144590414 49.703029015567154,252.34067962877452 49.44393804355059,251.361650161969 49.3863622720819,250.81454551609932 49.24242284311913,250.1522609986714 49.27121072879527,249.83551625034306 49.50151381525211,248.74130722362315 49.47272592945956,247.8486631368287 49.15605918574147,246.38011987239588 48.81060455623083,245.0555516864406 48.55151358433068,244.45085759297945 48.40757415536791,243.93254840909503 48.263634726405144,243.61580392561154 47.86060432542581,242.17605644313153 46.9681798662059,239.6421015498927 46.76666466565803,238.66307375364704 46.56514946511015,237.16573737288127 46.33484637888614,236.53224899456836 46.56514946511015,235.95635051548015 46.536361579434015,234.28624517761637 46.62272523669526,233.47998756199377 46.593937350902706,233.10565369861433 46.73787677986547,232.8752944074222 47.22727083833888,231.75229296460748 47.31363449560013,231.63711333903484 47.71666489657946,230.57170188624877 48.263634726405144,229.70785487390822 48.493937812629156,229.53508548345417 48.666665127384476,229.5062905853847 48.781816670671105,229.41990589199122 49.213634957326576,228.72882838064106 49.90454421611503,227.317878659931 50.04848364496138,226.79957066616043 50.53787770331837,225.64777525287354 51.056059647584334,224.66874929110054 51.948484106804244,223.86249271279667 52.293938736314885,223.66092858178308 52.927272223401815,223.11382596788462 53.272726852912456,222.71069775160868 53.9060603401158,222.2787746868562 54.10757554054726,221.9620311218314 54.33787862688769,220.2055443225545 54.39545439847279,219.94639056746382 54.39545439847279,219.4280830839416 54.4530301700579,218.3050836593029 54.39545439847279,217.75798143650172 54.251514969510026,217.12449470197316 53.93484822602477,216.37582863023272 53.41666628175881,214.6481379805482 53.07121165236458,213.9858566703042 52.86969645193312,213.17960124101955 52.75454490876291,212.48852522770176 52.725757022970356,212.4309355628211 52.725757022970356,212.45973039517412 52.6969691371778,211.76865444815485 52.75454490876291,211.39432167005725 53.013635880779475,210.3577079201932 53.099999538157135,209.6954269883572 53.30151473870501,209.32109431352 53.33030262438115,209.11953057325445 53.272726852912456,207.9389430602896 53.042423766688444,206.95991940965177 52.84090856614057,206.49920244165696 52.46666605095379,206.06728030979866 52.32272662199102,205.72174262220506 51.9772719925968,205.4049997558468 51.48787793435622,204.68512965459377 51.199999076430686,204.36838683177484 50.969695990206674,203.96525962214218 50.73939290398266,203.7636960253585 50.73939290398266,203.56213243410457 50.42272616038099,203.01503128476907 50.27878673141822,202.55431455833605 50.27878673141822,202.1799822387984 50.30757461709436,201.25854891625931 50.48030193184968,200.42350006499328 50.42272616038099,199.9051939281053 50.106059416546486,198.86858176108217 49.213634957326576,197.0257160384208 49.06969552836381,196.56499967805576 48.81060455623083,196.01789903681492 48.46514992695302,195.44200366776204 46.47878580784891,191.64109533425653 45.61514923418872,189.7118471393478 44.089391287765466,186.6883994663949 43.80151242983993,186.28527320129797 43.68636088678613,185.82455749611836 43.51363357203081,185.59419965406414 43.31211837148294,185.07589453505352 43.196966828545555,184.9895103520248 43.024239513790235,184.6151789035066 42.937875856412575,184.5 42.79393642744981,184.5 42.390906026470475,184.70156308228616 41.843936196528375,185.33504709013505 41.15302693762351,185.853352226899 40.17423882114235,186.08371007686947 39.62726899108384,186.28527320129797 38.9363597324118,186.6308099986636 37.986359501373954,187.235499431903 37.49696544313338,187.7250099608791 36.92120772739872,188.38728896237444" stroke="#4DD2FF" stroke-linecap="round" stroke-linejoin="round" stroke-width="0.5"><title>2025-07-05 10.1km</title><desc>15014930419</desc></polyline><polyline fill="none" points="125.35296674637357,212.54591434639588 125.33536187786376,212.69559148042754 124.94805477070622,212.7836368579301 124.75440121712745,212.86287770053605 124.54314279506798,212.5899370318657 124.41110628127353,212.5106961986021 124.3142795044696,212.4842825881351 124.07661377961631,212.5106961986021 124.00619430560619,212.49308712493803 123.96218213433167,212.51950073550688 123.7597261465271,212.4842825881351 123.58367746145814,212.52830527244078 123.45164094763459,212.64276425553544 123.1963703542715,212.7132005556632 123.06433384050615,212.81885500985663 122.87948272118228,212.8716822387796 122.72984133887803,212.9509230844269 122.60660725933849,213.07418662749114 122.55379265380907,213.09179570562264 122.51858291678946,213.05657754951972 122.01684416431817,213.27669103399967 121.39187133233645,213.29430011367367 121.00456422520801,213.2678864942136 120.53803520975634,213.29430011367367 120.36198652468738,213.2678864942136 119.65779178441153,213.3031046535325 119.15605303196935,213.42636821544147 118.80395566180232,213.5760454066185 118.37263638339937,213.86659527602023 118.01173657903564,214.13953609581222 117.97652684198692,214.21877698502794 117.98532927627093,214.22758152843744 117.75646598567255,214.37725877160847 117.38676374702482,214.72944055867265 116.92903716585715,215.02879512000072 116.80580308631761,215.15205877422704 116.7793957835529,215.22249515102885 116.89382742889575,215.58348161594768 116.69137144097476,215.31934517262562 116.57693979571923,215.25771334020828 115.6350793306483,216.0765363912069 115.32699413175578,216.60480948199984 115.21256248641293,216.92177339474438 115.16855031516752,217.26515101618133 115.15094544668682,218.0575611076638 115.18615518367733,218.84997147259128 115.12453814392211,219.22856763243908 115.03651380140218,219.4398771441629 114.96609432733385,219.80966883654764 114.86926755055902,220.04739209885884 114.8340578135394,220.39077018793614 114.56998478595051,221.31524991434708 114.5611823516665,221.57058247597888 114.44675070641097,221.89635164769425 114.40273853513645,222.2309254399006 114.31471419258742,222.37179863022175 114.00662899372401,223.66607147225295 113.83938274290995,224.14151882281294 113.76016083464492,224.48489752641763 113.67213649209589,224.63457543903496 113.63692675507627,224.84588545003498 113.21440991089912,225.92004497512244 112.79189306675107,226.72126265526458 112.75668332970235,226.8357223468629 112.57183221040759,227.11746930448862 112.25494457726018,227.69857251469512 112.17572266902425,227.93629659799626 111.40991088896408,229.23057259828784 111.1898500326497,229.6619980954274 111.03140621606144,229.92613619532494 110.85535753099248,230.1022282789636 110.6440991089039,230.25190656080667 110.24798956752056,230.32234340273135 109.96631167139276,230.26071116593084 109.65822647255845,230.03179144387832 109.43816561618587,229.71482571293018 109.39415344494046,229.52992905699648 109.20930232561659,229.16894039110048 108.9716366007633,228.54381381254643 108.6899587046646,228.2884804707137 108.35546620303649,228.19162990029145 108.16181264945772,228.18282530317083 107.89773962183972,228.25326208099432 106.87665724847466,228.7991471830319 106.78863290589652,228.86077938019298 106.77983047167072,228.8959977793129 106.63899152359227,228.9752391793736 106.40132579876808,229.04567598171707 106.04042599437525,229.23057259828784 105.49467507068766,229.38905542447174 105.36263855686411,229.4859060458839 105.23940447732457,229.79406714154175 105.14257770054974,230.32234340273135 105.0457509237167,230.4984355171182 104.7816778961278,230.82420596470183 104.59682677686214,231.0267119421478 104.5,231.39650551285013 104.51760486856801,231.60781615175074 104.58802434257814,231.72227608934918 104.57922190829413,231.8543452553131 104.66724625087227,231.96000059360813 104.66724625087227,231.99521904080757 104.86970223864773,232.13609283504775 104.95772658119677,232.30338047709665 105.20419474027585,232.47066813148558 105.19539230605005,232.5675188844034 105.37144099114812,232.7260019435489 106.4277331015328,233.16623272158904 106.81504020866123,233.483198934744 107.07031080202432,233.81777443009196 107.07911323627923,233.9234298599331 107.16713757879916,234.09952225397865 107.74809823953547,234.86552432752796 108.10019560967339,235.6139174085256 108.9452292979986,237.19875063342624 109.00684633778292,237.27799232388497 109.20930232561659,237.41886644708575 109.49098022168619,237.51571741187945 109.58780699849012,237.51571741187945 110.14236035643262,237.40125718120544 110.49445772659965,237.36603864985227 110.96978917627712,237.24277379445266 111.30428167790524,237.19875063342624 111.753205824818,237.0754857871798 112.57183221040759,236.95222094764176 112.79189306675107,236.89058853038296 113.21440991089912,236.94341631649877 113.47848293851712,236.88178389948735 113.86579004567466,236.74971444014227 115.61747446208028,236.37991999504447 116.07520104327705,236.24785056507972 116.2072375571006,236.24785056507972 116.47131058466039,236.1598042826954 117.16670289071044,236.02773486555088 117.96772440779023,235.84283769455214 118.62790697679156,235.67554979093256 119.61377961313701,235.46423877250345 120.19474027387332,235.36738789564697 120.33557922192267,235.3145601464057 121.15420560748316,235.1208584096894 121.42708106932696,235.0944445377827 121.61193218867993,235.02400754755945 121.84079547924921,235.02400754755945 121.95522712459206,234.94476593614672 122.27211475768127,234.9007428199111 122.41295370570151,234.84791508155467 123.93577483159606,234.54855792081798 124.34068680726341,234.51333943392092 124.56074766357779,234.53975329903187 125.25613996959873,234.47812094759138 125.48500326019712,234.44290246180026 125.83710063033504,234.43409784043615 126.03075418391381,234.46931632608175 126.24201260600239,234.42529321907205 126.37404911976773,234.45170708319347 127.395131493191,234.37246549183328 127.64159965227009,234.407683976533 128.5394479461247,234.34605162867229 128.63627472295775,234.37246549183328 129.48130841125385,234.3548562497017 129.85101064987248,234.37246549183328 131.45305368400295,234.31963776580233 131.81395348836668,234.33724700768653 132.19245816126931,234.3020285240782 132.36850684639649,234.31963776580233 132.48293849165202,234.2756146617321 132.64138230818207,234.31083314491843 132.6765920452017,234.3020285240782 132.6853944794857,234.24039617909875 132.84383829607395,234.1699592154473 132.9758748098102,234.28441928248503 133.12551619214355,234.31963776580233 133.3015648772125,234.25800542035722 133.5304281677818,234.28441928248503 133.91773527496844,234.2315915585059 134.9212127798528,233.98506219631236 135.03564442516654,233.99386681591568 135.34372962400084,233.8970160020108 135.8014562051976,233.81777443009196 136.48804607696366,233.65929129456345 137.10421647469047,233.483198934744 137.4211041078379,233.43037122946407 137.755596609466,233.3335204396717 138.34535970442812,233.21906042069895 138.65344490329153,233.13101425621426 139.04955444467487,233.05177271107095 139.86818083029357,232.8228527073952 139.9386003043037,232.77882963241427 140.17626602915698,232.77882963241427 140.5019560965302,232.708392714223 141.9455553140724,232.34740354283713 142.10399913066067,232.32979431645072 142.4648989350244,232.20652973545657 142.86100847640773,232.05685132469807 143.08106933278032,231.91597753537644 143.45077157142805,231.5461838800402 143.8732884155761,231.2116087199829 144.06694196915487,231.00910272600595 144.26059552276274,230.88583821678185 144.37502716801828,230.75376910719206 144.59508802436176,230.61289539876452 144.94718539449968,230.2431019557116 145.05281460552942,230.17266511626076 145.32569006737322,229.97015921496495 145.48413388396148,229.80287174486148 146.18832862423733,229.25698640188784 146.56683329713996,229.04567598171707 146.61084546838538,228.98404377953557 147.2270158661704,228.55261841103493 147.64073027603445,228.32369886098604 147.90480330365244,228.11238852754468 148.3537274505361,227.87466442586447 148.69702238644823,227.58411277974665 148.78504672896815,227.40802089104545 148.881873505743,227.40802089104545 148.94349054555641,227.36399792101292 149.1459465333901,227.4960668336862 149.30439034994924,227.48726223927224 149.55085850905743,227.5312852117204 149.7181047598424,227.61933115910506 149.7709193653718,227.61933115910506 150.26385568352998,227.88346902179183 150.35188002610812,227.97151498281164 150.64236035643262,228.0771701405465 150.90643338407972,228.19162990029145 151.82188654638594,228.67588279368647 151.9979352314549,228.92241157902754 151.9979352314549,228.99284837975574 151.90110845468007,229.1425265885191 151.9715279287484,229.3978600262344 151.9627254944935,229.61797508176824 151.9891327972582,229.74123952216178 152.05955227126833,229.97896381896862 152.13877417956246,230.09342367446516 152.2972179960634,230.4544124872191 152.58769832647522,230.78018292850174 152.61410562923993,230.86822900173138 152.851771354035,231.00910272600595 152.86937622260302,231.09714880811225 153.3535101065354,231.5021608298266 153.47674418604583,231.64303459344956 153.77602695065434,231.88956370086817 154.14572918933118,232.47066813148558 154.31297544014524,232.67317425594956 154.66507281028316,232.9197034753597 154.82351662684232,232.94611732188787 155.65094544668682,232.95492193747486 155.8974136057659,232.9197034753597 157.18256900677807,232.708392714223 158.48532927627093,232.5499096562853 158.9430558574386,232.4530589041242 159.70886763746967,232.36501276936906 159.98174309934257,232.30338047709665 160.42186481200042,232.27696663804818 160.56270376007888,232.22413896091166 161.05564007823705,232.15370205994986 161.1788741577766,232.1625066724664 161.68061291024787,232.05685132469807 161.90067376662046,232.04804671263264 162.25277113675838,231.96000059360813 162.622473375377,231.9247821469762 163.26505107583944,231.81032219913322 163.4058900239179,231.87195447800332 163.51151923500584,231.83673603275383 163.7491849598009,231.83673603275383 164.08367746145814,231.6958622570819 164.59421864812612,231.60781615175074 164.99913062379346,231.46694239029603 165.386437730951,231.15878106764285 165.59769615301047,230.9210566473048 165.6857204955304,230.6745276451402 165.71212779832422,230.4720216990827 165.58889371878468,229.785262538222 165.51847424471634,229.01045758026885 165.55368398176506,228.79034258355387 165.6681156270497,228.4557678293786 165.6505107585399,228.2884804707137 165.9585959574324,227.6721587291977 166.10823733973666,227.5312852117204 166.4955444468651,226.99420500625274 166.89165398830664,226.6156075604522 167.24375135844457,226.4219065659854 167.27896109540598,226.43071115629573 167.3405781352194,226.5187570611597 167.56944142575958,226.4131019757333 168.4672897196433,226.35146984481253 168.6961530102417,226.28103312582243 168.7225603129773,226.30744689518178 168.95142360357568,226.316251485041 169.35633557924302,226.2634239464096 169.47956965878257,226.2634239464096 169.50597696157638,226.29864230536623 169.5940013040672,226.2634239464096 169.76124755485216,226.28103312582243 169.98130841122475,226.20179181956337 170.58867637472576,226.08733215980465 171.08161269291304,225.85841285754577 171.90023907847353,225.49742477374093 172.3667680938961,225.215678016335 172.81569224086707,225.00436797110888 173.2294066507311,224.7490350258886 173.4846772440942,224.63457543903496 173.60791132363374,224.53772502388165 173.68713323192787,224.53772502388165 174.16246468160534,224.23836922117334 174.77863507936127,223.7012897911045 174.82264725063578,223.61324399495788 174.93707889589132,223.5340027813072 175.23636166049982,223.11138302163454 175.25396652906784,223.0497509798879 175.4124103455688,222.8560502880282 175.83492718971684,222.16048884800693 175.9669637035404,222.03722481739533 176.11660508584464,221.68504190941167 176.2926537709136,221.42970933501783 176.35427081069793,221.28883620270062 176.5303194957669,221.1039402296883 176.71517061509076,220.9630671174382 176.864811997395,220.8926305645291 177.4193653553666,220.8045848764741 177.9299065420928,220.97187168670644 178.05314062163234,221.05991738119337 178.38763312323135,221.1215493693453 178.64290371656534,221.2095950695948 178.73973049336928,221.2095950695948 179.0478156922327,221.28883620270062 179.29428385134088,221.29764077322034 179.42632036513533,221.3592727677751 179.6199739187141,221.37688190938206 179.75201043253765,221.42970933501783 179.94566398614552,221.39449105111999 180.26255161923473,221.57058247597888 180.80830254292232,221.5969961908704 180.96674635951058,221.56177790442598 181.39806563791353,221.32405448496866 181.75896544227726,221.07752652048657 181.82058248209069,221.07752652048657 181.95261899588513,220.98948082533025 182.18148228648352,220.90143513353541 182.79765268421033,220.44359759082727 183.11454031732865,220.25870168604888 183.2201695283875,220.13543775782455 183.39621821345645,220.01217383622134 184.0916105194483,219.659991239605 184.15322755926172,219.6776003681298 184.28526407302707,219.82727796625113 184.57574440340977,219.6687958038383 184.85742229953757,219.6247729829047 185.5,219.69520949681464" stroke="#4DD2FF" stroke-linecap="round" stroke-linejoin="round" stroke-width="0.5"><title>2024-09-29 17.0km</title><desc>12527761096</desc></polyline></svg>