<?xml version="1.0" encoding="utf-8" ?>
<svg baseProfile="full" height="300mm" version="1.1" viewBox="0,0,200,300" width="200mm" xmlns="http://www.w3.org/2000/svg" xmlns:ev="http://www.w3.org/2001/xml-events" xmlns:xlink="http://www.w3.org/1999/xlink"><defs /><rect fill="#222222" height="300" width="200" x="0" y="0" /><text fill="#FFFFFF" style="font-size:12px; font-family:Arial; font-weight:bold;" x="10" y="20">Over 10km Runs</text><text fill="#FFFFFF" style="font-size:4px; font-family:Arial" x="10" y="280">Runner</text><text fill="#FFFFFF" style="font-size:9px; font-family:Arial" x="10" y="290">Zakiyys</text><text fill="#FFFFFF" style="font-size:4px; font-family:Arial" x="65" y="280">SPECIAL TRACKS</text><rect fill="yellow" height="2.6" width="2.6" x="65" y="283" /><text fill="#FFFFFF" style="font-size:3px; font-family:Arial" x="70" y="285.5">Over 20.0 km</text><rect fill="red" height="2.6" width="2.6" x="65" y="287" /><text fill="#FFFFFF" style="font-size:3px; font-family:Arial" x="70" y="289.5">Over 40.0 km</text><text fill="#FFFFFF" style="font-size:4px; font-family:Arial" x="120" y="280">STATISTICS</text><text fill="#FFFFFF" style="font-size:3px; font-family:Arial" x="120" y="285">Number: 6</text><text fill="#FFFFFF" style="font-size:3px; font-family:Arial" x="120" y="290">Weekly: 1.0</text><text fill="#FFFFFF" style="font-size:3px; font-family:Arial" x="141" y="285">Total: 506.1 km</text><text fill="#FFFFFF" style="font-size:3px; font-family:Arial" x="141" y="290">Avg: 84.3 km</text><text fill="#FFFFFF" style="font-size:3px; font-family:Arial" x="167" y="285">Min: 10.0 km</text><text fill="#FFFFFF" style="font-size:3px; font-family:Arial" x="167" y="290">Max: 438.7 km</text><polyline fill="none" points="14.495904691051692,54.046739854311454 14.402084884641226,54.74385328538483 14.415487714111805,55.46777891780948 14.50930752052227,55.561621140368516 14.84437825763598,55.49459098116495 15.541325390979182,55.1728462347528 15.715562174213119,55.03878593244008 15.9434102755622,54.70363519905368 16.854802680609282,54.221018199110404 17.1898734177812,53.88586754366406 17.819806403596886,53.65796511620283 18.221891288238112,53.28259644436184 18.51675353688188,53.10831814604171 19.119880863756407,52.82679168236791 19.53536857792642,52.746355554045294 20.05807892786106,52.25033280321804 20.25912137015257,52.1028665934864 21.04988830978982,51.66046800134063 21.827252419956494,51.432565717972466 22.282948622538242,50.90973112368374 22.416976917360444,50.84270105310134 22.49739389430033,50.86951308116841 22.84586746088462,51.513001816303586 22.939687267295085,51.794528174898005 23.6232315711095,53.054694055987056 23.94489947881084,53.77861934067914 24.172747580043506,53.751807290434954 24.320178704394493,53.92608562063833 24.963514519738965,55.25328241860552 25.07073715562001,55.534809076518286 25.41921072237892,56.11126849411812 25.941921072255354,57.21056345969555 26.209977661957964,58.08195605504443 26.156366344017442,58.551167542202165 26.156366344017442,59.087409318686696 26.263588979898486,59.61024512970471 27.121370067063253,60.749759347047075 27.443037974706385,61.312813567739795 27.510052122175694,61.63455887734017 27.523454951588064,62.19761324033607 27.40282948629465,62.81429193232907 27.309009679825976,62.975164652452804 27.309009679825976,63.91358900068735 27.443037974706385,64.47664373052248 28.032762472110335,66.16580846447323 28.13998510799138,66.64842710994708 28.11317944905022,66.91654860849667 28.086373790050857,66.98357898634276 27.979151154169813,66.94336075948377 27.858525688759983,66.99698506206914 27.845122859289404,67.46619774489955 27.73790022340836,68.20353208830056 27.67088607599726,68.32418681388663 27.40282948629465,68.5252780324372 27.20178704400314,68.59230844122067 27.054355919652153,68.80680575793667 26.518242740188725,69.22239434662333 26.196574832487386,69.5843586416886 26.062546537665185,69.87929253955372 25.83469843637431,70.18763255035446 25.754281459434424,70.52278476697393 25.39240506332135,71.34055631089723 25.097542814619374,71.72933301392186 24.8026805659174,71.97064271349518 24.65524944156641,72.25217071750376 24.21295606851345,73.4050951620593 24.172747580043506,73.83409040181141 24.172747580043506,74.81273599069391 24.105733432690613,74.9870153710799 24.19955323904287,76.04609794750286 24.40059568133438,76.62256075150799 24.507818317215424,77.09177473239833 24.628443782567047,77.25264811189845 24.883097542799078,78.01679676641652 25.030528667208273,78.01679676641652 25.137751303089317,78.17767018881568 25.687267311965115,79.71937419888854 25.821295606903732,80.24221310589928 25.673864482552744,81.40854633688286 25.928518242784776,82.57487996097188 25.941921072255354,82.89662723688525 26.075949367077556,83.39265434585104 26.062546537665185,84.96117296982266 26.008935219666455,85.25610817526467 26.03574087866582,85.79235406788939 26.02233804919524,87.4681230194401 25.98212956066709,88.0177754128963 26.008935219666455,88.39314782955626 26.129560685076285,88.48699094007316 27.53685778111685,88.44677246382344 27.965748324699234,88.32611703785369 29.11839166044956,88.07140004137182 29.332836932269856,88.07140004137182 29.520476545090787,87.99096309901506 31.973194341058843,87.45471686462406 32.42889054358238,87.28043685639568 33.460908414039295,87.0793445501622 33.80938198068179,86.95868917205371 33.95681310503278,86.97209532496345 34.3588979896158,86.81122149342264 35.72598659718642,86.55650460883044 36.154877140768804,86.39563079665822 36.70439314970281,86.24816314212512 36.71779597917339,86.20794469198154 36.985852568934206,86.2347569920239 38.21891288156621,85.98004014999606 39.8942665674258,85.5510434059106 40.2427401340683,85.41698193429329 40.59121370065259,85.37676349382673 41.247952345525846,85.09523442373029 43.51303052867297,83.19156226608902 44.679076693952084,82.17269590827345 44.786299329891335,82.02522843398037 45.05435591953574,81.7973241678992 45.2956068503554,81.64985670959868 45.644080416997895,81.34151568080415 46.40804169769399,80.79186434971052 49.061801935953554,79.00884965684963 49.49069247947773,78.7809455893439 49.61131794488756,78.64688438014127 50.107222635881044,78.28491914123879 51.139240506337956,76.43487517688482 51.407297096040566,76.07291016881936 52.23827252420597,74.62505051394692 52.45271779602626,74.37033452598553 52.58674609079026,74.08880635048263 52.8413998511387,73.78046599397203 53.13626209978247,73.28444026042416 53.699180938187055,72.49348045334045 53.80640357412631,72.39963777631056 53.967237527889665,72.05107928375946 54.14147431124002,71.86339395606774 54.65078183170408,71.05902838063776 54.744601638114545,71.15287102153525 54.70439314970281,71.27352584924665 53.6723752792459,72.73479020591185 53.47133283689618,73.11016096545791 53.176470588252414,73.43190736300312 52.61355174978962,74.37033452598553 52.58674609079026,74.3435223178094 52.50632911390858,74.39714673433627 52.41250930755632,74.5178016746213 52.010424422915094,75.33557415804535 51.460908414039295,76.26059572382655 51.326880119158886,76.40806295277434 51.152643335808534,76.78343410922389 50.53611317946343,77.77548664678761 50.52271034999285,77.96317229393753 50.670141474343836,78.05701512130327 51.152643335808534,78.05701512130327 53.01563663437264,78.94181904720608 53.20327624719357,79.08928639015357 53.65897244971711,79.29037823154067 54.82501861505443,79.9204660768446 55.09307520481525,80.30924374071765 55.146686522697564,80.73823983427428 55.17349218175514,81.46217086269462 55.49516008934006,82.52125541793066 55.924050632922444,83.05750088604691 56.76842889050022,83.86186924416688 57.505584512255155,84.53217635232431 57.94787788530812,85.01479755074251 58.336559940478764,85.6851048826793 58.551005212182645,85.96663400091347 58.939687267295085,86.26156929227 59.16753536858596,86.34200619428884 59.47580044675851,86.39563079665822 61.00372300820891,86.39563079665822 61.96872673119651,86.27497544247308 62.75949367089197,86.1275077930768 64.56887565151555,85.88619710765488 65.52047654509079,85.73872947486234 66.79374534625094,85.48401266944711 67.20923306030454,85.43038808123674 67.42367833206663,85.44379422819475 68.0670141474111,85.29632661430514 68.65673864487326,85.25610817526467 69.55472822039155,85.08182827811106 70.33209233061643,85.00139140544343 71.01563663437264,84.8807360999781 71.14966492919484,84.90754838973226 71.08265078178374,84.8807360999781 71.36411020107334,84.85392381044221 71.98064035741845,84.71986236590601 73.54877140733879,84.54558249583351 74.25912137003615,84.39811492030276 74.74162323155906,84.22383506642655 75.14370811614208,84.00933679682203 75.80044676101534,83.40606048492191 75.97468354424927,83.03068861065549 76.00148920330685,82.65531677717809 75.8272524199565,81.4487647311762 75.85405807895586,81.26107889518607 75.69322412501788,80.6846153196675 75.65301563660614,80.14837021935091 75.8272524199565,79.2769721084187 75.94787788524991,79.11609863498597 76.1623231570702,78.71391498409503 76.3097542814794,78.5932598979125 76.60461653018137,78.21788854557963 76.9932985852356,77.6414254764677 77.2747580044088,77.27946034254273 77.6902457185206,76.91749524635088 78.3067758748657,76.51531185048225 78.97691734926775,76.30081405839883 80.37081161577953,76.18015905615175 81.06775874906452,76.16675294504967 81.13477289647562,76.13994072303467 81.13477289647562,76.09972239035415 81.37602382717887,76.12653461206355 82.11317944899201,76.07291016881936 83.18540580786066,75.87181851397327 84.15040953084826,75.53666578180855 85.87937453459017,74.63845661909727 86.0,74.69208104017889 85.8525688755908,74.87976652056386 85.55770662688883,74.9870153710799 84.63291139237117,75.45622913089755 84.4720774385496,75.61710243456764 84.21742367831757,75.67072687081236 83.96276991808554,75.8316001844214 83.72151898726588,75.91203684400534 82.97096053609857,76.11312850117974 82.35443037969526,76.206971278516 81.79151154129067,76.26059572382655 81.14817572600441,76.31422017001023 80.77289650036255,76.30081405839883 79.08413998509059,76.44828128902009 78.3201787043945,76.70299742941279 77.82427401340101,77.02474415980396 77.2077438569977,77.68164382701798 76.43037974677281,78.70050886318495 75.98808637377806,79.59871907769411 75.92107222630875,79.85343544957868 75.8942665673676,80.38968050420226 76.0953090096591,81.87776096595917 76.1623231570702,81.97160389945202 76.22933730453951,82.68212904965912 76.21593447506893,83.0038763354969 76.10871183912968,83.32562365128251 75.92107222630875,83.6205587170989 75.65301563660614,83.915493808061 75.46537602378521,84.0227429382794 75.38495904690353,84.0227429382794 74.90245718538063,84.37130263450672 74.40655249438714,84.53217635232431 73.07967237528646,84.76008079874737 71.79300074465573,84.92095453466754 71.49813849583734,85.00139140544343 71.21667907666415,85.05501598701812 70.11764705879614,85.1756712985516 68.3484735666425,85.47060652228538 68.10722263588104,85.48401266944711 67.82576321664965,85.5510434059106 65.35964259121101,85.89960325638822 64.98436336562736,85.9934462990932 63.456440804176964,86.16772624230362 62.50483991065994,86.31519389338791 62.37081161577953,86.3688184953644 61.177959791442845,86.55650460883044 59.918093819811475,86.59672306304856 59.16753536858596,86.56991076019767 58.939687267295085,86.48947385285283 58.483991064771544,86.1275077930768 58.20253164554015,85.77894791954895 57.760238272545394,85.02820369611436 56.7148175726179,83.96911837275547 55.8838421444525,83.24518681952031 55.77661950857146,83.04409474832937 55.521965748339426,82.802784278334 55.29411764710676,82.41400633429294 55.11988086375641,81.94479163245705 54.985852568876,81.20745437247388 54.95904690987663,80.40308663164615 54.71779597917339,80.02771508324076 53.86001489200862,79.66574970005604 52.854802680551074,79.07588026780286 52.1444527177955,78.76753946817189 51.326880119158886,78.32513749923964 50.817572598636616,78.2312946646125 50.40208488458302,78.33854361866543 49.98659717052942,78.70050886318495 49.91958302306011,78.87478843885765 49.73194341029739,78.92841292542289 49.71854058082681,78.80775783178979 49.35666418465553,79.19653537077829 49.02159344754182,79.29037823154067 48.391660461667925,79.74618644859584 47.90915860020323,80.00090283130703 47.14519731939072,80.60417854932894 46.68950111686718,80.87230112441466 46.434847356635146,81.10020532956696 46.166790766932536,81.23426663372084 46.22040208487306,81.2744850259769 45.72449739393778,81.55601378489519 44.57185405807104,82.50784928229405 44.37081161583774,82.73575359518873 43.64705882349517,83.35243592895858 43.32539091591025,83.58034029754344 41.516008935228456,85.1756712985516 41.10052122117486,85.40357578740804 40.76545048406115,85.51082496385789 38.21891288156621,86.1141016434558 37.05286671634531,86.4626615508314 36.83842144452501,86.48947385285283 36.75800446764333,86.54309845753596 36.34251675353153,86.59672306304856 34.81459419213934,86.9855014779314 34.38570364861516,87.03912609032704 33.76917349221185,87.18659377869335 33.58153387939092,87.28043685639568 33.25986597168958,87.32065531906846 31.705137751356233,87.66921534836001 29.547282204031944,88.21886777388863 29.25241995532997,88.24568008955976 28.944154877157416,88.35292935436883 27.40282948629465,88.67467716883402 26.43782576319063,88.76852028707799 25.821295606903732,88.78192644703086 24.33358153392328,88.75511412716878 23.54281459422782,88.78192644703086 23.54281459422782,88.80873876706755 23.47580044681672,88.78192644703086 21.626209977723192,88.80873876706755 20.339538346976042,88.84895724755188 19.454951600928325,88.88917572851642 18.556962025351822,88.86236340783944 18.329113924060948,88.91598804942623 18.06105733435834,88.87576956817065 17.082650781900156,88.88917572851642 15.970215934561566,88.91598804942623 15.715562174213119,88.95620653116202 15.045420699985698,88.91598804942623 14.0,89.00983117420401 14.10722263599746,89.06345581807545 14.227848101290874,89.06345581807545 14.683544303814415,89.03664349604514 14.978406552574597,88.96961269184249 15.9434102755622,88.92939420994662 16.171258376853075,88.95620653116202 17.565152643364854,88.91598804942623 18.087862993299495,88.94280037051067 18.97244973940542,88.88917572851642 20.125093075213954,88.90258188896405 21.13030528672971,88.84895724755188 22.738644825061783,88.84895724755188 23.408786299347412,88.79533260704193 24.440804169804323,88.83555108736618 24.92330603132723,88.78192644703086 25.352196574851405,88.83555108736618 25.553239017142914,88.82214492720959 26.35740878636716,88.87576956817065 26.732688011950813,88.80873876706755 26.82650781836128,89.15729894689866 26.719285182480235,89.15729894689866" stroke="#fff900" stroke-linecap="round" stroke-linejoin="round" stroke-width="0.5"><title>2025-10-10 20.0km</title><desc>16095470377</desc></polyline><polyline fill="none" points="186.0,34.94429088478182 185.91553411518726,34.972711739234 185.8310682303745,35.009326014278486 185.5766467470321,35.117120626580345 184.98052236603962,35.36676452611346 184.4660483403659,35.58619603435318 184.12255374212964,35.73419117003232 183.86531672929323,35.844291614336726 183.65133648776828,35.936724947771836 183.52463766055007,35.99254349024568 183.31168124793294,36.085233121887086 183.1829347629009,36.13900342201396 182.92518583561014,36.24910467766722 182.83918420743794,36.28520769587385 182.6638535071461,36.360230356282045 182.48647514904133,36.43448496842257 182.18265392094418,36.56430275844423 182.09639633554434,36.60014993474897 182.05365147868633,36.618585634669216 181.96764985051414,36.6546888985572 181.7500862078159,36.74456308584513 181.57398763584297,36.81574559692899 181.48593834985786,36.850568730171744 181.44140179241094,36.866187936968345 181.35284059197147,36.900755050121916 181.264279391532,36.93660245023375 181.17520627663998,36.97168171496469 181.12964589028707,36.98858122295587 181.08434146115997,37.00650494937781 180.99450047458686,37.04286452712449 180.90209991574648,37.07589543255472 180.8560276149392,37.09330708084099 180.80841957077337,37.109438465933636 180.71883454142608,37.14528600580934 180.62848164040133,37.17934119099664 180.40272736644965,37.2681920397672 180.3105827648351,37.302247303544846 180.26476642125635,37.3199150805649 180.2217656071698,37.336046534279376 180.17799692140215,37.353458267597034 180.13346036395706,37.372150281778886 180.0433634201563,37.40851010905226 179.9553141341712,37.44768657057239 179.911033533951,37.46663467346798 179.86700889095846,37.486350949896405 179.55858043278022,37.6177076285926 179.37941037408746,37.691963985389975 179.11065528604922,37.80462900266275 178.93148522735646,37.877349278516704 178.841900198011,37.91422156960198 178.5273287663922,38.04173844324441 178.3914154790118,38.09576677074938 178.29978279185343,38.13110286356823 178.20712627578632,38.165926862552624 178.1142138024925,38.20023876669484 177.974461156713,38.25273090267001 177.9281328986799,38.271167177646475 177.78966003903224,38.3269881612614 177.69572373683332,38.36334865079925 177.60281126353857,38.399965225917185 177.5104107047,38.43991061013958 177.46433840389273,38.461163615603255 177.32842511651415,38.52901965542924 177.28235281570778,38.55257724483499 177.2362805148996,38.57715908873388 177.09755169802702,38.65320924258049 177.05173535444828,38.68035174894567 177.0084785831341,38.709030639167395 176.96624564072863,38.737709545399866 176.9188935537877,38.76254753963667 176.87282125298134,38.7881537318508 176.78579579590223,38.84295102616261 176.74151519568295,38.869581508118245 176.6539778241504,38.92540314027519 176.6107210528371,38.95613067022805 176.5643927948031,38.98327333706493 176.47531967991017,39.04011934647042 176.34452553706524,39.12897337108825 176.3074117391934,39.16200559847766 176.2677383690543,39.19478178330928 176.22729712723503,39.22602160416727 176.13950379847574,39.29003769061592 176.0578534431579,39.35226140415807 176.01971581637827,39.38247706219818 175.97876266010553,39.41243667316985 175.93806546106043,39.443420563032305 175.85718297742187,39.507180859039636 175.78525899671877,39.52638578327469 175.69234652342584,39.584000599908904 175.6373157196831,39.608070809501896 175.5891957610629,39.634701693112675 175.54209963134963,39.661844723621925 175.49858690280962,39.69154843419528 175.41360910354524,39.753004442926795 175.37598339121905,39.78731741390948 175.2659217837363,39.89230500852818 175.23111160090502,39.92841054934115 175.21319459503593,39.97911199116834 175.14152657155955,40.05516425059841 175.11311531939555,40.095623075685126 175.07907300824263,40.13556979604118 175.042727082051,40.17474834143786 175.0068930703128,40.21111015633778 174.97182693025388,40.24824020610595 174.90271847904478,40.3219882495614 174.79649622996385,40.432866591316724 174.65239231132819,40.58087548211188 172.92928826116167,43.11194892735375 172.84405450466966,43.20798078615235 172.70506973056854,43.36112000175626 172.670515504964,43.399789014265025 172.4956967191256,43.58852499065006 172.35517620166593,43.742433734267706 172.17907762969298,43.9327076539339 171.82329708457655,44.31402614852732 171.35387153080137,44.81289495193505 171.1736776432017,45.00547823044781 170.88393406257364,45.3135619853806 170.5934226102654,45.62113568140512 170.37534705311464,45.85136918513945 170.2286835622126,46.00451739007394 170.08278794299258,46.158434437141295 169.97400612164256,46.27137557747801 169.8639445141598,46.386621941202065 169.53068820499266,46.731594554469666 169.49280653544065,46.76949817212926 169.38197705627863,46.882953118976275 168.71623230962177,47.577519075837245 168.5670092464543,47.73092953081368 168.49226973625628,47.80673857543934 168.23093740779314,48.07386409962601 167.96858125042127,48.3435524745978 167.66783150904575,48.65447741609614 167.1769055482273,49.164921852611315 166.87692367853106,49.48123154136147 166.35400306437623,50.03804499927219 166.2035002150751,50.197355500553385 165.86486880414577,50.555422239357995 165.59995307450754,50.83409155776826 165.5239337781777,50.91323604817353 165.29485206027766,51.15169499626563 164.52570059403388,51.94930069864222 163.87019413644612,52.631402243987395 163.52081252199514,52.99333333900904 163.21187214936526,53.316077325953756 163.0176006142965,53.51766563111505 162.78647123858445,53.75921440066122 162.66873091429989,53.88088589209383 162.5517584616964,54.002557776020694 161.96740811313157,54.61476545127289 161.7321834217928,54.85913901827689 161.5373999722715,55.062272569287416 161.3031991098378,55.304599804795544 160.94562686413246,55.671167611204055 160.35385375599435,56.28109746133077 159.80764103421006,56.85081862297693 159.57420804345566,57.095207178643705 159.22149898505813,57.46589196672721 158.983970678677,57.71259034525838 158.66658371756512,58.04434217864218 158.39117374163197,58.33305848357941 158.27266554566813,58.45781950445689 157.71211921918803,59.0403850937023 157.3519874012154,59.41647045953687 157.1922700917521,59.582482200655704 156.54879362381962,60.24884299191763 156.18507840467555,60.6267350593007 155.7811779009371,61.045111351345895 155.255697714515,61.58852155138902 154.9313999082815,61.92159206794804 154.28203642413428,62.58723075497119 153.99562028745459,62.87777936024713 153.79162237777018,63.08608431921721 153.18142034931043,63.71151967469223 152.16859760324496,64.75436605641289 151.51334710288393,65.4277504243214 150.94153865842873,66.01761420216144 150.24687074515532,66.73612542569981 149.75773648492395,67.24631956352187 149.43164697810425,67.58841833912447 148.985001617506,68.05967531612305 148.70421653981248,68.35847500667114 148.5823808999021,68.48865624499331 148.30133986498095,68.78771646441601 148.09964557033982,69.00400523788812 147.85981364891722,69.26360509092501 147.61998172749736,69.52064449465934 147.49968183094643,69.6503182604265 146.89229533198068,70.29818308572476 146.646832351571,70.55830688686774 146.27876585957256,70.94683108957861 146.1978833759331,71.03345526720796 145.99721291019796,71.24668511479649 145.5894730480586,71.67648130811494 145.22217442774036,72.06245760222464 145.01792056083013,72.27672026082519 144.89557300646538,72.40589374122919 143.9505789254781,73.39496176324565 143.17118917016523,74.20566977236604 143.00712058784757,74.37534986468836 142.31142884566725,75.09765530311688 141.78031760025806,75.65029071539539 141.45525192234527,75.9914640728216 140.76800676864696,76.71868259917028 140.4037796350476,77.10088390692727 139.7137189518553,77.82018566639499 139.59137139749055,77.94707804853942 138.9399602555295,78.62692395454405 138.0402706036666,79.56468897109198 137.75411042421274,79.86207365361588 137.0166976540795,80.62606031315863 136.03714934748677,81.6469665726986 135.71157175511962,81.98770507353447 134.4525181569652,83.30711674472423 133.80443445895162,83.98889993070225 132.66696054348176,85.1776425935841 132.018108973788,85.85845203817598 130.92517161576507,87.01035866441862 129.99425518224507,87.99357489981003 128.6213006182079,89.45001043417687 128.13574975915162,89.96449064011085 127.69012822746026,90.43563733869132 127.28443602313473,90.86267847259069 126.59258363935623,91.58853844761552 125.82164047252536,92.40188825091491 124.96955886482829,93.30248105697638 124.56489048941148,93.73137195239678 124.1597101995385,94.16129720823255 123.87662150680444,94.46245507463937 123.1087498266952,95.28181001194935 122.66491999559094,95.75640343938585 121.97690697021244,96.48909340657292 121.65312107843238,96.83441037362718 121.04675840837172,97.48247188414416 120.07770434807207,98.51977037517509 118.50868654837996,100.2060342530408 117.09759435756496,101.71819420623979 116.53346462991067,102.3240644255834 115.890244119204,103.01669285559683 115.0425137843622,103.92594793792205 114.43999047270245,104.57654091609493 114.15946135223567,104.8809281654876 114.03967337013819,105.01182124357547 114.0,105.05570911521818" stroke="red" stroke-linecap="round" stroke-linejoin="round" stroke-width="0.5"><title>2025-09-19 438.7km</title><desc>15864628212</desc></polyline><polyline fill="none" points="22.415584417060018,168.23828892689198 36.9090909101069,172.44712573010474 78.51948052085936,162.62650675326586 85.06493506766856,152.8058885782957 84.59740259870887,141.11467751022428 72.9090909101069,128.95581920444965 47.19480519555509,131.2940610907972 30.83116883225739,133.1646546330303 19.61038961261511,140.64702909067273 14.935064936056733,152.8058885782957 17.740259740501642,165.90004632249475 29.896103896200657,172.44712573010474 50.46753246895969,169.64123451150954 78.51948052085936,160.75591275375336 83.66233766451478,154.20883398223668 84.12987013161182,142.049974353984 74.77922078035772,129.89111595321447 65.89610389620066,127.55287409387529 50.93506493419409,130.82641271036118 26.623376624658704,135.5028966004029 17.272727275267243,144.8558649290353 15.402597403153777,158.41767029371113 18.675324676558375,165.43239780701697 32.70129870250821,172.91477427259088 71.50649350695312,164.49710078258067 81.32467532530427,157.01472484041005 84.59740259870887,148.12940401490778 82.259740261361,138.3087870227173 72.9090909101069,129.89111595321447 54.67532467842102,129.89111595321447 26.623376624658704,135.97054499946535 19.14285714365542,143.92056806292385 15.870129872113466,155.14413092751056 19.14285714365542,165.43239780701697 29.428571430966258,172.44712573010474 45.792207792401314,169.64123451150954 72.44155844300985,164.49710078258067 81.79220779426396,156.5470763593912 85.06493506766856,145.32351336348802 79.92207792401314,134.0999514143914 70.10389610566199,128.48817083239555 36.9090909101069,133.1646546330303 22.415584417060018,138.3087870227173 16.337662337347865,148.12940401490778 15.870129872113466,158.88531878218055 21.01298701390624,168.23828892689198 30.83116883225739,172.91477427259088 50.0,169.17358598206192 77.11688311956823,162.62650675326586 85.53246753290296,151.4029431892559 80.85714285820723,134.0999514143914 68.23376623541117,128.95581920444965 28.96103896200657,135.5028966004029 19.61038961261511,142.51762277819216 15.870129872113466,153.27353704348207 18.20779220946133,163.09415525756776 25.688311690464616,170.10888304375112 34.57142857275903,171.51182865072042 73.37662337906659,163.5618037637323 82.259740261361,155.6117794038728 84.59740259870887,147.66175556834787 78.05194805189967,132.22935785725713 66.83116883039474,128.48817083239555 46.259740261361,131.76170947402716 28.493506494909525,135.0352482041344 17.272727275267243,144.8558649290353 15.402597403153777,155.14413092751056 21.01298701390624,166.83534335903823 32.23376623354852,171.97947718948126 70.10389610566199,164.96474929340184 82.72727272845805,155.6117794038728 82.72727272845805,138.77643543295562 73.37662337906659,129.42346757743508 40.64935065060854,132.6970062442124 17.272727275267243,144.8558649290353 15.402597403153777,159.35296727251261 18.675324676558375,168.70593745354563 29.896103896200657,170.10888304375112 71.50649350695312,164.49710078258067 82.72727272845805,155.14413092751056 84.12987013161182,145.32351336348802 79.45454545505345,134.56759980786592 70.57142857462168,128.48817083239555 33.1688311714679,134.0999514143914 21.94805194810033,139.24408384412527 14.935064936056733,151.87059165071696 19.14285714365542,164.96474929340184 28.493506494909525,171.51182865072042 68.23376623541117,165.43239780701697 77.58441558666527,160.75591275375336 84.12987013161182,150.9352947305888 83.66233766451478,142.049974353984 75.24675324745476,131.2940610907972 65.89610389620066,128.48817083239555 26.15584415756166,136.43819340039045 15.870129872113466,146.726458680816 15.870129872113466,158.88531878218055 21.01298701390624,167.30299188010395 31.298701299354434,171.97947718948126 71.50649350695312,164.96474929340184 79.92207792401314,158.88531878218055 84.59740259870887,147.66175556834787 78.98701298609376,133.63230302277952 67.76623376831412,128.48817083239555 47.66233766451478,132.22935785725713 27.558441558852792,135.97054499946535 18.675324676558375,142.9852712051943 14.935064936056733,155.6117794038728 21.01298701390624,167.7706404030323 32.23376623354852,172.44712573010474 63.55844155885279,166.36769483983517 77.11688311956823,162.62650675326586 83.66233766451478,152.8058885782957 84.12987013161182,142.049974353984 73.37662337906659,129.89111595321447 41.58441558666527,131.2940610907972 16.805194806307554,144.3882164945826 15.870129872113466,161.22356124967337 25.220779223367572,170.10888304375112 32.70129870250821,172.44712573010474 76.1818181835115,162.62650675326586 84.59740259870887,151.4029431892559 83.66233766451478,140.17938067391515 71.50649350695312,127.08522572740912 32.23376623354852,133.63230302277952 16.805194806307554,143.92056806292385 14.0,154.20883398223668 17.272727275267243,163.09415525756776 29.428571430966258,171.97947718948126 47.19480519555509,170.57653157692403 78.51948052085936,161.69120974931866 85.06493506766856,144.8558649290353 78.98701298609376,133.63230302277952 67.76623376831412,128.02052246313542 29.896103896200657,133.63230302277952 16.337662337347865,143.92056806292385 14.0,155.6117794038728 18.20779220946133,165.90004632249475 25.220779223367572,171.51182865072042 45.324675327166915,169.64123451150954 72.44155844300985,164.96474929340184 81.79220779426396,157.95002180803567 85.06493506766856,149.06470091175288 82.72727272845805,136.9058418031782 70.57142857462168,128.02052246313542 50.46753246895969,130.82641271036118 41.11688311956823,132.22935785725713 22.415584417060018,137.37349020782858 14.935064936056733,149.06470091175288 16.805194806307554,163.5618037637323 28.025974025949836,171.97947718948126 39.71428571641445,171.97947718948126 78.05194805189967,162.62650675326586 84.12987013161182,147.66175556834787 80.85714285820723,135.97054499946535 72.44155844300985,129.42346757743508 50.0,129.89111595321447 40.181818183511496,131.76170947402716 24.28571428731084,135.97054499946535 15.402597403153777,147.1941071236506 14.467532467097044,153.7411855123937 15.402597403153777,158.41767029371113 26.15584415756166,171.04418011195958 51.40259740315378,170.10888304375112 79.92207792401314,160.75591275375336 85.53246753290296,146.726458680816 82.259740261361,135.5028966004029 72.44155844300985,128.95581920444965 44.38961039111018,131.2940610907972 24.28571428731084,136.43819340039045 15.402597403153777,150.9352947305888 17.740259740501642,163.5618037637323 27.558441558852792,169.64123451150954 71.50649350695312,164.49710078258067 81.79220779426396,157.95002180803567 85.06493506766856,148.12940401490778 79.92207792401314,132.6970062442124 69.63636363856494,127.55287409387529 53.2727272734046,130.3587643308565 24.753246754407883,136.43819340039045 15.870129872113466,148.597052462399 15.870129872113466,158.88531878218055 22.415584417060018,169.17358598206192 33.1688311714679,172.44712573010474 59.818181820213795,167.30299188010395 76.64935065060854,163.09415525756776 82.259740261361,156.5470763593912 83.66233766451478,149.06470091175288 79.92207792401314,135.5028966004029 73.37662337906659,130.3587643308565 42.98701298609376,132.22935785725713 21.94805194810033,139.24408384412527 15.402597403153777,152.8058885782957 18.20779220946133,163.5618037637323 26.15584415756166,170.57653157692403 42.519480518996716,171.04418011195958 75.71428571641445,163.09415525756776 83.66233766451478,154.6764824539423 84.12987013161182,139.7117322580889 73.37662337906659,129.42346757743508 55.61038961261511,129.89111595321447 19.14285714365542,143.45291963312775 17.272727275267243,159.820615763776 23.818181820213795,167.7706404030323 38.77922077849507,171.51182865072042 71.03896103799343,164.96474929340184 81.79220779426396,157.95002180803567 85.06493506766856,144.3882164945826 78.51948052085936,133.63230302277952 67.76623376831412,128.48817083239555 23.818181820213795,138.3087870227173 15.870129872113466,149.9999978179112 16.805194806307554,160.75591275375336 26.15584415756166,170.10888304375112 35.97402597591281,171.97947718948126 55.14285714365542,169.17358598206192 71.50649350695312,164.96474929340184 81.32467532530427,157.95002180803567 85.53246753290296,146.726458680816 78.05194805189967,131.76170947402716 68.23376623541117,128.48817083239555 46.72727272845805,131.76170947402716 32.23376623354852,134.0999514143914 26.623376624658704,135.5028966004029 17.740259740501642,142.9852712051943 14.0,154.20883398223668 16.337662337347865,162.1588582508266 27.558441558852792,171.97947718948126 66.83116883039474,166.36769483983517 82.259740261361,157.48237332329154 86.0,146.726458680816 82.259740261361,135.97054499946535 72.9090909101069,129.42346757743508 31.298701299354434,134.0999514143914 17.272727275267243,143.92056806292385 14.935064936056733,152.8058885782957 19.14285714365542,164.49710078258067 33.1688311714679,171.97947718948126 61.68831168860197,165.90004632249475 77.58441558666527,162.1588582508266 85.06493506766856,151.87059165071696 82.72727272845805,137.84113861434162 73.37662337906659,129.42346757743508 66.36363636516035,128.48817083239555 45.792207792401314,130.3587643308565 21.480519481003284,139.7117322580889 16.805194806307554,148.12940401490778 15.870129872113466,159.35296727251261 29.896103896200657,171.04418011195958 71.50649350695312,164.49710078258067 80.85714285820723,158.88531878218055" stroke="#4dd2ff" stroke-linecap="round" stroke-linejoin="round" stroke-width="0.5"><title>2025-08-21 10.2km</title><desc>15534281190</desc></polyline><polyline fill="none" points="153.3552219804842,114.0 152.68417758436408,114.36141793610295 151.23885119275656,114.87772930698702 150.6452349962201,115.21333171916194 149.84514360071626,115.44567186047789 148.60629240807611,115.98779888774152 148.42562660912517,115.93616774043767 148.03848561132327,115.98779888774152 147.75458221300505,115.93616774043767 147.52229761437047,116.01361446161172 146.98030021740124,116.06524560952676 144.5800260314718,116.11687675784924 143.13469963986427,116.09106118362979 142.15394244564231,116.01361446161172 140.94090065255295,116.19432348108967 140.16661865718197,116.40084808066604 139.54719306074549,116.63318826275645 138.5148170668399,117.22694654209772 137.84377267048694,117.69162697100546 137.45663167291787,118.02722952284967 136.91463427606504,118.33701650862349 135.9596864815103,119.16311520669842 135.75321128277574,119.29219313742942 134.02398149273358,120.68623494621716 133.48198409599718,121.02183764681104 133.40455589652993,121.12510001959163 133.223890097579,121.66722750265035 133.223890097579,122.02864584891358 133.1206524982117,122.31261742016068 133.19808069767896,123.13871660470613 133.17227129777893,123.44850382491131 133.17227129777893,123.9648158903583 133.1206524982117,124.17134072759654 133.14646189799532,124.73928406252526 133.53360289568081,126.2882206737122 133.61103109526448,126.64963926753262 134.1530284921173,127.73389516532188 134.23045669158455,128.04368259673356 134.20464729180094,128.86978248349624 134.0497908926336,129.56680434170994 133.8949344936991,130.93503264366882 133.7658874943154,131.50297654882888 133.43036529642995,132.0192892314517 132.75932090030983,132.74212705367245 132.4496081020916,133.49078059429303 132.39798930240795,133.85219957472873 132.4496081020916,134.729931465321 132.39798930240795,135.32369133864995 132.52703630155884,135.94326691451715 132.52703630155884,136.3046860268514 132.6044645011425,136.69192081163055 132.57865510124248,137.6212843861431 132.50122690177523,137.9310722728842 132.50122690177523,138.4732011090964 132.42379870207515,139.17022396274842 132.06246710428968,140.61590122335474 131.98503890470602,140.82242657168536 131.7011355063878,142.42299823701615 131.8043731058715,142.73278634538292 131.93342010502238,142.8618647280673 132.37217990250792,143.19746853475226 133.04322429862805,143.48144099969068 133.48198409599718,143.8686761985009 134.07560029265005,144.74640939864912 134.12721909221727,145.10782898505568 134.48855069011915,146.68258598190732 134.56597888970282,146.91492720946553 134.6692164891865,147.58613524556858 134.82407288823742,147.9475549852359 135.15959508623928,148.3089747443446 135.62416428362485,148.5155003297259 135.98549588152673,148.77365732038743 136.94044367596507,149.10926142323297 137.14691887469962,149.23833992882282 137.35339407343417,149.52231264984584 137.40501287323423,149.65139116332284 137.43082227301784,149.90954819784383 137.35339407343417,150.34841517938185 137.04368127533235,150.99380785154062 136.65654027753044,151.4584906140808 136.08873348101042,151.9489891207195 135.62416428362485,152.25877766974736 134.25626609148458,152.95580195746152 133.55941229546443,153.39466913888464 132.8367490998935,154.11750926528475 132.70770210050978,154.37566647221684 132.42379870207515,154.76290230129962 131.98503890470602,155.66645265644183 131.67532610648777,156.57000313379103 131.39142270805314,157.0605020155781 131.26237570890225,157.5251851999201 131.00428171048407,158.01568415184738 130.90104411100037,158.3771044552559 130.0493339159293,160.1325747789815 129.84285871719476,160.85541563475272 129.55895531876013,161.26846758753527 129.40409891982563,161.6040723179467 129.19762372085825,162.326913333236 129.06857672170736,162.81741263822187 128.5007699249545,164.41798956875573 128.3459135259036,164.7019629353017 128.01039132778533,165.73459346118034 127.64905972999986,166.50906646065414 127.3393469316652,167.36098686416517 127.15868113283068,167.74822344721179 127.10706233303063,167.90311808674596 127.1844905327307,167.95474963402376 127.10706233303063,167.87730231325259 127.15868113283068,167.87730231325259 127.13287173293065,167.95474963402376 126.77154013502877,168.1870916019543 126.48763673671056,168.41943357791752 126.20373333827592,168.72922289185226 125.09392914478667,169.6327751398494 124.29383774951566,170.43306437629508 123.00336775684264,171.49151157890446 122.22908576147165,172.26598524852307 121.45480376586784,172.9371958352276 121.14509096776601,173.22116956539685 120.75794997008052,173.50514330770238 120.55147477122955,173.84074865517323 120.21595257311128,174.2021698175522 120.16433377342764,174.30543301036232 119.72557397605851,174.66685419803252 119.41586117784027,175.0024596041767 119.10614837950561,175.18317021452822 119.02872018003836,175.3380650272884 118.92548258067109,175.49295984368655 118.95129198057111,175.62203886010684 118.92548258067109,175.93182850978337 118.89967318077106,176.06090753470198 118.84805438120384,176.11253914536792 118.15120058518369,176.3706972047803 117.63501258811448,176.49977623828454 117.06720579147805,176.7579343128018 116.42197079525795,177.14517144334968 115.8541639985051,177.60985602982691 115.82835459872149,178.30688297067536 115.90578279818874,178.9006467187137 116.42197079525795,180.4754116992408 116.60263659420889,181.32733389383066 116.68006479367614,181.92109791233088 116.98977759189438,183.0311786114471 117.17044339084532,184.27033868132276 117.32529979001265,184.78665544558316 117.50596558896359,185.22552472684765 117.55758438853081,185.84510493808193 117.68663138779812,186.0 117.94472538633272,186.0 118.2802475845674,185.9225524685462 119.62233637669124,185.69020987986005 121.19670976744965,185.35460393270478 121.55804136535153,185.2513405678037 122.02261056262068,185.22552472684765 122.30651396105532,185.2513405678037 122.5646079594735,185.32878809137037 122.87432075769175,185.32878809137037 123.18403355590999,185.22552472684765 127.23610933241434,184.3477861934225 128.5007699249545,184.03799615061143 129.2234331208747,183.90891697030747 129.66219291824382,183.77983779262286 131.64951670670416,183.39260027455748 132.39798930240795,183.1602577746089 132.42379870207515,183.10862610905315 132.37217990250792,183.05699444387574 132.39798930240795,183.0828102764499 132.50122690177523,183.10862610905315 133.17227129777893,183.0311786114471 134.69502588897012,182.69557279907167 135.15959508623928,182.48904615378706 135.9596864815103,182.38578283350216 137.04368127533235,182.1018087111297 137.43082227301784,182.05017705383943 137.97281966998708,181.84365042866557 138.43738886713982,181.79201877332525 139.93433405843098,181.45641302375589 140.4505220555002,181.40478137147147 141.17318525118753,181.1466231161321 142.36041764437687,180.9659123433812 142.97984324081335,180.81101739915903 143.34117483871523,180.78520157551975 144.03802863461897,180.57867498969426 144.3477414328372,180.5528591669863 144.68326363095548,180.44959587688209 145.1220234283246,180.4237800546107 145.3543080269592,180.2947009447962 145.94792422349565,180.2172534800775 146.36087462119758,180.03654273264692 147.90943861217238,179.72675289137987 148.94181460619438,179.4944105199247 149.4838120030472,179.41696306457743 150.0,179.23625233894563 150.6710443960037,179.1329890693887 151.88408618897665,178.82319927029312 154.43921677418984,178.38433041304233 155.62644916726276,178.28106715669855 157.76862935489044,178.1778039019846 159.3946215454489,178.15198808861896 160.65928213798907,178.04872483591316 161.7432769316947,178.04872483591316 162.33689312834758,178.07454064892954 163.0337469241349,178.0229090229841 163.34345972235315,178.04872483591316 164.29840751679149,177.99709321017144 164.76297671417706,178.0229090229841 165.64049630903173,177.94546158483718 165.8727809076663,177.9712773974461 166.41477830451913,177.89382995988126 167.24067909969017,177.86801414753427 168.11819869454484,177.94546158483718 169.77000028500333,177.86801414753427 171.44761127524544,177.89382995988126 171.98960867209826,177.8421983353328 172.8155094672693,177.86801414753427 174.38988285814412,177.7905667111918 175.31902125268243,177.8421983353328 176.32558784692083,177.7905667111918 176.76434764440637,177.68730346410302 176.99663224304095,177.73893508742913 177.22891684167553,177.66148765257094 177.77091423852835,177.71311927575152 179.29366882960312,177.63567184121348 179.44852522865403,177.66148765257094 179.65500042762142,177.60985602982691 179.70661922718864,177.63567184121348 179.88728502613958,177.63567184121348 179.93890382582322,177.55822440751945 179.9130944260396,177.40332954298356 179.96471322572324,177.19680306248483 179.96471322572324,176.68048688935232 180.0421414253069,176.3448813984287 180.09376022487413,175.6994862711872 180.1711884244578,175.4155124350509 180.1453790247906,174.9250122012745 180.22280722425785,174.09890662625548 180.1453790247906,172.91138004220556 180.19699782435782,172.6790379092563 180.1453790247906,172.36924841132713 180.19699782435782,172.16272208737792 180.1711884244578,171.87874840243603 180.22280722425785,171.72385367035167 180.1711884244578,170.5363275105774 180.2744260239415,169.42624890094157 180.22280722425785,169.09064377628965 180.2744260239415,168.70340711515746 180.22280722425785,168.39361780238687 180.2744260239415,168.21290737661184 180.1711884244578,167.2835395502334 179.7582380269887,165.5796988720831 179.57757222792134,165.0117520763015 179.57757222792134,164.80522598067182 179.5001440284541,164.46962108905427 179.47433462867048,163.25628046802012 179.70661922718864,162.3785448372946 179.70661922718864,161.8364140643098 179.57757222792134,161.1135731022223 179.2678594298195,160.3132849856047 179.06138423085213,159.46136548306094 178.5968150336994,158.14476282941177 178.57100563379936,157.8349740075064 178.00319883716293,156.36347729965928 177.69348603894468,155.38247967450297 177.25472624145914,154.1949564262759 177.09986984240822,153.52374772715848 177.02244164282456,153.1106962535414 177.0482510427246,152.5943819473905 176.91920404345728,152.20714624389075 176.91920404345728,152.23296195678995 176.9450134432409,151.97480483257095 176.89339464367367,151.76827914037858 177.0482510427246,151.30359635638888 177.02244164282456,150.89054501985083 177.0740604425082,150.5291251212766 177.02244164282456,150.16770524228923 177.0740604425082,149.83210108644562 177.0482510427246,149.264155630226 177.0740604425082,148.90273581954534 177.22891684167553,148.1798962567118 177.40958264051005,147.81847650455893 177.53862963977735,147.37960968885454 177.9515800374793,146.55350752561935 178.1064364365302,146.11464079280267 178.44195863464847,145.59832702635322 178.8807184320176,145.23690741352038 179.37109702918679,144.69477803079644 179.60338162782136,144.23009573758463 179.65500042762142,143.99775460307137 180.0421414253069,143.0942058232613 180.45509182289243,141.95831610131427 180.71318582142703,141.51944966931478 181.3326114177471,140.64171689149225 182.33917801186908,139.84143122358364 182.72631900955457,139.6349059054337 182.8811754087219,139.40256493006018 183.29412580642384,139.1960396253853 183.62964800430927,138.9636986652331 183.70707620389294,138.83462035749108 183.83612320316024,138.49901676902664 183.86193260306027,138.1892288560921 184.06840780179482,137.31149651366286 184.12002660159487,136.48539559033816 184.09421720169485,136.07234516672906 184.1716454012785,135.63347911951132 184.06840780179482,134.65248452918604 183.758695003693,133.6714900820807 183.11346000735648,132.17418304394232 182.95860360818915,131.58042344867135 182.80374720925465,131.2190045902389 182.77793780935463,130.8059544900898 182.67470020987093,130.44453567324672 182.57146261062007,129.82496060381527 182.59727201040369,129.36027933916193 182.70050960988738,128.86978248349624 182.70050960988738,128.55999501407496 183.03603180788923,127.19176719462848 183.01022240810562,126.88197980239056 183.06184120767284,126.5463768102054 183.06184120767284,126.1075113840925 182.9844130082056,125.69446159736253 182.8811754087219,125.22978061757749 182.67470020987093,124.76509966980666 182.4940344110364,124.55857481440762 182.18432161281817,124.01644709901302 181.92622761428356,123.65502864637529 180.91966102016158,122.46751100957044 180.58413882215973,121.87375226954464 180.42928242310882,121.35744036416872 180.32604482362512,120.73786612981348 180.40347302309237,120.40226344330586 180.40347302309237,119.9117672391003 180.5583294222597,119.34382431040285 180.58413882215973,119.16311520669842" stroke="#4dd2ff" stroke-linecap="round" stroke-linejoin="round" stroke-width="0.5"><title>2025-08-03 10.0km</title><desc>15324505910</desc></polyline><polyline fill="none" points="33.57171317911707,197.5577492667362 33.929962424444966,197.32739134356962 34.41615782887675,196.71310358692426 35.59326249198057,195.89405333215836 36.10504712804686,195.61250483008916 36.71918869158253,195.35655165667413 37.10302716877777,195.22857507353183 37.48686564574018,195.17738444099086 37.84511489106808,195.04940786139923 38.20336413651239,194.76785939466208 38.71514877257869,194.12797655971372 38.9454518588027,194.0 39.124576481524855,194.10238124759053 39.20134417701047,194.30714374737 39.55959342222195,194.99821723016794 39.53400419047102,195.2029797572759 39.58518265420571,195.45893292484106 39.764307276695035,195.76607673885883 39.892253435682505,196.07322056684643 40.19932421750855,196.63631762130535 40.78787654906046,197.506558616471 41.146125794388354,198.2744184116891 41.32525041711051,198.53037169628078 41.990570444148034,200.1428776133398 42.16969506663736,200.45002164138714 42.42558738484513,200.9875237243832 42.70706893468741,201.37145381004666 43.16767510725185,202.39526747909258 44.42154746572487,204.4684906375478 44.42154746572487,204.57087204465643 44.626261320430785,204.87801627549925 45.49629520182498,206.618500515935 45.54747366544325,206.87445411883527 45.75218751979992,207.36076599126682 45.88013367878739,207.9238639929972 45.82895521528553,208.66612961297506 45.70100905629806,208.99886940035503 45.62424136081245,209.5107767979207 45.75218751979992,210.2786379675381 46.41750754683744,211.48162064384087 47.18518450099509,212.35186356576742 47.74814760091249,213.14532044620137 48.106396846240386,213.83639587037032 48.183164541726,213.98996819651802 48.2599322370952,214.425089806522 48.36228916433174,214.5786621462903 48.31111070071347,215.50009625862003 48.336699932580814,215.78164559608558 48.183164541726,216.6006982815452 48.131986077991314,216.67748447600752 47.92727222351823,217.9060637067014 47.9016829917673,218.90428449810133 48.00403991888743,219.36500183673343 48.38787839608267,220.51679532261915 48.41346762795001,220.77274945762474 49.20673381385859,222.922764579067 49.43703690019902,223.97217697350425 49.488215363933705,224.40729923426989 49.462626131949946,225.22635297873057 49.18114458210766,227.01803339581238 49.07878765487112,227.2995832193992 48.87407380051445,227.5555376149132 48.6181814824231,227.70911025689566 48.31111070071347,227.78589657924022 48.131986077991314,227.93946922651958 48.08080761437304,228.09304187743692 47.87609375989996,228.3489963034226 47.03164911037311,228.91209607516066 46.494275242323056,229.475195894629 46.26397215598263,229.73115037372918 45.88013367878739,230.39663206561818 45.44511673809029,231.62521382555133 44.93333210190758,232.87939127295977 44.80538594292011,233.08415496032103 44.575082856579684,233.39130050310632 44.26801207498647,233.64725513302255 43.52592435257975,234.41511908188113 42.68147970282007,236.4115657643124 42.5535335438326,236.9234752668126 42.52794431196526,237.40978933061706 42.45117661659606,237.94729439009097 42.50235508021433,238.1520582336816 42.45117661659606,239.45742788535426 42.39999815297779,239.61100080239703 42.39999815297779,239.71338274911977 42.32323045749217,240.2252925063076 42.32323045749217,240.8139887759171 42.39999815297779,240.99315721620223 42.5535335438326,242.2729319302598 42.70706893468741,242.6312688945327 42.73265816643834,242.86162838176824 42.860604325542226,243.2455608783057 42.93737202102784,243.34794288108242 43.06531818001531,243.8342574161361 43.218853570870124,244.1925944648683 43.57710281619802,245.52356081543257 43.96094129339326,246.52178575395374 44.037708988646045,246.95690949226264 44.39595823409036,247.92953912832309 44.626261320430785,248.44144952052739 44.85656440653838,248.82538234067033 44.85656440653838,249.49086594843538 44.90774287015665,249.82360777739086 44.958921333774924,249.82360777739086 45.01009979750961,250.05396751494845 45.061278261011466,250.59147360053612 44.7797967112856,251.92244123853743 44.72861824755091,252.63911623158492 44.90774287015665,253.30460022337502 44.98451056564227,253.71412886696635 45.21481365186628,254.35401742349495 45.29158134723548,255.07069268045598 45.49629520182498,255.55700807771063 45.521884433575906,255.99213241084362 45.49629520182498,256.1457057117077 45.54747366544325,256.4272567727021 45.49629520182498,256.93916782338056 45.62424136081245,257.2207189182227 45.67541982443072,257.45107891378575 45.72659828804899,257.39988780298154 45.72659828804899,257.52786558077787 45.88013367878739,257.75822558708023 45.82895521528553,258.039776716847 45.93131214263849,258.52609233296243 45.85454444703646,259.65229705529055 45.803365983534604,263.3380593104812 45.88013367878739,263.9011620589008 45.88013367878739,264.54105160417384 45.77777675166726,264.82260302378563 45.77777675166726,265.0785588702711 45.77777675166726,265.46249265864026 45.88013367878739,265.74404411774594 46.08484753337689,265.8720220576506 46.51986447395757,265.9744044113613 46.878113719518296,266.0 47.18518450099509,265.94880882275174 47.74814760091249,266.0 48.43905685970094,265.9744044113613 49.28350150946062,265.8464264694194 49.744107681908645,265.667257354944 51.02356927236542,265.360110312904 52.53333394904621,265.05296328515396 53.91515246662311,264.7202206879447 55.75757715688087,264.3874781075865 56.72996796539519,264.02913996297866 58.59798188752029,263.6196106786665 59.0329988283338,263.466037203616 60.90101275034249,263.0053167999722 61.18249430018477,263.0053167999722 62.769026672351174,262.59578757933923 63.63906055386178,262.49340527821914 65.02087907143869,262.08387608939665 65.73737756209448,261.93030265020207 66.35151912539732,261.7511336422467 66.42828682099935,261.64875135422335 66.30034066189546,261.3672000703227 66.14680527104065,260.624928561243 66.0444483438041,260.31778175442014 65.78855602559634,258.91002573943115 65.96768064831849,259.5755103635893 66.14680527104065,260.624928561243 66.22357296629343,261.03445765937795 66.24916219816078,261.6231557824649 66.07003757567145,261.6231557824649 65.30236062128097,261.8279203592974 64.94411137595307,261.87911150456057 63.76700671284925,262.13506723660976 63.35757900390308,262.3142362549843 62.97374052682426,262.3398318293912 61.4895650818944,262.59578757933923 61.028958909446374,262.7749566102575 60.00538963708095,263.05650795434485 58.34208956954535,263.41484604607103 57.90707262873184,263.41484604607103 57.67676954250783,263.6196106786665 56.32054025668185,263.8243753176357 55.680809461395256,264.0035443819361 55.04107866634149,264.08033112529665 53.73602784401737,264.43866927272757 52.94276165787596,264.5666471872828 52.63569087628275,264.66902952064993 52.22626316733658,264.7458162717812 52.072727776365355,264.89938977666316 51.816835458390415,264.95058094579144 51.50976467668079,265.0785588702711 51.177104663220234,265.18094121161266 50.793266186024994,265.20653679722454 50.588552331668325,265.1553456261463 49.564983059302904,265.46249265864026 49.360269204946235,265.46249265864026 49.02760919125285,265.616066180286 48.592592250555754,265.667257354944 48.0552183825057,265.667257354944 46.82693525578361,265.7696397055115 46.494275242323056,265.8208308813337 46.26397215598263,265.7952352933644 46.2383829242317,265.74404411774594 46.21279369248077,265.8208308813337 46.05925830162596,265.7952352933644 45.93131214263849,265.6416617675277 45.85454444703646,265.33451472671004 45.88013367878739,265.05296328515396 45.82895521528553,264.771411855676 45.85454444703646,264.5666471872828 45.77777675166726,264.25950019655284 45.77777675166726,264.05473554407945 45.82895521528553,263.8243753176357 45.803365983534604,263.4916327825922 45.88013367878739,262.97972122294595 45.88013367878739,262.1606628103473 45.57306289719418,261.8279203592974 45.470705969957635,261.59756021079374 45.44511673809029,261.3672000703227 45.470705969957635,260.8808842446015 45.57306289719418,260.24099505488994 45.598652128945105,259.5755103635893 45.70100905629806,259.1147902320081 45.62424136081245,258.730856813665 45.598652128945105,257.45107891378575 45.70100905629806,256.96476337692 45.72659828804899,256.09451461106073 45.62424136081245,255.45462588578812 45.521884433575906,255.09628822674858 45.29158134723548,254.63556840803358 45.29158134723548,254.3028263366723 45.061278261011466,253.4325779217761 45.01009979750961,252.94626268101274 44.882153638405725,252.357565332175 44.90774287015665,252.07601444475586 45.11245672462974,251.10338419879554 45.08686749287881,250.30992278832127 44.80538594292011,249.0045509977208 44.498315161210485,247.82715705462033 44.26801207498647,247.28965119377244 44.14006591588259,246.82893191921175 44.01211975689512,246.5473812672135 43.65387051156722,245.26760572721832 42.860604325542226,243.0152013777115 42.68147970282007,242.14495444772183 42.50235508021433,240.8139887759171 42.297641225741245,240.25088799517835 42.50235508021433,239.73897823598236 42.4767658484634,238.25444015790708 42.5535335438326,237.537766721769 42.52794431196526,237.20502550990204 42.65589047106914,237.00026169550256 43.090907411882654,236.0020381907816 43.16767510725185,235.8996563013643 43.52592435257975,234.95262389889103 44.01211975689512,234.18475988792488 44.2168336113682,234.03118709640694 44.370369002223015,234.00559163148864 44.47272592957597,233.92880523734493 44.85656440653838,233.31451411615126 45.470705969957635,232.0603365866118 45.598652128945105,231.59961836991715 46.0336690696422,230.57580022478942 46.494275242323056,229.70555492542917 47.28754142834805,228.98888241141685 47.594612210057676,228.80971429494093 48.15757530985866,228.3234008603613 48.464646091568284,227.9650646681257 49.02760919125285,227.58113305500592 49.20673381385859,227.2995832193992 49.41144766844809,225.73826162007754 49.462626131949946,225.50790272664744 49.462626131949946,225.04718496350688 49.51380459568463,224.04896325271693 49.462626131949946,223.56265016578254 49.334679972962476,222.9995508462307 49.05319842312019,222.3340698935499 48.592592250555754,220.79834487161133 48.28552146884613,220.2096503736102 48.106396846240386,219.4929788809386 48.00403991888743,218.8786890913034 47.9784506871365,218.82749827808584 47.9784506871365,218.85309368459275 47.95286145538557,218.238803953951 48.00403991888743,217.9060637067014 48.234343005227856,216.98462926244247 48.31111070071347,216.3959351007652 48.49023532331921,216.0631949453964 48.51582455507014,215.88402717624558 48.464646091568284,214.83461605361663 48.2599322370952,213.96437280860846 48.08080761437304,213.55484661483206 47.74814760091249,213.1709158309386 47.620201441808604,212.86377121976693 47.31313066009898,212.58222200520686 46.878113719518296,211.9423374707403 46.622221401310526,211.66078829494654 46.41750754683744,211.30245299747912 46.21279369248077,211.1232853559195 46.21279369248077,210.94411771922023 45.93131214263849,210.45780558648403 45.803365983534604,210.04827960740658 45.803365983534604,209.71553976787254 45.82895521528553,208.89648792558 45.982490606140345,208.1542222799908 45.93131214263849,207.69350571389077 45.649830592563376,206.77207267654012 44.85656440653838,205.13396981192636 44.72861824755091,204.72444415828795 44.498315161210485,204.2381324771559 44.19124437950086,203.72622548247455 42.42558738484513,200.34764029711368 41.65791043045465,198.63275301278918 40.30168114474509,195.94524397014175 40.04578882653732,195.58690951226163 39.94343189941719,195.17738444099086 39.78989650856238,194.97262191475602 39.61077188584022,194.51190625340678 39.508414958720095,194.43512031290447 39.35487956786528,194.10238124759053 39.27811187237967,194.0 39.15016571327578,194.0 38.7919164680643,194.17916718428023 38.30572106363252,194.74226408012328 37.69157950009685,195.2029797572759 36.82154561893549,195.40774229055387 36.33535021438729,195.58690951226163 35.72120865108445,195.89405333215836 34.87676400132477,196.43155505059985 34.44174706062768,196.86667552078143 33.929962424444966,197.45536796658416" stroke="#4dd2ff" stroke-linecap="round" stroke-linejoin="round" stroke-width="0.5"><title>2025-07-05 10.1km</title><desc>15014930419</desc></polyline><polyline fill="none" points="132.53597044121125,218.92970164123108 132.52032166923163,219.06274798259255 132.17604868506896,219.14101054037747 132.00391219303128,219.21144684491446 131.81612692895578,218.96883291720587 131.6987611389195,218.89839662097802 131.61269289287156,218.874917856112 131.401434470783,218.89839662097802 131.33883938277722,218.88274411104794 131.29971745275543,218.90622287600127 131.1197565747134,218.874917856112 130.96326885462622,218.91404913105362 130.84590306458995,219.01579044936807 130.61899587049265,219.07840049391962 130.50163008045638,219.17231556431216 130.33731797439395,219.21927310113097 130.20430341234896,219.28970940837462 130.09476200831705,219.39927700221597 130.0478156922909,219.41492951610417 130.01651814827346,219.38362448845874 129.57052814608323,219.57928091910435 129.0149967398611,219.59493343436043 128.67072375575663,219.5714546615054 128.25603129755473,219.59493343436043 128.09954357749666,219.5714546615054 127.4735926972644,219.60275969201757 127.02760269507417,219.71232730260817 126.71462725495803,219.84537369475584 126.33123234080267,220.10364024534647 126.01043251471128,220.3462543073838 125.97913497066475,220.4166906533501 125.98695935669821,220.424516914165 125.78352532061399,220.5575633525441 125.45490110846004,220.8706138299167 125.0480330363207,221.13670677332266 124.93849163228879,221.2462744659715 124.91501847427571,221.30888457868423 125.01673549236148,221.62976143638662 124.83677461420302,221.39497348677833 124.73505759620457,221.34018963573908 123.89784829391283,222.06803234772815 123.62399478378939,222.53760842843622 123.52227776570362,222.8193541286455 123.48315583571093,223.12457868104684 123.46750706373132,223.8289432067977 123.49880460771965,224.5333079756383 123.44403390571824,224.86983789548685 123.36579004570376,225.05766857258277 123.30319495763979,225.38637229915184 123.21712671162095,225.5976818656345 123.18582916760352,225.90290683372586 122.95109758750186,226.72466659052589 122.9432732014975,226.95162886753678 122.84155618346995,227.24120146461064 122.80243425347726,227.53860039102437 122.72419039340457,227.6638210046367 122.45033688331023,228.81428575310565 122.30167354925652,229.23690562027332 122.2312540752464,229.54213113458536 122.15301021520281,229.67517816803593 122.12171267118538,229.86300928890705 121.74614214303438,230.8178177556547 121.37057161491248,231.53001124912407 121.33927407086594,231.63175319720176 121.17496196480352,231.88219493732322 120.89328406870482,232.39873112416535 120.82286459469469,232.61004142044112 120.14214301243192,233.760508976251 119.94653336235206,234.14399830703042 119.8056944142736,234.3787877291761 119.64920669421554,234.53531402575027 119.46142143016914,234.66836138737563 119.10932406003121,234.73097191353736 118.85894370792084,234.6761877030367 118.5850901978265,234.47270350565668 118.38948054774664,234.19095618926804 118.35035861772485,234.0266036062094 118.18604651169153,233.70572479207476 117.97478808957385,233.15005672226835 117.72440773749258,232.92309375174227 117.42708106938517,232.83700435580977 117.25494457728928,232.82917804726458 117.02021299721673,232.891788516441 116.11258422088576,233.37701971824572 116.03434036081308,233.43180389350164 116.02651597480872,233.46310913717025 115.90132579876808,233.5335459372145 115.69006737667951,233.59615642818972 115.36926755055902,233.760508976251 114.8841556184052,233.90138259952073 114.76678982833982,233.98747204078245 114.65724842430791,234.26139301469084 114.57118017825997,234.73097191353736 114.48511193221202,234.88749823742546 114.25038035211037,235.17707196861738 114.08606824610615,235.35707728190755 114.0,235.68578267807607 114.01564877206692,235.87361435710045 114.07824386007269,235.97535652384977 114.07041947403923,236.09275133804476 114.14866333411192,236.1866671943135 114.14866333411192,236.21797248070652 114.32862421215395,236.34319363115355 114.40686807219754,236.49189375741116 114.62595088026137,236.64059389465547 114.61812649425701,236.72668345279817 114.77461421434418,236.8675572831562 115.71354053469258,237.2588735302852 116.05781351882615,237.54062127531506 116.28472071292344,237.8380217156373 116.2925450989278,237.93193765326578 116.37078895894228,238.0884642257588 116.88719843517174,238.76935495779617 117.20017387528787,239.4345932520082 117.95131493156077,240.84333389636595 118.00608563362039,240.9137709545612 118.18604651169153,241.0389923974144 118.43642686374369,241.125082143888 118.52249510979163,241.125082143888 119.0154314279498,241.02333971661574 119.32840686809504,240.99203435542586 119.7509237122722,240.88246559505933 120.04825038037961,240.84333389636595 120.44729406651459,240.7337651441485 121.17496196480352,240.62419639789732 121.37057161491248,240.56941202700546 121.74614214303438,240.61637005911325 121.98087372313603,240.5615856884251 122.3251467072696,240.4441906134598 123.8821995218459,240.11548444004438 124.28906759404344,239.9980893911852 124.40643338407972,239.9980893911852 124.64116496415227,239.91982602905773 125.25929145840928,239.8024309915927 125.9713105847186,239.6380779507017 126.55813953492907,239.4893775919336 127.4344707672426,239.3015455755667 127.95088024347206,239.2154559072369 128.07607041948359,239.16849790791457 128.8037383177725,238.99631858638895 129.04629428387852,238.97283958912885 129.21060638994095,238.91022893115587 129.41404042599606,238.91022893115587 129.51575744408183,238.83979194323183 129.79743534018053,238.80066028436704 129.92262551619206,238.75370229470718 131.27624429477146,238.487607040719 131.63616605091374,238.45630171903758 131.8317757009645,238.47978071025864 132.4499021951924,238.42499639785092 132.65333623127663,238.39369107714447 132.96631167139276,238.3858647470479 133.13844816348865,238.41717006762337 133.32623342756415,238.3780384169513 133.44359921757132,238.40151740727015 134.3512279939605,238.33108043718676 134.57031080202432,238.36238575691823 135.36839817435248,238.30760144769738 135.45446642040042,238.33108043718676 136.20560747667332,238.31542777750292 136.53423168879817,238.33108043718676 137.9582699413295,238.2841224584845 138.27906976744998,238.2997751179355 138.6155183655792,238.26846979916445 138.77200608569547,238.2841224584845 138.87372310369392,238.24499081043177 139.01456205174327,238.27629612880992 139.0458595957316,238.26846979916445 139.05368398176506,238.2136854925193 139.19452292984352,238.15107485816407 139.31188871985069,238.25281713997538 139.44490328192478,238.2841224584845 139.60139100198285,238.22933815141732 139.80482503803796,238.25281713997538 140.14909802220063,238.2058591631212 141.041078026552,237.98672195227118 141.14279504457954,237.9945482808107 141.41664855467388,237.90845866844757 141.82351662684232,237.8380217156373 142.43381873509497,237.69714781738003 142.98152575531276,237.54062127531506 143.26320365141146,237.49366331507917 143.56053031951888,237.407573724151 144.08476418172359,237.30583148506412 144.35861769181793,237.22756822773954 144.71071506195585,237.15713129872165 145.43838296027388,236.95364685100503 145.50097804827965,236.91451522881107 145.71223647036823,236.91451522881107 146.00173875247128,236.85190463486651 147.28493805698236,236.5310253714124 147.4257770050317,236.5153727257275 147.7465768311231,236.40580420929473 148.09867420126102,236.2727567330585 148.29428385136998,236.14753558699158 148.62290806349483,235.8188301155751 148.99847859161673,235.5214299733052 149.17061508371262,235.3414246453467 149.3427515757794,235.23185619269498 149.44446859380696,235.11446142861678 149.64007824388682,234.98924035445089 149.95305368400295,234.66053507174365 150.04694631602615,234.59792454777926 150.28950228213216,234.4179193021846 150.4303412301815,234.26921932876576 151.05629211044288,233.78398791278596 151.3927407085721,233.59615642818972 151.43186263856478,233.54137224846636 151.97956965884077,233.1578830320359 152.3473158009292,232.9543989875383 152.58204738103086,232.7665675800381 152.98109106713673,232.55525726743508 153.2862421213067,232.2969891375542 153.3644859813212,232.14046301426424 153.45055422734004,232.14046301426424 153.50532492937054,232.10133148534806 153.6852858074708,232.21872607438127 153.82612475552014,232.21089976823714 154.04520756361308,232.250031299307 154.19387089763768,232.3282943636441 154.24081721366383,232.3282943636441 154.6789828298206,232.56308357491798 154.75722668986418,232.64134665139136 155.0154314279498,232.7352623471379 155.25016300808056,232.83700435580977 156.06389915235923,233.26745137215767 156.2203868724173,233.48658807024185 156.2203868724173,233.5491985597764 156.13431862639845,233.68224585645657 156.19691371443332,233.90920891219866 156.18908932845807,234.10486673934793 156.21256248647114,234.21443513080885 156.2751575744769,234.42574561685615 156.34557704851613,234.5274877106276 156.48641599650728,234.84836665530747 156.7446207346511,235.13794038088236 156.76809389266418,235.21620355709456 156.97935231472366,235.3414246453467 156.99500108676148,235.4196878294315 157.42534231691388,235.7796985153982 157.5348837209167,235.9049196386186 157.80091284503578,236.1240566229826 158.12953705718974,236.64059389465547 158.27820039124344,236.82059933860728 158.59117583135958,237.0397364225355 158.73201477943803,237.06321539722558 159.46750706373132,237.07104172219988 159.68658987179515,237.0397364225355 160.82895022825687,236.85190463486651 161.9869593566982,236.71103080558532 162.39382742883754,236.624941248112 163.07454901110032,236.5466780172137 163.31710497720633,236.49189375741116 163.70832427733694,236.4684147893713 163.83351445340668,236.4214568541356 164.27168006956344,236.35884627551422 164.38122147359536,236.36667259773822 164.8272114757856,236.2727567330585 165.02282112589455,236.2649304112274 165.33579656601069,236.1866671943135 165.66442077810643,236.15536190841522 166.2356009563082,236.0536197325564 166.36079113237793,236.10840398044093 166.45468376445933,236.07709869576502 166.6659421864897,236.07709869576502 166.96326885462622,235.95187756184896 167.4170832427626,235.87361435710045 167.777004998934,235.74839323581546 168.12127798309666,235.47447206011566 168.30906324711395,235.2631614642596 168.38730710715754,235.04402457344986 168.41078026519972,234.86401928807027 168.3012388611678,234.25356670064502 168.23864377307473,233.56485118245473 168.26994131712127,233.36919340760505 168.37165833517793,233.07179362610623 168.3560095631401,232.92309375174227 168.62986307326355,232.3752522037248 168.76287763530854,232.250031299307 169.1071506194421,231.77262667221657 169.45924798960914,231.43609560928599 169.77222342972527,231.2639169475442 169.8035209737136,231.2717432500358 169.8582916757441,231.35000627658155 170.06172571179923,231.2560906450817 170.85981308412738,231.2013065287174 171.0632471202116,231.13869611184055 171.08672027819557,231.16217501794745 171.2901543142798,231.1700013200316 171.65007607045118,231.12304350791965 171.7596174744831,231.12304350791965 171.78309063252527,231.15434871587786 171.86133449251065,231.12304350791965 172.00999782656436,231.13869611184055 172.20560747664422,231.06825939514965 172.74549011085765,230.96651747537544 173.18365572704352,230.76303365113563 173.91132362530334,230.442155354438 174.32601608347613,230.19171379228646 174.72505976966931,230.00388264097273 175.09280591175775,229.77692002301046 175.31971310585504,229.67517816803593 175.42925450991606,229.5890889101138 175.4996739839553,229.5890889101138 175.92219082810334,229.3229948632652 176.46989784832112,228.84559092542622 176.50901977834292,228.76732799551974 176.61073679637047,228.69689136116358 176.87676592046046,228.32122935255757 176.89241469249828,228.26644531545753 177.03325364051852,228.09426692269335 177.40882416866953,227.47599008711404 177.5261899587349,227.3664220599021 177.6592045207799,227.05337058614532 177.81569224083796,226.82640829778393 177.87046294283937,226.70118773572904 178.02695066292654,226.5368357597181 178.19126276895986,226.4116152154893 178.32427733100485,226.34900494624162 178.81721364922123,226.27074211242143 179.27102803741582,226.41944149929623 179.38056944144773,226.49770433883532 179.67789610955515,226.55248832830694 179.90480330362334,226.6307511729683 179.99087154967128,226.6307511729683 180.26472505976562,226.70118773572904 180.48380786788766,226.70901402064192 180.60117365789483,226.76379801580333 180.77331014999072,226.7794505861093 180.8906759400561,226.82640829778393 181.06281243212288,226.79510315654625 181.34449032822158,226.95162886753678 181.8296022604045,226.9751077252149 181.97044120845385,226.94380258170713 182.3538361225801,226.73249287552608 182.6746359487006,226.51335690708947 182.7294066507602,226.51335690708947 182.84677244079649,226.43509406695375 183.0502064768807,226.35683122981573 183.5979134970985,225.94986452517333 183.87959139316808,225.78551260981476 183.9734840252204,225.67594467362505 184.12997174530756,225.56637674329977 184.74809823950636,225.25332554630586 184.80286894156598,225.2689781049994 184.92023473160225,225.40202485887858 185.17843946968787,225.2611518256308 185.42881982179824,225.22202042925346 186.0,225.28463066382392" stroke="#4dd2ff" stroke-linecap="round" stroke-linejoin="round" stroke-width="0.5"><title>2024-09-29 17.0km</title><desc>12527761096</desc></polyline></svg>