<?xml version="1.0" encoding="utf-8" ?>
<svg baseProfile="full" height="200mm" version="1.1" viewBox="0,0,200,200" width="200mm" xmlns="http://www.w3.org/2000/svg" xmlns:ev="http://www.w3.org/2001/xml-events" xmlns:xlink="http://www.w3.org/1999/xlink"><defs /><rect fill="#1a1a1a" height="200" width="200" x="0" y="0" /><rect fill="#1a1a1a" height="200" width="180" x="10" y="0" /><text alignment-baseline="middle" fill="#e1ed5e" style="dominant-baseline: central; font-size:9.0px; font-family:Arial;" text-anchor="middle" x="100.0" y="100.0">2025</text><line stroke="#e1ed5e" stroke-width="0.3" x1="100.0" x2="100.0" y1="15.0" y2="10.0" /><path d="M 100.0 14.0 a86.0,86.0 0 0,1 42.46469731375804,11.215312516191453" fill="none" id="id13" stroke="none" /><text fill="#e1ed5e" style="font-size:6.75px; font-family:Arial;" text-anchor="middle"><textPath startOffset="22.20632615414155" xlink:href="#id13">January</textPath></text><path d="M 100.36148047927253 79.00311137660856 l 0.2869396248709951 -16.667122266681908 a37.669592046623244,37.669592046623244 0 0,0 0.6482279632726137,0.0167418158325548 l -0.5737942233384766 16.65971365870699" fill="red" stroke="none" /><path d="M 101.08401301168833 79.027996857942 l 2.482468898553208 -48.02741754864459 a69.09153239629757,69.09153239629757 0 0,0 1.1871831901148377,0.0716141320843906 l -3.3088141375076576 47.9775701471799" fill="red" stroke="none" /><path d="M 101.44485096284872 79.0497635885617 l 2.6302387046497 -38.13827453336869 a59.228865272540276,59.228865272540276 0 0,0 1.0165078151028404,0.07890057032733681 l -3.286336709114882 38.087348700852885" fill="red" stroke="none" /><path d="M 104.307194497241 79.44645832069477 l 3.826925119146173 -18.26173974505564 a39.65841618100788,39.65841618100788 0 0,0 0.666936105850971,0.14576640076524397 l -4.140703949150672 18.193159846194522" fill="red" stroke="none" /><path d="M 105.01212808612495 79.60689891045804 l 4.982574228366518 -20.27285380166396 a41.87617415152554,41.87617415152554 0 0,0 0.6985167419598719,0.17806747064961587 l -5.330799859011416 20.184083334845475" fill="red" stroke="none" /><path d="M 107.08798089147638 80.2323363322302 l 16.543782697637056 -46.13894099980283 a70.0152896811793,70.0152896811793 0 0,0 1.1309725583813794,0.41654673792190927 l -17.335537581791012 45.847330994074596" fill="red" stroke="none" /><path d="M 108.09893153111575 80.62456947434976 l 10.750370754349138 -25.71858533136388 a48.8750085704491,48.8750085704491 0 0,0 0.7734266279094181,0.3311409185821972 l -11.191481140048872 25.529724884818894" fill="red" stroke="none" /><path d="M 109.41281617654863 81.2277094730956 l 10.66586073950932 -21.271278729570124 a44.7955433664724,44.7955433664724 0 0,0 0.6863093467107422,0.3515543037848897 l -11.030430573808816 21.084531900472733" fill="red" stroke="none" /><path d="M 110.05341064243156 81.56283822128135 l 9.287502145670377 -17.032546035392595 a40.40013712718547,40.40013712718547 0 0,0 0.6076871484125906,0.3381772401626911 l -9.579313383155004 16.870153397669725" fill="red" stroke="none" /><path d="M 110.36928655335952 81.73862282372117 l 6.947051278219218 -12.234469845315362 a35.06924922865958,35.06924922865958 0 0,0 0.5223702737482134,0.3025905792231109 l -7.156618284432761 12.113075108702201" fill="red" stroke="none" /><line stroke="#e1ed5e" stroke-width="0.3" x1="143.23703022742887" x2="145.7803849466894" y1="26.81831364943548" y2="22.513508569990506" /><path d="M 143.74570117128098 25.957352633546492 a86.0,86.0 0 0,1 28.547481713284135,27.462654790039103" fill="none" id="id14" stroke="none" /><text fill="#e1ed5e" style="font-size:6.75px; font-family:Arial;" text-anchor="middle"><textPath startOffset="19.985693538727396" xlink:href="#id14">February</textPath></text><path d="M 111.2981086023043 82.29822771554956 l 31.912356806792694 -49.9999861161506 a80.31607816249571,80.31607816249571 0 0,0 1.1589723829963479,0.7538278768150164 l -32.76829621557332 49.44325931517606" fill="red" stroke="none" /><path d="M 111.90073688211348 82.69761687909136 l 21.28634374115664 -30.948039461858947 a58.56181007884813,58.56181007884813 0 0,0 0.8256346844744396,0.578409859311087 l -21.81590956521473 30.577044759783924" fill="red" stroke="none" /><path d="M 112.19680574252982 82.90503203632743 l 21.72523543270501 -30.449956452967452 a58.40569077819678,58.40569077819678 0 0,0 0.8133818009369514,0.5909564698862824 l -22.24616254999575 30.071480748264495" fill="red" stroke="none" /><path d="M 113.06298171725822 83.55741782278167 l 23.93828664915299 -30.131500903081736 a59.4830990743915,59.4830990743915 0 0,0 0.7962141425077672,0.6438164635925181 l -24.453404190225246 29.714978342225088" fill="red" stroke="none" /><path d="M 113.34407831869373 83.78471172551755 l 9.888563919461395 -12.016260002767211 a36.561947206033594,36.561947206033594 0 0,0 0.48251752867861275,0.40409455380707987 l -10.093938985099125 11.844264291566311" fill="red" stroke="none" /><path d="M 113.6212207817346 84.01681056812373 l 11.239058118941413 -13.187951199777237 a38.32739115529654,38.32739115529654 0 0,0 0.4984499145810784,0.43225085411769 l -11.464401832169255 12.992535352239875" fill="red" stroke="none" /><path d="M 114.16331599549186 84.49514656593476 l 11.328433167068562 -12.4014528764951 a37.79670894754885,37.79670894754885 0 0,0 0.47658431180055755,0.4429331777839702 l -11.540225362663966 12.204615112636489" fill="red" stroke="none" /><path d="M 115.4437574822437 85.77008943001954 l 13.868749862819417 -12.778695242543895 a39.85834761741515,39.85834761741515 0 0,0 0.46056578685249855,0.5085682451489428 l -14.086659290287951 12.538074210125403" fill="red" stroke="none" /><path d="M 115.9244219780498 86.31012108654704 l 15.267136957084023 -13.12482528946265 a41.133219060678776,41.133219060678776 0 0,0 0.45694968761741755,0.5408843007881853 l -15.490797258188557 12.86008203904536" fill="red" stroke="none" /><path d="M 116.15771136456269 86.58626213691792 l 13.495752354308086 -11.203844422100238 a38.540281110730206,38.540281110730206 0 0,0 0.41935773093337847,0.5140829927080675 l -13.686608577317873 10.96987725978407" fill="red" stroke="none" /><path d="M 116.38621287248628 86.86637796730983 l 9.65453609793494 -7.738153348669495 a33.37291738087076,33.37291738087076 0 0,0 0.3554150852812628,0.4513410653401972 l -9.786305263810167 7.570819889376259" fill="red" stroke="none" /><path d="M 116.82858285166822 87.43820079747576 l 16.15227475195329 -12.05696486070577 a41.15605073705862,41.15605073705862 0 0,0 0.4188850839902643,0.5713587838101948 l -16.35742244845718 11.777143633224082" fill="red" stroke="none" /><path d="M 117.04232023915458 87.72973835380427 l 6.792056106674769 -4.8901971313194394 a29.369352074048678,29.369352074048678 0 0,0 0.29185776868526747,0.4128121159373646 l -6.875226495163919 4.772558515050282" fill="red" stroke="none" /><path d="M 117.2510076193507 88.02491185347247 l 10.63700897843543 -7.383865507617426 a33.94864586904354,33.94864586904354 0 0,0 0.32910065345778505,0.4829146000616017 l -10.762534097561948 7.199672884285418" fill="red" stroke="none" /><line stroke="#e1ed5e" stroke-width="0.3" x1="172.23445277983987" x2="176.4835382374775" y1="55.19839476539836" y2="52.563006222186495" /><path d="M 173.08426987136738 54.67131705675599 a86.0,86.0 0 0,1 12.851231095245387,41.99856678651699" fill="none" id="id15" stroke="none" /><text fill="#e1ed5e" style="font-size:6.75px; font-family:Arial;" text-anchor="middle"><textPath startOffset="22.20632615414155" xlink:href="#id15">March</textPath></text><path d="M 117.84615892207809 88.93136811851018 l 33.64698843970702 -20.868699566443933 a60.59321220431951,60.59321220431951 0 0,0 0.5421193954420002,0.8911017454093259 l -34.001223633435245 20.286430047827526" fill="red" stroke="none" /><path d="M 118.03404312379186 89.2402003453031 l 29.25632460418506 -17.45544186697177 a55.06794652039766,55.06794652039766 0 0,0 0.4786724230516189,0.8182063349408926 l -29.55245670170701 16.94925611967698" fill="red" stroke="none" /><path d="M 118.3937258080291 89.86733742301442 l 12.984696669144164 -7.152958100284101 a35.82454576619815,35.82454576619815 0 0,0 0.2928944932016028,0.5426890129382993 l -13.10589926156423 6.928388104013343" fill="red" stroke="none" /><path d="M 118.73160827565052 90.50648371742162 l 7.378890461140235 -3.739754521306015 a29.272471717517995,29.272471717517995 0 0,0 0.223920451310658,0.4514099660311371 l -7.442170925404301 3.612184966775928" fill="red" stroke="none" /><path d="M 119.34039704204932 91.81776055985345 l 13.214248847300974 -5.590482338869314 a35.34816592389441,35.34816592389441 0 0,0 0.23225144313551194,0.5624152915718635 l -13.308521977322684 5.362192476844147" fill="red" stroke="none" /><path d="M 119.47837535516314 92.15188598940014 l 14.042860257767591 -5.658067797151692 a36.13986972917381,36.13986972917381 0 0,0 0.22752018498246962,0.579014053967488 l -14.138173992631762 5.41550473828842" fill="red" stroke="none" /><path d="M 119.61058180528143 92.48833698450437 l 40.65697436519803 -15.573300868552653 a64.5375385670209,64.5375385670209 0 0,0 0.3884404163938494,1.0408271955108124 l -40.9190193700935 14.871150536012507" fill="red" stroke="none" /><path d="M 119.85752413597 93.16781622104841 l 21.437256846017977 -7.375706935351454 a43.67062050051423,43.67062050051423 0 0,0 0.23844721567880853,0.7129268247451656 l -21.561041355468557 7.005607007683975" fill="red" stroke="none" /><path d="M 120.45610955862082 95.25157060432595 l 13.611091968619718 -3.159511295430039 a34.97298594446349,34.97298594446349 0 0,0 0.13107477605372012,0.5875825198680473 l -13.663461131675476 2.9247506060120276" fill="red" stroke="none" /><line stroke="#e1ed5e" stroke-width="0.3" x1="184.98032266829074" x2="189.97916517819016" y1="98.17113171792111" y2="98.06355123074" /><path d="M 185.9800911702706 98.14961562048488 a86.0,86.0 0 0,1 -9.607161424134198,41.387399972396054" fill="none" id="id16" stroke="none" /><text fill="#e1ed5e" style="font-size:6.75px; font-family:Arial;" text-anchor="middle"><textPath startOffset="21.466115282336823" xlink:href="#id16">April</textPath></text><path d="M 120.9764740272857 100.99374915477107 l 15.509996060980177 0.7347777064940779 a36.52739115529654,36.52739115529654 0 0,0 -0.035159612752720476,0.6277985045917057 l -15.495050097339927 -1.001647927421207" fill="red" stroke="none" /><path d="M 120.23288151984713 105.62410040840565 l 11.947695392218453 3.3210810071204286 a33.40068563592732,33.40068563592732 0 0,0 -0.15874449331039245,0.5526104065344969 l -11.88875826202196 -3.5262488891595076" fill="red" stroke="none" /><line stroke="#e1ed5e" stroke-width="0.3" x1="174.80103733775053" x2="179.2010983576182" y1="140.37084112569926" y2="142.7455964860345" /><path d="M 175.68104954172406 140.8457921977663 a86.0,86.0 0 0,1 -30.038265399797805,32.042727171017184" fill="none" id="id17" stroke="none" /><text fill="#e1ed5e" style="font-size:6.75px; font-family:Arial;" text-anchor="middle"><textPath startOffset="22.206326154141568" xlink:href="#id17">May</textPath></text><path d="M 117.55443506779139 111.5257021239791 l 32.6843137039169 21.459515069739584 a60.099554336647245,60.099554336647245 0 0,0 -0.5752297041840823,0.8598903595640387 l -32.3100808943221 -22.018942343509433" fill="red" stroke="none" /><path d="M 116.93607887273984 112.41649034213515 l 28.160886287430216 20.64582807161177 a55.918272197463146,55.918272197463146 0 0,0 -0.575795064218023,0.7713715836046394 l -27.8013299565171 -21.127512534725724" fill="red" stroke="none" /><path d="M 115.80600337817218 113.82643327865902 l 32.88490905102413 28.766348455717917 a64.6911895783339,64.6911895783339 0 0,0 -0.7403788057559143,0.8318234369686008 l -32.384871395619875 -29.328146062427383" fill="red" stroke="none" /><path d="M 115.56566222782051 114.09645910891815 l 4.657577897034026 4.217961010023417 a27.283647583133355,27.283647583133355 0 0,0 -0.3182489275460645,0.3453963559246951 l -4.584282561492239 -4.297508620749446" fill="red" stroke="none" /><path d="M 114.29624159901734 115.38237550388516 l 14.33544966648122 15.42456234105728 a42.0575934178951,42.0575934178951 0 0,0 -0.5345328872178885,0.48828311882111153 l -14.067817229796468 -15.669038226464975" fill="red" stroke="none" /><path d="M 113.75828350139079 115.86535959552629 l 31.39427509575891 36.2022968624495 a68.91875214261228,68.91875214261228 0 0,0 -0.9029489536029635,0.7695126873196478 l -30.766460665578897 -36.73733393999209" fill="red" stroke="none" /><path d="M 113.48314897796784 116.09983520530334 l 4.795930801066673 5.726681184001085 a28.469660610215975,28.469660610215975 0 0,0 -0.3784158431669455,0.31141047650695863 l -4.696644829355036 -5.808386779365222" fill="red" stroke="none" /><line stroke="#e1ed5e" stroke-width="0.3" x1="143.8653032363475" x2="146.44561519142675" y1="172.8068346515853" y2="177.08958963109032" /><path d="M 144.38136562736335 173.6633856474863 a86.0,86.0 0 0,1 -40.68145358897372,12.25698825130547" fill="none" id="id18" stroke="none" /><text fill="#e1ed5e" style="font-size:6.75px; font-family:Arial;" text-anchor="middle"><textPath startOffset="21.466115282336833" xlink:href="#id18">June</textPath></text><path d="M 105.18746579009965 120.34920634021253 l 5.2036742389663155 20.412788267070137 a42.06561535824477,42.06561535824477 0 0,0 -0.7031902903222551,0.17282706482644644 l -4.851530663900849 -20.499336590210614" fill="red" stroke="none" /><path d="M 103.41894727170886 120.7198165907248 l 3.101414992651674 18.795478465319512 a40.049640041138154,40.049640041138154 0 0,0 -0.6811569094325172,0.10638270055399118 l -2.7774222196106395 -18.84607947322061" fill="red" stroke="none" /><path d="M 101.26447882468166 120.96189622390904 l 0.6104722196832281 10.120102501361245 a31.138498457319166,31.138498457319166 0 0,0 -0.5353033083228894,0.027669066588021613 l -0.4361808429468591 -10.129111374711469" fill="red" stroke="none" /><path d="M 100.90346689309514 120.98055641714683 l 0.8084876074926138 18.774921351519357 a39.79232087761399,39.79232087761399 0 0,0 -0.6845788425101796,0.023578279513033693 l -0.48518841330778184 -18.786056429458487" fill="red" stroke="none" /><line stroke="#e1ed5e" stroke-width="0.3" x1="102.19456741930631" x2="102.32365962044197" y1="184.97166512339345" y2="189.96999836594603" /><path d="M 102.22038585953345 185.97133177190398 a86.0,86.0 0 0,1 -42.740103519485714,-10.115201625700543" fill="none" id="id19" stroke="none" /><text fill="#e1ed5e" style="font-size:6.75px; font-family:Arial;" text-anchor="middle"><textPath startOffset="22.20632615414155" xlink:href="#id19">July</textPath></text><path d="M 100.18074693466247 120.99922214144158 l 0.10657863963577953 12.382331868719564 a33.3827905382242,33.3827905382242 0 0,0 -0.5746511485964614,0.0 l 0.106578639635771 -12.382331868719564" fill="red" stroke="none" /><path d="M 99.81925306533755 120.99922214144158 l -0.3186365129968828 37.019266364277755 a58.02063764141241,58.02063764141241 0 0,0 -0.998618917225583,-0.01719213028577776 l 0.9558151201151337 -37.00829675671282" fill="red" stroke="none" /><path d="M 99.45781275523022 120.99299961872073 l -0.3729644958145027 14.440847869364385 a35.44566335275968,35.44566335275968 0 0,0 -0.6097998471782862,-0.021002739715200433 l 0.621484694667432 -14.432288331223091" fill="red" stroke="none" /><path d="M 99.09653310690486 120.98055641714683 l -2.6709506042629507 62.02554877044102 a83.08303051079876,83.08303051079876 0 0,0 -1.4282840631792617,-0.0738259716244467 l 3.738222735855701 -61.970382992054375" fill="red" stroke="none" /><path d="M 98.01472825383883 120.90594882070398 l -1.452216705488114 15.292600713333805 a36.36139869729174,36.36139869729174 0 0,0 -0.6225892244463787,-0.06453391872761628 l 1.715238526540086 -15.265337426150428" fill="red" stroke="none" /><path d="M 97.65516085044442 120.86867818915974 l -3.4492183111832855 30.697468930388464 a51.89064106959205,51.89064106959205 0 0,0 -0.8867680038171385,-0.10737525579913497 l 3.977113738051813 -30.63354814586398" fill="red" stroke="none" /><path d="M 96.22490169976321 120.6578951692458 l -5.548224200538036 30.360701840001912 a51.86348988687008,51.86348988687008 0 0,0 -0.8768199300558216,-0.1680446264442157 l 6.070011745165553 -30.260700015209228" fill="red" stroke="none" /><path d="M 95.16358092515715 120.4354850818985 l -7.202827600869589 30.434351057520793 a52.27507713404182,52.27507713404182 0 0,0 -0.8738568627476517,-0.21477275603153115 l 7.725637748360451 -30.30585704317523" fill="red" stroke="none" /><path d="M 94.11515582081647 120.15858648285463 l -10.363770004143404 35.501187041782465 a57.9829962290024,57.9829962290024 0 0,0 -0.9556840977045041,-0.28793977904217244 l 10.973329076288156 -35.317531893634566" fill="red" stroke="none" /><path d="M 93.76903079525671 120.05430185196036 l -7.326477282760256 23.580181848460562 a45.69214946863215,45.69214946863215 0 0,0 -0.7490872266173515,-0.23983407456792968 l 7.731285854468548 -23.450574927232925" fill="red" stroke="none" /><path d="M 92.7421414339146 119.70592522655815 l -7.0461547332845536 19.131124841380714 a41.38745286253,41.38745286253 0 0,0 -0.666396680938165,-0.2519742034335092 l 7.374421634983001 -19.007002387840572" fill="red" stroke="none" /><path d="M 92.40401165467489 119.57807347666478 l -3.3685877694592294 8.682274888383123 a30.3128556736373,30.3128556736373 0 0,0 -0.48483092122665494,-0.19292422932595685 l 3.517539766727743 -8.6230038146511" fill="red" stroke="none" /><path d="M 91.40352486487194 119.15986991738527 l -16.289560469337463 36.30625979810248 a60.793143640726775,60.793143640726775 0 0,0 -0.9510711106612918,-0.43659009981235436 l 16.912099575766174 -36.02048262795605" fill="red" stroke="none" /><path d="M 90.10565033884886 118.52300852407294 l -14.559071070036856 27.255737543997537 a51.900514226945496,51.900514226945496 0 0,0 -0.7843828222818847,-0.42770805549753277 l 15.026076704187382 -27.001088836740237" fill="red" stroke="none" /><line stroke="#e1ed5e" stroke-width="0.3" x1="58.666819895761336" x2="56.23545636021788" y1="174.27360380694188" y2="178.64263932499728" /><path d="M 58.180547188652646 175.14741091055294 a86.0,86.0 0 0,1 -31.652253787137756,-30.449443065178592" fill="none" id="id20" stroke="none" /><text fill="#e1ed5e" style="font-size:6.75px; font-family:Arial;" text-anchor="middle"><textPath startOffset="22.20632615414155" xlink:href="#id20">August</textPath></text><path d="M 89.4739219176387 118.17145234162733 l -4.518290277500376 7.800046304123373 a30.014192663695574,30.014192663695574 0 0,0 -0.44482767057553757,-0.26281202849765767 l 4.6518858191042955 -7.721115703331965" fill="red" stroke="none" /><path d="M 89.1626897886671 117.98757091392108 l -31.899555467642095 52.94630354834132 a82.8133699005828,82.8133699005828 0 0,0 -1.214678116813294,-0.7461545088570436 l 32.8062127843877 -52.3893605726559" fill="red" stroke="none" /><path d="M 87.95078237400918 117.19931262002967 l -14.205908971280566 20.277820272886558 a45.75879328076792,45.75879328076792 0 0,0 -0.6412172558639035,-0.4574914866848289 l 14.552853554993357 -20.03028452435751" fill="red" stroke="none" /><path d="M 85.18274418774928 114.88116024355367 l -30.796874147644758 30.929696092089163 a64.64737744257799,64.64737744257799 0 0,0 -0.7818003603388631,-0.7919596374439589 l 31.324715133039156 -30.39499596066454" fill="red" stroke="none" /><path d="M 84.19399662182784 113.82643327865904 l -47.4180101345165 41.4792998359771 a84.0,84.0 0 0,0 -0.942629961716885,-1.0964916033538787 l 48.12498260580416 -40.65693113346169" fill="red" stroke="none" /><path d="M 82.6465618267979 111.8261652097733 l -31.425879068796867 21.41636913795343 a59.029550908467606,59.029550908467606 0 0,0 -0.564988401028628,-0.8445810009048936 l 31.789870575236225 -20.872251222842717" fill="red" stroke="none" /><path d="M 82.24976979558568 111.22182372390057 l -10.470193088498352 6.619331684222928 a33.387110044566334,33.387110044566334 0 0,0 -0.30292500203747885,-0.48841155670487696 l 10.582582730203786 -6.438123796152786" fill="red" stroke="none" /><line stroke="#e1ed5e" stroke-width="0.3" x1="26.63291911575756" x2="22.317208475507996" y1="142.92168965132927" y2="145.44649492493687" /><path d="M 25.769776987707644 143.4266507060508 a86.0,86.0 0 0,1 -11.730757126820373,-40.83630448921669" fill="none" id="id21" stroke="none" /><text fill="#e1ed5e" style="font-size:6.75px; font-family:Arial;" text-anchor="middle"><textPath startOffset="21.46611528233685" xlink:href="#id21">September</textPath></text><path d="M 81.02952815118164 109.00673069616217 l -27.87402343880641 13.233926100129082 a51.856085018854984,51.856085018854984 0 0,0 -0.3758958291038916,-0.809646174626933 l 28.09769388475013 -12.752159858223322" fill="red" stroke="none" /><line stroke="#e1ed5e" stroke-width="0.3" x1="15.007084014347285" x2="10.007500721073583" y1="101.09737516637583" y2="101.16192664675087" /><path d="M 14.007167355692545 101.11028546245083 a86.0,86.0 0 0,1 10.666146001902534,-42.60595125391555" fill="none" id="id22" stroke="none" /><text fill="#e1ed5e" style="font-size:6.75px; font-family:Arial;" text-anchor="middle"><textPath startOffset="22.20632615414155" xlink:href="#id22">October</textPath></text><line stroke="#e1ed5e" stroke-width="0.3" x1="26.266209847984243" x2="21.928928074336255" y1="57.711370442889674" y2="55.22380399835377" /><path d="M 25.398753493254645 57.213857153982495 a86.0,86.0 0 0,1 29.58750427330803,-30.492523968695096" fill="none" id="id23" stroke="none" /><text fill="#e1ed5e" style="font-size:6.75px; font-family:Arial;" text-anchor="middle"><textPath startOffset="21.46611528233685" xlink:href="#id23">November</textPath></text><line stroke="#e1ed5e" stroke-width="0.3" x1="56.762969772571076" x2="54.21961505331055" y1="26.818313649435495" y2="22.513508569990535" /><path d="M 56.25429882871897 25.957352633546506 a86.0,86.0 0 0,1 42.265352541879196,-11.944610805530505" fill="none" id="id24" stroke="none" /><text fill="#e1ed5e" style="font-size:6.75px; font-family:Arial;" text-anchor="middle"><textPath startOffset="22.20632615414155" xlink:href="#id24">December</textPath></text></svg>