<?xml version="1.0" encoding="utf-8" ?>
<svg baseProfile="full" height="200mm" version="1.1" viewBox="0,0,200,200" width="200mm" xmlns="http://www.w3.org/2000/svg" xmlns:ev="http://www.w3.org/2001/xml-events" xmlns:xlink="http://www.w3.org/1999/xlink"><defs /><rect fill="#1a1a1a" height="200" width="200" x="0" y="0" /><rect fill="#1a1a1a" height="200" width="180" x="10" y="0" /><text alignment-baseline="middle" fill="#e1ed5e" style="dominant-baseline: central; font-size:9.0px; font-family:Arial;" text-anchor="middle" x="100.0" y="100.0">2025</text><line stroke="#e1ed5e" stroke-width="0.3" x1="100.0" x2="100.0" y1="15.0" y2="10.0" /><path d="M 100.0 14.0 a86.0,86.0 0 0,1 42.46469731375804,11.215312516191453" fill="none" id="id13" stroke="none" /><text fill="#e1ed5e" style="font-size:6.75px; font-family:Arial;" text-anchor="middle"><textPath startOffset="22.20632615414155" xlink:href="#id13">January</textPath></text><path d="M 100.36148047927253 79.00311137660856 l 0.0066485320516702934 -0.38618540973196747 a21.386242635746353,21.386242635746353 0 0,0 0.3680199267532685,0.009504868943492908 l -0.013295093999806603 0.3860137486461149" fill="#ff0300" stroke="none" /><path d="M 101.08401301168833 79.027996857942 l 0.057520023756656144 -1.1128188554462448 a22.11430442795928,22.11430442795928 0 0,0 0.37998477624390115,0.02292171939644468 l -0.07666684884016922 1.1116638666694962" fill="#ff0e01" stroke="none" /><path d="M 101.44485096284872 79.0497635885617 l 0.06094392274775329 -0.8836825542812403 a21.885781586205596,21.885781586205596 0 0,0 0.3756119236734057,0.029154714365458693 l -0.07614603578350014 0.8825025777273171" fill="#ff0b01" stroke="none" /><path d="M 104.307194497241 79.44645832069477 l 0.08867173477843854 -0.42313347997457706 a21.43232466784121,21.43232466784121 0 0,0 0.36042768546437837,0.07877553184686888 l -0.09594214439634487 0.42154445003183766" fill="#ff0400" stroke="none" /><path d="M 105.01212808612495 79.60689891045804 l 0.11544869228854154 -0.46973198051606163 a21.483711209370504,21.483711209370504 0 0,0 0.35835967022382753,0.09135385915095688 l -0.12351725119739415 0.4676751251962369" fill="#ff0500" stroke="none" /><path d="M 107.08798089147638 80.2323363322302 l 0.38332757133337547 -1.0690619261986833 a22.135708337995272,22.135708337995272 0 0,0 0.35756302379958776,0.13169347926387717 l -0.4016729209055397 1.0623051791284814" fill="#ff0e01" stroke="none" /><path d="M 108.09893153111575 80.62456947434976 l 0.24909137091038933 -0.5959122549772112 a21.645877640651882,21.645877640651882 0 0,0 0.34253698651771763,0.14665646135102958 l -0.25931211521842223 0.5915362656633908" fill="#ff0701" stroke="none" /><path d="M 109.41281617654863 81.2277094730956 l 0.2471332323556241 -0.4928659765173287 a21.551354428061405,21.551354428061405 0 0,0 0.33018677454697093,0.16913449044685996 l -0.2555804944913506 0.4885389607579682" fill="#ff0600" stroke="none" /><path d="M 110.05341064243156 81.56283822128135 l 0.2151959866930453 -0.39465245794744963 a21.449510706494024,21.449510706494024 0 0,0 0.3226373206368065,0.17954731962236745 l -0.22195739640188686 0.39088974076490224" fill="#ff0400" stroke="none" /><path d="M 110.36928655335952 81.73862282372117 l 0.1609665904756203 -0.2834786758306493 a21.325991415377835,21.325991415377835 0 0,0 0.3176590380069783,0.18400861828580747 l -0.16582236094792696 0.28066590015479226" fill="#ff0300" stroke="none" /><line stroke="#e1ed5e" stroke-width="0.3" x1="143.23703022742887" x2="145.7803849466894" y1="26.81831364943548" y2="22.513508569990506" /><path d="M 143.74570117128098 25.957352633546492 a86.0,86.0 0 0,1 28.547481713284135,27.462654790039103" fill="none" id="id14" stroke="none" /><text fill="#e1ed5e" style="font-size:6.75px; font-family:Arial;" text-anchor="middle"><textPath startOffset="19.985693538727396" xlink:href="#id14">February</textPath></text><path d="M 111.2981086023043 82.29822771554956 l 0.7394249824146423 -1.1585242380718654 a22.37438266680677,22.37438266680677 0 0,0 0.32286551075062403,0.21000070928066777 l -0.7592575189495464 1.1456246046316696" fill="#ff1202" stroke="none" /><path d="M 111.90073688211348 82.69761687909136 l 0.4932150402356538 -0.7170812758643329 a21.870325589713342,21.870325589713342 0 0,0 0.3083391606800451,0.21601128671401504 l -0.5054853404993498 0.7084851463863823" fill="#ff0a01" stroke="none" /><path d="M 112.19680574252982 82.90503203632743 l 0.5033843763103859 -0.7055404478922574 a21.866708228832174,21.866708228832174 0 0,0 0.30452482083081517,0.2212502331667987 l -0.5154545134949898 0.6967709799087839" fill="#ff0a01" stroke="none" /><path d="M 113.06298171725822 83.55741782278167 l 0.5546618600359525 -0.6981616763775218 a21.891672308272952,21.891672308272952 0 0,0 0.2930321278854937,0.23694493506486375 l -0.5665973864859374 0.6885106440485284" fill="#ff0b01" stroke="none" /><path d="M 113.34407831869373 83.78471172551755 l 0.22912288323053026 -0.27842264659514715 a21.360577960719894,21.360577960719894 0 0,0 0.28190110419098596,0.23608406771819893 l -0.23388152438063362 0.2744374214831289" fill="#ff0300" stroke="none" /><path d="M 113.6212207817346 84.01681056812373 l 0.26041449718895454 -0.30557130715913877 a21.401484164202177,21.401484164202177 0 0,0 0.27832752587650894,0.24136288775512496 l -0.26563582171222766 0.3010434259843426" fill="#ff0400" stroke="none" /><path d="M 114.16331599549186 84.49514656593476 l 0.2624853609546686 -0.28734775468437285 a21.38918799678003,21.38918799678003 0 0,0 0.26969944540844026,0.25065624159975775 l -0.2673926901579557 0.2827869270099746" fill="#ff0400" stroke="none" /><path d="M 115.4437574822437 85.77008943001954 l 0.3213457465869626 -0.2960886456054185 a21.43695717742816,21.43695717742816 0 0,0 0.2477054278545077,0.27352252024351953 l -0.32639481505750595 0.2905133380923499" fill="#ff0400" stroke="none" /><path d="M 115.9244219780498 86.31012108654704 l 0.3537470624423113 -0.30410864880999566 a21.4664965749795,21.4664965749795 0 0,0 0.23847170555037464,0.2822752815237155 l -0.35892938147980313 0.29797441765717353" fill="#ff0500" stroke="none" /><path d="M 116.15771136456269 86.58626213691792 l 0.31270321110011345 -0.2595985785363397 a21.40641692904013,21.40641692904013 0 0,0 0.2329237403584171,0.28553696446634685 l -0.31712544353493943 0.25417744446189205" fill="#ff0400" stroke="none" /><path d="M 116.38621287248628 86.86637796730983 l 0.22370034365238525 -0.17929681403361064 a21.286686573234253,21.286686573234253 0 0,0 0.22669907570376643,0.2878848044922029 l -0.22675349995011576 0.17541961558836935" fill="#ff0200" stroke="none" /><path d="M 116.82858285166822 87.43820079747576 l 0.3742561399250009 -0.2793657981476223 a21.467025596136036,21.467025596136036 0 0,0 0.21849076038196324,0.2980211516161427 l -0.3790095128205906 0.27288220285998593" fill="#ff0500" stroke="none" /><path d="M 117.04232023915458 87.72973835380427 l 0.1573752762180273 -0.1133082695747603 a21.193921998542525,21.193921998542525 0 0,0 0.21061447895031876,0.29789924419070446 l -0.15930237497222896 0.11058252505226268" fill="#ff0100" stroke="none" /><path d="M 117.2510076193507 88.02491185347247 l 0.24646472287969118 -0.17108779073189406 a21.30002648510037,21.30002648510037 0 0,0 0.2064840129987828,0.30298981028675614 l -0.24937320154720735 0.16681995717473147" fill="#ff0200" stroke="none" /><line stroke="#e1ed5e" stroke-width="0.3" x1="172.23445277983987" x2="176.4835382374775" y1="55.19839476539836" y2="52.563006222186495" /><path d="M 173.08426987136738 54.67131705675599 a86.0,86.0 0 0,1 12.851231095245387,41.99856678651699" fill="none" id="id15" stroke="none" /><text fill="#e1ed5e" style="font-size:6.75px; font-family:Arial;" text-anchor="middle"><textPath startOffset="22.20632615414155" xlink:href="#id15">March</textPath></text><path d="M 117.84615892207809 88.93136811851018 l 0.7796172493922585 -0.48353801956268344 a21.91739417477579,21.91739417477579 0 0,0 0.1960920051511388,0.3223236975473404 l -0.7878250528296212 0.4700465488082616" fill="#ff0b01" stroke="none" /><path d="M 118.03404312379186 89.2402003453031 l 0.677883411649558 -0.40445116208960513 a21.789371054894513,21.789371054894513 0 0,0 0.18940185168796533,0.32374916004701 l -0.6847449378078507 0.3927225896886998" fill="#ff0901" stroke="none" /><path d="M 118.3937258080291 89.86733742301442 l 0.30086179984668937 -0.16573755268333695 a21.34349200715075,21.34349200715075 0 0,0 0.1745002243820579,0.32332241378887255 l -0.3036701234472121 0.16053415556200568" fill="#ff0300" stroke="none" /><path d="M 118.73160827565052 90.50648371742162 l 0.17097251646129702 -0.08665194920868889 a21.191677233094527,21.191677233094527 0 0,0 0.16210622648666004,0.32679626074108414 l -0.17243875590136518 0.08369609996865487" fill="#ff0100" stroke="none" /><path d="M 119.34039704204932 91.81776055985345 l 0.3061806365695442 -0.1295342218105282 a21.33245405220901,21.33245405220901 0 0,0 0.14016266784292866,0.33941501778473854 l -0.3083649912986703 0.12424463357248652" fill="#ff0300" stroke="none" /><path d="M 119.47837535516314 92.15188598940014 l 0.3253799699601279 -0.13110021007659403 a21.35079821825856,21.35079821825856 0 0,0 0.13441491617276569,0.34207130032392413 l -0.32758843601459403 0.12547990485688554" fill="#ff0300" stroke="none" /><path d="M 119.61058180528143 92.48833698450437 l 0.942042066558371 -0.36084103065732787 a22.008786154034347,22.008786154034347 0 0,0 0.13246712297709065,0.3549460310685999 l -0.9481137780370869 0.3445718625593947" fill="#ff0c01" stroke="none" /><path d="M 119.85752413597 93.16781622104841 l 0.4967117710031052 -0.17089875260503906 a21.525289412700275,21.525289412700275 0 0,0 0.11753085411457523,0.3514022941931048 l -0.49957991888945047 0.16232335548962024" fill="#ff0500" stroke="none" /><path d="M 120.45610955862082 95.25157060432595 l 0.31537568661799636 -0.0732074286523692 a21.323760947798934,21.323760947798934 0 0,0 0.07991903222945368,0.35826135093721034 l -0.31658910584948763 0.06776790816519498" fill="#ff0300" stroke="none" /><line stroke="#e1ed5e" stroke-width="0.3" x1="184.98032266829074" x2="189.97916517819016" y1="98.17113171792111" y2="98.06355123074" /><path d="M 185.9800911702706 98.14961562048488 a86.0,86.0 0 0,1 -9.607161424134198,41.387399972396054" fill="none" id="id16" stroke="none" /><text fill="#e1ed5e" style="font-size:6.75px; font-family:Arial;" text-anchor="middle"><textPath startOffset="21.466115282336823" xlink:href="#id16">April</textPath></text><path d="M 120.9764740272857 100.99374915477107 l 0.3593742271708478 0.01702516037886019 a21.359777280050547,21.359777280050547 0 0,0 -0.020559954431403123,0.3671117977688697 l -0.3590279218519154 -0.023208674483153228" fill="#ff0300" stroke="none" /><path d="M 120.23288151984713 105.62410040840565 l 0.2768339708901144 0.07695107823452604 a21.28732997734355,21.28732997734355 0 0,0 -0.10117296537019757,0.352196365099773 l -0.2754683686338174 -0.08170491883888101" fill="#ff0200" stroke="none" /><line stroke="#e1ed5e" stroke-width="0.3" x1="174.80103733775053" x2="179.2010983576182" y1="140.37084112569926" y2="142.7455964860345" /><path d="M 175.68104954172406 140.8457921977663 a86.0,86.0 0 0,1 -30.038265399797805,32.042727171017184" fill="none" id="id17" stroke="none" /><text fill="#e1ed5e" style="font-size:6.75px; font-family:Arial;" text-anchor="middle"><textPath startOffset="22.206326154141568" xlink:href="#id17">May</textPath></text><path d="M 117.55443506779139 111.5257021239791 l 0.7573116029026468 0.49722750497987045 a21.905955879499373,21.905955879499373 0 0,0 -0.20966805260900623,0.3134252905155157 l -0.7486404448829195 -0.510189709701193" fill="#ff0b01" stroke="none" /><path d="M 116.93607887273984 112.41649034213515 l 0.6525015677761421 0.4783739775539813 a21.80907351850814,21.80907351850814 0 0,0 -0.22456983010456247,0.3008479861022036 l -0.6441704709764875 -0.4895348431654999" fill="#ff0a01" stroke="none" /><path d="M 115.80600337817218 113.82643327865902 l 0.7619594956266242 0.6665304236155681 a22.012346323439132,22.012346323439132 0 0,0 -0.2519272684435492,0.2830429567589637 l -0.7503733775347368 -0.6795475501153984" fill="#ff0c01" stroke="none" /><path d="M 115.56566222782051 114.09645910891815 l 0.10791836765488251 0.09773222844507613 a21.145595200999672,21.145595200999672 0 0,0 -0.24665188093110918,0.26769190241260377 l -0.10622007872805134 -0.0995753856590147" fill="#ff0000" stroke="none" /><path d="M 114.29624159901734 115.38237550388516 l 0.3321594102785786 0.35739468591558676 a21.487914782884587,21.487914782884587 0 0,0 -0.27310162555093004,0.2494718597637313 l -0.3259582352607846 -0.363059312265901" fill="#ff0500" stroke="none" /><path d="M 113.75828350139079 115.86535959552629 l 0.7274207746906616 0.8388250007028145 a22.110301024612532,22.110301024612532 0 0,0 -0.289681292149752,0.2468726816714394 l -0.7128740059638622 -0.8512220725972007" fill="#ff0e01" stroke="none" /><path d="M 113.48314897796784 116.09983520530334 l 0.11112407239962194 0.1326900159524721 a21.17307570540126,21.17307570540126 0 0,0 -0.2814303761886751,0.23159803992081715 l -0.10882356766625571 -0.13458317473046763" fill="#ff0000" stroke="none" /><line stroke="#e1ed5e" stroke-width="0.3" x1="143.8653032363475" x2="146.44561519142675" y1="172.8068346515853" y2="177.08958963109032" /><path d="M 144.38136562736335 173.6633856474863 a86.0,86.0 0 0,1 -40.68145358897372,12.25698825130547" fill="none" id="id18" stroke="none" /><text fill="#e1ed5e" style="font-size:6.75px; font-family:Arial;" text-anchor="middle"><textPath startOffset="21.466115282336833" xlink:href="#id18">June</textPath></text><path d="M 105.18746579009965 120.34920634021253 l 0.1205716881374361 0.4729743308146825 a21.48810065518283,21.48810065518283 0 0,0 -0.35920605486234214,0.08828410884526873 l -0.11241234853188281 -0.47497969797398115" fill="#ff0500" stroke="none" /><path d="M 103.41894727170886 120.7198165907248 l 0.07186130878036086 0.4355004682930688 a21.44138951684777,21.44138951684777 0 0,0 -0.36467120808658704,0.056954142860942414 l -0.06435423708525667 -0.436672918501117" fill="#ff0400" stroke="none" /><path d="M 101.26447882468166 120.96189622390904 l 0.014144941191175642 0.2344877459038242 a21.234913989239377,21.234913989239377 0 0,0 -0.36505034839661576,0.01886893325843948 l -0.010106524381080279 -0.23469648592446557" fill="#ff0100" stroke="none" /><path d="M 100.90346689309514 120.98055641714683 l 0.018733054990956833 0.43502414986875954 a21.43542730543494,21.43542730543494 0 0,0 -0.36877064945767096,0.0127012067992543 l -0.011242053858633578 -0.43528215509410767" fill="#ff0400" stroke="none" /><line stroke="#e1ed5e" stroke-width="0.3" x1="102.19456741930631" x2="102.32365962044197" y1="184.97166512339345" y2="189.96999836594603" /><path d="M 102.22038585953345 185.97133177190398 a86.0,86.0 0 0,1 -42.740103519485714,-10.115201625700543" fill="none" id="id19" stroke="none" /><text fill="#e1ed5e" style="font-size:6.75px; font-family:Arial;" text-anchor="middle"><textPath startOffset="22.20632615414155" xlink:href="#id19">July</textPath></text><path d="M 100.18074693466247 120.99922214144158 l 0.0024694794312931628 0.28690471154206293 a21.28691533913978,21.28691533913978 0 0,0 -0.366432828187497,0.0 l 0.0024694794312929654 -0.28690471154206293" fill="#ff0200" stroke="none" /><path d="M 99.81925306533755 120.99922214144158 l -0.007382964518911136 0.8577545853517953 a21.85778635851657,21.85778635851657 0 0,0 -0.37620405141343055,-0.006476693916340161 l 0.022146705825009622 -0.8575004141562955" fill="#ff0a01" stroke="none" /><path d="M 99.45781275523022 120.99299961872073 l -0.008641770566447953 0.3346015384104911 a21.334713115526103,21.334713115526103 0 0,0 -0.3670379834047453,-0.012641530277045333 l 0.014400105645836292 -0.334403209707352" fill="#ff0300" stroke="none" /><path d="M 99.09653310690486 120.98055641714683 l -0.061887237459288195 1.4371624316722262 a22.43849431183108,22.43849431183108 0 0,0 -0.3857411511146228,-0.019938411420190552 l 0.08661645698739995 -1.4358842134898337" fill="#ff1302" stroke="none" /><path d="M 98.01472825383883 120.90594882070398 l -0.03364857438825196 0.35433707018229804 a21.355931153263853,21.355931153263853 0 0,0 -0.3656617481832762,-0.037902335299877986 l 0.03974291917712149 -0.3537053664266593" fill="#ff0300" stroke="none" /><path d="M 97.65516085044442 120.86867818915974 l -0.0799200825101105 0.71127543357108 a21.715751326921684,21.715751326921684 0 0,0 -0.37110417328893314,-0.044935547249675786 l 0.09215167885043299 -0.7097943575960557" fill="#ff0801" stroke="none" /><path d="M 96.22490169976321 120.6578951692458 l -0.12855507998839186 0.7034723746683971 a21.715122220681483,21.715122220681483 0 0,0 -0.36712245913693986,-0.07035989305240964 l 0.1406451536970268 -0.7011552832675193" fill="#ff0801" stroke="none" /><path d="M 95.16358092515715 120.4354850818985 l -0.1668930535075695 0.7051788632144627 a21.724658899368194,21.724658899368194 0 0,0 -0.36316048317606586,-0.089256011114019 l 0.1790068214268459 -0.7022015937864137" fill="#ff0801" stroke="none" /><path d="M 94.11515582081647 120.15858648285463 l -0.24013364163163195 0.8225799417760762 a21.856914188501744,21.856914188501744 0 0,0 -0.3602488086739295,-0.1085400108874159 l 0.2542574247458073 -0.8183245617829347" fill="#ff0a01" stroke="none" /><path d="M 93.76903079525671 120.05430185196036 l -0.16975807737312515 0.5463643959044973 a21.572129231857197,21.572129231857197 0 0,0 -0.35365826835562864,-0.11323020936745473 l 0.17913769081969416 -0.5433613398773359" fill="#ff0601" stroke="none" /><path d="M 92.7421414339146 119.70592522655815 l -0.16326286620863992 0.4432775596943438 a21.472387297046854,21.472387297046854 0 0,0 -0.34573588459524557,-0.13072772811026384 l 0.17086897156416844 -0.4404015814774468" fill="#ff0500" stroke="none" /><path d="M 92.40401165467489 119.57807347666478 l -0.07805183325301775 0.2011725738568869 a21.215783440389576,21.215783440389576 0 0,0 -0.33933021489938175,-0.1350264954859802 l 0.08150312419425758 -0.19979923396484012" fill="#ff0100" stroke="none" /><path d="M 91.40352486487194 119.15986991738527 l -0.377437117430897 0.8412338729880051 a21.922026684362738,21.922026684362738 0 0,0 -0.34295654111684776,-0.15743452707063535 l 0.3918616543151642 -0.8346122755832954" fill="#ff0b01" stroke="none" /><path d="M 90.10565033884886 118.52300852407294 l -0.33734082804075666 0.6315288267859518 a21.715980092827213,21.715980092827213 0 0,0 -0.3281979380656228,-0.17895968386964653 l 0.34816157797502 -0.6256284911565394" fill="#ff0801" stroke="none" /><line stroke="#e1ed5e" stroke-width="0.3" x1="58.666819895761336" x2="56.23545636021788" y1="174.27360380694188" y2="178.64263932499728" /><path d="M 58.180547188652646 175.14741091055294 a86.0,86.0 0 0,1 -31.652253787137756,-30.449443065178592" fill="none" id="id20" stroke="none" /><text fill="#e1ed5e" style="font-size:6.75px; font-family:Arial;" text-anchor="middle"><textPath startOffset="22.20632615414155" xlink:href="#id20">August</textPath></text><path d="M 89.4739219176387 118.17145234162733 l -0.1046910050928564 0.18073090421301022 a21.208863271747344,21.208863271747344 0 0,0 -0.3143276032920895,-0.18571028849693144 l 0.107786479413328 -0.17890204342232927" fill="#ff0100" stroke="none" /><path d="M 89.1626897886671 117.98757091392108 l -0.7391283690985652 1.2267918601931462 a22.432246143036338,22.432246143036338 0 0,0 -0.3290284954425445,-0.2021161754860527 l 0.7601360644734184 -1.2138872178787155" fill="#ff1202" stroke="none" /><path d="M 87.95078237400918 117.19931262002967 l -0.3291578887409923 0.46984705609379673 a21.57367340171951,21.57367340171951 0 0,0 -0.3023115485733045,-0.21569126303760727 l 0.33719676516318364 -0.4641115312119702" fill="#ff0601" stroke="none" /><path d="M 85.18274418774928 114.88116024355367 l -0.7135787012822896 0.7166562509765878 a22.01133117473335,22.01133117473335 0 0,0 -0.2661897098490922,-0.2696487707066618 l 0.7258090361869151 -0.7042669862892614" fill="#ff0c01" stroke="none" /><path d="M 84.19399662182784 113.82643327865904 l -1.098698586322808 0.9610957516387694 a22.45974094530702,22.45974094530702 0 0,0 -0.25203838985054655,-0.29317758761943397 l 1.1150794857441333 -0.942041064857805" fill="#ff1302" stroke="none" /><path d="M 82.6465618267979 111.8261652097733 l -0.7281530542696764 0.496227792547305 a21.881163374487745,21.881163374487745 0 0,0 -0.20943075658440477,-0.31307056515548387 l 0.7365869162648115 -0.48362031318600024" fill="#ff0b01" stroke="none" /><path d="M 82.24976979558568 111.22182372390057 l -0.24259951677066163 0.1533731665083862 a21.28701542422345,21.28701542422345 0 0,0 -0.19313948353562838,-0.3114023444097929 l 0.2452036399742459 -0.1491744907333291" fill="#ff0200" stroke="none" /><line stroke="#e1ed5e" stroke-width="0.3" x1="26.63291911575756" x2="22.317208475507996" y1="142.92168965132927" y2="145.44649492493687" /><path d="M 25.769776987707644 143.4266507060508 a86.0,86.0 0 0,1 -11.730757126820373,-40.83630448921669" fill="none" id="id21" stroke="none" /><text fill="#e1ed5e" style="font-size:6.75px; font-family:Arial;" text-anchor="middle"><textPath startOffset="21.46611528233685" xlink:href="#id21">September</textPath></text><path d="M 81.02952815118164 109.00673069616217 l -0.6458548146678312 0.30663656818294766 a21.714950646252337,21.714950646252337 0 0,0 -0.15740793725857213,-0.33904269318746694 l 0.6510373687662301 -0.2954738077166536" fill="#ff0801" stroke="none" /><path d="M 80.32549172779594 107.34259656027581 l -1.0580094190254874 0.39485288340604996 a22.12928859477138,22.12928859477138 0 0,0 -0.13011572679371694,-0.35802259765528494 l 1.0646494068244288 -0.3765824887446479" fill="#ff0e01" stroke="none" /><path d="M 80.0844068197444 106.66101706037122 l -0.19786094960520198 0.06617704775211654 a21.208634505841815,21.208634505841815 0 0,0 -0.112817562841271,-0.3472167558608158 l 0.1989707634627223 -0.06276139191349733" fill="#ff0100" stroke="none" /><path d="M 79.50377843672027 104.57218783832718 l -61.4886646898392 13.716563514981532 a84.0,84.0 0 0,0 -0.302663845102237,-1.4139447223353447 l 61.715662573665874 -12.656104973230022" fill="#4dd2ff" stroke="none" /><path d="M 79.18660465613746 102.79330883721812 l -0.3994328792600257 0.053606793753692795 a21.403014036195398,21.403014036195398 0 0,0 -0.0458620632951104,-0.3655657685486038 l 0.4002964518019842 -0.04672327091768038" fill="#ff0400" stroke="none" /><line stroke="#e1ed5e" stroke-width="0.3" x1="15.007084014347285" x2="10.007500721073583" y1="101.09737516637583" y2="101.16192664675087" /><path d="M 14.007167355692545 101.11028546245083 a86.0,86.0 0 0,1 10.666146001902534,-42.60595125391555" fill="none" id="id22" stroke="none" /><text fill="#e1ed5e" style="font-size:6.75px; font-family:Arial;" text-anchor="middle"><textPath startOffset="22.20632615414155" xlink:href="#id22">October</textPath></text><path d="M 79.21141760316559 97.0276538004421 l -2.834181987686667 -0.4052306164579419 a23.863005307686738,23.863005307686738 0 0,0 0.061639400131840764,-0.40612663228378376 l 2.826786694115524 0.4539563611338177" fill="#ff2703" stroke="none" /><path d="M 79.54389044137918 95.25157060432595 l -0.36187981210896497 -0.08400232373584648 a21.371501532708873,21.371501532708873 0 0,0 0.08626677805473507,-0.3576314885813207 l 0.36038023379341516 0.09021904397656398" fill="#ff0300" stroke="none" /><line stroke="#e1ed5e" stroke-width="0.3" x1="26.266209847984243" x2="21.928928074336255" y1="57.711370442889674" y2="55.22380399835377" /><path d="M 25.398753493254645 57.213857153982495 a86.0,86.0 0 0,1 29.58750427330803,-30.492523968695096" fill="none" id="id23" stroke="none" /><text fill="#e1ed5e" style="font-size:6.75px; font-family:Arial;" text-anchor="middle"><textPath startOffset="21.46611528233685" xlink:href="#id23">November</textPath></text><line stroke="#e1ed5e" stroke-width="0.3" x1="56.762969772571076" x2="54.21961505331055" y1="26.818313649435495" y2="22.513508569990535" /><path d="M 56.25429882871897 25.957352633546506 a86.0,86.0 0 0,1 42.265352541879196,-11.944610805530505" fill="none" id="id24" stroke="none" /><text fill="#e1ed5e" style="font-size:6.75px; font-family:Arial;" text-anchor="middle"><textPath startOffset="22.20632615414155" xlink:href="#id24">December</textPath></text></svg>