<?xml version="1.0" encoding="utf-8" ?>
<svg baseProfile="full" height="200mm" version="1.1" viewBox="0,0,200,200" width="200mm" xmlns="http://www.w3.org/2000/svg" xmlns:ev="http://www.w3.org/2001/xml-events" xmlns:xlink="http://www.w3.org/1999/xlink"><defs /><rect fill="#1a1a1a" height="200" width="200" x="0" y="0" /><rect fill="#1a1a1a" height="200" width="180" x="10" y="0" /><text alignment-baseline="middle" fill="#e1ed5e" style="dominant-baseline: central; font-size:9.0px; font-family:Arial;" text-anchor="middle" x="100.0" y="100.0">2024</text><line stroke="#e1ed5e" stroke-width="0.3" x1="100.0" x2="100.0" y1="15.0" y2="10.0" /><path d="M 100.0 14.0 a86.0,86.0 0 0,1 42.35913384403234,11.155469271406648" fill="none" id="id1" stroke="none" /><text fill="#e1ed5e" style="font-size:6.75px; font-family:Arial;" text-anchor="middle"><textPath startOffset="22.145653131862478" xlink:href="#id1">January</textPath></text><line stroke="#e1ed5e" stroke-width="0.3" x1="143.13028292997686" x2="145.6673583964461" y1="26.7553504044142" y2="22.446841604673864" /><path d="M 143.63769802327073 25.89364864446614 a86.0,86.0 0 0,1 29.32050498858742,28.57503671076993" fill="none" id="id2" stroke="none" /><text fill="#e1ed5e" style="font-size:6.75px; font-family:Arial;" text-anchor="middle"><textPath startOffset="20.669276256404974" xlink:href="#id2">February</textPath></text><path d="M 115.41159269507618 85.73525988315684 l 8.002439435319246 -7.406938471847661 a31.90420902411952,31.90420902411952 0 0,0 0.36857306962251024,0.4051263680136437 l -8.128410205783634 7.268474528276346" fill="red" stroke="none" /><path d="M 117.62189284568427 88.57770195909679 l 7.04888132575302 -4.568999713184987 a29.400147994150707,29.400147994150707 0 0,0 0.27087659525946384,0.42586299915447223 l -7.1262756126383735 4.447323039351843" fill="red" stroke="none" /><line stroke="#e1ed5e" stroke-width="0.3" x1="172.87174338648825" x2="177.1583165268699" y1="56.24261187166439" y2="53.66864786411523" /><path d="M 173.72905801456457 55.72781907015455 a86.0,86.0 0 0,1 12.242430191666344,42.057860355516425" fill="none" id="id3" stroke="none" /><text fill="#e1ed5e" style="font-size:6.75px; font-family:Arial;" text-anchor="middle"><textPath startOffset="22.145653131862474" xlink:href="#id3">March</textPath></text><line stroke="#e1ed5e" stroke-width="0.3" x1="184.99686870605535" x2="189.99668451229388" y1="99.2704041080226" y2="99.22748670261217" /><path d="M 185.99683186730306 99.26182062694052 a86.0,86.0 0 0,1 -10.086455211305974,41.156179273409016" fill="none" id="id4" stroke="none" /><text fill="#e1ed5e" style="font-size:6.75px; font-family:Arial;" text-anchor="middle"><textPath startOffset="21.40746469413373" xlink:href="#id4">April</textPath></text><path d="M 120.43855184770803 104.8234425847677 l 7.83419605699071 1.8488489380398918 a29.04940185697422,29.04940185697422 0 0,0 -0.11870481078900313,0.4843561361351514 l -7.801303719685412 -1.9830608987831426" fill="red" stroke="none" /><line stroke="#e1ed5e" stroke-width="0.3" x1="174.33088141563837" x2="178.70328620479359" y1="141.23008692659167" y2="143.65538615756765" /><path d="M 175.20536237346943 141.71514677278685 a86.0,86.0 0 0,1 -30.301960400862466,31.631185727798858" fill="none" id="id5" stroke="none" /><text fill="#e1ed5e" style="font-size:6.75px; font-family:Arial;" text-anchor="middle"><textPath startOffset="22.145653131862474" xlink:href="#id5">May</textPath></text><path d="M 117.62189284568427 111.42229804090321 l 23.25876253165907 15.076048868624612 a48.71745450060783,48.71745450060783 0 0,0 -0.4609032193934395,0.6978662185659098 l -22.996534873344903 -15.473094965529583" fill="red" stroke="none" /><line stroke="#e1ed5e" stroke-width="0.3" x1="143.1302829299769" x2="145.66735839644613" y1="173.24464959558577" y2="177.55315839532614" /><path d="M 143.63769802327073 174.10635135553383 a86.0,86.0 0 0,1 -40.68552437913181,11.842963189579606" fill="none" id="id6" stroke="none" /><text fill="#e1ed5e" style="font-size:6.75px; font-family:Arial;" text-anchor="middle"><textPath startOffset="21.407464694133747" xlink:href="#id6">June</textPath></text><line stroke="#e1ed5e" stroke-width="0.3" x1="101.45913802915013" x2="101.54496967792366" y1="184.9874750549273" y2="189.98673829345242" /><path d="M 101.47630435890484 185.9873277026323 a86.0,86.0 0 0,1 -42.54439059252881,-10.42667462771756" fill="none" id="id7" stroke="none" /><text fill="#e1ed5e" style="font-size:6.75px; font-family:Arial;" text-anchor="middle"><textPath startOffset="22.145653131862474" xlink:href="#id7">July</textPath></text><line stroke="#e1ed5e" stroke-width="0.3" x1="58.13341422392154" x2="55.67067388415222" y1="173.97424548756322" y2="178.32567169271397" /><path d="M 57.64086615596768 174.84453072859336 a86.0,86.0 0 0,1 -31.369924170532247,-30.572349798747897" fill="none" id="id8" stroke="none" /><text fill="#e1ed5e" style="font-size:6.75px; font-family:Arial;" text-anchor="middle"><textPath startOffset="22.145653131862474" xlink:href="#id8">August</textPath></text><path d="M 83.4222238831116 112.89097897827486 l -22.399960953021065 17.418345122021766 a49.37528850050212,49.37528850050212 0 0,0 -0.5145563931379096,-0.6735708360996384 l 22.695669323513272 -17.03125337268126" fill="red" stroke="none" /><line stroke="#e1ed5e" stroke-width="0.3" x1="26.387840678322732" x2="22.057713659400548" y1="142.50000000000003" y2="145.00000000000006" /><path d="M 25.521815274538298 143.00000000000003 a86.0,86.0 0 0,1 -11.493303480769221,-40.785679425670985" fill="none" id="id9" stroke="none" /><text fill="#e1ed5e" style="font-size:6.75px; font-family:Arial;" text-anchor="middle"><textPath startOffset="21.40746469413373" xlink:href="#id9">September</textPath></text><path d="M 80.83023694016515 108.57439118712176 l -52.621521406958685 23.536937206601717 a78.64557162740711,78.64557162740711 0 0,0 -0.5406550415431071,-1.2371245406044216 l 53.017810330518756 -22.630150596221448" fill="red" stroke="none" /><path d="M 79.01933749520258 100.90099992219065 l -62.94198751439227 2.7029997665719474 a84.0,84.0 0 0,0 -0.049501252012607466,-1.4411749417435205 l 62.97911345340172 -1.6221185602643071" fill="red" stroke="none" /><line stroke="#e1ed5e" stroke-width="0.3" x1="15.003131293944662" x2="10.003315487706104" y1="100.72959589197737" y2="100.7725132973878" /><path d="M 14.003168132696942 100.73817937305945 a86.0,86.0 0 0,1 10.791469493833604,-42.45332614584628" fill="none" id="id10" stroke="none" /><text fill="#e1ed5e" style="font-size:6.75px; font-family:Arial;" text-anchor="middle"><textPath startOffset="22.145653131862435" xlink:href="#id10">October</textPath></text><path d="M 79.00077361379809 99.81974689727619 l -7.638806659664738 -0.06556996796875529 a28.639088074138023,28.639088074138023 0 0,0 0.008439759785649103,-0.49157369619795155 l 7.636555468280422 0.1966905801357592" fill="red" stroke="none" /><path d="M 79.01933749520258 99.09900007780938 l -8.99678191483755 -0.38636052619315997 a30.00507408516711,30.00507408516711 0 0,0 0.026516499202788254,-0.5144130005943623 l 8.98882382617819 0.5407453201642343" fill="red" stroke="none" /><path d="M 79.03789590574601 98.7389718711861 l -4.846187035092246 -0.29153457788713916 a25.854948113955494,25.854948113955494 0 0,0 0.030454714315336417,-0.4428048622539441 l 4.8404683596118465 0.37468286429540826" fill="red" stroke="none" /><path d="M 79.64726062577567 94.8264132398404 l -10.094075184277646 -2.5658744392694137 a31.415088356031642,31.415088356031642 0 0,0 0.13734455107298496,-0.5215196313221028 l 10.048541152399935 2.738774574964301" fill="red" stroke="none" /><path d="M 81.1358732173502 90.77261029715801 l -6.669031660541078 -3.262157574608912 a28.424126570235558,28.424126570235558 0 0,0 0.21816205654623527,-0.43647025406047235 l 6.612049690783099 3.376159684833155" fill="red" stroke="none" /><path d="M 81.29705330413844 90.45014215332179 l -6.664442589259852 -3.402911872109567 a28.48295424514174,28.48295424514174 0 0,0 0.22608945925814805,-0.4335563491401224 l 6.605045061026764 3.516814464354176" fill="red" stroke="none" /><path d="M 81.46374523516351 90.13048839642627 l -7.0482117432425 -3.752775761171411 a28.985024401416513,28.985024401416513 0 0,0 0.2376146067722091,-0.437184113369947 l 6.98275178685494 3.873214708015978" fill="red" stroke="none" /><line stroke="#e1ed5e" stroke-width="0.3" x1="26.387840678322718" x2="22.05771365940052" y1="57.49999999999999" y2="54.99999999999999" /><path d="M 25.521815274538284 56.99999999999999 a86.0,86.0 0 0,1 29.574782752854787,-30.34633250058573" fill="none" id="id11" stroke="none" /><text fill="#e1ed5e" style="font-size:6.75px; font-family:Arial;" text-anchor="middle"><textPath startOffset="21.40746469413373" xlink:href="#id11">November</textPath></text><line stroke="#e1ed5e" stroke-width="0.3" x1="56.869717070023135" x2="54.33264160355391" y1="26.7553504044142" y2="22.446841604673864" /><path d="M 56.362301976729285 25.89364864446614 a86.0,86.0 0 0,1 42.16139366436587,-11.88097634709845" fill="none" id="id12" stroke="none" /><text fill="#e1ed5e" style="font-size:6.75px; font-family:Arial;" text-anchor="middle"><textPath startOffset="22.145653131862474" xlink:href="#id12">December</textPath></text><path d="M 93.61358852112211 79.99465700312896 l -4.769977304463968 -14.941885968152246 a36.68479007734456,36.68479007734456 0 0,0 0.6015595759177137,-0.18636469433562658 l 4.512777095674638 15.021567250294515" fill="red" stroke="none" /></svg>