<?xml version="1.0" encoding="utf-8" ?>
<svg baseProfile="full" height="200mm" version="1.1" viewBox="0,0,200,200" width="200mm" xmlns="http://www.w3.org/2000/svg" xmlns:ev="http://www.w3.org/2001/xml-events" xmlns:xlink="http://www.w3.org/1999/xlink"><defs /><rect fill="#1a1a1a" height="200" width="200" x="0" y="0" /><rect fill="#1a1a1a" height="200" width="180" x="10" y="0" /><text alignment-baseline="middle" fill="#e1ed5e" style="dominant-baseline: central; font-size:9.0px; font-family:Arial;" text-anchor="middle" x="100.0" y="100.0">2026</text><line stroke="#e1ed5e" stroke-width="0.3" x1="100.0" x2="100.0" y1="15.0" y2="10.0" /><path d="M 100.0 14.0 a86.0,86.0 0 0,1 42.46469731375804,11.215312516191453" fill="none" id="id25" stroke="none" /><text fill="#e1ed5e" style="font-size:6.75px; font-family:Arial;" text-anchor="middle"><textPath startOffset="22.20632615414155" xlink:href="#id25">January</textPath></text><path d="M 100.0 79.0 l 0.0 -7.9259248731541625 a28.925924873154162,28.925924873154162 0 0,0 0.4979122469785198,0.00428568790625062 l -0.13643176770599144 7.924750561856471" fill="#ff2c04" stroke="none" /><path d="M 102.88285421437855 79.19881850522331 l 1.1135460246213174 -8.034770834198499 a29.111567487670726,29.111567487670726 0 0,0 0.49577140771122274,0.0730638181581167 l -1.2516864127611957 8.014412531879413" fill="#ff2f04" stroke="none" /><path d="M 103.95276090670814 79.375362276772 l 1.2276080688646553 -6.405389115106074 a27.52196529327326,27.52196529327326 0 0,0 0.4645099513055239,0.0931763263491478 l -1.3376844296373047 6.383308832679718" fill="#ff1702" stroke="none" /><path d="M 105.36241919743992 79.69619591428918 l 2.09219783414279 -7.921718420160793 a29.193345745512428,29.193345745512428 0 0,0 0.48475148962296116,0.1325008937075616 l -2.228247212989462 7.884530985626938" fill="#ff3004" stroke="none" /><path d="M 106.40334571778207 80.00007090966166 l 2.673513553691446 -8.350334942466272 a29.76788277596964,29.76788277596964 0 0,0 0.4866583572602118,0.16044360895712537 l -2.816854733194075 8.30307760924991" fill="#ff3905" stroke="none" /><path d="M 107.76421540070413 80.48803036053334 l 4.387999394678872 -11.02732298735652 a32.8682935148733,32.8682935148733 0 0,0 0.52388323897769,0.21370512710375275 l -4.577166503244949 10.950156974069188" fill="#ff6709" stroke="none" /><path d="M 108.76106565485865 80.91482961587045 l 2.1055644493918475 -4.586777208903097 a26.046972044172197,26.046972044172197 0 0,0 0.40586365631063775,0.1905584286753216 l -2.1842063170020833 4.549853797587772" fill="#ff0000" stroke="none" /><line stroke="#e1ed5e" stroke-width="0.3" x1="143.23703022742887" x2="145.7803849466894" y1="26.81831364943548" y2="22.513508569990506" /><path d="M 143.74570117128098 25.957352633546492 a86.0,86.0 0 0,1 28.547481713284135,27.462654790039103" fill="none" id="id26" stroke="none" /><text fill="#e1ed5e" style="font-size:6.75px; font-family:Arial;" text-anchor="middle"><textPath startOffset="19.985693538727396" xlink:href="#id26">February</textPath></text><path d="M 111.2981086023043 82.29822771554956 l 5.8400564213954755 -9.150146501406494 a31.8550191157033,31.8550191157033 0 0,0 0.4596724374442943,0.2989837399344724 l -5.9966958846240495 9.048263837312494" fill="#ff5808" stroke="none" /><line stroke="#e1ed5e" stroke-width="0.3" x1="172.23445277983987" x2="176.4835382374775" y1="55.19839476539836" y2="52.563006222186495" /><path d="M 173.08426987136738 54.67131705675599 a86.0,86.0 0 0,1 12.851231095245387,41.99856678651699" fill="none" id="id27" stroke="none" /><text fill="#e1ed5e" style="font-size:6.75px; font-family:Arial;" text-anchor="middle"><textPath startOffset="22.20632615414155" xlink:href="#id27">March</textPath></text><line stroke="#e1ed5e" stroke-width="0.3" x1="184.98032266829074" x2="189.97916517819016" y1="98.17113171792111" y2="98.06355123074" /><path d="M 185.9800911702706 98.14961562048488 a86.0,86.0 0 0,1 -9.607161424134198,41.387399972396054" fill="none" id="id28" stroke="none" /><text fill="#e1ed5e" style="font-size:6.75px; font-family:Arial;" text-anchor="middle"><textPath startOffset="21.466115282336823" xlink:href="#id28">April</textPath></text><line stroke="#e1ed5e" stroke-width="0.3" x1="174.80103733775053" x2="179.2010983576182" y1="140.37084112569926" y2="142.7455964860345" /><path d="M 175.68104954172406 140.8457921977663 a86.0,86.0 0 0,1 -30.038265399797805,32.042727171017184" fill="none" id="id29" stroke="none" /><text fill="#e1ed5e" style="font-size:6.75px; font-family:Arial;" text-anchor="middle"><textPath startOffset="22.206326154141568" xlink:href="#id29">May</textPath></text><path d="M 115.80600337817218 113.82643327865902 l 13.753678271039238 12.031144774603815 a39.27326217648982,39.27326217648982 0 0,0 -0.44947528616952237,0.5049902488662519 l -13.544544135221377 -12.266109193210934" fill="#ffc212" stroke="none" /><path d="M 113.48314897796784 116.09983520530334 l 3.874146514227709 4.626005434056049 a27.033981893378435,27.033981893378435 0 0,0 -0.3593329471820891,0.29570655226836595 l -3.7939434385009285 -4.6920071051815935" fill="#ff0f01" stroke="none" /><line stroke="#e1ed5e" stroke-width="0.3" x1="143.8653032363475" x2="146.44561519142675" y1="172.8068346515853" y2="177.08958963109032" /><path d="M 144.38136562736335 173.6633856474863 a86.0,86.0 0 0,1 -40.68145358897372,12.25698825130547" fill="none" id="id30" stroke="none" /><text fill="#e1ed5e" style="font-size:6.75px; font-family:Arial;" text-anchor="middle"><textPath startOffset="21.466115282336833" xlink:href="#id30">June</textPath></text><path d="M 108.2653958097858 119.30500536409082 l 6.912126815190325 16.144253501633976 a38.561731641108004,38.561731641108004 0 0,0 -0.6124494320718726,0.25600391227716246 l -6.633205923620991 -16.260842456931112" fill="#ffb811" stroke="none" /><path d="M 106.57524785965236 119.94407469862006 l 19.725743578957097 59.83222409586019 a84.0,84.0 0 0,0 -1.3771146196362385,0.4409086133611737 l -18.692907614229917 -60.16290555588107" fill="#4dd2ff" stroke="none" /><path d="M 104.48393922423573 120.51570834832081 l 4.477056641040244 20.48421794168051 a41.96776623413539,41.96776623413539 0 0,0 -0.7070740018272827,0.1481742318346547 l -4.123791177783583 -20.558248154241703" fill="#ffe615" stroke="none" /><path d="M 104.13013068566511 120.58985236759428 l 7.075477787250046 35.273228417519334 a56.97586731285797,56.97586731285797 0 0,0 -0.963251337330001,0.18460941135679967 l -6.467258835348341 -35.38979502722461" fill="#62ff29" stroke="none" /><line stroke="#e1ed5e" stroke-width="0.3" x1="102.19456741930631" x2="102.32365962044197" y1="184.97166512339345" y2="189.96999836594603" /><path d="M 102.22038585953345 185.97133177190398 a86.0,86.0 0 0,1 -42.740103519485714,-10.115201625700543" fill="none" id="id31" stroke="none" /><text fill="#e1ed5e" style="font-size:6.75px; font-family:Arial;" text-anchor="middle"><textPath startOffset="22.20632615414155" xlink:href="#id31">July</textPath></text><line stroke="#e1ed5e" stroke-width="0.3" x1="58.666819895761336" x2="56.23545636021788" y1="174.27360380694188" y2="178.64263932499728" /><path d="M 58.180547188652646 175.14741091055294 a86.0,86.0 0 0,1 -31.652253787137756,-30.449443065178592" fill="none" id="id32" stroke="none" /><text fill="#e1ed5e" style="font-size:6.75px; font-family:Arial;" text-anchor="middle"><textPath startOffset="22.20632615414155" xlink:href="#id32">August</textPath></text><line stroke="#e1ed5e" stroke-width="0.3" x1="26.63291911575756" x2="22.317208475507996" y1="142.92168965132927" y2="145.44649492493687" /><path d="M 25.769776987707644 143.4266507060508 a86.0,86.0 0 0,1 -11.730757126820373,-40.83630448921669" fill="none" id="id33" stroke="none" /><text fill="#e1ed5e" style="font-size:6.75px; font-family:Arial;" text-anchor="middle"><textPath startOffset="21.46611528233685" xlink:href="#id33">September</textPath></text><line stroke="#e1ed5e" stroke-width="0.3" x1="15.007084014347285" x2="10.007500721073583" y1="101.09737516637583" y2="101.16192664675087" /><path d="M 14.007167355692545 101.11028546245083 a86.0,86.0 0 0,1 10.666146001902534,-42.60595125391555" fill="none" id="id34" stroke="none" /><text fill="#e1ed5e" style="font-size:6.75px; font-family:Arial;" text-anchor="middle"><textPath startOffset="22.20632615414155" xlink:href="#id34">October</textPath></text><line stroke="#e1ed5e" stroke-width="0.3" x1="26.266209847984243" x2="21.928928074336255" y1="57.711370442889674" y2="55.22380399835377" /><path d="M 25.398753493254645 57.213857153982495 a86.0,86.0 0 0,1 29.58750427330803,-30.492523968695096" fill="none" id="id35" stroke="none" /><text fill="#e1ed5e" style="font-size:6.75px; font-family:Arial;" text-anchor="middle"><textPath startOffset="21.46611528233685" xlink:href="#id35">November</textPath></text><line stroke="#e1ed5e" stroke-width="0.3" x1="56.762969772571076" x2="54.21961505331055" y1="26.818313649435495" y2="22.513508569990535" /><path d="M 56.25429882871897 25.957352633546506 a86.0,86.0 0 0,1 42.265352541879196,-11.944610805530505" fill="none" id="id36" stroke="none" /><text fill="#e1ed5e" style="font-size:6.75px; font-family:Arial;" text-anchor="middle"><textPath startOffset="22.20632615414155" xlink:href="#id36">December</textPath></text></svg>